G04 #@! TF.FileFunction,Copper,L2,Bot,Signal*
%FSLAX46Y46*%
G04 Gerber Fmt 4.6, Leading zero omitted, Abs format (unit mm)*
G04 Created by KiCad (PCBNEW 4.0.5) date 02/28/17 22:53:05*
%MOMM*%
%LPD*%
G01*
G04 APERTURE LIST*
%ADD10C,0.100000*%
%ADD11C,0.150000*%
%ADD12C,0.300000*%
%ADD13C,0.400000*%
%ADD14C,1.524000*%
%ADD15C,1.400000*%
%ADD16O,1.400000X1.400000*%
%ADD17O,1.998980X1.998980*%
%ADD18R,1.998980X1.998980*%
%ADD19R,2.500000X2.500000*%
%ADD20C,2.500000*%
%ADD21C,2.340000*%
%ADD22R,1.600000X1.600000*%
%ADD23O,1.600000X1.600000*%
%ADD24C,1.600000*%
%ADD25C,0.254000*%
G04 APERTURE END LIST*
D10*
D11*
X177002200Y-166007200D02*
X177002200Y-198007200D01*
X285002200Y-198007200D01*
X285002200Y-166007200D01*
X177002200Y-166007200D01*
D10*
D11*
X10000000Y-10000000D02*
X10000000Y-200007200D01*
X287002200Y-200007200D01*
X287002200Y-10000000D01*
X10000000Y-10000000D01*
D10*
D11*
X12000000Y-12000000D02*
X12000000Y-198007200D01*
X285002200Y-198007200D01*
X285002200Y-12000000D01*
X12000000Y-12000000D01*
D10*
D11*
X60000000Y-12000000D02*
X60000000Y-10000000D01*
D10*
D11*
X110000000Y-12000000D02*
X110000000Y-10000000D01*
D10*
D11*
X160000000Y-12000000D02*
X160000000Y-10000000D01*
D10*
D11*
X210000000Y-12000000D02*
X210000000Y-10000000D01*
D10*
D11*
X260000000Y-12000000D02*
X260000000Y-10000000D01*
D10*
D11*
X35990476Y-11588095D02*
X35247619Y-11588095D01*
X35619048Y-11588095D02*
X35619048Y-10288095D01*
X35495238Y-10473810D01*
X35371429Y-10597619D01*
X35247619Y-10659524D01*
D10*
D11*
X85247619Y-10411905D02*
X85309524Y-10350000D01*
X85433333Y-10288095D01*
X85742857Y-10288095D01*
X85866667Y-10350000D01*
X85928571Y-10411905D01*
X85990476Y-10535714D01*
X85990476Y-10659524D01*
X85928571Y-10845238D01*
X85185714Y-11588095D01*
X85990476Y-11588095D01*
D10*
D11*
X135185714Y-10288095D02*
X135990476Y-10288095D01*
X135557143Y-10783333D01*
X135742857Y-10783333D01*
X135866667Y-10845238D01*
X135928571Y-10907143D01*
X135990476Y-11030952D01*
X135990476Y-11340476D01*
X135928571Y-11464286D01*
X135866667Y-11526190D01*
X135742857Y-11588095D01*
X135371429Y-11588095D01*
X135247619Y-11526190D01*
X135185714Y-11464286D01*
D10*
D11*
X185866667Y-10721429D02*
X185866667Y-11588095D01*
X185557143Y-10226190D02*
X185247619Y-11154762D01*
X186052381Y-11154762D01*
D10*
D11*
X235928571Y-10288095D02*
X235309524Y-10288095D01*
X235247619Y-10907143D01*
X235309524Y-10845238D01*
X235433333Y-10783333D01*
X235742857Y-10783333D01*
X235866667Y-10845238D01*
X235928571Y-10907143D01*
X235990476Y-11030952D01*
X235990476Y-11340476D01*
X235928571Y-11464286D01*
X235866667Y-11526190D01*
X235742857Y-11588095D01*
X235433333Y-11588095D01*
X235309524Y-11526190D01*
X235247619Y-11464286D01*
D10*
D11*
X285866667Y-10288095D02*
X285619048Y-10288095D01*
X285495238Y-10350000D01*
X285433333Y-10411905D01*
X285309524Y-10597619D01*
X285247619Y-10845238D01*
X285247619Y-11340476D01*
X285309524Y-11464286D01*
X285371429Y-11526190D01*
X285495238Y-11588095D01*
X285742857Y-11588095D01*
X285866667Y-11526190D01*
X285928571Y-11464286D01*
X285990476Y-11340476D01*
X285990476Y-11030952D01*
X285928571Y-10907143D01*
X285866667Y-10845238D01*
X285742857Y-10783333D01*
X285495238Y-10783333D01*
X285371429Y-10845238D01*
X285309524Y-10907143D01*
X285247619Y-11030952D01*
D10*
D11*
X60000000Y-198007200D02*
X60000000Y-200007200D01*
D10*
D11*
X110000000Y-198007200D02*
X110000000Y-200007200D01*
D10*
D11*
X160000000Y-198007200D02*
X160000000Y-200007200D01*
D10*
D11*
X210000000Y-198007200D02*
X210000000Y-200007200D01*
D10*
D11*
X260000000Y-198007200D02*
X260000000Y-200007200D01*
D10*
D11*
X35990476Y-199595295D02*
X35247619Y-199595295D01*
X35619048Y-199595295D02*
X35619048Y-198295295D01*
X35495238Y-198481010D01*
X35371429Y-198604819D01*
X35247619Y-198666724D01*
D10*
D11*
X85247619Y-198419105D02*
X85309524Y-198357200D01*
X85433333Y-198295295D01*
X85742857Y-198295295D01*
X85866667Y-198357200D01*
X85928571Y-198419105D01*
X85990476Y-198542914D01*
X85990476Y-198666724D01*
X85928571Y-198852438D01*
X85185714Y-199595295D01*
X85990476Y-199595295D01*
D10*
D11*
X135185714Y-198295295D02*
X135990476Y-198295295D01*
X135557143Y-198790533D01*
X135742857Y-198790533D01*
X135866667Y-198852438D01*
X135928571Y-198914343D01*
X135990476Y-199038152D01*
X135990476Y-199347676D01*
X135928571Y-199471486D01*
X135866667Y-199533390D01*
X135742857Y-199595295D01*
X135371429Y-199595295D01*
X135247619Y-199533390D01*
X135185714Y-199471486D01*
D10*
D11*
X185866667Y-198728629D02*
X185866667Y-199595295D01*
X185557143Y-198233390D02*
X185247619Y-199161962D01*
X186052381Y-199161962D01*
D10*
D11*
X235928571Y-198295295D02*
X235309524Y-198295295D01*
X235247619Y-198914343D01*
X235309524Y-198852438D01*
X235433333Y-198790533D01*
X235742857Y-198790533D01*
X235866667Y-198852438D01*
X235928571Y-198914343D01*
X235990476Y-199038152D01*
X235990476Y-199347676D01*
X235928571Y-199471486D01*
X235866667Y-199533390D01*
X235742857Y-199595295D01*
X235433333Y-199595295D01*
X235309524Y-199533390D01*
X235247619Y-199471486D01*
D10*
D11*
X285866667Y-198295295D02*
X285619048Y-198295295D01*
X285495238Y-198357200D01*
X285433333Y-198419105D01*
X285309524Y-198604819D01*
X285247619Y-198852438D01*
X285247619Y-199347676D01*
X285309524Y-199471486D01*
X285371429Y-199533390D01*
X285495238Y-199595295D01*
X285742857Y-199595295D01*
X285866667Y-199533390D01*
X285928571Y-199471486D01*
X285990476Y-199347676D01*
X285990476Y-199038152D01*
X285928571Y-198914343D01*
X285866667Y-198852438D01*
X285742857Y-198790533D01*
X285495238Y-198790533D01*
X285371429Y-198852438D01*
X285309524Y-198914343D01*
X285247619Y-199038152D01*
D10*
D11*
X10000000Y-60000000D02*
X12000000Y-60000000D01*
D10*
D11*
X10000000Y-110000000D02*
X12000000Y-110000000D01*
D10*
D11*
X10000000Y-160000000D02*
X12000000Y-160000000D01*
D10*
D11*
X10690476Y-35216667D02*
X11309524Y-35216667D01*
X10566667Y-35588095D02*
X11000000Y-34288095D01*
X11433333Y-35588095D01*
D10*
D11*
X11092857Y-84907143D02*
X11278571Y-84969048D01*
X11340476Y-85030952D01*
X11402381Y-85154762D01*
X11402381Y-85340476D01*
X11340476Y-85464286D01*
X11278571Y-85526190D01*
X11154762Y-85588095D01*
X10659524Y-85588095D01*
X10659524Y-84288095D01*
X11092857Y-84288095D01*
X11216667Y-84350000D01*
X11278571Y-84411905D01*
X11340476Y-84535714D01*
X11340476Y-84659524D01*
X11278571Y-84783333D01*
X11216667Y-84845238D01*
X11092857Y-84907143D01*
X10659524Y-84907143D01*
D10*
D11*
X11402381Y-135464286D02*
X11340476Y-135526190D01*
X11154762Y-135588095D01*
X11030952Y-135588095D01*
X10845238Y-135526190D01*
X10721429Y-135402381D01*
X10659524Y-135278571D01*
X10597619Y-135030952D01*
X10597619Y-134845238D01*
X10659524Y-134597619D01*
X10721429Y-134473810D01*
X10845238Y-134350000D01*
X11030952Y-134288095D01*
X11154762Y-134288095D01*
X11340476Y-134350000D01*
X11402381Y-134411905D01*
D10*
D11*
X10659524Y-185588095D02*
X10659524Y-184288095D01*
X10969048Y-184288095D01*
X11154762Y-184350000D01*
X11278571Y-184473810D01*
X11340476Y-184597619D01*
X11402381Y-184845238D01*
X11402381Y-185030952D01*
X11340476Y-185278571D01*
X11278571Y-185402381D01*
X11154762Y-185526190D01*
X10969048Y-185588095D01*
X10659524Y-185588095D01*
D10*
D11*
X287002200Y-60000000D02*
X285002200Y-60000000D01*
D10*
D11*
X287002200Y-110000000D02*
X285002200Y-110000000D01*
D10*
D11*
X287002200Y-160000000D02*
X285002200Y-160000000D01*
D10*
D11*
X285692676Y-35216667D02*
X286311724Y-35216667D01*
X285568867Y-35588095D02*
X286002200Y-34288095D01*
X286435533Y-35588095D01*
D10*
D11*
X286095057Y-84907143D02*
X286280771Y-84969048D01*
X286342676Y-85030952D01*
X286404581Y-85154762D01*
X286404581Y-85340476D01*
X286342676Y-85464286D01*
X286280771Y-85526190D01*
X286156962Y-85588095D01*
X285661724Y-85588095D01*
X285661724Y-84288095D01*
X286095057Y-84288095D01*
X286218867Y-84350000D01*
X286280771Y-84411905D01*
X286342676Y-84535714D01*
X286342676Y-84659524D01*
X286280771Y-84783333D01*
X286218867Y-84845238D01*
X286095057Y-84907143D01*
X285661724Y-84907143D01*
D10*
D11*
X286404581Y-135464286D02*
X286342676Y-135526190D01*
X286156962Y-135588095D01*
X286033152Y-135588095D01*
X285847438Y-135526190D01*
X285723629Y-135402381D01*
X285661724Y-135278571D01*
X285599819Y-135030952D01*
X285599819Y-134845238D01*
X285661724Y-134597619D01*
X285723629Y-134473810D01*
X285847438Y-134350000D01*
X286033152Y-134288095D01*
X286156962Y-134288095D01*
X286342676Y-134350000D01*
X286404581Y-134411905D01*
D10*
D11*
X285661724Y-185588095D02*
X285661724Y-184288095D01*
X285971248Y-184288095D01*
X286156962Y-184350000D01*
X286280771Y-184473810D01*
X286342676Y-184597619D01*
X286404581Y-184845238D01*
X286404581Y-185030952D01*
X286342676Y-185278571D01*
X286280771Y-185402381D01*
X286156962Y-185526190D01*
X285971248Y-185588095D01*
X285661724Y-185588095D01*
D10*
D11*
X200359343Y-193785771D02*
X200359343Y-192285771D01*
X200716486Y-192285771D01*
X200930771Y-192357200D01*
X201073629Y-192500057D01*
X201145057Y-192642914D01*
X201216486Y-192928629D01*
X201216486Y-193142914D01*
X201145057Y-193428629D01*
X201073629Y-193571486D01*
X200930771Y-193714343D01*
X200716486Y-193785771D01*
X200359343Y-193785771D01*
X202502200Y-193785771D02*
X202502200Y-193000057D01*
X202430771Y-192857200D01*
X202287914Y-192785771D01*
X202002200Y-192785771D01*
X201859343Y-192857200D01*
X202502200Y-193714343D02*
X202359343Y-193785771D01*
X202002200Y-193785771D01*
X201859343Y-193714343D01*
X201787914Y-193571486D01*
X201787914Y-193428629D01*
X201859343Y-193285771D01*
X202002200Y-193214343D01*
X202359343Y-193214343D01*
X202502200Y-193142914D01*
X203002200Y-192785771D02*
X203573629Y-192785771D01*
X203216486Y-192285771D02*
X203216486Y-193571486D01*
X203287914Y-193714343D01*
X203430772Y-193785771D01*
X203573629Y-193785771D01*
X204645057Y-193714343D02*
X204502200Y-193785771D01*
X204216486Y-193785771D01*
X204073629Y-193714343D01*
X204002200Y-193571486D01*
X204002200Y-193000057D01*
X204073629Y-192857200D01*
X204216486Y-192785771D01*
X204502200Y-192785771D01*
X204645057Y-192857200D01*
X204716486Y-193000057D01*
X204716486Y-193142914D01*
X204002200Y-193285771D01*
X205359343Y-193642914D02*
X205430771Y-193714343D01*
X205359343Y-193785771D01*
X205287914Y-193714343D01*
X205359343Y-193642914D01*
X205359343Y-193785771D01*
X205359343Y-192857200D02*
X205430771Y-192928629D01*
X205359343Y-193000057D01*
X205287914Y-192928629D01*
X205359343Y-192857200D01*
X205359343Y-193000057D01*
D10*
D11*
X177002200Y-194507200D02*
X285002200Y-194507200D01*
D10*
D11*
X178359343Y-196585771D02*
X178359343Y-195085771D01*
X179216486Y-196585771D02*
X178573629Y-195728629D01*
X179216486Y-195085771D02*
X178359343Y-195942914D01*
X179859343Y-196585771D02*
X179859343Y-195585771D01*
X179859343Y-195085771D02*
X179787914Y-195157200D01*
X179859343Y-195228629D01*
X179930771Y-195157200D01*
X179859343Y-195085771D01*
X179859343Y-195228629D01*
X181430772Y-196442914D02*
X181359343Y-196514343D01*
X181145057Y-196585771D01*
X181002200Y-196585771D01*
X180787915Y-196514343D01*
X180645057Y-196371486D01*
X180573629Y-196228629D01*
X180502200Y-195942914D01*
X180502200Y-195728629D01*
X180573629Y-195442914D01*
X180645057Y-195300057D01*
X180787915Y-195157200D01*
X181002200Y-195085771D01*
X181145057Y-195085771D01*
X181359343Y-195157200D01*
X181430772Y-195228629D01*
X182716486Y-196585771D02*
X182716486Y-195800057D01*
X182645057Y-195657200D01*
X182502200Y-195585771D01*
X182216486Y-195585771D01*
X182073629Y-195657200D01*
X182716486Y-196514343D02*
X182573629Y-196585771D01*
X182216486Y-196585771D01*
X182073629Y-196514343D01*
X182002200Y-196371486D01*
X182002200Y-196228629D01*
X182073629Y-196085771D01*
X182216486Y-196014343D01*
X182573629Y-196014343D01*
X182716486Y-195942914D01*
X184073629Y-196585771D02*
X184073629Y-195085771D01*
X184073629Y-196514343D02*
X183930772Y-196585771D01*
X183645058Y-196585771D01*
X183502200Y-196514343D01*
X183430772Y-196442914D01*
X183359343Y-196300057D01*
X183359343Y-195871486D01*
X183430772Y-195728629D01*
X183502200Y-195657200D01*
X183645058Y-195585771D01*
X183930772Y-195585771D01*
X184073629Y-195657200D01*
X185930772Y-195800057D02*
X186430772Y-195800057D01*
X186645058Y-196585771D02*
X185930772Y-196585771D01*
X185930772Y-195085771D01*
X186645058Y-195085771D01*
X187287915Y-196442914D02*
X187359343Y-196514343D01*
X187287915Y-196585771D01*
X187216486Y-196514343D01*
X187287915Y-196442914D01*
X187287915Y-196585771D01*
X188002201Y-196585771D02*
X188002201Y-195085771D01*
X188359344Y-195085771D01*
X188573629Y-195157200D01*
X188716487Y-195300057D01*
X188787915Y-195442914D01*
X188859344Y-195728629D01*
X188859344Y-195942914D01*
X188787915Y-196228629D01*
X188716487Y-196371486D01*
X188573629Y-196514343D01*
X188359344Y-196585771D01*
X188002201Y-196585771D01*
X189502201Y-196442914D02*
X189573629Y-196514343D01*
X189502201Y-196585771D01*
X189430772Y-196514343D01*
X189502201Y-196442914D01*
X189502201Y-196585771D01*
X190145058Y-196157200D02*
X190859344Y-196157200D01*
X190002201Y-196585771D02*
X190502201Y-195085771D01*
X191002201Y-196585771D01*
X191502201Y-196442914D02*
X191573629Y-196514343D01*
X191502201Y-196585771D01*
X191430772Y-196514343D01*
X191502201Y-196442914D01*
X191502201Y-196585771D01*
X194502201Y-196585771D02*
X194502201Y-195085771D01*
X194645058Y-196014343D02*
X195073629Y-196585771D01*
X195073629Y-195585771D02*
X194502201Y-196157200D01*
X195716487Y-196585771D02*
X195716487Y-195585771D01*
X195716487Y-195085771D02*
X195645058Y-195157200D01*
X195716487Y-195228629D01*
X195787915Y-195157200D01*
X195716487Y-195085771D01*
X195716487Y-195228629D01*
X197073630Y-196514343D02*
X196930773Y-196585771D01*
X196645059Y-196585771D01*
X196502201Y-196514343D01*
X196430773Y-196442914D01*
X196359344Y-196300057D01*
X196359344Y-195871486D01*
X196430773Y-195728629D01*
X196502201Y-195657200D01*
X196645059Y-195585771D01*
X196930773Y-195585771D01*
X197073630Y-195657200D01*
X198359344Y-196585771D02*
X198359344Y-195800057D01*
X198287915Y-195657200D01*
X198145058Y-195585771D01*
X197859344Y-195585771D01*
X197716487Y-195657200D01*
X198359344Y-196514343D02*
X198216487Y-196585771D01*
X197859344Y-196585771D01*
X197716487Y-196514343D01*
X197645058Y-196371486D01*
X197645058Y-196228629D01*
X197716487Y-196085771D01*
X197859344Y-196014343D01*
X198216487Y-196014343D01*
X198359344Y-195942914D01*
X199716487Y-196585771D02*
X199716487Y-195085771D01*
X199716487Y-196514343D02*
X199573630Y-196585771D01*
X199287916Y-196585771D01*
X199145058Y-196514343D01*
X199073630Y-196442914D01*
X199002201Y-196300057D01*
X199002201Y-195871486D01*
X199073630Y-195728629D01*
X199145058Y-195657200D01*
X199287916Y-195585771D01*
X199573630Y-195585771D01*
X199716487Y-195657200D01*
X202216487Y-195585771D02*
X202216487Y-196585771D01*
X201859344Y-195014343D02*
X201502201Y-196085771D01*
X202430773Y-196085771D01*
X203002201Y-196442914D02*
X203073629Y-196514343D01*
X203002201Y-196585771D01*
X202930772Y-196514343D01*
X203002201Y-196442914D01*
X203002201Y-196585771D01*
X204002201Y-195085771D02*
X204145058Y-195085771D01*
X204287915Y-195157200D01*
X204359344Y-195228629D01*
X204430773Y-195371486D01*
X204502201Y-195657200D01*
X204502201Y-196014343D01*
X204430773Y-196300057D01*
X204359344Y-196442914D01*
X204287915Y-196514343D01*
X204145058Y-196585771D01*
X204002201Y-196585771D01*
X203859344Y-196514343D01*
X203787915Y-196442914D01*
X203716487Y-196300057D01*
X203645058Y-196014343D01*
X203645058Y-195657200D01*
X203716487Y-195371486D01*
X203787915Y-195228629D01*
X203859344Y-195157200D01*
X204002201Y-195085771D01*
X205145058Y-196442914D02*
X205216486Y-196514343D01*
X205145058Y-196585771D01*
X205073629Y-196514343D01*
X205145058Y-196442914D01*
X205145058Y-196585771D01*
X206573630Y-195085771D02*
X205859344Y-195085771D01*
X205787915Y-195800057D01*
X205859344Y-195728629D01*
X206002201Y-195657200D01*
X206359344Y-195657200D01*
X206502201Y-195728629D01*
X206573630Y-195800057D01*
X206645058Y-195942914D01*
X206645058Y-196300057D01*
X206573630Y-196442914D01*
X206502201Y-196514343D01*
X206359344Y-196585771D01*
X206002201Y-196585771D01*
X205859344Y-196514343D01*
X205787915Y-196442914D01*
D10*
D11*
X177002200Y-191507200D02*
X285002200Y-191507200D01*
D10*
D12*
X264216486Y-193785771D02*
X263716486Y-193071486D01*
X263359343Y-193785771D02*
X263359343Y-192285771D01*
X263930771Y-192285771D01*
X264073629Y-192357200D01*
X264145057Y-192428629D01*
X264216486Y-192571486D01*
X264216486Y-192785771D01*
X264145057Y-192928629D01*
X264073629Y-193000057D01*
X263930771Y-193071486D01*
X263359343Y-193071486D01*
X265430771Y-193714343D02*
X265287914Y-193785771D01*
X265002200Y-193785771D01*
X264859343Y-193714343D01*
X264787914Y-193571486D01*
X264787914Y-193000057D01*
X264859343Y-192857200D01*
X265002200Y-192785771D01*
X265287914Y-192785771D01*
X265430771Y-192857200D01*
X265502200Y-193000057D01*
X265502200Y-193142914D01*
X264787914Y-193285771D01*
X266002200Y-192785771D02*
X266359343Y-193785771D01*
X266716485Y-192785771D01*
X267287914Y-193642914D02*
X267359342Y-193714343D01*
X267287914Y-193785771D01*
X267216485Y-193714343D01*
X267287914Y-193642914D01*
X267287914Y-193785771D01*
X267287914Y-192857200D02*
X267359342Y-192928629D01*
X267287914Y-193000057D01*
X267216485Y-192928629D01*
X267287914Y-192857200D01*
X267287914Y-193000057D01*
D10*
D11*
X178287914Y-193714343D02*
X178502200Y-193785771D01*
X178859343Y-193785771D01*
X179002200Y-193714343D01*
X179073629Y-193642914D01*
X179145057Y-193500057D01*
X179145057Y-193357200D01*
X179073629Y-193214343D01*
X179002200Y-193142914D01*
X178859343Y-193071486D01*
X178573629Y-193000057D01*
X178430771Y-192928629D01*
X178359343Y-192857200D01*
X178287914Y-192714343D01*
X178287914Y-192571486D01*
X178359343Y-192428629D01*
X178430771Y-192357200D01*
X178573629Y-192285771D01*
X178930771Y-192285771D01*
X179145057Y-192357200D01*
X179787914Y-193785771D02*
X179787914Y-192785771D01*
X179787914Y-192285771D02*
X179716485Y-192357200D01*
X179787914Y-192428629D01*
X179859342Y-192357200D01*
X179787914Y-192285771D01*
X179787914Y-192428629D01*
X180359343Y-192785771D02*
X181145057Y-192785771D01*
X180359343Y-193785771D01*
X181145057Y-193785771D01*
X182287914Y-193714343D02*
X182145057Y-193785771D01*
X181859343Y-193785771D01*
X181716486Y-193714343D01*
X181645057Y-193571486D01*
X181645057Y-193000057D01*
X181716486Y-192857200D01*
X181859343Y-192785771D01*
X182145057Y-192785771D01*
X182287914Y-192857200D01*
X182359343Y-193000057D01*
X182359343Y-193142914D01*
X181645057Y-193285771D01*
X183002200Y-193642914D02*
X183073628Y-193714343D01*
X183002200Y-193785771D01*
X182930771Y-193714343D01*
X183002200Y-193642914D01*
X183002200Y-193785771D01*
X183002200Y-192857200D02*
X183073628Y-192928629D01*
X183002200Y-193000057D01*
X182930771Y-192928629D01*
X183002200Y-192857200D01*
X183002200Y-193000057D01*
X184787914Y-193357200D02*
X185502200Y-193357200D01*
X184645057Y-193785771D02*
X185145057Y-192285771D01*
X185645057Y-193785771D01*
X186787914Y-192785771D02*
X186787914Y-193785771D01*
X186430771Y-192214343D02*
X186073628Y-193285771D01*
X187002200Y-193285771D01*
D10*
D11*
X263359343Y-196585771D02*
X263359343Y-195085771D01*
X264716486Y-196585771D02*
X264716486Y-195085771D01*
X264716486Y-196514343D02*
X264573629Y-196585771D01*
X264287915Y-196585771D01*
X264145057Y-196514343D01*
X264073629Y-196442914D01*
X264002200Y-196300057D01*
X264002200Y-195871486D01*
X264073629Y-195728629D01*
X264145057Y-195657200D01*
X264287915Y-195585771D01*
X264573629Y-195585771D01*
X264716486Y-195657200D01*
X265430772Y-196442914D02*
X265502200Y-196514343D01*
X265430772Y-196585771D01*
X265359343Y-196514343D01*
X265430772Y-196442914D01*
X265430772Y-196585771D01*
X265430772Y-195657200D02*
X265502200Y-195728629D01*
X265430772Y-195800057D01*
X265359343Y-195728629D01*
X265430772Y-195657200D01*
X265430772Y-195800057D01*
X268073629Y-196585771D02*
X267216486Y-196585771D01*
X267645058Y-196585771D02*
X267645058Y-195085771D01*
X267502201Y-195300057D01*
X267359343Y-195442914D01*
X267216486Y-195514343D01*
X269787914Y-195014343D02*
X268502200Y-196942914D01*
X271073629Y-196585771D02*
X270216486Y-196585771D01*
X270645058Y-196585771D02*
X270645058Y-195085771D01*
X270502201Y-195300057D01*
X270359343Y-195442914D01*
X270216486Y-195514343D01*
D10*
D11*
X177002200Y-187507200D02*
X285002200Y-187507200D01*
D10*
D13*
X178454581Y-188211962D02*
X179597438Y-188211962D01*
X178776010Y-190211962D02*
X179026010Y-188211962D01*
X180014105Y-190211962D02*
X180180771Y-188878629D01*
X180264105Y-188211962D02*
X180156962Y-188307200D01*
X180240295Y-188402438D01*
X180347439Y-188307200D01*
X180264105Y-188211962D01*
X180240295Y-188402438D01*
X180847438Y-188878629D02*
X181609343Y-188878629D01*
X181216486Y-188211962D02*
X181002200Y-189926248D01*
X181073630Y-190116724D01*
X181252201Y-190211962D01*
X181442677Y-190211962D01*
X182395058Y-190211962D02*
X182216487Y-190116724D01*
X182145057Y-189926248D01*
X182359343Y-188211962D01*
X183930772Y-190116724D02*
X183728391Y-190211962D01*
X183347439Y-190211962D01*
X183168867Y-190116724D01*
X183097438Y-189926248D01*
X183192676Y-189164343D01*
X183311724Y-188973867D01*
X183514105Y-188878629D01*
X183895057Y-188878629D01*
X184073629Y-188973867D01*
X184145057Y-189164343D01*
X184121248Y-189354819D01*
X183145057Y-189545295D01*
X184895057Y-190021486D02*
X184978392Y-190116724D01*
X184871248Y-190211962D01*
X184787915Y-190116724D01*
X184895057Y-190021486D01*
X184871248Y-190211962D01*
X185026010Y-188973867D02*
X185109344Y-189069105D01*
X185002200Y-189164343D01*
X184918867Y-189069105D01*
X185026010Y-188973867D01*
X185002200Y-189164343D01*
D10*
D11*
X178859343Y-185600057D02*
X178359343Y-185600057D01*
X178359343Y-186385771D02*
X178359343Y-184885771D01*
X179073629Y-184885771D01*
X179645057Y-186385771D02*
X179645057Y-185385771D01*
X179645057Y-184885771D02*
X179573628Y-184957200D01*
X179645057Y-185028629D01*
X179716485Y-184957200D01*
X179645057Y-184885771D01*
X179645057Y-185028629D01*
X180573629Y-186385771D02*
X180430771Y-186314343D01*
X180359343Y-186171486D01*
X180359343Y-184885771D01*
X181716485Y-186314343D02*
X181573628Y-186385771D01*
X181287914Y-186385771D01*
X181145057Y-186314343D01*
X181073628Y-186171486D01*
X181073628Y-185600057D01*
X181145057Y-185457200D01*
X181287914Y-185385771D01*
X181573628Y-185385771D01*
X181716485Y-185457200D01*
X181787914Y-185600057D01*
X181787914Y-185742914D01*
X181073628Y-185885771D01*
X182430771Y-186242914D02*
X182502199Y-186314343D01*
X182430771Y-186385771D01*
X182359342Y-186314343D01*
X182430771Y-186242914D01*
X182430771Y-186385771D01*
X182430771Y-185457200D02*
X182502199Y-185528629D01*
X182430771Y-185600057D01*
X182359342Y-185528629D01*
X182430771Y-185457200D01*
X182430771Y-185600057D01*
X185073628Y-184957200D02*
X184930771Y-184885771D01*
X184716485Y-184885771D01*
X184502200Y-184957200D01*
X184359342Y-185100057D01*
X184287914Y-185242914D01*
X184216485Y-185528629D01*
X184216485Y-185742914D01*
X184287914Y-186028629D01*
X184359342Y-186171486D01*
X184502200Y-186314343D01*
X184716485Y-186385771D01*
X184859342Y-186385771D01*
X185073628Y-186314343D01*
X185145057Y-186242914D01*
X185145057Y-185742914D01*
X184859342Y-185742914D01*
X186430771Y-186385771D02*
X186430771Y-185600057D01*
X186359342Y-185457200D01*
X186216485Y-185385771D01*
X185930771Y-185385771D01*
X185787914Y-185457200D01*
X186430771Y-186314343D02*
X186287914Y-186385771D01*
X185930771Y-186385771D01*
X185787914Y-186314343D01*
X185716485Y-186171486D01*
X185716485Y-186028629D01*
X185787914Y-185885771D01*
X185930771Y-185814343D01*
X186287914Y-185814343D01*
X186430771Y-185742914D01*
X187073628Y-186314343D02*
X187216485Y-186385771D01*
X187502200Y-186385771D01*
X187645057Y-186314343D01*
X187716485Y-186171486D01*
X187716485Y-186100057D01*
X187645057Y-185957200D01*
X187502200Y-185885771D01*
X187287914Y-185885771D01*
X187145057Y-185814343D01*
X187073628Y-185671486D01*
X187073628Y-185600057D01*
X187145057Y-185457200D01*
X187287914Y-185385771D01*
X187502200Y-185385771D01*
X187645057Y-185457200D01*
X188359343Y-186385771D02*
X188359343Y-184885771D01*
X188930771Y-184885771D01*
X189073629Y-184957200D01*
X189145057Y-185028629D01*
X189216486Y-185171486D01*
X189216486Y-185385771D01*
X189145057Y-185528629D01*
X189073629Y-185600057D01*
X188930771Y-185671486D01*
X188359343Y-185671486D01*
X190716486Y-186242914D02*
X190645057Y-186314343D01*
X190430771Y-186385771D01*
X190287914Y-186385771D01*
X190073629Y-186314343D01*
X189930771Y-186171486D01*
X189859343Y-186028629D01*
X189787914Y-185742914D01*
X189787914Y-185528629D01*
X189859343Y-185242914D01*
X189930771Y-185100057D01*
X190073629Y-184957200D01*
X190287914Y-184885771D01*
X190430771Y-184885771D01*
X190645057Y-184957200D01*
X190716486Y-185028629D01*
X191859343Y-185600057D02*
X192073629Y-185671486D01*
X192145057Y-185742914D01*
X192216486Y-185885771D01*
X192216486Y-186100057D01*
X192145057Y-186242914D01*
X192073629Y-186314343D01*
X191930771Y-186385771D01*
X191359343Y-186385771D01*
X191359343Y-184885771D01*
X191859343Y-184885771D01*
X192002200Y-184957200D01*
X192073629Y-185028629D01*
X192145057Y-185171486D01*
X192145057Y-185314343D01*
X192073629Y-185457200D01*
X192002200Y-185528629D01*
X191859343Y-185600057D01*
X191359343Y-185600057D01*
X192859343Y-186242914D02*
X192930771Y-186314343D01*
X192859343Y-186385771D01*
X192787914Y-186314343D01*
X192859343Y-186242914D01*
X192859343Y-186385771D01*
X193573629Y-186385771D02*
X193573629Y-184885771D01*
X193716486Y-185814343D02*
X194145057Y-186385771D01*
X194145057Y-185385771D02*
X193573629Y-185957200D01*
X194787915Y-186385771D02*
X194787915Y-185385771D01*
X194787915Y-184885771D02*
X194716486Y-184957200D01*
X194787915Y-185028629D01*
X194859343Y-184957200D01*
X194787915Y-184885771D01*
X194787915Y-185028629D01*
X196145058Y-186314343D02*
X196002201Y-186385771D01*
X195716487Y-186385771D01*
X195573629Y-186314343D01*
X195502201Y-186242914D01*
X195430772Y-186100057D01*
X195430772Y-185671486D01*
X195502201Y-185528629D01*
X195573629Y-185457200D01*
X195716487Y-185385771D01*
X196002201Y-185385771D01*
X196145058Y-185457200D01*
X197430772Y-186385771D02*
X197430772Y-185600057D01*
X197359343Y-185457200D01*
X197216486Y-185385771D01*
X196930772Y-185385771D01*
X196787915Y-185457200D01*
X197430772Y-186314343D02*
X197287915Y-186385771D01*
X196930772Y-186385771D01*
X196787915Y-186314343D01*
X196716486Y-186171486D01*
X196716486Y-186028629D01*
X196787915Y-185885771D01*
X196930772Y-185814343D01*
X197287915Y-185814343D01*
X197430772Y-185742914D01*
X198787915Y-186385771D02*
X198787915Y-184885771D01*
X198787915Y-186314343D02*
X198645058Y-186385771D01*
X198359344Y-186385771D01*
X198216486Y-186314343D01*
X198145058Y-186242914D01*
X198073629Y-186100057D01*
X198073629Y-185671486D01*
X198145058Y-185528629D01*
X198216486Y-185457200D01*
X198359344Y-185385771D01*
X198645058Y-185385771D01*
X198787915Y-185457200D01*
X199145058Y-186528629D02*
X200287915Y-186528629D01*
X200645058Y-185385771D02*
X200645058Y-186885771D01*
X200645058Y-185457200D02*
X200787915Y-185385771D01*
X201073629Y-185385771D01*
X201216486Y-185457200D01*
X201287915Y-185528629D01*
X201359344Y-185671486D01*
X201359344Y-186100057D01*
X201287915Y-186242914D01*
X201216486Y-186314343D01*
X201073629Y-186385771D01*
X200787915Y-186385771D01*
X200645058Y-186314343D01*
X202645058Y-186314343D02*
X202502201Y-186385771D01*
X202216487Y-186385771D01*
X202073629Y-186314343D01*
X202002201Y-186242914D01*
X201930772Y-186100057D01*
X201930772Y-185671486D01*
X202002201Y-185528629D01*
X202073629Y-185457200D01*
X202216487Y-185385771D01*
X202502201Y-185385771D01*
X202645058Y-185457200D01*
X203287915Y-186385771D02*
X203287915Y-184885771D01*
X203287915Y-185457200D02*
X203430772Y-185385771D01*
X203716486Y-185385771D01*
X203859343Y-185457200D01*
X203930772Y-185528629D01*
X204002201Y-185671486D01*
X204002201Y-186100057D01*
X203930772Y-186242914D01*
X203859343Y-186314343D01*
X203716486Y-186385771D01*
X203430772Y-186385771D01*
X203287915Y-186314343D01*
D10*
D11*
X177002200Y-181507200D02*
X285002200Y-181507200D01*
D10*
D11*
X178287914Y-183614343D02*
X178502200Y-183685771D01*
X178859343Y-183685771D01*
X179002200Y-183614343D01*
X179073629Y-183542914D01*
X179145057Y-183400057D01*
X179145057Y-183257200D01*
X179073629Y-183114343D01*
X179002200Y-183042914D01*
X178859343Y-182971486D01*
X178573629Y-182900057D01*
X178430771Y-182828629D01*
X178359343Y-182757200D01*
X178287914Y-182614343D01*
X178287914Y-182471486D01*
X178359343Y-182328629D01*
X178430771Y-182257200D01*
X178573629Y-182185771D01*
X178930771Y-182185771D01*
X179145057Y-182257200D01*
X179787914Y-183685771D02*
X179787914Y-182185771D01*
X180430771Y-183685771D02*
X180430771Y-182900057D01*
X180359342Y-182757200D01*
X180216485Y-182685771D01*
X180002200Y-182685771D01*
X179859342Y-182757200D01*
X179787914Y-182828629D01*
X181716485Y-183614343D02*
X181573628Y-183685771D01*
X181287914Y-183685771D01*
X181145057Y-183614343D01*
X181073628Y-183471486D01*
X181073628Y-182900057D01*
X181145057Y-182757200D01*
X181287914Y-182685771D01*
X181573628Y-182685771D01*
X181716485Y-182757200D01*
X181787914Y-182900057D01*
X181787914Y-183042914D01*
X181073628Y-183185771D01*
X183002199Y-183614343D02*
X182859342Y-183685771D01*
X182573628Y-183685771D01*
X182430771Y-183614343D01*
X182359342Y-183471486D01*
X182359342Y-182900057D01*
X182430771Y-182757200D01*
X182573628Y-182685771D01*
X182859342Y-182685771D01*
X183002199Y-182757200D01*
X183073628Y-182900057D01*
X183073628Y-183042914D01*
X182359342Y-183185771D01*
X183502199Y-182685771D02*
X184073628Y-182685771D01*
X183716485Y-182185771D02*
X183716485Y-183471486D01*
X183787913Y-183614343D01*
X183930771Y-183685771D01*
X184073628Y-183685771D01*
X184573628Y-183542914D02*
X184645056Y-183614343D01*
X184573628Y-183685771D01*
X184502199Y-183614343D01*
X184573628Y-183542914D01*
X184573628Y-183685771D01*
X184573628Y-182757200D02*
X184645056Y-182828629D01*
X184573628Y-182900057D01*
X184502199Y-182828629D01*
X184573628Y-182757200D01*
X184573628Y-182900057D01*
D10*
D11*
X197002200Y-191507200D02*
X197002200Y-194507200D01*
D10*
D11*
X261002200Y-191507200D02*
X261002200Y-198007200D01*
D14*
X71390000Y-68660000D03*
X71390000Y-70660000D03*
X79280000Y-78560000D03*
X81280000Y-78550000D03*
X79280000Y-60770000D03*
X81280000Y-60770000D03*
D15*
X69850000Y-88900000D03*
D16*
X69850000Y-81280000D03*
D17*
X50800000Y-71120000D03*
D18*
X50800000Y-63500000D03*
D17*
X50800000Y-66040000D03*
X50800000Y-68580000D03*
X50800000Y-73660000D03*
X50800000Y-76200000D03*
X50800000Y-78740000D03*
X50800000Y-81280000D03*
X50800000Y-83820000D03*
X50800000Y-86360000D03*
D14*
X142510000Y-68660000D03*
X142510000Y-70660000D03*
X150400000Y-78560000D03*
X152400000Y-78550000D03*
X150400000Y-60770000D03*
X152400000Y-60770000D03*
D19*
X52070000Y-52070000D03*
D20*
X52070000Y-57070000D03*
D15*
X67310000Y-67310000D03*
D16*
X67310000Y-59690000D03*
D15*
X67310000Y-77470000D03*
D16*
X67310000Y-69850000D03*
D15*
X92710000Y-82550000D03*
D16*
X85090000Y-82550000D03*
D15*
X129540000Y-77470000D03*
D16*
X129540000Y-85090000D03*
D15*
X129540000Y-66040000D03*
D16*
X129540000Y-73660000D03*
D15*
X128270000Y-53340000D03*
D16*
X128270000Y-60960000D03*
D15*
X105410000Y-59690000D03*
D16*
X113030000Y-59690000D03*
D15*
X135890000Y-66040000D03*
D16*
X135890000Y-58420000D03*
D15*
X135890000Y-77470000D03*
D16*
X135890000Y-69850000D03*
D15*
X138430000Y-87630000D03*
D16*
X138430000Y-80010000D03*
D21*
X79930000Y-87630000D03*
X77430000Y-85130000D03*
X74930000Y-87630000D03*
X96600000Y-83820000D03*
X99100000Y-86320000D03*
X101600000Y-83820000D03*
D14*
X125460000Y-73580000D03*
X125460000Y-71580000D03*
X117570000Y-63680000D03*
X115570000Y-63690000D03*
X117570000Y-81470000D03*
X115570000Y-81470000D03*
D22*
X95250000Y-60960000D03*
D23*
X102870000Y-76200000D03*
X95250000Y-63500000D03*
X102870000Y-73660000D03*
X95250000Y-66040000D03*
X102870000Y-71120000D03*
X95250000Y-68580000D03*
X102870000Y-68580000D03*
X95250000Y-71120000D03*
X102870000Y-66040000D03*
X95250000Y-73660000D03*
X102870000Y-63500000D03*
X95250000Y-76200000D03*
X102870000Y-60960000D03*
D14*
X197850000Y-73580000D03*
X197850000Y-71580000D03*
X189960000Y-63680000D03*
X187960000Y-63690000D03*
X189960000Y-81470000D03*
X187960000Y-81470000D03*
D22*
X166370000Y-60960000D03*
D23*
X173990000Y-76200000D03*
X166370000Y-63500000D03*
X173990000Y-73660000D03*
X166370000Y-66040000D03*
X173990000Y-71120000D03*
X166370000Y-68580000D03*
X173990000Y-68580000D03*
X166370000Y-71120000D03*
X173990000Y-66040000D03*
X166370000Y-73660000D03*
X173990000Y-63500000D03*
X166370000Y-76200000D03*
X173990000Y-60960000D03*
D15*
X161290000Y-82550000D03*
D16*
X153670000Y-82550000D03*
D15*
X203200000Y-78740000D03*
D16*
X203200000Y-86360000D03*
D15*
X203200000Y-67310000D03*
D16*
X203200000Y-74930000D03*
D15*
X203200000Y-55880000D03*
D16*
X203200000Y-63500000D03*
D15*
X179070000Y-59690000D03*
D16*
X186690000Y-59690000D03*
D21*
X118190000Y-54610000D03*
X120690000Y-57110000D03*
X123190000Y-54610000D03*
X104060000Y-55880000D03*
X101560000Y-53380000D03*
X99060000Y-55880000D03*
X148510000Y-86360000D03*
X146010000Y-83860000D03*
X143510000Y-86360000D03*
X166450000Y-82550000D03*
X168950000Y-85050000D03*
X171450000Y-82550000D03*
X191850000Y-54610000D03*
X194350000Y-57110000D03*
X196850000Y-54610000D03*
X173910000Y-55880000D03*
X171410000Y-53380000D03*
X168910000Y-55880000D03*
D24*
X87630000Y-55880000D03*
X92630000Y-55880000D03*
X91440000Y-87630000D03*
X86440000Y-87630000D03*
X107950000Y-86360000D03*
X112950000Y-86360000D03*
X109220000Y-54610000D03*
X114220000Y-54610000D03*
X158750000Y-55880000D03*
X153750000Y-55880000D03*
X160020000Y-86360000D03*
X155020000Y-86360000D03*
X179070000Y-86360000D03*
X184070000Y-86360000D03*
X180340000Y-55880000D03*
X185340000Y-55880000D03*
D22*
X64770000Y-53340000D03*
D24*
X64770000Y-55840000D03*
D25*
G36*
X204343000Y-55150381D02*
X204332418Y-55124771D01*
X203957204Y-54748902D01*
X203466713Y-54545232D01*
X202935617Y-54544769D01*
X202444771Y-54747582D01*
X202068902Y-55122796D01*
X201865232Y-55613287D01*
X201864769Y-56144383D01*
X202067582Y-56635229D01*
X202442796Y-57011098D01*
X202933287Y-57214768D01*
X203464383Y-57215231D01*
X203955229Y-57012418D01*
X204331098Y-56637204D01*
X204343000Y-56608541D01*
X204343000Y-62827702D01*
X204143988Y-62529858D01*
X203710882Y-62240467D01*
X203200000Y-62138846D01*
X202689118Y-62240467D01*
X202256012Y-62529858D01*
X201966621Y-62962964D01*
X201865000Y-63473846D01*
X201865000Y-63526154D01*
X201966621Y-64037036D01*
X202256012Y-64470142D01*
X202689118Y-64759533D01*
X203200000Y-64861154D01*
X203710882Y-64759533D01*
X204143988Y-64470142D01*
X204343000Y-64172298D01*
X204343000Y-66608814D01*
X204135275Y-66554331D01*
X203379605Y-67310000D01*
X204135275Y-68065669D01*
X204343000Y-68011186D01*
X204343000Y-74257702D01*
X204143988Y-73959858D01*
X203710882Y-73670467D01*
X203200000Y-73568846D01*
X202689118Y-73670467D01*
X202256012Y-73959858D01*
X201966621Y-74392964D01*
X201865000Y-74903846D01*
X201865000Y-74956154D01*
X201966621Y-75467036D01*
X202256012Y-75900142D01*
X202689118Y-76189533D01*
X203200000Y-76291154D01*
X203710882Y-76189533D01*
X204143988Y-75900142D01*
X204343000Y-75602298D01*
X204343000Y-78010381D01*
X204332418Y-77984771D01*
X203957204Y-77608902D01*
X203466713Y-77405232D01*
X202935617Y-77404769D01*
X202444771Y-77607582D01*
X202068902Y-77982796D01*
X201865232Y-78473287D01*
X201864769Y-79004383D01*
X202067582Y-79495229D01*
X202442796Y-79871098D01*
X202933287Y-80074768D01*
X203464383Y-80075231D01*
X203955229Y-79872418D01*
X204331098Y-79497204D01*
X204343000Y-79468541D01*
X204343000Y-85687702D01*
X204143988Y-85389858D01*
X203710882Y-85100467D01*
X203200000Y-84998846D01*
X202689118Y-85100467D01*
X202256012Y-85389858D01*
X201966621Y-85822964D01*
X201865000Y-86333846D01*
X201865000Y-86386154D01*
X201966621Y-86897036D01*
X202256012Y-87330142D01*
X202689118Y-87619533D01*
X203200000Y-87721154D01*
X203710882Y-87619533D01*
X204143988Y-87330142D01*
X204343000Y-87032298D01*
X204343000Y-91313000D01*
X48387000Y-91313000D01*
X48387000Y-89164383D01*
X68514769Y-89164383D01*
X68717582Y-89655229D01*
X69092796Y-90031098D01*
X69583287Y-90234768D01*
X70114383Y-90235231D01*
X70605229Y-90032418D01*
X70981098Y-89657204D01*
X71184768Y-89166713D01*
X71185231Y-88635617D01*
X70982418Y-88144771D01*
X70825384Y-87987462D01*
X73124687Y-87987462D01*
X73398903Y-88651115D01*
X73906215Y-89159312D01*
X74569388Y-89434686D01*
X75287462Y-89435313D01*
X75951115Y-89161097D01*
X76459312Y-88653785D01*
X76734686Y-87990612D01*
X76735313Y-87272538D01*
X76502240Y-86708459D01*
X77124890Y-86944894D01*
X77842646Y-86923504D01*
X78357489Y-86710249D01*
X78125314Y-87269388D01*
X78124687Y-87987462D01*
X78398903Y-88651115D01*
X78906215Y-89159312D01*
X79569388Y-89434686D01*
X80287462Y-89435313D01*
X80951115Y-89161097D01*
X81459312Y-88653785D01*
X81734686Y-87990612D01*
X81734752Y-87914187D01*
X85004752Y-87914187D01*
X85222757Y-88441800D01*
X85626077Y-88845824D01*
X86153309Y-89064750D01*
X86724187Y-89065248D01*
X87251800Y-88847243D01*
X87655824Y-88443923D01*
X87874750Y-87916691D01*
X87874752Y-87914187D01*
X90004752Y-87914187D01*
X90222757Y-88441800D01*
X90626077Y-88845824D01*
X91153309Y-89064750D01*
X91724187Y-89065248D01*
X92251800Y-88847243D01*
X92655824Y-88443923D01*
X92874750Y-87916691D01*
X92875248Y-87345813D01*
X92657243Y-86818200D01*
X92253923Y-86414176D01*
X91726691Y-86195250D01*
X91155813Y-86194752D01*
X90628200Y-86412757D01*
X90224176Y-86816077D01*
X90005250Y-87343309D01*
X90004752Y-87914187D01*
X87874752Y-87914187D01*
X87875248Y-87345813D01*
X87657243Y-86818200D01*
X87253923Y-86414176D01*
X86726691Y-86195250D01*
X86155813Y-86194752D01*
X85628200Y-86412757D01*
X85224176Y-86816077D01*
X85005250Y-87343309D01*
X85004752Y-87914187D01*
X81734752Y-87914187D01*
X81735313Y-87272538D01*
X81461097Y-86608885D01*
X80953785Y-86100688D01*
X80290612Y-85825314D01*
X79572538Y-85824687D01*
X79008459Y-86057760D01*
X79244894Y-85435110D01*
X79223504Y-84717354D01*
X78999874Y-84177462D01*
X94794687Y-84177462D01*
X95068903Y-84841115D01*
X95576215Y-85349312D01*
X96239388Y-85624686D01*
X96957462Y-85625313D01*
X97532735Y-85387615D01*
X97295314Y-85959388D01*
X97294687Y-86677462D01*
X97568903Y-87341115D01*
X98076215Y-87849312D01*
X98739388Y-88124686D01*
X99457462Y-88125313D01*
X100016354Y-87894383D01*
X137094769Y-87894383D01*
X137297582Y-88385229D01*
X137672796Y-88761098D01*
X138163287Y-88964768D01*
X138694383Y-88965231D01*
X139185229Y-88762418D01*
X139561098Y-88387204D01*
X139764768Y-87896713D01*
X139765231Y-87365617D01*
X139562418Y-86874771D01*
X139405384Y-86717462D01*
X141704687Y-86717462D01*
X141978903Y-87381115D01*
X142486215Y-87889312D01*
X143149388Y-88164686D01*
X143867462Y-88165313D01*
X144531115Y-87891097D01*
X145039312Y-87383785D01*
X145314686Y-86720612D01*
X145315313Y-86002538D01*
X145082240Y-85438459D01*
X145704890Y-85674894D01*
X146422646Y-85653504D01*
X146937489Y-85440249D01*
X146705314Y-85999388D01*
X146704687Y-86717462D01*
X146978903Y-87381115D01*
X147486215Y-87889312D01*
X148149388Y-88164686D01*
X148867462Y-88165313D01*
X149531115Y-87891097D01*
X150039312Y-87383785D01*
X150314686Y-86720612D01*
X150314752Y-86644187D01*
X153584752Y-86644187D01*
X153802757Y-87171800D01*
X154206077Y-87575824D01*
X154733309Y-87794750D01*
X155304187Y-87795248D01*
X155831800Y-87577243D01*
X156235824Y-87173923D01*
X156454750Y-86646691D01*
X156454752Y-86644187D01*
X158584752Y-86644187D01*
X158802757Y-87171800D01*
X159206077Y-87575824D01*
X159733309Y-87794750D01*
X160304187Y-87795248D01*
X160831800Y-87577243D01*
X161235824Y-87173923D01*
X161454750Y-86646691D01*
X161455248Y-86075813D01*
X161237243Y-85548200D01*
X160833923Y-85144176D01*
X160306691Y-84925250D01*
X159735813Y-84924752D01*
X159208200Y-85142757D01*
X158804176Y-85546077D01*
X158585250Y-86073309D01*
X158584752Y-86644187D01*
X156454752Y-86644187D01*
X156455248Y-86075813D01*
X156237243Y-85548200D01*
X155833923Y-85144176D01*
X155306691Y-84925250D01*
X154735813Y-84924752D01*
X154208200Y-85142757D01*
X153804176Y-85546077D01*
X153585250Y-86073309D01*
X153584752Y-86644187D01*
X150314752Y-86644187D01*
X150315313Y-86002538D01*
X150041097Y-85338885D01*
X149533785Y-84830688D01*
X148870612Y-84555314D01*
X148152538Y-84554687D01*
X147588459Y-84787760D01*
X147824894Y-84165110D01*
X147803504Y-83447354D01*
X147569984Y-82883586D01*
X147285486Y-82764120D01*
X146189605Y-83860000D01*
X146203748Y-83874142D01*
X146024142Y-84053748D01*
X146010000Y-84039605D01*
X145995858Y-84053748D01*
X145816252Y-83874142D01*
X145830395Y-83860000D01*
X144734514Y-82764120D01*
X144450016Y-82883586D01*
X144195106Y-83554890D01*
X144216496Y-84272646D01*
X144429751Y-84787489D01*
X143870612Y-84555314D01*
X143152538Y-84554687D01*
X142488885Y-84828903D01*
X141980688Y-85336215D01*
X141705314Y-85999388D01*
X141704687Y-86717462D01*
X139405384Y-86717462D01*
X139187204Y-86498902D01*
X138696713Y-86295232D01*
X138165617Y-86294769D01*
X137674771Y-86497582D01*
X137298902Y-86872796D01*
X137095232Y-87363287D01*
X137094769Y-87894383D01*
X100016354Y-87894383D01*
X100121115Y-87851097D01*
X100629312Y-87343785D01*
X100904686Y-86680612D01*
X100904717Y-86644187D01*
X106514752Y-86644187D01*
X106732757Y-87171800D01*
X107136077Y-87575824D01*
X107663309Y-87794750D01*
X108234187Y-87795248D01*
X108761800Y-87577243D01*
X109165824Y-87173923D01*
X109384750Y-86646691D01*
X109384752Y-86644187D01*
X111514752Y-86644187D01*
X111732757Y-87171800D01*
X112136077Y-87575824D01*
X112663309Y-87794750D01*
X113234187Y-87795248D01*
X113761800Y-87577243D01*
X114165824Y-87173923D01*
X114384750Y-86646691D01*
X114385248Y-86075813D01*
X114167243Y-85548200D01*
X113763923Y-85144176D01*
X113570468Y-85063846D01*
X128205000Y-85063846D01*
X128205000Y-85116154D01*
X128306621Y-85627036D01*
X128596012Y-86060142D01*
X129029118Y-86349533D01*
X129540000Y-86451154D01*
X130050882Y-86349533D01*
X130483988Y-86060142D01*
X130773379Y-85627036D01*
X130875000Y-85116154D01*
X130875000Y-85063846D01*
X130773379Y-84552964D01*
X130483988Y-84119858D01*
X130050882Y-83830467D01*
X129540000Y-83728846D01*
X129029118Y-83830467D01*
X128596012Y-84119858D01*
X128306621Y-84552964D01*
X128205000Y-85063846D01*
X113570468Y-85063846D01*
X113236691Y-84925250D01*
X112665813Y-84924752D01*
X112138200Y-85142757D01*
X111734176Y-85546077D01*
X111515250Y-86073309D01*
X111514752Y-86644187D01*
X109384752Y-86644187D01*
X109385248Y-86075813D01*
X109167243Y-85548200D01*
X108763923Y-85144176D01*
X108236691Y-84925250D01*
X107665813Y-84924752D01*
X107138200Y-85142757D01*
X106734176Y-85546077D01*
X106515250Y-86073309D01*
X106514752Y-86644187D01*
X100904717Y-86644187D01*
X100905313Y-85962538D01*
X100667615Y-85387265D01*
X101239388Y-85624686D01*
X101957462Y-85625313D01*
X102621115Y-85351097D01*
X103129312Y-84843785D01*
X103404686Y-84180612D01*
X103405313Y-83462538D01*
X103131097Y-82798885D01*
X102623785Y-82290688D01*
X101960612Y-82015314D01*
X101242538Y-82014687D01*
X100578885Y-82288903D01*
X100070688Y-82796215D01*
X99795314Y-83459388D01*
X99794687Y-84177462D01*
X100032385Y-84752735D01*
X99460612Y-84515314D01*
X98742538Y-84514687D01*
X98167265Y-84752385D01*
X98404686Y-84180612D01*
X98405313Y-83462538D01*
X98131097Y-82798885D01*
X97623785Y-82290688D01*
X96960612Y-82015314D01*
X96242538Y-82014687D01*
X95578885Y-82288903D01*
X95070688Y-82796215D01*
X94795314Y-83459388D01*
X94794687Y-84177462D01*
X78999874Y-84177462D01*
X78989984Y-84153586D01*
X78705486Y-84034120D01*
X77609605Y-85130000D01*
X77623748Y-85144142D01*
X77444142Y-85323748D01*
X77430000Y-85309605D01*
X77415858Y-85323748D01*
X77236252Y-85144142D01*
X77250395Y-85130000D01*
X76154514Y-84034120D01*
X75870016Y-84153586D01*
X75615106Y-84824890D01*
X75636496Y-85542646D01*
X75849751Y-86057489D01*
X75290612Y-85825314D01*
X74572538Y-85824687D01*
X73908885Y-86098903D01*
X73400688Y-86606215D01*
X73125314Y-87269388D01*
X73124687Y-87987462D01*
X70825384Y-87987462D01*
X70607204Y-87768902D01*
X70116713Y-87565232D01*
X69585617Y-87564769D01*
X69094771Y-87767582D01*
X68718902Y-88142796D01*
X68515232Y-88633287D01*
X68514769Y-89164383D01*
X48387000Y-89164383D01*
X48387000Y-68547978D01*
X49165510Y-68547978D01*
X49165510Y-68612022D01*
X49289928Y-69237514D01*
X49644241Y-69767781D01*
X49767290Y-69850000D01*
X49644241Y-69932219D01*
X49289928Y-70462486D01*
X49165510Y-71087978D01*
X49165510Y-71152022D01*
X49289928Y-71777514D01*
X49644241Y-72307781D01*
X49767290Y-72390000D01*
X49644241Y-72472219D01*
X49289928Y-73002486D01*
X49165510Y-73627978D01*
X49165510Y-73692022D01*
X49289928Y-74317514D01*
X49644241Y-74847781D01*
X49767290Y-74930000D01*
X49644241Y-75012219D01*
X49289928Y-75542486D01*
X49165510Y-76167978D01*
X49165510Y-76232022D01*
X49289928Y-76857514D01*
X49644241Y-77387781D01*
X49767290Y-77470000D01*
X49644241Y-77552219D01*
X49289928Y-78082486D01*
X49165510Y-78707978D01*
X49165510Y-78772022D01*
X49289928Y-79397514D01*
X49644241Y-79927781D01*
X49767290Y-80010000D01*
X49644241Y-80092219D01*
X49289928Y-80622486D01*
X49165510Y-81247978D01*
X49165510Y-81312022D01*
X49289928Y-81937514D01*
X49644241Y-82467781D01*
X49767290Y-82550000D01*
X49644241Y-82632219D01*
X49289928Y-83162486D01*
X49165510Y-83787978D01*
X49165510Y-83852022D01*
X49289928Y-84477514D01*
X49644241Y-85007781D01*
X49767290Y-85090000D01*
X49644241Y-85172219D01*
X49289928Y-85702486D01*
X49165510Y-86327978D01*
X49165510Y-86392022D01*
X49289928Y-87017514D01*
X49644241Y-87547781D01*
X50174508Y-87902094D01*
X50800000Y-88026512D01*
X51425492Y-87902094D01*
X51955759Y-87547781D01*
X52310072Y-87017514D01*
X52434490Y-86392022D01*
X52434490Y-86327978D01*
X52310072Y-85702486D01*
X51955759Y-85172219D01*
X51832710Y-85090000D01*
X51955759Y-85007781D01*
X52310072Y-84477514D01*
X52433994Y-83854514D01*
X76334120Y-83854514D01*
X77430000Y-84950395D01*
X78525880Y-83854514D01*
X78406414Y-83570016D01*
X77735110Y-83315106D01*
X77017354Y-83336496D01*
X76453586Y-83570016D01*
X76334120Y-83854514D01*
X52433994Y-83854514D01*
X52434490Y-83852022D01*
X52434490Y-83787978D01*
X52310072Y-83162486D01*
X51955759Y-82632219D01*
X51832710Y-82550000D01*
X51955759Y-82467781D01*
X52310072Y-81937514D01*
X52434490Y-81312022D01*
X52434490Y-81253846D01*
X68515000Y-81253846D01*
X68515000Y-81306154D01*
X68616621Y-81817036D01*
X68906012Y-82250142D01*
X69339118Y-82539533D01*
X69850000Y-82641154D01*
X70308260Y-82550000D01*
X83728846Y-82550000D01*
X83830467Y-83060882D01*
X84119858Y-83493988D01*
X84552964Y-83783379D01*
X85063846Y-83885000D01*
X85116154Y-83885000D01*
X85627036Y-83783379D01*
X86060142Y-83493988D01*
X86349533Y-83060882D01*
X86398564Y-82814383D01*
X91374769Y-82814383D01*
X91577582Y-83305229D01*
X91952796Y-83681098D01*
X92443287Y-83884768D01*
X92974383Y-83885231D01*
X93465229Y-83682418D01*
X93841098Y-83307204D01*
X94044768Y-82816713D01*
X94045231Y-82285617D01*
X93842418Y-81794771D01*
X93794392Y-81746661D01*
X114172758Y-81746661D01*
X114384990Y-82260303D01*
X114777630Y-82653629D01*
X115290900Y-82866757D01*
X115846661Y-82867242D01*
X116360303Y-82655010D01*
X116570021Y-82445658D01*
X116777630Y-82653629D01*
X117290900Y-82866757D01*
X117846661Y-82867242D01*
X118360303Y-82655010D01*
X118430922Y-82584514D01*
X144914120Y-82584514D01*
X146010000Y-83680395D01*
X147105880Y-82584514D01*
X147091387Y-82550000D01*
X152308846Y-82550000D01*
X152410467Y-83060882D01*
X152699858Y-83493988D01*
X153132964Y-83783379D01*
X153643846Y-83885000D01*
X153696154Y-83885000D01*
X154207036Y-83783379D01*
X154640142Y-83493988D01*
X154929533Y-83060882D01*
X154978564Y-82814383D01*
X159954769Y-82814383D01*
X160157582Y-83305229D01*
X160532796Y-83681098D01*
X161023287Y-83884768D01*
X161554383Y-83885231D01*
X162045229Y-83682418D01*
X162421098Y-83307204D01*
X162587085Y-82907462D01*
X164644687Y-82907462D01*
X164918903Y-83571115D01*
X165426215Y-84079312D01*
X166089388Y-84354686D01*
X166807462Y-84355313D01*
X167382735Y-84117615D01*
X167145314Y-84689388D01*
X167144687Y-85407462D01*
X167418903Y-86071115D01*
X167926215Y-86579312D01*
X168589388Y-86854686D01*
X169307462Y-86855313D01*
X169818425Y-86644187D01*
X177634752Y-86644187D01*
X177852757Y-87171800D01*
X178256077Y-87575824D01*
X178783309Y-87794750D01*
X179354187Y-87795248D01*
X179881800Y-87577243D01*
X180285824Y-87173923D01*
X180504750Y-86646691D01*
X180504752Y-86644187D01*
X182634752Y-86644187D01*
X182852757Y-87171800D01*
X183256077Y-87575824D01*
X183783309Y-87794750D01*
X184354187Y-87795248D01*
X184881800Y-87577243D01*
X185285824Y-87173923D01*
X185504750Y-86646691D01*
X185505248Y-86075813D01*
X185287243Y-85548200D01*
X184883923Y-85144176D01*
X184356691Y-84925250D01*
X183785813Y-84924752D01*
X183258200Y-85142757D01*
X182854176Y-85546077D01*
X182635250Y-86073309D01*
X182634752Y-86644187D01*
X180504752Y-86644187D01*
X180505248Y-86075813D01*
X180287243Y-85548200D01*
X179883923Y-85144176D01*
X179356691Y-84925250D01*
X178785813Y-84924752D01*
X178258200Y-85142757D01*
X177854176Y-85546077D01*
X177635250Y-86073309D01*
X177634752Y-86644187D01*
X169818425Y-86644187D01*
X169971115Y-86581097D01*
X170479312Y-86073785D01*
X170754686Y-85410612D01*
X170755313Y-84692538D01*
X170517615Y-84117265D01*
X171089388Y-84354686D01*
X171807462Y-84355313D01*
X172471115Y-84081097D01*
X172979312Y-83573785D01*
X173254686Y-82910612D01*
X173255313Y-82192538D01*
X173071081Y-81746661D01*
X186562758Y-81746661D01*
X186774990Y-82260303D01*
X187167630Y-82653629D01*
X187680900Y-82866757D01*
X188236661Y-82867242D01*
X188750303Y-82655010D01*
X188960021Y-82445658D01*
X189167630Y-82653629D01*
X189680900Y-82866757D01*
X190236661Y-82867242D01*
X190750303Y-82655010D01*
X191143629Y-82262370D01*
X191356757Y-81749100D01*
X191357242Y-81193339D01*
X191145010Y-80679697D01*
X190752370Y-80286371D01*
X190239100Y-80073243D01*
X189683339Y-80072758D01*
X189169697Y-80284990D01*
X188959979Y-80494342D01*
X188752370Y-80286371D01*
X188239100Y-80073243D01*
X187683339Y-80072758D01*
X187169697Y-80284990D01*
X186776371Y-80677630D01*
X186563243Y-81190900D01*
X186562758Y-81746661D01*
X173071081Y-81746661D01*
X172981097Y-81528885D01*
X172473785Y-81020688D01*
X171810612Y-80745314D01*
X171092538Y-80744687D01*
X170428885Y-81018903D01*
X169920688Y-81526215D01*
X169645314Y-82189388D01*
X169644687Y-82907462D01*
X169882385Y-83482735D01*
X169310612Y-83245314D01*
X168592538Y-83244687D01*
X168017265Y-83482385D01*
X168254686Y-82910612D01*
X168255313Y-82192538D01*
X167981097Y-81528885D01*
X167473785Y-81020688D01*
X166810612Y-80745314D01*
X166092538Y-80744687D01*
X165428885Y-81018903D01*
X164920688Y-81526215D01*
X164645314Y-82189388D01*
X164644687Y-82907462D01*
X162587085Y-82907462D01*
X162624768Y-82816713D01*
X162625231Y-82285617D01*
X162422418Y-81794771D01*
X162047204Y-81418902D01*
X161556713Y-81215232D01*
X161025617Y-81214769D01*
X160534771Y-81417582D01*
X160158902Y-81792796D01*
X159955232Y-82283287D01*
X159954769Y-82814383D01*
X154978564Y-82814383D01*
X155031154Y-82550000D01*
X154929533Y-82039118D01*
X154640142Y-81606012D01*
X154207036Y-81316621D01*
X153696154Y-81215000D01*
X153643846Y-81215000D01*
X153132964Y-81316621D01*
X152699858Y-81606012D01*
X152410467Y-82039118D01*
X152308846Y-82550000D01*
X147091387Y-82550000D01*
X146986414Y-82300016D01*
X146315110Y-82045106D01*
X145597354Y-82066496D01*
X145033586Y-82300016D01*
X144914120Y-82584514D01*
X118430922Y-82584514D01*
X118753629Y-82262370D01*
X118966757Y-81749100D01*
X118967242Y-81193339D01*
X118755010Y-80679697D01*
X118362370Y-80286371D01*
X117849100Y-80073243D01*
X117293339Y-80072758D01*
X116779697Y-80284990D01*
X116569979Y-80494342D01*
X116362370Y-80286371D01*
X115849100Y-80073243D01*
X115293339Y-80072758D01*
X114779697Y-80284990D01*
X114386371Y-80677630D01*
X114173243Y-81190900D01*
X114172758Y-81746661D01*
X93794392Y-81746661D01*
X93467204Y-81418902D01*
X92976713Y-81215232D01*
X92445617Y-81214769D01*
X91954771Y-81417582D01*
X91578902Y-81792796D01*
X91375232Y-82283287D01*
X91374769Y-82814383D01*
X86398564Y-82814383D01*
X86451154Y-82550000D01*
X86349533Y-82039118D01*
X86060142Y-81606012D01*
X85627036Y-81316621D01*
X85116154Y-81215000D01*
X85063846Y-81215000D01*
X84552964Y-81316621D01*
X84119858Y-81606012D01*
X83830467Y-82039118D01*
X83728846Y-82550000D01*
X70308260Y-82550000D01*
X70360882Y-82539533D01*
X70793988Y-82250142D01*
X71083379Y-81817036D01*
X71185000Y-81306154D01*
X71185000Y-81253846D01*
X71083379Y-80742964D01*
X70793988Y-80309858D01*
X70360882Y-80020467D01*
X70176777Y-79983846D01*
X137095000Y-79983846D01*
X137095000Y-80036154D01*
X137196621Y-80547036D01*
X137486012Y-80980142D01*
X137919118Y-81269533D01*
X138430000Y-81371154D01*
X138940882Y-81269533D01*
X139373988Y-80980142D01*
X139663379Y-80547036D01*
X139765000Y-80036154D01*
X139765000Y-79983846D01*
X139663379Y-79472964D01*
X139373988Y-79039858D01*
X139069881Y-78836661D01*
X149002758Y-78836661D01*
X149214990Y-79350303D01*
X149607630Y-79743629D01*
X150120900Y-79956757D01*
X150676661Y-79957242D01*
X151190303Y-79745010D01*
X151405021Y-79530666D01*
X151607630Y-79733629D01*
X152120900Y-79946757D01*
X152676661Y-79947242D01*
X153190303Y-79735010D01*
X153583629Y-79342370D01*
X153796757Y-78829100D01*
X153797242Y-78273339D01*
X153585010Y-77759697D01*
X153192370Y-77366371D01*
X152679100Y-77153243D01*
X152123339Y-77152758D01*
X151609697Y-77364990D01*
X151394979Y-77579334D01*
X151192370Y-77376371D01*
X150679100Y-77163243D01*
X150123339Y-77162758D01*
X149609697Y-77374990D01*
X149216371Y-77767630D01*
X149003243Y-78280900D01*
X149002758Y-78836661D01*
X139069881Y-78836661D01*
X138940882Y-78750467D01*
X138430000Y-78648846D01*
X137919118Y-78750467D01*
X137486012Y-79039858D01*
X137196621Y-79472964D01*
X137095000Y-79983846D01*
X70176777Y-79983846D01*
X69850000Y-79918846D01*
X69339118Y-80020467D01*
X68906012Y-80309858D01*
X68616621Y-80742964D01*
X68515000Y-81253846D01*
X52434490Y-81253846D01*
X52434490Y-81247978D01*
X52310072Y-80622486D01*
X51955759Y-80092219D01*
X51832710Y-80010000D01*
X51955759Y-79927781D01*
X52310072Y-79397514D01*
X52421632Y-78836661D01*
X77882758Y-78836661D01*
X78094990Y-79350303D01*
X78487630Y-79743629D01*
X79000900Y-79956757D01*
X79556661Y-79957242D01*
X80070303Y-79745010D01*
X80285021Y-79530666D01*
X80487630Y-79733629D01*
X81000900Y-79946757D01*
X81556661Y-79947242D01*
X82070303Y-79735010D01*
X82463629Y-79342370D01*
X82676757Y-78829100D01*
X82677242Y-78273339D01*
X82465010Y-77759697D01*
X82439741Y-77734383D01*
X128204769Y-77734383D01*
X128407582Y-78225229D01*
X128782796Y-78601098D01*
X129273287Y-78804768D01*
X129804383Y-78805231D01*
X130295229Y-78602418D01*
X130492716Y-78405275D01*
X135134331Y-78405275D01*
X135196169Y-78641042D01*
X135697122Y-78817419D01*
X136227440Y-78788664D01*
X136583831Y-78641042D01*
X136645669Y-78405275D01*
X135890000Y-77649605D01*
X135134331Y-78405275D01*
X130492716Y-78405275D01*
X130671098Y-78227204D01*
X130874768Y-77736713D01*
X130875168Y-77277122D01*
X134542581Y-77277122D01*
X134571336Y-77807440D01*
X134718958Y-78163831D01*
X134954725Y-78225669D01*
X135710395Y-77470000D01*
X136069605Y-77470000D01*
X136825275Y-78225669D01*
X137061042Y-78163831D01*
X137237419Y-77662878D01*
X137208664Y-77132560D01*
X137061042Y-76776169D01*
X136825275Y-76714331D01*
X136069605Y-77470000D01*
X135710395Y-77470000D01*
X134954725Y-76714331D01*
X134718958Y-76776169D01*
X134542581Y-77277122D01*
X130875168Y-77277122D01*
X130875231Y-77205617D01*
X130672418Y-76714771D01*
X130492686Y-76534725D01*
X135134331Y-76534725D01*
X135890000Y-77290395D01*
X136645669Y-76534725D01*
X136583831Y-76298958D01*
X136082878Y-76122581D01*
X135552560Y-76151336D01*
X135196169Y-76298958D01*
X135134331Y-76534725D01*
X130492686Y-76534725D01*
X130297204Y-76338902D01*
X129806713Y-76135232D01*
X129275617Y-76134769D01*
X128784771Y-76337582D01*
X128408902Y-76712796D01*
X128205232Y-77203287D01*
X128204769Y-77734383D01*
X82439741Y-77734383D01*
X82072370Y-77366371D01*
X81559100Y-77153243D01*
X81003339Y-77152758D01*
X80489697Y-77364990D01*
X80274979Y-77579334D01*
X80072370Y-77376371D01*
X79559100Y-77163243D01*
X79003339Y-77162758D01*
X78489697Y-77374990D01*
X78096371Y-77767630D01*
X77883243Y-78280900D01*
X77882758Y-78836661D01*
X52421632Y-78836661D01*
X52434490Y-78772022D01*
X52434490Y-78707978D01*
X52374279Y-78405275D01*
X66554331Y-78405275D01*
X66616169Y-78641042D01*
X67117122Y-78817419D01*
X67647440Y-78788664D01*
X68003831Y-78641042D01*
X68065669Y-78405275D01*
X67310000Y-77649605D01*
X66554331Y-78405275D01*
X52374279Y-78405275D01*
X52310072Y-78082486D01*
X51955759Y-77552219D01*
X51832710Y-77470000D01*
X51955759Y-77387781D01*
X52029698Y-77277122D01*
X65962581Y-77277122D01*
X65991336Y-77807440D01*
X66138958Y-78163831D01*
X66374725Y-78225669D01*
X67130395Y-77470000D01*
X67489605Y-77470000D01*
X68245275Y-78225669D01*
X68481042Y-78163831D01*
X68657419Y-77662878D01*
X68628664Y-77132560D01*
X68481042Y-76776169D01*
X68245275Y-76714331D01*
X67489605Y-77470000D01*
X67130395Y-77470000D01*
X66374725Y-76714331D01*
X66138958Y-76776169D01*
X65962581Y-77277122D01*
X52029698Y-77277122D01*
X52310072Y-76857514D01*
X52374278Y-76534725D01*
X66554331Y-76534725D01*
X67310000Y-77290395D01*
X68065669Y-76534725D01*
X68003831Y-76298958D01*
X67502878Y-76122581D01*
X66972560Y-76151336D01*
X66616169Y-76298958D01*
X66554331Y-76534725D01*
X52374278Y-76534725D01*
X52434490Y-76232022D01*
X52434490Y-76167978D01*
X52310072Y-75542486D01*
X51955759Y-75012219D01*
X51832710Y-74930000D01*
X51955759Y-74847781D01*
X52310072Y-74317514D01*
X52434490Y-73692022D01*
X52434490Y-73627978D01*
X52310072Y-73002486D01*
X51955759Y-72472219D01*
X51832710Y-72390000D01*
X51955759Y-72307781D01*
X52310072Y-71777514D01*
X52434490Y-71152022D01*
X52434490Y-71087978D01*
X52310072Y-70462486D01*
X51955759Y-69932219D01*
X51832710Y-69850000D01*
X51955759Y-69767781D01*
X52310072Y-69237514D01*
X52434490Y-68612022D01*
X52434490Y-68547978D01*
X52310072Y-67922486D01*
X52077478Y-67574383D01*
X65974769Y-67574383D01*
X66177582Y-68065229D01*
X66552796Y-68441098D01*
X66875788Y-68575216D01*
X66799118Y-68590467D01*
X66366012Y-68879858D01*
X66076621Y-69312964D01*
X65975000Y-69823846D01*
X65975000Y-69876154D01*
X66076621Y-70387036D01*
X66366012Y-70820142D01*
X66799118Y-71109533D01*
X67310000Y-71211154D01*
X67820882Y-71109533D01*
X68253988Y-70820142D01*
X68543379Y-70387036D01*
X68645000Y-69876154D01*
X68645000Y-69823846D01*
X68543379Y-69312964D01*
X68291943Y-68936661D01*
X69992758Y-68936661D01*
X70204990Y-69450303D01*
X70414342Y-69660021D01*
X70206371Y-69867630D01*
X69993243Y-70380900D01*
X69992758Y-70936661D01*
X70204990Y-71450303D01*
X70597630Y-71843629D01*
X71110900Y-72056757D01*
X71666661Y-72057242D01*
X72180303Y-71845010D01*
X72573629Y-71452370D01*
X72786757Y-70939100D01*
X72787242Y-70383339D01*
X72575010Y-69869697D01*
X72365658Y-69659979D01*
X72573629Y-69452370D01*
X72786757Y-68939100D01*
X72787242Y-68383339D01*
X72575010Y-67869697D01*
X72182370Y-67476371D01*
X71669100Y-67263243D01*
X71113339Y-67262758D01*
X70599697Y-67474990D01*
X70206371Y-67867630D01*
X69993243Y-68380900D01*
X69992758Y-68936661D01*
X68291943Y-68936661D01*
X68253988Y-68879858D01*
X67820882Y-68590467D01*
X67743955Y-68575165D01*
X68065229Y-68442418D01*
X68441098Y-68067204D01*
X68644768Y-67576713D01*
X68645231Y-67045617D01*
X68442418Y-66554771D01*
X68067204Y-66178902D01*
X67576713Y-65975232D01*
X67045617Y-65974769D01*
X66554771Y-66177582D01*
X66178902Y-66552796D01*
X65975232Y-67043287D01*
X65974769Y-67574383D01*
X52077478Y-67574383D01*
X51955759Y-67392219D01*
X51806700Y-67292621D01*
X52123068Y-66999726D01*
X52389627Y-66420355D01*
X52270807Y-66167000D01*
X50927000Y-66167000D01*
X50927000Y-66187000D01*
X50673000Y-66187000D01*
X50673000Y-66167000D01*
X49329193Y-66167000D01*
X49210373Y-66420355D01*
X49476932Y-66999726D01*
X49793300Y-67292621D01*
X49644241Y-67392219D01*
X49289928Y-67922486D01*
X49165510Y-68547978D01*
X48387000Y-68547978D01*
X48387000Y-62500510D01*
X49153070Y-62500510D01*
X49153070Y-64499490D01*
X49197348Y-64734807D01*
X49336420Y-64950931D01*
X49497649Y-65061094D01*
X49476932Y-65080274D01*
X49210373Y-65659645D01*
X49329193Y-65913000D01*
X50673000Y-65913000D01*
X50673000Y-65893000D01*
X50927000Y-65893000D01*
X50927000Y-65913000D01*
X52270807Y-65913000D01*
X52389627Y-65659645D01*
X52123068Y-65080274D01*
X52101137Y-65059970D01*
X52250931Y-64963580D01*
X52395921Y-64751380D01*
X52446930Y-64499490D01*
X52446930Y-63500000D01*
X93786887Y-63500000D01*
X93896120Y-64049151D01*
X94207189Y-64514698D01*
X94589275Y-64770000D01*
X94207189Y-65025302D01*
X93896120Y-65490849D01*
X93786887Y-66040000D01*
X93896120Y-66589151D01*
X94207189Y-67054698D01*
X94589275Y-67310000D01*
X94207189Y-67565302D01*
X93896120Y-68030849D01*
X93786887Y-68580000D01*
X93896120Y-69129151D01*
X94207189Y-69594698D01*
X94589275Y-69850000D01*
X94207189Y-70105302D01*
X93896120Y-70570849D01*
X93786887Y-71120000D01*
X93896120Y-71669151D01*
X94207189Y-72134698D01*
X94589275Y-72390000D01*
X94207189Y-72645302D01*
X93896120Y-73110849D01*
X93786887Y-73660000D01*
X93896120Y-74209151D01*
X94207189Y-74674698D01*
X94589275Y-74930000D01*
X94207189Y-75185302D01*
X93896120Y-75650849D01*
X93786887Y-76200000D01*
X93896120Y-76749151D01*
X94207189Y-77214698D01*
X94672736Y-77525767D01*
X95221887Y-77635000D01*
X95278113Y-77635000D01*
X95827264Y-77525767D01*
X96292811Y-77214698D01*
X96603880Y-76749151D01*
X96713113Y-76200000D01*
X96603880Y-75650849D01*
X96292811Y-75185302D01*
X95910725Y-74930000D01*
X96292811Y-74674698D01*
X96603880Y-74209151D01*
X96713113Y-73660000D01*
X96603880Y-73110849D01*
X96292811Y-72645302D01*
X95910725Y-72390000D01*
X96292811Y-72134698D01*
X96603880Y-71669151D01*
X96713113Y-71120000D01*
X101406887Y-71120000D01*
X101516120Y-71669151D01*
X101827189Y-72134698D01*
X102209275Y-72390000D01*
X101827189Y-72645302D01*
X101516120Y-73110849D01*
X101406887Y-73660000D01*
X101516120Y-74209151D01*
X101827189Y-74674698D01*
X102209275Y-74930000D01*
X101827189Y-75185302D01*
X101516120Y-75650849D01*
X101406887Y-76200000D01*
X101516120Y-76749151D01*
X101827189Y-77214698D01*
X102292736Y-77525767D01*
X102841887Y-77635000D01*
X102898113Y-77635000D01*
X103447264Y-77525767D01*
X103912811Y-77214698D01*
X104223880Y-76749151D01*
X104333113Y-76200000D01*
X104223880Y-75650849D01*
X103912811Y-75185302D01*
X103530725Y-74930000D01*
X103912811Y-74674698D01*
X104223880Y-74209151D01*
X104333113Y-73660000D01*
X104223880Y-73110849D01*
X103912811Y-72645302D01*
X103530725Y-72390000D01*
X103912811Y-72134698D01*
X104098589Y-71856661D01*
X124062758Y-71856661D01*
X124274990Y-72370303D01*
X124484342Y-72580021D01*
X124276371Y-72787630D01*
X124063243Y-73300900D01*
X124062758Y-73856661D01*
X124274990Y-74370303D01*
X124667630Y-74763629D01*
X125180900Y-74976757D01*
X125736661Y-74977242D01*
X126250303Y-74765010D01*
X126643629Y-74372370D01*
X126856757Y-73859100D01*
X126856953Y-73633846D01*
X128205000Y-73633846D01*
X128205000Y-73686154D01*
X128306621Y-74197036D01*
X128596012Y-74630142D01*
X129029118Y-74919533D01*
X129540000Y-75021154D01*
X130050882Y-74919533D01*
X130483988Y-74630142D01*
X130773379Y-74197036D01*
X130875000Y-73686154D01*
X130875000Y-73633846D01*
X130773379Y-73122964D01*
X130483988Y-72689858D01*
X130050882Y-72400467D01*
X129540000Y-72298846D01*
X129029118Y-72400467D01*
X128596012Y-72689858D01*
X128306621Y-73122964D01*
X128205000Y-73633846D01*
X126856953Y-73633846D01*
X126857242Y-73303339D01*
X126645010Y-72789697D01*
X126435658Y-72579979D01*
X126643629Y-72372370D01*
X126856757Y-71859100D01*
X126857242Y-71303339D01*
X126645010Y-70789697D01*
X126252370Y-70396371D01*
X125739100Y-70183243D01*
X125183339Y-70182758D01*
X124669697Y-70394990D01*
X124276371Y-70787630D01*
X124063243Y-71300900D01*
X124062758Y-71856661D01*
X104098589Y-71856661D01*
X104223880Y-71669151D01*
X104333113Y-71120000D01*
X104223880Y-70570849D01*
X103912811Y-70105302D01*
X103508297Y-69835014D01*
X103531893Y-69823846D01*
X134555000Y-69823846D01*
X134555000Y-69876154D01*
X134656621Y-70387036D01*
X134946012Y-70820142D01*
X135379118Y-71109533D01*
X135890000Y-71211154D01*
X136400882Y-71109533D01*
X136833988Y-70820142D01*
X137123379Y-70387036D01*
X137225000Y-69876154D01*
X137225000Y-69823846D01*
X137123379Y-69312964D01*
X136871943Y-68936661D01*
X141112758Y-68936661D01*
X141324990Y-69450303D01*
X141534342Y-69660021D01*
X141326371Y-69867630D01*
X141113243Y-70380900D01*
X141112758Y-70936661D01*
X141324990Y-71450303D01*
X141717630Y-71843629D01*
X142230900Y-72056757D01*
X142786661Y-72057242D01*
X143300303Y-71845010D01*
X143693629Y-71452370D01*
X143906757Y-70939100D01*
X143907242Y-70383339D01*
X143695010Y-69869697D01*
X143485658Y-69659979D01*
X143693629Y-69452370D01*
X143906757Y-68939100D01*
X143907242Y-68383339D01*
X143695010Y-67869697D01*
X143302370Y-67476371D01*
X142789100Y-67263243D01*
X142233339Y-67262758D01*
X141719697Y-67474990D01*
X141326371Y-67867630D01*
X141113243Y-68380900D01*
X141112758Y-68936661D01*
X136871943Y-68936661D01*
X136833988Y-68879858D01*
X136400882Y-68590467D01*
X135890000Y-68488846D01*
X135379118Y-68590467D01*
X134946012Y-68879858D01*
X134656621Y-69312964D01*
X134555000Y-69823846D01*
X103531893Y-69823846D01*
X103725134Y-69732389D01*
X104101041Y-69317423D01*
X104261904Y-68929039D01*
X104139915Y-68707000D01*
X102997000Y-68707000D01*
X102997000Y-68727000D01*
X102743000Y-68727000D01*
X102743000Y-68707000D01*
X101600085Y-68707000D01*
X101478096Y-68929039D01*
X101638959Y-69317423D01*
X102014866Y-69732389D01*
X102231703Y-69835014D01*
X101827189Y-70105302D01*
X101516120Y-70570849D01*
X101406887Y-71120000D01*
X96713113Y-71120000D01*
X96603880Y-70570849D01*
X96292811Y-70105302D01*
X95910725Y-69850000D01*
X96292811Y-69594698D01*
X96603880Y-69129151D01*
X96713113Y-68580000D01*
X96603880Y-68030849D01*
X96292811Y-67565302D01*
X95910725Y-67310000D01*
X96292811Y-67054698D01*
X96603880Y-66589151D01*
X96713113Y-66040000D01*
X96603880Y-65490849D01*
X96292811Y-65025302D01*
X95910725Y-64770000D01*
X96292811Y-64514698D01*
X96603880Y-64049151D01*
X96713113Y-63500000D01*
X96603880Y-62950849D01*
X96292811Y-62485302D01*
X96148535Y-62388899D01*
X96285317Y-62363162D01*
X96501441Y-62224090D01*
X96646431Y-62011890D01*
X96697440Y-61760000D01*
X96697440Y-60960000D01*
X101406887Y-60960000D01*
X101516120Y-61509151D01*
X101827189Y-61974698D01*
X102209275Y-62230000D01*
X101827189Y-62485302D01*
X101516120Y-62950849D01*
X101406887Y-63500000D01*
X101516120Y-64049151D01*
X101827189Y-64514698D01*
X102209275Y-64770000D01*
X101827189Y-65025302D01*
X101516120Y-65490849D01*
X101406887Y-66040000D01*
X101516120Y-66589151D01*
X101827189Y-67054698D01*
X102231703Y-67324986D01*
X102014866Y-67427611D01*
X101638959Y-67842577D01*
X101478096Y-68230961D01*
X101600085Y-68453000D01*
X102743000Y-68453000D01*
X102743000Y-68433000D01*
X102997000Y-68433000D01*
X102997000Y-68453000D01*
X104139915Y-68453000D01*
X104261904Y-68230961D01*
X104101041Y-67842577D01*
X103725134Y-67427611D01*
X103508297Y-67324986D01*
X103912811Y-67054698D01*
X103965879Y-66975275D01*
X128784331Y-66975275D01*
X128846169Y-67211042D01*
X129347122Y-67387419D01*
X129877440Y-67358664D01*
X130233831Y-67211042D01*
X130295669Y-66975275D01*
X129540000Y-66219605D01*
X128784331Y-66975275D01*
X103965879Y-66975275D01*
X104223880Y-66589151D01*
X104333113Y-66040000D01*
X104294748Y-65847122D01*
X128192581Y-65847122D01*
X128221336Y-66377440D01*
X128368958Y-66733831D01*
X128604725Y-66795669D01*
X129360395Y-66040000D01*
X129719605Y-66040000D01*
X130475275Y-66795669D01*
X130711042Y-66733831D01*
X130862243Y-66304383D01*
X134554769Y-66304383D01*
X134757582Y-66795229D01*
X135132796Y-67171098D01*
X135623287Y-67374768D01*
X136154383Y-67375231D01*
X136645229Y-67172418D01*
X137021098Y-66797204D01*
X137224768Y-66306713D01*
X137225231Y-65775617D01*
X137022418Y-65284771D01*
X136647204Y-64908902D01*
X136156713Y-64705232D01*
X135625617Y-64704769D01*
X135134771Y-64907582D01*
X134758902Y-65282796D01*
X134555232Y-65773287D01*
X134554769Y-66304383D01*
X130862243Y-66304383D01*
X130887419Y-66232878D01*
X130858664Y-65702560D01*
X130711042Y-65346169D01*
X130475275Y-65284331D01*
X129719605Y-66040000D01*
X129360395Y-66040000D01*
X128604725Y-65284331D01*
X128368958Y-65346169D01*
X128192581Y-65847122D01*
X104294748Y-65847122D01*
X104223880Y-65490849D01*
X103965880Y-65104725D01*
X128784331Y-65104725D01*
X129540000Y-65860395D01*
X130295669Y-65104725D01*
X130233831Y-64868958D01*
X129732878Y-64692581D01*
X129202560Y-64721336D01*
X128846169Y-64868958D01*
X128784331Y-65104725D01*
X103965880Y-65104725D01*
X103912811Y-65025302D01*
X103530725Y-64770000D01*
X103912811Y-64514698D01*
X104223880Y-64049151D01*
X104240288Y-63966661D01*
X114172758Y-63966661D01*
X114384990Y-64480303D01*
X114777630Y-64873629D01*
X115290900Y-65086757D01*
X115846661Y-65087242D01*
X116360303Y-64875010D01*
X116575021Y-64660666D01*
X116777630Y-64863629D01*
X117290900Y-65076757D01*
X117846661Y-65077242D01*
X118360303Y-64865010D01*
X118753629Y-64472370D01*
X118966757Y-63959100D01*
X118967157Y-63500000D01*
X164906887Y-63500000D01*
X165016120Y-64049151D01*
X165327189Y-64514698D01*
X165709275Y-64770000D01*
X165327189Y-65025302D01*
X165016120Y-65490849D01*
X164906887Y-66040000D01*
X165016120Y-66589151D01*
X165327189Y-67054698D01*
X165709275Y-67310000D01*
X165327189Y-67565302D01*
X165016120Y-68030849D01*
X164906887Y-68580000D01*
X165016120Y-69129151D01*
X165327189Y-69594698D01*
X165709275Y-69850000D01*
X165327189Y-70105302D01*
X165016120Y-70570849D01*
X164906887Y-71120000D01*
X165016120Y-71669151D01*
X165327189Y-72134698D01*
X165709275Y-72390000D01*
X165327189Y-72645302D01*
X165016120Y-73110849D01*
X164906887Y-73660000D01*
X165016120Y-74209151D01*
X165327189Y-74674698D01*
X165709275Y-74930000D01*
X165327189Y-75185302D01*
X165016120Y-75650849D01*
X164906887Y-76200000D01*
X165016120Y-76749151D01*
X165327189Y-77214698D01*
X165792736Y-77525767D01*
X166341887Y-77635000D01*
X166398113Y-77635000D01*
X166947264Y-77525767D01*
X167412811Y-77214698D01*
X167723880Y-76749151D01*
X167833113Y-76200000D01*
X167723880Y-75650849D01*
X167412811Y-75185302D01*
X167030725Y-74930000D01*
X167412811Y-74674698D01*
X167723880Y-74209151D01*
X167833113Y-73660000D01*
X167723880Y-73110849D01*
X167412811Y-72645302D01*
X167030725Y-72390000D01*
X167412811Y-72134698D01*
X167723880Y-71669151D01*
X167833113Y-71120000D01*
X172526887Y-71120000D01*
X172636120Y-71669151D01*
X172947189Y-72134698D01*
X173329275Y-72390000D01*
X172947189Y-72645302D01*
X172636120Y-73110849D01*
X172526887Y-73660000D01*
X172636120Y-74209151D01*
X172947189Y-74674698D01*
X173329275Y-74930000D01*
X172947189Y-75185302D01*
X172636120Y-75650849D01*
X172526887Y-76200000D01*
X172636120Y-76749151D01*
X172947189Y-77214698D01*
X173412736Y-77525767D01*
X173961887Y-77635000D01*
X174018113Y-77635000D01*
X174567264Y-77525767D01*
X175032811Y-77214698D01*
X175343880Y-76749151D01*
X175453113Y-76200000D01*
X175343880Y-75650849D01*
X175032811Y-75185302D01*
X174650725Y-74930000D01*
X175032811Y-74674698D01*
X175343880Y-74209151D01*
X175453113Y-73660000D01*
X175343880Y-73110849D01*
X175032811Y-72645302D01*
X174650725Y-72390000D01*
X175032811Y-72134698D01*
X175218589Y-71856661D01*
X196452758Y-71856661D01*
X196664990Y-72370303D01*
X196874342Y-72580021D01*
X196666371Y-72787630D01*
X196453243Y-73300900D01*
X196452758Y-73856661D01*
X196664990Y-74370303D01*
X197057630Y-74763629D01*
X197570900Y-74976757D01*
X198126661Y-74977242D01*
X198640303Y-74765010D01*
X199033629Y-74372370D01*
X199246757Y-73859100D01*
X199247242Y-73303339D01*
X199035010Y-72789697D01*
X198825658Y-72579979D01*
X199033629Y-72372370D01*
X199246757Y-71859100D01*
X199247242Y-71303339D01*
X199035010Y-70789697D01*
X198642370Y-70396371D01*
X198129100Y-70183243D01*
X197573339Y-70182758D01*
X197059697Y-70394990D01*
X196666371Y-70787630D01*
X196453243Y-71300900D01*
X196452758Y-71856661D01*
X175218589Y-71856661D01*
X175343880Y-71669151D01*
X175453113Y-71120000D01*
X175343880Y-70570849D01*
X175032811Y-70105302D01*
X174628297Y-69835014D01*
X174845134Y-69732389D01*
X175221041Y-69317423D01*
X175381904Y-68929039D01*
X175259915Y-68707000D01*
X174117000Y-68707000D01*
X174117000Y-68727000D01*
X173863000Y-68727000D01*
X173863000Y-68707000D01*
X172720085Y-68707000D01*
X172598096Y-68929039D01*
X172758959Y-69317423D01*
X173134866Y-69732389D01*
X173351703Y-69835014D01*
X172947189Y-70105302D01*
X172636120Y-70570849D01*
X172526887Y-71120000D01*
X167833113Y-71120000D01*
X167723880Y-70570849D01*
X167412811Y-70105302D01*
X167030725Y-69850000D01*
X167412811Y-69594698D01*
X167723880Y-69129151D01*
X167833113Y-68580000D01*
X167723880Y-68030849D01*
X167412811Y-67565302D01*
X167030725Y-67310000D01*
X167412811Y-67054698D01*
X167723880Y-66589151D01*
X167833113Y-66040000D01*
X167723880Y-65490849D01*
X167412811Y-65025302D01*
X167030725Y-64770000D01*
X167412811Y-64514698D01*
X167723880Y-64049151D01*
X167833113Y-63500000D01*
X167723880Y-62950849D01*
X167412811Y-62485302D01*
X167268535Y-62388899D01*
X167405317Y-62363162D01*
X167621441Y-62224090D01*
X167766431Y-62011890D01*
X167817440Y-61760000D01*
X167817440Y-60960000D01*
X172526887Y-60960000D01*
X172636120Y-61509151D01*
X172947189Y-61974698D01*
X173329275Y-62230000D01*
X172947189Y-62485302D01*
X172636120Y-62950849D01*
X172526887Y-63500000D01*
X172636120Y-64049151D01*
X172947189Y-64514698D01*
X173329275Y-64770000D01*
X172947189Y-65025302D01*
X172636120Y-65490849D01*
X172526887Y-66040000D01*
X172636120Y-66589151D01*
X172947189Y-67054698D01*
X173351703Y-67324986D01*
X173134866Y-67427611D01*
X172758959Y-67842577D01*
X172598096Y-68230961D01*
X172720085Y-68453000D01*
X173863000Y-68453000D01*
X173863000Y-68433000D01*
X174117000Y-68433000D01*
X174117000Y-68453000D01*
X175259915Y-68453000D01*
X175374039Y-68245275D01*
X202444331Y-68245275D01*
X202506169Y-68481042D01*
X203007122Y-68657419D01*
X203537440Y-68628664D01*
X203893831Y-68481042D01*
X203955669Y-68245275D01*
X203200000Y-67489605D01*
X202444331Y-68245275D01*
X175374039Y-68245275D01*
X175381904Y-68230961D01*
X175221041Y-67842577D01*
X174845134Y-67427611D01*
X174628297Y-67324986D01*
X174939387Y-67117122D01*
X201852581Y-67117122D01*
X201881336Y-67647440D01*
X202028958Y-68003831D01*
X202264725Y-68065669D01*
X203020395Y-67310000D01*
X202264725Y-66554331D01*
X202028958Y-66616169D01*
X201852581Y-67117122D01*
X174939387Y-67117122D01*
X175032811Y-67054698D01*
X175343880Y-66589151D01*
X175386532Y-66374725D01*
X202444331Y-66374725D01*
X203200000Y-67130395D01*
X203955669Y-66374725D01*
X203893831Y-66138958D01*
X203392878Y-65962581D01*
X202862560Y-65991336D01*
X202506169Y-66138958D01*
X202444331Y-66374725D01*
X175386532Y-66374725D01*
X175453113Y-66040000D01*
X175343880Y-65490849D01*
X175032811Y-65025302D01*
X174650725Y-64770000D01*
X175032811Y-64514698D01*
X175343880Y-64049151D01*
X175360288Y-63966661D01*
X186562758Y-63966661D01*
X186774990Y-64480303D01*
X187167630Y-64873629D01*
X187680900Y-65086757D01*
X188236661Y-65087242D01*
X188750303Y-64875010D01*
X188965021Y-64660666D01*
X189167630Y-64863629D01*
X189680900Y-65076757D01*
X190236661Y-65077242D01*
X190750303Y-64865010D01*
X191143629Y-64472370D01*
X191356757Y-63959100D01*
X191357242Y-63403339D01*
X191145010Y-62889697D01*
X190752370Y-62496371D01*
X190239100Y-62283243D01*
X189683339Y-62282758D01*
X189169697Y-62494990D01*
X188954979Y-62709334D01*
X188752370Y-62506371D01*
X188239100Y-62293243D01*
X187683339Y-62292758D01*
X187169697Y-62504990D01*
X186776371Y-62897630D01*
X186563243Y-63410900D01*
X186562758Y-63966661D01*
X175360288Y-63966661D01*
X175453113Y-63500000D01*
X175343880Y-62950849D01*
X175032811Y-62485302D01*
X174650725Y-62230000D01*
X175032811Y-61974698D01*
X175343880Y-61509151D01*
X175453113Y-60960000D01*
X175343880Y-60410849D01*
X175038879Y-59954383D01*
X177734769Y-59954383D01*
X177937582Y-60445229D01*
X178312796Y-60821098D01*
X178803287Y-61024768D01*
X179334383Y-61025231D01*
X179825229Y-60822418D01*
X180201098Y-60447204D01*
X180404768Y-59956713D01*
X180405000Y-59690000D01*
X185328846Y-59690000D01*
X185430467Y-60200882D01*
X185719858Y-60633988D01*
X186152964Y-60923379D01*
X186663846Y-61025000D01*
X186716154Y-61025000D01*
X187227036Y-60923379D01*
X187660142Y-60633988D01*
X187949533Y-60200882D01*
X188051154Y-59690000D01*
X187949533Y-59179118D01*
X187660142Y-58746012D01*
X187227036Y-58456621D01*
X186869418Y-58385486D01*
X193254120Y-58385486D01*
X193373586Y-58669984D01*
X194044890Y-58924894D01*
X194762646Y-58903504D01*
X195326414Y-58669984D01*
X195445880Y-58385486D01*
X194350000Y-57289605D01*
X193254120Y-58385486D01*
X186869418Y-58385486D01*
X186716154Y-58355000D01*
X186663846Y-58355000D01*
X186152964Y-58456621D01*
X185719858Y-58746012D01*
X185430467Y-59179118D01*
X185328846Y-59690000D01*
X180405000Y-59690000D01*
X180405231Y-59425617D01*
X180202418Y-58934771D01*
X179827204Y-58558902D01*
X179336713Y-58355232D01*
X178805617Y-58354769D01*
X178314771Y-58557582D01*
X177938902Y-58932796D01*
X177735232Y-59423287D01*
X177734769Y-59954383D01*
X175038879Y-59954383D01*
X175032811Y-59945302D01*
X174567264Y-59634233D01*
X174018113Y-59525000D01*
X173961887Y-59525000D01*
X173412736Y-59634233D01*
X172947189Y-59945302D01*
X172636120Y-60410849D01*
X172526887Y-60960000D01*
X167817440Y-60960000D01*
X167817440Y-60160000D01*
X167773162Y-59924683D01*
X167634090Y-59708559D01*
X167421890Y-59563569D01*
X167170000Y-59512560D01*
X165570000Y-59512560D01*
X165334683Y-59556838D01*
X165118559Y-59695910D01*
X164973569Y-59908110D01*
X164922560Y-60160000D01*
X164922560Y-61760000D01*
X164966838Y-61995317D01*
X165105910Y-62211441D01*
X165318110Y-62356431D01*
X165473089Y-62387815D01*
X165327189Y-62485302D01*
X165016120Y-62950849D01*
X164906887Y-63500000D01*
X118967157Y-63500000D01*
X118967242Y-63403339D01*
X118755010Y-62889697D01*
X118362370Y-62496371D01*
X117849100Y-62283243D01*
X117293339Y-62282758D01*
X116779697Y-62494990D01*
X116564979Y-62709334D01*
X116362370Y-62506371D01*
X115849100Y-62293243D01*
X115293339Y-62292758D01*
X114779697Y-62504990D01*
X114386371Y-62897630D01*
X114173243Y-63410900D01*
X114172758Y-63966661D01*
X104240288Y-63966661D01*
X104333113Y-63500000D01*
X104223880Y-62950849D01*
X103912811Y-62485302D01*
X103530725Y-62230000D01*
X103912811Y-61974698D01*
X104223880Y-61509151D01*
X104333113Y-60960000D01*
X104223880Y-60410849D01*
X103918879Y-59954383D01*
X104074769Y-59954383D01*
X104277582Y-60445229D01*
X104652796Y-60821098D01*
X105143287Y-61024768D01*
X105674383Y-61025231D01*
X106165229Y-60822418D01*
X106541098Y-60447204D01*
X106744768Y-59956713D01*
X106745000Y-59690000D01*
X111668846Y-59690000D01*
X111770467Y-60200882D01*
X112059858Y-60633988D01*
X112492964Y-60923379D01*
X113003846Y-61025000D01*
X113056154Y-61025000D01*
X113514414Y-60933846D01*
X126935000Y-60933846D01*
X126935000Y-60986154D01*
X127036621Y-61497036D01*
X127326012Y-61930142D01*
X127759118Y-62219533D01*
X128270000Y-62321154D01*
X128780882Y-62219533D01*
X129213988Y-61930142D01*
X129503379Y-61497036D01*
X129592964Y-61046661D01*
X149002758Y-61046661D01*
X149214990Y-61560303D01*
X149607630Y-61953629D01*
X150120900Y-62166757D01*
X150676661Y-62167242D01*
X151190303Y-61955010D01*
X151400021Y-61745658D01*
X151607630Y-61953629D01*
X152120900Y-62166757D01*
X152676661Y-62167242D01*
X153190303Y-61955010D01*
X153583629Y-61562370D01*
X153796757Y-61049100D01*
X153797242Y-60493339D01*
X153585010Y-59979697D01*
X153192370Y-59586371D01*
X152679100Y-59373243D01*
X152123339Y-59372758D01*
X151609697Y-59584990D01*
X151399979Y-59794342D01*
X151192370Y-59586371D01*
X150679100Y-59373243D01*
X150123339Y-59372758D01*
X149609697Y-59584990D01*
X149216371Y-59977630D01*
X149003243Y-60490900D01*
X149002758Y-61046661D01*
X129592964Y-61046661D01*
X129605000Y-60986154D01*
X129605000Y-60933846D01*
X129503379Y-60422964D01*
X129213988Y-59989858D01*
X128780882Y-59700467D01*
X128270000Y-59598846D01*
X127759118Y-59700467D01*
X127326012Y-59989858D01*
X127036621Y-60422964D01*
X126935000Y-60933846D01*
X113514414Y-60933846D01*
X113567036Y-60923379D01*
X114000142Y-60633988D01*
X114289533Y-60200882D01*
X114391154Y-59690000D01*
X114289533Y-59179118D01*
X114000142Y-58746012D01*
X113567036Y-58456621D01*
X113209418Y-58385486D01*
X119594120Y-58385486D01*
X119713586Y-58669984D01*
X120384890Y-58924894D01*
X121102646Y-58903504D01*
X121666414Y-58669984D01*
X121782369Y-58393846D01*
X134555000Y-58393846D01*
X134555000Y-58446154D01*
X134656621Y-58957036D01*
X134946012Y-59390142D01*
X135379118Y-59679533D01*
X135890000Y-59781154D01*
X136400882Y-59679533D01*
X136833988Y-59390142D01*
X137123379Y-58957036D01*
X137225000Y-58446154D01*
X137225000Y-58393846D01*
X137123379Y-57882964D01*
X136833988Y-57449858D01*
X136400882Y-57160467D01*
X135890000Y-57058846D01*
X135379118Y-57160467D01*
X134946012Y-57449858D01*
X134656621Y-57882964D01*
X134555000Y-58393846D01*
X121782369Y-58393846D01*
X121785880Y-58385486D01*
X120690000Y-57289605D01*
X119594120Y-58385486D01*
X113209418Y-58385486D01*
X113056154Y-58355000D01*
X113003846Y-58355000D01*
X112492964Y-58456621D01*
X112059858Y-58746012D01*
X111770467Y-59179118D01*
X111668846Y-59690000D01*
X106745000Y-59690000D01*
X106745231Y-59425617D01*
X106542418Y-58934771D01*
X106167204Y-58558902D01*
X105676713Y-58355232D01*
X105145617Y-58354769D01*
X104654771Y-58557582D01*
X104278902Y-58932796D01*
X104075232Y-59423287D01*
X104074769Y-59954383D01*
X103918879Y-59954383D01*
X103912811Y-59945302D01*
X103447264Y-59634233D01*
X102898113Y-59525000D01*
X102841887Y-59525000D01*
X102292736Y-59634233D01*
X101827189Y-59945302D01*
X101516120Y-60410849D01*
X101406887Y-60960000D01*
X96697440Y-60960000D01*
X96697440Y-60160000D01*
X96653162Y-59924683D01*
X96514090Y-59708559D01*
X96301890Y-59563569D01*
X96050000Y-59512560D01*
X94450000Y-59512560D01*
X94214683Y-59556838D01*
X93998559Y-59695910D01*
X93853569Y-59908110D01*
X93802560Y-60160000D01*
X93802560Y-61760000D01*
X93846838Y-61995317D01*
X93985910Y-62211441D01*
X94198110Y-62356431D01*
X94353089Y-62387815D01*
X94207189Y-62485302D01*
X93896120Y-62950849D01*
X93786887Y-63500000D01*
X52446930Y-63500000D01*
X52446930Y-62500510D01*
X52402652Y-62265193D01*
X52263580Y-62049069D01*
X52051380Y-61904079D01*
X51799490Y-61853070D01*
X49800510Y-61853070D01*
X49565193Y-61897348D01*
X49349069Y-62036420D01*
X49204079Y-62248620D01*
X49153070Y-62500510D01*
X48387000Y-62500510D01*
X48387000Y-59663846D01*
X65975000Y-59663846D01*
X65975000Y-59716154D01*
X66076621Y-60227036D01*
X66366012Y-60660142D01*
X66799118Y-60949533D01*
X67310000Y-61051154D01*
X67332587Y-61046661D01*
X77882758Y-61046661D01*
X78094990Y-61560303D01*
X78487630Y-61953629D01*
X79000900Y-62166757D01*
X79556661Y-62167242D01*
X80070303Y-61955010D01*
X80280021Y-61745658D01*
X80487630Y-61953629D01*
X81000900Y-62166757D01*
X81556661Y-62167242D01*
X82070303Y-61955010D01*
X82463629Y-61562370D01*
X82676757Y-61049100D01*
X82677242Y-60493339D01*
X82465010Y-59979697D01*
X82072370Y-59586371D01*
X81559100Y-59373243D01*
X81003339Y-59372758D01*
X80489697Y-59584990D01*
X80279979Y-59794342D01*
X80072370Y-59586371D01*
X79559100Y-59373243D01*
X79003339Y-59372758D01*
X78489697Y-59584990D01*
X78096371Y-59977630D01*
X77883243Y-60490900D01*
X77882758Y-61046661D01*
X67332587Y-61046661D01*
X67820882Y-60949533D01*
X68253988Y-60660142D01*
X68543379Y-60227036D01*
X68645000Y-59716154D01*
X68645000Y-59663846D01*
X68543379Y-59152964D01*
X68253988Y-58719858D01*
X67820882Y-58430467D01*
X67310000Y-58328846D01*
X66799118Y-58430467D01*
X66366012Y-58719858D01*
X66076621Y-59152964D01*
X65975000Y-59663846D01*
X48387000Y-59663846D01*
X48387000Y-58403320D01*
X50916285Y-58403320D01*
X51045533Y-58696123D01*
X51745806Y-58964388D01*
X52495435Y-58944250D01*
X53094467Y-58696123D01*
X53223715Y-58403320D01*
X52070000Y-57249605D01*
X50916285Y-58403320D01*
X48387000Y-58403320D01*
X48387000Y-56745806D01*
X50175612Y-56745806D01*
X50195750Y-57495435D01*
X50443877Y-58094467D01*
X50736680Y-58223715D01*
X51890395Y-57070000D01*
X52249605Y-57070000D01*
X53403320Y-58223715D01*
X53696123Y-58094467D01*
X53964388Y-57394194D01*
X53949709Y-56847745D01*
X63941861Y-56847745D01*
X64015995Y-57093864D01*
X64553223Y-57286965D01*
X65123454Y-57259778D01*
X65524005Y-57093864D01*
X65598139Y-56847745D01*
X64770000Y-56019605D01*
X63941861Y-56847745D01*
X53949709Y-56847745D01*
X53944250Y-56644565D01*
X53696123Y-56045533D01*
X53403320Y-55916285D01*
X52249605Y-57070000D01*
X51890395Y-57070000D01*
X50736680Y-55916285D01*
X50443877Y-56045533D01*
X50175612Y-56745806D01*
X48387000Y-56745806D01*
X48387000Y-55736680D01*
X50916285Y-55736680D01*
X52070000Y-56890395D01*
X53223715Y-55736680D01*
X53173634Y-55623223D01*
X63323035Y-55623223D01*
X63350222Y-56193454D01*
X63516136Y-56594005D01*
X63762255Y-56668139D01*
X64590395Y-55840000D01*
X64949605Y-55840000D01*
X65777745Y-56668139D01*
X66023864Y-56594005D01*
X66178357Y-56164187D01*
X86194752Y-56164187D01*
X86412757Y-56691800D01*
X86816077Y-57095824D01*
X87343309Y-57314750D01*
X87914187Y-57315248D01*
X88441800Y-57097243D01*
X88845824Y-56693923D01*
X89064750Y-56166691D01*
X89064752Y-56164187D01*
X91194752Y-56164187D01*
X91412757Y-56691800D01*
X91816077Y-57095824D01*
X92343309Y-57314750D01*
X92914187Y-57315248D01*
X93441800Y-57097243D01*
X93845824Y-56693923D01*
X94035363Y-56237462D01*
X97254687Y-56237462D01*
X97528903Y-56901115D01*
X98036215Y-57409312D01*
X98699388Y-57684686D01*
X99417462Y-57685313D01*
X100081115Y-57411097D01*
X100589312Y-56903785D01*
X100864686Y-56240612D01*
X100865313Y-55522538D01*
X100627615Y-54947265D01*
X101199388Y-55184686D01*
X101917462Y-55185313D01*
X102492735Y-54947615D01*
X102255314Y-55519388D01*
X102254687Y-56237462D01*
X102528903Y-56901115D01*
X103036215Y-57409312D01*
X103699388Y-57684686D01*
X104417462Y-57685313D01*
X105081115Y-57411097D01*
X105589312Y-56903785D01*
X105864686Y-56240612D01*
X105865313Y-55522538D01*
X105605684Y-54894187D01*
X107784752Y-54894187D01*
X108002757Y-55421800D01*
X108406077Y-55825824D01*
X108933309Y-56044750D01*
X109504187Y-56045248D01*
X110031800Y-55827243D01*
X110435824Y-55423923D01*
X110654750Y-54896691D01*
X110654752Y-54894187D01*
X112784752Y-54894187D01*
X113002757Y-55421800D01*
X113406077Y-55825824D01*
X113933309Y-56044750D01*
X114504187Y-56045248D01*
X115031800Y-55827243D01*
X115435824Y-55423923D01*
X115625363Y-54967462D01*
X116384687Y-54967462D01*
X116658903Y-55631115D01*
X117166215Y-56139312D01*
X117829388Y-56414686D01*
X118547462Y-56415313D01*
X119111541Y-56182240D01*
X118875106Y-56804890D01*
X118896496Y-57522646D01*
X119130016Y-58086414D01*
X119414514Y-58205880D01*
X120510395Y-57110000D01*
X120496252Y-57095858D01*
X120675858Y-56916252D01*
X120690000Y-56930395D01*
X120704142Y-56916252D01*
X120883748Y-57095858D01*
X120869605Y-57110000D01*
X121965486Y-58205880D01*
X122249984Y-58086414D01*
X122504894Y-57415110D01*
X122483504Y-56697354D01*
X122270249Y-56182511D01*
X122829388Y-56414686D01*
X123547462Y-56415313D01*
X124155232Y-56164187D01*
X152314752Y-56164187D01*
X152532757Y-56691800D01*
X152936077Y-57095824D01*
X153463309Y-57314750D01*
X154034187Y-57315248D01*
X154561800Y-57097243D01*
X154965824Y-56693923D01*
X155184750Y-56166691D01*
X155184752Y-56164187D01*
X157314752Y-56164187D01*
X157532757Y-56691800D01*
X157936077Y-57095824D01*
X158463309Y-57314750D01*
X159034187Y-57315248D01*
X159561800Y-57097243D01*
X159965824Y-56693923D01*
X160155363Y-56237462D01*
X167104687Y-56237462D01*
X167378903Y-56901115D01*
X167886215Y-57409312D01*
X168549388Y-57684686D01*
X169267462Y-57685313D01*
X169931115Y-57411097D01*
X170439312Y-56903785D01*
X170714686Y-56240612D01*
X170715313Y-55522538D01*
X170477615Y-54947265D01*
X171049388Y-55184686D01*
X171767462Y-55185313D01*
X172342735Y-54947615D01*
X172105314Y-55519388D01*
X172104687Y-56237462D01*
X172378903Y-56901115D01*
X172886215Y-57409312D01*
X173549388Y-57684686D01*
X174267462Y-57685313D01*
X174931115Y-57411097D01*
X175439312Y-56903785D01*
X175714686Y-56240612D01*
X175714752Y-56164187D01*
X178904752Y-56164187D01*
X179122757Y-56691800D01*
X179526077Y-57095824D01*
X180053309Y-57314750D01*
X180624187Y-57315248D01*
X181151800Y-57097243D01*
X181555824Y-56693923D01*
X181774750Y-56166691D01*
X181774752Y-56164187D01*
X183904752Y-56164187D01*
X184122757Y-56691800D01*
X184526077Y-57095824D01*
X185053309Y-57314750D01*
X185624187Y-57315248D01*
X186151800Y-57097243D01*
X186555824Y-56693923D01*
X186774750Y-56166691D01*
X186775248Y-55595813D01*
X186557243Y-55068200D01*
X186456681Y-54967462D01*
X190044687Y-54967462D01*
X190318903Y-55631115D01*
X190826215Y-56139312D01*
X191489388Y-56414686D01*
X192207462Y-56415313D01*
X192771541Y-56182240D01*
X192535106Y-56804890D01*
X192556496Y-57522646D01*
X192790016Y-58086414D01*
X193074514Y-58205880D01*
X194170395Y-57110000D01*
X194156252Y-57095858D01*
X194335858Y-56916252D01*
X194350000Y-56930395D01*
X194364142Y-56916252D01*
X194543748Y-57095858D01*
X194529605Y-57110000D01*
X195625486Y-58205880D01*
X195909984Y-58086414D01*
X196164894Y-57415110D01*
X196143504Y-56697354D01*
X195930249Y-56182511D01*
X196489388Y-56414686D01*
X197207462Y-56415313D01*
X197871115Y-56141097D01*
X198379312Y-55633785D01*
X198654686Y-54970612D01*
X198655313Y-54252538D01*
X198381097Y-53588885D01*
X197873785Y-53080688D01*
X197210612Y-52805314D01*
X196492538Y-52804687D01*
X195828885Y-53078903D01*
X195320688Y-53586215D01*
X195045314Y-54249388D01*
X195044687Y-54967462D01*
X195277760Y-55531541D01*
X194655110Y-55295106D01*
X193937354Y-55316496D01*
X193422511Y-55529751D01*
X193654686Y-54970612D01*
X193655313Y-54252538D01*
X193381097Y-53588885D01*
X192873785Y-53080688D01*
X192210612Y-52805314D01*
X191492538Y-52804687D01*
X190828885Y-53078903D01*
X190320688Y-53586215D01*
X190045314Y-54249388D01*
X190044687Y-54967462D01*
X186456681Y-54967462D01*
X186153923Y-54664176D01*
X185626691Y-54445250D01*
X185055813Y-54444752D01*
X184528200Y-54662757D01*
X184124176Y-55066077D01*
X183905250Y-55593309D01*
X183904752Y-56164187D01*
X181774752Y-56164187D01*
X181775248Y-55595813D01*
X181557243Y-55068200D01*
X181153923Y-54664176D01*
X180626691Y-54445250D01*
X180055813Y-54444752D01*
X179528200Y-54662757D01*
X179124176Y-55066077D01*
X178905250Y-55593309D01*
X178904752Y-56164187D01*
X175714752Y-56164187D01*
X175715313Y-55522538D01*
X175441097Y-54858885D01*
X174933785Y-54350688D01*
X174270612Y-54075314D01*
X173552538Y-54074687D01*
X172977265Y-54312385D01*
X173214686Y-53740612D01*
X173215313Y-53022538D01*
X172941097Y-52358885D01*
X172433785Y-51850688D01*
X171770612Y-51575314D01*
X171052538Y-51574687D01*
X170388885Y-51848903D01*
X169880688Y-52356215D01*
X169605314Y-53019388D01*
X169604687Y-53737462D01*
X169842385Y-54312735D01*
X169270612Y-54075314D01*
X168552538Y-54074687D01*
X167888885Y-54348903D01*
X167380688Y-54856215D01*
X167105314Y-55519388D01*
X167104687Y-56237462D01*
X160155363Y-56237462D01*
X160184750Y-56166691D01*
X160185248Y-55595813D01*
X159967243Y-55068200D01*
X159563923Y-54664176D01*
X159036691Y-54445250D01*
X158465813Y-54444752D01*
X157938200Y-54662757D01*
X157534176Y-55066077D01*
X157315250Y-55593309D01*
X157314752Y-56164187D01*
X155184752Y-56164187D01*
X155185248Y-55595813D01*
X154967243Y-55068200D01*
X154563923Y-54664176D01*
X154036691Y-54445250D01*
X153465813Y-54444752D01*
X152938200Y-54662757D01*
X152534176Y-55066077D01*
X152315250Y-55593309D01*
X152314752Y-56164187D01*
X124155232Y-56164187D01*
X124211115Y-56141097D01*
X124719312Y-55633785D01*
X124994686Y-54970612D01*
X124995313Y-54252538D01*
X124727501Y-53604383D01*
X126934769Y-53604383D01*
X127137582Y-54095229D01*
X127512796Y-54471098D01*
X128003287Y-54674768D01*
X128534383Y-54675231D01*
X129025229Y-54472418D01*
X129401098Y-54097204D01*
X129604768Y-53606713D01*
X129605231Y-53075617D01*
X129402418Y-52584771D01*
X129027204Y-52208902D01*
X128536713Y-52005232D01*
X128005617Y-52004769D01*
X127514771Y-52207582D01*
X127138902Y-52582796D01*
X126935232Y-53073287D01*
X126934769Y-53604383D01*
X124727501Y-53604383D01*
X124721097Y-53588885D01*
X124213785Y-53080688D01*
X123550612Y-52805314D01*
X122832538Y-52804687D01*
X122168885Y-53078903D01*
X121660688Y-53586215D01*
X121385314Y-54249388D01*
X121384687Y-54967462D01*
X121617760Y-55531541D01*
X120995110Y-55295106D01*
X120277354Y-55316496D01*
X119762511Y-55529751D01*
X119994686Y-54970612D01*
X119995313Y-54252538D01*
X119721097Y-53588885D01*
X119213785Y-53080688D01*
X118550612Y-52805314D01*
X117832538Y-52804687D01*
X117168885Y-53078903D01*
X116660688Y-53586215D01*
X116385314Y-54249388D01*
X116384687Y-54967462D01*
X115625363Y-54967462D01*
X115654750Y-54896691D01*
X115655248Y-54325813D01*
X115437243Y-53798200D01*
X115033923Y-53394176D01*
X114506691Y-53175250D01*
X113935813Y-53174752D01*
X113408200Y-53392757D01*
X113004176Y-53796077D01*
X112785250Y-54323309D01*
X112784752Y-54894187D01*
X110654752Y-54894187D01*
X110655248Y-54325813D01*
X110437243Y-53798200D01*
X110033923Y-53394176D01*
X109506691Y-53175250D01*
X108935813Y-53174752D01*
X108408200Y-53392757D01*
X108004176Y-53796077D01*
X107785250Y-54323309D01*
X107784752Y-54894187D01*
X105605684Y-54894187D01*
X105591097Y-54858885D01*
X105083785Y-54350688D01*
X104420612Y-54075314D01*
X103702538Y-54074687D01*
X103127265Y-54312385D01*
X103364686Y-53740612D01*
X103365313Y-53022538D01*
X103091097Y-52358885D01*
X102583785Y-51850688D01*
X101920612Y-51575314D01*
X101202538Y-51574687D01*
X100538885Y-51848903D01*
X100030688Y-52356215D01*
X99755314Y-53019388D01*
X99754687Y-53737462D01*
X99992385Y-54312735D01*
X99420612Y-54075314D01*
X98702538Y-54074687D01*
X98038885Y-54348903D01*
X97530688Y-54856215D01*
X97255314Y-55519388D01*
X97254687Y-56237462D01*
X94035363Y-56237462D01*
X94064750Y-56166691D01*
X94065248Y-55595813D01*
X93847243Y-55068200D01*
X93443923Y-54664176D01*
X92916691Y-54445250D01*
X92345813Y-54444752D01*
X91818200Y-54662757D01*
X91414176Y-55066077D01*
X91195250Y-55593309D01*
X91194752Y-56164187D01*
X89064752Y-56164187D01*
X89065248Y-55595813D01*
X88847243Y-55068200D01*
X88443923Y-54664176D01*
X87916691Y-54445250D01*
X87345813Y-54444752D01*
X86818200Y-54662757D01*
X86414176Y-55066077D01*
X86195250Y-55593309D01*
X86194752Y-56164187D01*
X66178357Y-56164187D01*
X66216965Y-56056777D01*
X66189778Y-55486546D01*
X66023864Y-55085995D01*
X65777745Y-55011861D01*
X64949605Y-55840000D01*
X64590395Y-55840000D01*
X63762255Y-55011861D01*
X63516136Y-55085995D01*
X63323035Y-55623223D01*
X53173634Y-55623223D01*
X53094467Y-55443877D01*
X52394194Y-55175612D01*
X51644565Y-55195750D01*
X51045533Y-55443877D01*
X50916285Y-55736680D01*
X48387000Y-55736680D01*
X48387000Y-50820000D01*
X50172560Y-50820000D01*
X50172560Y-53320000D01*
X50216838Y-53555317D01*
X50355910Y-53771441D01*
X50568110Y-53916431D01*
X50820000Y-53967440D01*
X53320000Y-53967440D01*
X53555317Y-53923162D01*
X53771441Y-53784090D01*
X53916431Y-53571890D01*
X53967440Y-53320000D01*
X53967440Y-52540000D01*
X63322560Y-52540000D01*
X63322560Y-54140000D01*
X63366838Y-54375317D01*
X63505910Y-54591441D01*
X63718110Y-54736431D01*
X63956201Y-54784646D01*
X63941861Y-54832255D01*
X64770000Y-55660395D01*
X65598139Y-54832255D01*
X65583855Y-54784833D01*
X65805317Y-54743162D01*
X66021441Y-54604090D01*
X66166431Y-54391890D01*
X66217440Y-54140000D01*
X66217440Y-52540000D01*
X66173162Y-52304683D01*
X66034090Y-52088559D01*
X65821890Y-51943569D01*
X65570000Y-51892560D01*
X63970000Y-51892560D01*
X63734683Y-51936838D01*
X63518559Y-52075910D01*
X63373569Y-52288110D01*
X63322560Y-52540000D01*
X53967440Y-52540000D01*
X53967440Y-50820000D01*
X53923162Y-50584683D01*
X53784090Y-50368559D01*
X53571890Y-50223569D01*
X53320000Y-50172560D01*
X50820000Y-50172560D01*
X50584683Y-50216838D01*
X50368559Y-50355910D01*
X50223569Y-50568110D01*
X50172560Y-50820000D01*
X48387000Y-50820000D01*
X48387000Y-49657000D01*
X204343000Y-49657000D01*
X204343000Y-55150381D01*
X204343000Y-55150381D01*
G37*
X204343000Y-55150381D02*
X204332418Y-55124771D01*
X203957204Y-54748902D01*
X203466713Y-54545232D01*
X202935617Y-54544769D01*
X202444771Y-54747582D01*
X202068902Y-55122796D01*
X201865232Y-55613287D01*
X201864769Y-56144383D01*
X202067582Y-56635229D01*
X202442796Y-57011098D01*
X202933287Y-57214768D01*
X203464383Y-57215231D01*
X203955229Y-57012418D01*
X204331098Y-56637204D01*
X204343000Y-56608541D01*
X204343000Y-62827702D01*
X204143988Y-62529858D01*
X203710882Y-62240467D01*
X203200000Y-62138846D01*
X202689118Y-62240467D01*
X202256012Y-62529858D01*
X201966621Y-62962964D01*
X201865000Y-63473846D01*
X201865000Y-63526154D01*
X201966621Y-64037036D01*
X202256012Y-64470142D01*
X202689118Y-64759533D01*
X203200000Y-64861154D01*
X203710882Y-64759533D01*
X204143988Y-64470142D01*
X204343000Y-64172298D01*
X204343000Y-66608814D01*
X204135275Y-66554331D01*
X203379605Y-67310000D01*
X204135275Y-68065669D01*
X204343000Y-68011186D01*
X204343000Y-74257702D01*
X204143988Y-73959858D01*
X203710882Y-73670467D01*
X203200000Y-73568846D01*
X202689118Y-73670467D01*
X202256012Y-73959858D01*
X201966621Y-74392964D01*
X201865000Y-74903846D01*
X201865000Y-74956154D01*
X201966621Y-75467036D01*
X202256012Y-75900142D01*
X202689118Y-76189533D01*
X203200000Y-76291154D01*
X203710882Y-76189533D01*
X204143988Y-75900142D01*
X204343000Y-75602298D01*
X204343000Y-78010381D01*
X204332418Y-77984771D01*
X203957204Y-77608902D01*
X203466713Y-77405232D01*
X202935617Y-77404769D01*
X202444771Y-77607582D01*
X202068902Y-77982796D01*
X201865232Y-78473287D01*
X201864769Y-79004383D01*
X202067582Y-79495229D01*
X202442796Y-79871098D01*
X202933287Y-80074768D01*
X203464383Y-80075231D01*
X203955229Y-79872418D01*
X204331098Y-79497204D01*
X204343000Y-79468541D01*
X204343000Y-85687702D01*
X204143988Y-85389858D01*
X203710882Y-85100467D01*
X203200000Y-84998846D01*
X202689118Y-85100467D01*
X202256012Y-85389858D01*
X201966621Y-85822964D01*
X201865000Y-86333846D01*
X201865000Y-86386154D01*
X201966621Y-86897036D01*
X202256012Y-87330142D01*
X202689118Y-87619533D01*
X203200000Y-87721154D01*
X203710882Y-87619533D01*
X204143988Y-87330142D01*
X204343000Y-87032298D01*
X204343000Y-91313000D01*
X48387000Y-91313000D01*
X48387000Y-89164383D01*
X68514769Y-89164383D01*
X68717582Y-89655229D01*
X69092796Y-90031098D01*
X69583287Y-90234768D01*
X70114383Y-90235231D01*
X70605229Y-90032418D01*
X70981098Y-89657204D01*
X71184768Y-89166713D01*
X71185231Y-88635617D01*
X70982418Y-88144771D01*
X70825384Y-87987462D01*
X73124687Y-87987462D01*
X73398903Y-88651115D01*
X73906215Y-89159312D01*
X74569388Y-89434686D01*
X75287462Y-89435313D01*
X75951115Y-89161097D01*
X76459312Y-88653785D01*
X76734686Y-87990612D01*
X76735313Y-87272538D01*
X76502240Y-86708459D01*
X77124890Y-86944894D01*
X77842646Y-86923504D01*
X78357489Y-86710249D01*
X78125314Y-87269388D01*
X78124687Y-87987462D01*
X78398903Y-88651115D01*
X78906215Y-89159312D01*
X79569388Y-89434686D01*
X80287462Y-89435313D01*
X80951115Y-89161097D01*
X81459312Y-88653785D01*
X81734686Y-87990612D01*
X81734752Y-87914187D01*
X85004752Y-87914187D01*
X85222757Y-88441800D01*
X85626077Y-88845824D01*
X86153309Y-89064750D01*
X86724187Y-89065248D01*
X87251800Y-88847243D01*
X87655824Y-88443923D01*
X87874750Y-87916691D01*
X87874752Y-87914187D01*
X90004752Y-87914187D01*
X90222757Y-88441800D01*
X90626077Y-88845824D01*
X91153309Y-89064750D01*
X91724187Y-89065248D01*
X92251800Y-88847243D01*
X92655824Y-88443923D01*
X92874750Y-87916691D01*
X92875248Y-87345813D01*
X92657243Y-86818200D01*
X92253923Y-86414176D01*
X91726691Y-86195250D01*
X91155813Y-86194752D01*
X90628200Y-86412757D01*
X90224176Y-86816077D01*
X90005250Y-87343309D01*
X90004752Y-87914187D01*
X87874752Y-87914187D01*
X87875248Y-87345813D01*
X87657243Y-86818200D01*
X87253923Y-86414176D01*
X86726691Y-86195250D01*
X86155813Y-86194752D01*
X85628200Y-86412757D01*
X85224176Y-86816077D01*
X85005250Y-87343309D01*
X85004752Y-87914187D01*
X81734752Y-87914187D01*
X81735313Y-87272538D01*
X81461097Y-86608885D01*
X80953785Y-86100688D01*
X80290612Y-85825314D01*
X79572538Y-85824687D01*
X79008459Y-86057760D01*
X79244894Y-85435110D01*
X79223504Y-84717354D01*
X78999874Y-84177462D01*
X94794687Y-84177462D01*
X95068903Y-84841115D01*
X95576215Y-85349312D01*
X96239388Y-85624686D01*
X96957462Y-85625313D01*
X97532735Y-85387615D01*
X97295314Y-85959388D01*
X97294687Y-86677462D01*
X97568903Y-87341115D01*
X98076215Y-87849312D01*
X98739388Y-88124686D01*
X99457462Y-88125313D01*
X100016354Y-87894383D01*
X137094769Y-87894383D01*
X137297582Y-88385229D01*
X137672796Y-88761098D01*
X138163287Y-88964768D01*
X138694383Y-88965231D01*
X139185229Y-88762418D01*
X139561098Y-88387204D01*
X139764768Y-87896713D01*
X139765231Y-87365617D01*
X139562418Y-86874771D01*
X139405384Y-86717462D01*
X141704687Y-86717462D01*
X141978903Y-87381115D01*
X142486215Y-87889312D01*
X143149388Y-88164686D01*
X143867462Y-88165313D01*
X144531115Y-87891097D01*
X145039312Y-87383785D01*
X145314686Y-86720612D01*
X145315313Y-86002538D01*
X145082240Y-85438459D01*
X145704890Y-85674894D01*
X146422646Y-85653504D01*
X146937489Y-85440249D01*
X146705314Y-85999388D01*
X146704687Y-86717462D01*
X146978903Y-87381115D01*
X147486215Y-87889312D01*
X148149388Y-88164686D01*
X148867462Y-88165313D01*
X149531115Y-87891097D01*
X150039312Y-87383785D01*
X150314686Y-86720612D01*
X150314752Y-86644187D01*
X153584752Y-86644187D01*
X153802757Y-87171800D01*
X154206077Y-87575824D01*
X154733309Y-87794750D01*
X155304187Y-87795248D01*
X155831800Y-87577243D01*
X156235824Y-87173923D01*
X156454750Y-86646691D01*
X156454752Y-86644187D01*
X158584752Y-86644187D01*
X158802757Y-87171800D01*
X159206077Y-87575824D01*
X159733309Y-87794750D01*
X160304187Y-87795248D01*
X160831800Y-87577243D01*
X161235824Y-87173923D01*
X161454750Y-86646691D01*
X161455248Y-86075813D01*
X161237243Y-85548200D01*
X160833923Y-85144176D01*
X160306691Y-84925250D01*
X159735813Y-84924752D01*
X159208200Y-85142757D01*
X158804176Y-85546077D01*
X158585250Y-86073309D01*
X158584752Y-86644187D01*
X156454752Y-86644187D01*
X156455248Y-86075813D01*
X156237243Y-85548200D01*
X155833923Y-85144176D01*
X155306691Y-84925250D01*
X154735813Y-84924752D01*
X154208200Y-85142757D01*
X153804176Y-85546077D01*
X153585250Y-86073309D01*
X153584752Y-86644187D01*
X150314752Y-86644187D01*
X150315313Y-86002538D01*
X150041097Y-85338885D01*
X149533785Y-84830688D01*
X148870612Y-84555314D01*
X148152538Y-84554687D01*
X147588459Y-84787760D01*
X147824894Y-84165110D01*
X147803504Y-83447354D01*
X147569984Y-82883586D01*
X147285486Y-82764120D01*
X146189605Y-83860000D01*
X146203748Y-83874142D01*
X146024142Y-84053748D01*
X146010000Y-84039605D01*
X145995858Y-84053748D01*
X145816252Y-83874142D01*
X145830395Y-83860000D01*
X144734514Y-82764120D01*
X144450016Y-82883586D01*
X144195106Y-83554890D01*
X144216496Y-84272646D01*
X144429751Y-84787489D01*
X143870612Y-84555314D01*
X143152538Y-84554687D01*
X142488885Y-84828903D01*
X141980688Y-85336215D01*
X141705314Y-85999388D01*
X141704687Y-86717462D01*
X139405384Y-86717462D01*
X139187204Y-86498902D01*
X138696713Y-86295232D01*
X138165617Y-86294769D01*
X137674771Y-86497582D01*
X137298902Y-86872796D01*
X137095232Y-87363287D01*
X137094769Y-87894383D01*
X100016354Y-87894383D01*
X100121115Y-87851097D01*
X100629312Y-87343785D01*
X100904686Y-86680612D01*
X100904717Y-86644187D01*
X106514752Y-86644187D01*
X106732757Y-87171800D01*
X107136077Y-87575824D01*
X107663309Y-87794750D01*
X108234187Y-87795248D01*
X108761800Y-87577243D01*
X109165824Y-87173923D01*
X109384750Y-86646691D01*
X109384752Y-86644187D01*
X111514752Y-86644187D01*
X111732757Y-87171800D01*
X112136077Y-87575824D01*
X112663309Y-87794750D01*
X113234187Y-87795248D01*
X113761800Y-87577243D01*
X114165824Y-87173923D01*
X114384750Y-86646691D01*
X114385248Y-86075813D01*
X114167243Y-85548200D01*
X113763923Y-85144176D01*
X113570468Y-85063846D01*
X128205000Y-85063846D01*
X128205000Y-85116154D01*
X128306621Y-85627036D01*
X128596012Y-86060142D01*
X129029118Y-86349533D01*
X129540000Y-86451154D01*
X130050882Y-86349533D01*
X130483988Y-86060142D01*
X130773379Y-85627036D01*
X130875000Y-85116154D01*
X130875000Y-85063846D01*
X130773379Y-84552964D01*
X130483988Y-84119858D01*
X130050882Y-83830467D01*
X129540000Y-83728846D01*
X129029118Y-83830467D01*
X128596012Y-84119858D01*
X128306621Y-84552964D01*
X128205000Y-85063846D01*
X113570468Y-85063846D01*
X113236691Y-84925250D01*
X112665813Y-84924752D01*
X112138200Y-85142757D01*
X111734176Y-85546077D01*
X111515250Y-86073309D01*
X111514752Y-86644187D01*
X109384752Y-86644187D01*
X109385248Y-86075813D01*
X109167243Y-85548200D01*
X108763923Y-85144176D01*
X108236691Y-84925250D01*
X107665813Y-84924752D01*
X107138200Y-85142757D01*
X106734176Y-85546077D01*
X106515250Y-86073309D01*
X106514752Y-86644187D01*
X100904717Y-86644187D01*
X100905313Y-85962538D01*
X100667615Y-85387265D01*
X101239388Y-85624686D01*
X101957462Y-85625313D01*
X102621115Y-85351097D01*
X103129312Y-84843785D01*
X103404686Y-84180612D01*
X103405313Y-83462538D01*
X103131097Y-82798885D01*
X102623785Y-82290688D01*
X101960612Y-82015314D01*
X101242538Y-82014687D01*
X100578885Y-82288903D01*
X100070688Y-82796215D01*
X99795314Y-83459388D01*
X99794687Y-84177462D01*
X100032385Y-84752735D01*
X99460612Y-84515314D01*
X98742538Y-84514687D01*
X98167265Y-84752385D01*
X98404686Y-84180612D01*
X98405313Y-83462538D01*
X98131097Y-82798885D01*
X97623785Y-82290688D01*
X96960612Y-82015314D01*
X96242538Y-82014687D01*
X95578885Y-82288903D01*
X95070688Y-82796215D01*
X94795314Y-83459388D01*
X94794687Y-84177462D01*
X78999874Y-84177462D01*
X78989984Y-84153586D01*
X78705486Y-84034120D01*
X77609605Y-85130000D01*
X77623748Y-85144142D01*
X77444142Y-85323748D01*
X77430000Y-85309605D01*
X77415858Y-85323748D01*
X77236252Y-85144142D01*
X77250395Y-85130000D01*
X76154514Y-84034120D01*
X75870016Y-84153586D01*
X75615106Y-84824890D01*
X75636496Y-85542646D01*
X75849751Y-86057489D01*
X75290612Y-85825314D01*
X74572538Y-85824687D01*
X73908885Y-86098903D01*
X73400688Y-86606215D01*
X73125314Y-87269388D01*
X73124687Y-87987462D01*
X70825384Y-87987462D01*
X70607204Y-87768902D01*
X70116713Y-87565232D01*
X69585617Y-87564769D01*
X69094771Y-87767582D01*
X68718902Y-88142796D01*
X68515232Y-88633287D01*
X68514769Y-89164383D01*
X48387000Y-89164383D01*
X48387000Y-68547978D01*
X49165510Y-68547978D01*
X49165510Y-68612022D01*
X49289928Y-69237514D01*
X49644241Y-69767781D01*
X49767290Y-69850000D01*
X49644241Y-69932219D01*
X49289928Y-70462486D01*
X49165510Y-71087978D01*
X49165510Y-71152022D01*
X49289928Y-71777514D01*
X49644241Y-72307781D01*
X49767290Y-72390000D01*
X49644241Y-72472219D01*
X49289928Y-73002486D01*
X49165510Y-73627978D01*
X49165510Y-73692022D01*
X49289928Y-74317514D01*
X49644241Y-74847781D01*
X49767290Y-74930000D01*
X49644241Y-75012219D01*
X49289928Y-75542486D01*
X49165510Y-76167978D01*
X49165510Y-76232022D01*
X49289928Y-76857514D01*
X49644241Y-77387781D01*
X49767290Y-77470000D01*
X49644241Y-77552219D01*
X49289928Y-78082486D01*
X49165510Y-78707978D01*
X49165510Y-78772022D01*
X49289928Y-79397514D01*
X49644241Y-79927781D01*
X49767290Y-80010000D01*
X49644241Y-80092219D01*
X49289928Y-80622486D01*
X49165510Y-81247978D01*
X49165510Y-81312022D01*
X49289928Y-81937514D01*
X49644241Y-82467781D01*
X49767290Y-82550000D01*
X49644241Y-82632219D01*
X49289928Y-83162486D01*
X49165510Y-83787978D01*
X49165510Y-83852022D01*
X49289928Y-84477514D01*
X49644241Y-85007781D01*
X49767290Y-85090000D01*
X49644241Y-85172219D01*
X49289928Y-85702486D01*
X49165510Y-86327978D01*
X49165510Y-86392022D01*
X49289928Y-87017514D01*
X49644241Y-87547781D01*
X50174508Y-87902094D01*
X50800000Y-88026512D01*
X51425492Y-87902094D01*
X51955759Y-87547781D01*
X52310072Y-87017514D01*
X52434490Y-86392022D01*
X52434490Y-86327978D01*
X52310072Y-85702486D01*
X51955759Y-85172219D01*
X51832710Y-85090000D01*
X51955759Y-85007781D01*
X52310072Y-84477514D01*
X52433994Y-83854514D01*
X76334120Y-83854514D01*
X77430000Y-84950395D01*
X78525880Y-83854514D01*
X78406414Y-83570016D01*
X77735110Y-83315106D01*
X77017354Y-83336496D01*
X76453586Y-83570016D01*
X76334120Y-83854514D01*
X52433994Y-83854514D01*
X52434490Y-83852022D01*
X52434490Y-83787978D01*
X52310072Y-83162486D01*
X51955759Y-82632219D01*
X51832710Y-82550000D01*
X51955759Y-82467781D01*
X52310072Y-81937514D01*
X52434490Y-81312022D01*
X52434490Y-81253846D01*
X68515000Y-81253846D01*
X68515000Y-81306154D01*
X68616621Y-81817036D01*
X68906012Y-82250142D01*
X69339118Y-82539533D01*
X69850000Y-82641154D01*
X70308260Y-82550000D01*
X83728846Y-82550000D01*
X83830467Y-83060882D01*
X84119858Y-83493988D01*
X84552964Y-83783379D01*
X85063846Y-83885000D01*
X85116154Y-83885000D01*
X85627036Y-83783379D01*
X86060142Y-83493988D01*
X86349533Y-83060882D01*
X86398564Y-82814383D01*
X91374769Y-82814383D01*
X91577582Y-83305229D01*
X91952796Y-83681098D01*
X92443287Y-83884768D01*
X92974383Y-83885231D01*
X93465229Y-83682418D01*
X93841098Y-83307204D01*
X94044768Y-82816713D01*
X94045231Y-82285617D01*
X93842418Y-81794771D01*
X93794392Y-81746661D01*
X114172758Y-81746661D01*
X114384990Y-82260303D01*
X114777630Y-82653629D01*
X115290900Y-82866757D01*
X115846661Y-82867242D01*
X116360303Y-82655010D01*
X116570021Y-82445658D01*
X116777630Y-82653629D01*
X117290900Y-82866757D01*
X117846661Y-82867242D01*
X118360303Y-82655010D01*
X118430922Y-82584514D01*
X144914120Y-82584514D01*
X146010000Y-83680395D01*
X147105880Y-82584514D01*
X147091387Y-82550000D01*
X152308846Y-82550000D01*
X152410467Y-83060882D01*
X152699858Y-83493988D01*
X153132964Y-83783379D01*
X153643846Y-83885000D01*
X153696154Y-83885000D01*
X154207036Y-83783379D01*
X154640142Y-83493988D01*
X154929533Y-83060882D01*
X154978564Y-82814383D01*
X159954769Y-82814383D01*
X160157582Y-83305229D01*
X160532796Y-83681098D01*
X161023287Y-83884768D01*
X161554383Y-83885231D01*
X162045229Y-83682418D01*
X162421098Y-83307204D01*
X162587085Y-82907462D01*
X164644687Y-82907462D01*
X164918903Y-83571115D01*
X165426215Y-84079312D01*
X166089388Y-84354686D01*
X166807462Y-84355313D01*
X167382735Y-84117615D01*
X167145314Y-84689388D01*
X167144687Y-85407462D01*
X167418903Y-86071115D01*
X167926215Y-86579312D01*
X168589388Y-86854686D01*
X169307462Y-86855313D01*
X169818425Y-86644187D01*
X177634752Y-86644187D01*
X177852757Y-87171800D01*
X178256077Y-87575824D01*
X178783309Y-87794750D01*
X179354187Y-87795248D01*
X179881800Y-87577243D01*
X180285824Y-87173923D01*
X180504750Y-86646691D01*
X180504752Y-86644187D01*
X182634752Y-86644187D01*
X182852757Y-87171800D01*
X183256077Y-87575824D01*
X183783309Y-87794750D01*
X184354187Y-87795248D01*
X184881800Y-87577243D01*
X185285824Y-87173923D01*
X185504750Y-86646691D01*
X185505248Y-86075813D01*
X185287243Y-85548200D01*
X184883923Y-85144176D01*
X184356691Y-84925250D01*
X183785813Y-84924752D01*
X183258200Y-85142757D01*
X182854176Y-85546077D01*
X182635250Y-86073309D01*
X182634752Y-86644187D01*
X180504752Y-86644187D01*
X180505248Y-86075813D01*
X180287243Y-85548200D01*
X179883923Y-85144176D01*
X179356691Y-84925250D01*
X178785813Y-84924752D01*
X178258200Y-85142757D01*
X177854176Y-85546077D01*
X177635250Y-86073309D01*
X177634752Y-86644187D01*
X169818425Y-86644187D01*
X169971115Y-86581097D01*
X170479312Y-86073785D01*
X170754686Y-85410612D01*
X170755313Y-84692538D01*
X170517615Y-84117265D01*
X171089388Y-84354686D01*
X171807462Y-84355313D01*
X172471115Y-84081097D01*
X172979312Y-83573785D01*
X173254686Y-82910612D01*
X173255313Y-82192538D01*
X173071081Y-81746661D01*
X186562758Y-81746661D01*
X186774990Y-82260303D01*
X187167630Y-82653629D01*
X187680900Y-82866757D01*
X188236661Y-82867242D01*
X188750303Y-82655010D01*
X188960021Y-82445658D01*
X189167630Y-82653629D01*
X189680900Y-82866757D01*
X190236661Y-82867242D01*
X190750303Y-82655010D01*
X191143629Y-82262370D01*
X191356757Y-81749100D01*
X191357242Y-81193339D01*
X191145010Y-80679697D01*
X190752370Y-80286371D01*
X190239100Y-80073243D01*
X189683339Y-80072758D01*
X189169697Y-80284990D01*
X188959979Y-80494342D01*
X188752370Y-80286371D01*
X188239100Y-80073243D01*
X187683339Y-80072758D01*
X187169697Y-80284990D01*
X186776371Y-80677630D01*
X186563243Y-81190900D01*
X186562758Y-81746661D01*
X173071081Y-81746661D01*
X172981097Y-81528885D01*
X172473785Y-81020688D01*
X171810612Y-80745314D01*
X171092538Y-80744687D01*
X170428885Y-81018903D01*
X169920688Y-81526215D01*
X169645314Y-82189388D01*
X169644687Y-82907462D01*
X169882385Y-83482735D01*
X169310612Y-83245314D01*
X168592538Y-83244687D01*
X168017265Y-83482385D01*
X168254686Y-82910612D01*
X168255313Y-82192538D01*
X167981097Y-81528885D01*
X167473785Y-81020688D01*
X166810612Y-80745314D01*
X166092538Y-80744687D01*
X165428885Y-81018903D01*
X164920688Y-81526215D01*
X164645314Y-82189388D01*
X164644687Y-82907462D01*
X162587085Y-82907462D01*
X162624768Y-82816713D01*
X162625231Y-82285617D01*
X162422418Y-81794771D01*
X162047204Y-81418902D01*
X161556713Y-81215232D01*
X161025617Y-81214769D01*
X160534771Y-81417582D01*
X160158902Y-81792796D01*
X159955232Y-82283287D01*
X159954769Y-82814383D01*
X154978564Y-82814383D01*
X155031154Y-82550000D01*
X154929533Y-82039118D01*
X154640142Y-81606012D01*
X154207036Y-81316621D01*
X153696154Y-81215000D01*
X153643846Y-81215000D01*
X153132964Y-81316621D01*
X152699858Y-81606012D01*
X152410467Y-82039118D01*
X152308846Y-82550000D01*
X147091387Y-82550000D01*
X146986414Y-82300016D01*
X146315110Y-82045106D01*
X145597354Y-82066496D01*
X145033586Y-82300016D01*
X144914120Y-82584514D01*
X118430922Y-82584514D01*
X118753629Y-82262370D01*
X118966757Y-81749100D01*
X118967242Y-81193339D01*
X118755010Y-80679697D01*
X118362370Y-80286371D01*
X117849100Y-80073243D01*
X117293339Y-80072758D01*
X116779697Y-80284990D01*
X116569979Y-80494342D01*
X116362370Y-80286371D01*
X115849100Y-80073243D01*
X115293339Y-80072758D01*
X114779697Y-80284990D01*
X114386371Y-80677630D01*
X114173243Y-81190900D01*
X114172758Y-81746661D01*
X93794392Y-81746661D01*
X93467204Y-81418902D01*
X92976713Y-81215232D01*
X92445617Y-81214769D01*
X91954771Y-81417582D01*
X91578902Y-81792796D01*
X91375232Y-82283287D01*
X91374769Y-82814383D01*
X86398564Y-82814383D01*
X86451154Y-82550000D01*
X86349533Y-82039118D01*
X86060142Y-81606012D01*
X85627036Y-81316621D01*
X85116154Y-81215000D01*
X85063846Y-81215000D01*
X84552964Y-81316621D01*
X84119858Y-81606012D01*
X83830467Y-82039118D01*
X83728846Y-82550000D01*
X70308260Y-82550000D01*
X70360882Y-82539533D01*
X70793988Y-82250142D01*
X71083379Y-81817036D01*
X71185000Y-81306154D01*
X71185000Y-81253846D01*
X71083379Y-80742964D01*
X70793988Y-80309858D01*
X70360882Y-80020467D01*
X70176777Y-79983846D01*
X137095000Y-79983846D01*
X137095000Y-80036154D01*
X137196621Y-80547036D01*
X137486012Y-80980142D01*
X137919118Y-81269533D01*
X138430000Y-81371154D01*
X138940882Y-81269533D01*
X139373988Y-80980142D01*
X139663379Y-80547036D01*
X139765000Y-80036154D01*
X139765000Y-79983846D01*
X139663379Y-79472964D01*
X139373988Y-79039858D01*
X139069881Y-78836661D01*
X149002758Y-78836661D01*
X149214990Y-79350303D01*
X149607630Y-79743629D01*
X150120900Y-79956757D01*
X150676661Y-79957242D01*
X151190303Y-79745010D01*
X151405021Y-79530666D01*
X151607630Y-79733629D01*
X152120900Y-79946757D01*
X152676661Y-79947242D01*
X153190303Y-79735010D01*
X153583629Y-79342370D01*
X153796757Y-78829100D01*
X153797242Y-78273339D01*
X153585010Y-77759697D01*
X153192370Y-77366371D01*
X152679100Y-77153243D01*
X152123339Y-77152758D01*
X151609697Y-77364990D01*
X151394979Y-77579334D01*
X151192370Y-77376371D01*
X150679100Y-77163243D01*
X150123339Y-77162758D01*
X149609697Y-77374990D01*
X149216371Y-77767630D01*
X149003243Y-78280900D01*
X149002758Y-78836661D01*
X139069881Y-78836661D01*
X138940882Y-78750467D01*
X138430000Y-78648846D01*
X137919118Y-78750467D01*
X137486012Y-79039858D01*
X137196621Y-79472964D01*
X137095000Y-79983846D01*
X70176777Y-79983846D01*
X69850000Y-79918846D01*
X69339118Y-80020467D01*
X68906012Y-80309858D01*
X68616621Y-80742964D01*
X68515000Y-81253846D01*
X52434490Y-81253846D01*
X52434490Y-81247978D01*
X52310072Y-80622486D01*
X51955759Y-80092219D01*
X51832710Y-80010000D01*
X51955759Y-79927781D01*
X52310072Y-79397514D01*
X52421632Y-78836661D01*
X77882758Y-78836661D01*
X78094990Y-79350303D01*
X78487630Y-79743629D01*
X79000900Y-79956757D01*
X79556661Y-79957242D01*
X80070303Y-79745010D01*
X80285021Y-79530666D01*
X80487630Y-79733629D01*
X81000900Y-79946757D01*
X81556661Y-79947242D01*
X82070303Y-79735010D01*
X82463629Y-79342370D01*
X82676757Y-78829100D01*
X82677242Y-78273339D01*
X82465010Y-77759697D01*
X82439741Y-77734383D01*
X128204769Y-77734383D01*
X128407582Y-78225229D01*
X128782796Y-78601098D01*
X129273287Y-78804768D01*
X129804383Y-78805231D01*
X130295229Y-78602418D01*
X130492716Y-78405275D01*
X135134331Y-78405275D01*
X135196169Y-78641042D01*
X135697122Y-78817419D01*
X136227440Y-78788664D01*
X136583831Y-78641042D01*
X136645669Y-78405275D01*
X135890000Y-77649605D01*
X135134331Y-78405275D01*
X130492716Y-78405275D01*
X130671098Y-78227204D01*
X130874768Y-77736713D01*
X130875168Y-77277122D01*
X134542581Y-77277122D01*
X134571336Y-77807440D01*
X134718958Y-78163831D01*
X134954725Y-78225669D01*
X135710395Y-77470000D01*
X136069605Y-77470000D01*
X136825275Y-78225669D01*
X137061042Y-78163831D01*
X137237419Y-77662878D01*
X137208664Y-77132560D01*
X137061042Y-76776169D01*
X136825275Y-76714331D01*
X136069605Y-77470000D01*
X135710395Y-77470000D01*
X134954725Y-76714331D01*
X134718958Y-76776169D01*
X134542581Y-77277122D01*
X130875168Y-77277122D01*
X130875231Y-77205617D01*
X130672418Y-76714771D01*
X130492686Y-76534725D01*
X135134331Y-76534725D01*
X135890000Y-77290395D01*
X136645669Y-76534725D01*
X136583831Y-76298958D01*
X136082878Y-76122581D01*
X135552560Y-76151336D01*
X135196169Y-76298958D01*
X135134331Y-76534725D01*
X130492686Y-76534725D01*
X130297204Y-76338902D01*
X129806713Y-76135232D01*
X129275617Y-76134769D01*
X128784771Y-76337582D01*
X128408902Y-76712796D01*
X128205232Y-77203287D01*
X128204769Y-77734383D01*
X82439741Y-77734383D01*
X82072370Y-77366371D01*
X81559100Y-77153243D01*
X81003339Y-77152758D01*
X80489697Y-77364990D01*
X80274979Y-77579334D01*
X80072370Y-77376371D01*
X79559100Y-77163243D01*
X79003339Y-77162758D01*
X78489697Y-77374990D01*
X78096371Y-77767630D01*
X77883243Y-78280900D01*
X77882758Y-78836661D01*
X52421632Y-78836661D01*
X52434490Y-78772022D01*
X52434490Y-78707978D01*
X52374279Y-78405275D01*
X66554331Y-78405275D01*
X66616169Y-78641042D01*
X67117122Y-78817419D01*
X67647440Y-78788664D01*
X68003831Y-78641042D01*
X68065669Y-78405275D01*
X67310000Y-77649605D01*
X66554331Y-78405275D01*
X52374279Y-78405275D01*
X52310072Y-78082486D01*
X51955759Y-77552219D01*
X51832710Y-77470000D01*
X51955759Y-77387781D01*
X52029698Y-77277122D01*
X65962581Y-77277122D01*
X65991336Y-77807440D01*
X66138958Y-78163831D01*
X66374725Y-78225669D01*
X67130395Y-77470000D01*
X67489605Y-77470000D01*
X68245275Y-78225669D01*
X68481042Y-78163831D01*
X68657419Y-77662878D01*
X68628664Y-77132560D01*
X68481042Y-76776169D01*
X68245275Y-76714331D01*
X67489605Y-77470000D01*
X67130395Y-77470000D01*
X66374725Y-76714331D01*
X66138958Y-76776169D01*
X65962581Y-77277122D01*
X52029698Y-77277122D01*
X52310072Y-76857514D01*
X52374278Y-76534725D01*
X66554331Y-76534725D01*
X67310000Y-77290395D01*
X68065669Y-76534725D01*
X68003831Y-76298958D01*
X67502878Y-76122581D01*
X66972560Y-76151336D01*
X66616169Y-76298958D01*
X66554331Y-76534725D01*
X52374278Y-76534725D01*
X52434490Y-76232022D01*
X52434490Y-76167978D01*
X52310072Y-75542486D01*
X51955759Y-75012219D01*
X51832710Y-74930000D01*
X51955759Y-74847781D01*
X52310072Y-74317514D01*
X52434490Y-73692022D01*
X52434490Y-73627978D01*
X52310072Y-73002486D01*
X51955759Y-72472219D01*
X51832710Y-72390000D01*
X51955759Y-72307781D01*
X52310072Y-71777514D01*
X52434490Y-71152022D01*
X52434490Y-71087978D01*
X52310072Y-70462486D01*
X51955759Y-69932219D01*
X51832710Y-69850000D01*
X51955759Y-69767781D01*
X52310072Y-69237514D01*
X52434490Y-68612022D01*
X52434490Y-68547978D01*
X52310072Y-67922486D01*
X52077478Y-67574383D01*
X65974769Y-67574383D01*
X66177582Y-68065229D01*
X66552796Y-68441098D01*
X66875788Y-68575216D01*
X66799118Y-68590467D01*
X66366012Y-68879858D01*
X66076621Y-69312964D01*
X65975000Y-69823846D01*
X65975000Y-69876154D01*
X66076621Y-70387036D01*
X66366012Y-70820142D01*
X66799118Y-71109533D01*
X67310000Y-71211154D01*
X67820882Y-71109533D01*
X68253988Y-70820142D01*
X68543379Y-70387036D01*
X68645000Y-69876154D01*
X68645000Y-69823846D01*
X68543379Y-69312964D01*
X68291943Y-68936661D01*
X69992758Y-68936661D01*
X70204990Y-69450303D01*
X70414342Y-69660021D01*
X70206371Y-69867630D01*
X69993243Y-70380900D01*
X69992758Y-70936661D01*
X70204990Y-71450303D01*
X70597630Y-71843629D01*
X71110900Y-72056757D01*
X71666661Y-72057242D01*
X72180303Y-71845010D01*
X72573629Y-71452370D01*
X72786757Y-70939100D01*
X72787242Y-70383339D01*
X72575010Y-69869697D01*
X72365658Y-69659979D01*
X72573629Y-69452370D01*
X72786757Y-68939100D01*
X72787242Y-68383339D01*
X72575010Y-67869697D01*
X72182370Y-67476371D01*
X71669100Y-67263243D01*
X71113339Y-67262758D01*
X70599697Y-67474990D01*
X70206371Y-67867630D01*
X69993243Y-68380900D01*
X69992758Y-68936661D01*
X68291943Y-68936661D01*
X68253988Y-68879858D01*
X67820882Y-68590467D01*
X67743955Y-68575165D01*
X68065229Y-68442418D01*
X68441098Y-68067204D01*
X68644768Y-67576713D01*
X68645231Y-67045617D01*
X68442418Y-66554771D01*
X68067204Y-66178902D01*
X67576713Y-65975232D01*
X67045617Y-65974769D01*
X66554771Y-66177582D01*
X66178902Y-66552796D01*
X65975232Y-67043287D01*
X65974769Y-67574383D01*
X52077478Y-67574383D01*
X51955759Y-67392219D01*
X51806700Y-67292621D01*
X52123068Y-66999726D01*
X52389627Y-66420355D01*
X52270807Y-66167000D01*
X50927000Y-66167000D01*
X50927000Y-66187000D01*
X50673000Y-66187000D01*
X50673000Y-66167000D01*
X49329193Y-66167000D01*
X49210373Y-66420355D01*
X49476932Y-66999726D01*
X49793300Y-67292621D01*
X49644241Y-67392219D01*
X49289928Y-67922486D01*
X49165510Y-68547978D01*
X48387000Y-68547978D01*
X48387000Y-62500510D01*
X49153070Y-62500510D01*
X49153070Y-64499490D01*
X49197348Y-64734807D01*
X49336420Y-64950931D01*
X49497649Y-65061094D01*
X49476932Y-65080274D01*
X49210373Y-65659645D01*
X49329193Y-65913000D01*
X50673000Y-65913000D01*
X50673000Y-65893000D01*
X50927000Y-65893000D01*
X50927000Y-65913000D01*
X52270807Y-65913000D01*
X52389627Y-65659645D01*
X52123068Y-65080274D01*
X52101137Y-65059970D01*
X52250931Y-64963580D01*
X52395921Y-64751380D01*
X52446930Y-64499490D01*
X52446930Y-63500000D01*
X93786887Y-63500000D01*
X93896120Y-64049151D01*
X94207189Y-64514698D01*
X94589275Y-64770000D01*
X94207189Y-65025302D01*
X93896120Y-65490849D01*
X93786887Y-66040000D01*
X93896120Y-66589151D01*
X94207189Y-67054698D01*
X94589275Y-67310000D01*
X94207189Y-67565302D01*
X93896120Y-68030849D01*
X93786887Y-68580000D01*
X93896120Y-69129151D01*
X94207189Y-69594698D01*
X94589275Y-69850000D01*
X94207189Y-70105302D01*
X93896120Y-70570849D01*
X93786887Y-71120000D01*
X93896120Y-71669151D01*
X94207189Y-72134698D01*
X94589275Y-72390000D01*
X94207189Y-72645302D01*
X93896120Y-73110849D01*
X93786887Y-73660000D01*
X93896120Y-74209151D01*
X94207189Y-74674698D01*
X94589275Y-74930000D01*
X94207189Y-75185302D01*
X93896120Y-75650849D01*
X93786887Y-76200000D01*
X93896120Y-76749151D01*
X94207189Y-77214698D01*
X94672736Y-77525767D01*
X95221887Y-77635000D01*
X95278113Y-77635000D01*
X95827264Y-77525767D01*
X96292811Y-77214698D01*
X96603880Y-76749151D01*
X96713113Y-76200000D01*
X96603880Y-75650849D01*
X96292811Y-75185302D01*
X95910725Y-74930000D01*
X96292811Y-74674698D01*
X96603880Y-74209151D01*
X96713113Y-73660000D01*
X96603880Y-73110849D01*
X96292811Y-72645302D01*
X95910725Y-72390000D01*
X96292811Y-72134698D01*
X96603880Y-71669151D01*
X96713113Y-71120000D01*
X101406887Y-71120000D01*
X101516120Y-71669151D01*
X101827189Y-72134698D01*
X102209275Y-72390000D01*
X101827189Y-72645302D01*
X101516120Y-73110849D01*
X101406887Y-73660000D01*
X101516120Y-74209151D01*
X101827189Y-74674698D01*
X102209275Y-74930000D01*
X101827189Y-75185302D01*
X101516120Y-75650849D01*
X101406887Y-76200000D01*
X101516120Y-76749151D01*
X101827189Y-77214698D01*
X102292736Y-77525767D01*
X102841887Y-77635000D01*
X102898113Y-77635000D01*
X103447264Y-77525767D01*
X103912811Y-77214698D01*
X104223880Y-76749151D01*
X104333113Y-76200000D01*
X104223880Y-75650849D01*
X103912811Y-75185302D01*
X103530725Y-74930000D01*
X103912811Y-74674698D01*
X104223880Y-74209151D01*
X104333113Y-73660000D01*
X104223880Y-73110849D01*
X103912811Y-72645302D01*
X103530725Y-72390000D01*
X103912811Y-72134698D01*
X104098589Y-71856661D01*
X124062758Y-71856661D01*
X124274990Y-72370303D01*
X124484342Y-72580021D01*
X124276371Y-72787630D01*
X124063243Y-73300900D01*
X124062758Y-73856661D01*
X124274990Y-74370303D01*
X124667630Y-74763629D01*
X125180900Y-74976757D01*
X125736661Y-74977242D01*
X126250303Y-74765010D01*
X126643629Y-74372370D01*
X126856757Y-73859100D01*
X126856953Y-73633846D01*
X128205000Y-73633846D01*
X128205000Y-73686154D01*
X128306621Y-74197036D01*
X128596012Y-74630142D01*
X129029118Y-74919533D01*
X129540000Y-75021154D01*
X130050882Y-74919533D01*
X130483988Y-74630142D01*
X130773379Y-74197036D01*
X130875000Y-73686154D01*
X130875000Y-73633846D01*
X130773379Y-73122964D01*
X130483988Y-72689858D01*
X130050882Y-72400467D01*
X129540000Y-72298846D01*
X129029118Y-72400467D01*
X128596012Y-72689858D01*
X128306621Y-73122964D01*
X128205000Y-73633846D01*
X126856953Y-73633846D01*
X126857242Y-73303339D01*
X126645010Y-72789697D01*
X126435658Y-72579979D01*
X126643629Y-72372370D01*
X126856757Y-71859100D01*
X126857242Y-71303339D01*
X126645010Y-70789697D01*
X126252370Y-70396371D01*
X125739100Y-70183243D01*
X125183339Y-70182758D01*
X124669697Y-70394990D01*
X124276371Y-70787630D01*
X124063243Y-71300900D01*
X124062758Y-71856661D01*
X104098589Y-71856661D01*
X104223880Y-71669151D01*
X104333113Y-71120000D01*
X104223880Y-70570849D01*
X103912811Y-70105302D01*
X103508297Y-69835014D01*
X103531893Y-69823846D01*
X134555000Y-69823846D01*
X134555000Y-69876154D01*
X134656621Y-70387036D01*
X134946012Y-70820142D01*
X135379118Y-71109533D01*
X135890000Y-71211154D01*
X136400882Y-71109533D01*
X136833988Y-70820142D01*
X137123379Y-70387036D01*
X137225000Y-69876154D01*
X137225000Y-69823846D01*
X137123379Y-69312964D01*
X136871943Y-68936661D01*
X141112758Y-68936661D01*
X141324990Y-69450303D01*
X141534342Y-69660021D01*
X141326371Y-69867630D01*
X141113243Y-70380900D01*
X141112758Y-70936661D01*
X141324990Y-71450303D01*
X141717630Y-71843629D01*
X142230900Y-72056757D01*
X142786661Y-72057242D01*
X143300303Y-71845010D01*
X143693629Y-71452370D01*
X143906757Y-70939100D01*
X143907242Y-70383339D01*
X143695010Y-69869697D01*
X143485658Y-69659979D01*
X143693629Y-69452370D01*
X143906757Y-68939100D01*
X143907242Y-68383339D01*
X143695010Y-67869697D01*
X143302370Y-67476371D01*
X142789100Y-67263243D01*
X142233339Y-67262758D01*
X141719697Y-67474990D01*
X141326371Y-67867630D01*
X141113243Y-68380900D01*
X141112758Y-68936661D01*
X136871943Y-68936661D01*
X136833988Y-68879858D01*
X136400882Y-68590467D01*
X135890000Y-68488846D01*
X135379118Y-68590467D01*
X134946012Y-68879858D01*
X134656621Y-69312964D01*
X134555000Y-69823846D01*
X103531893Y-69823846D01*
X103725134Y-69732389D01*
X104101041Y-69317423D01*
X104261904Y-68929039D01*
X104139915Y-68707000D01*
X102997000Y-68707000D01*
X102997000Y-68727000D01*
X102743000Y-68727000D01*
X102743000Y-68707000D01*
X101600085Y-68707000D01*
X101478096Y-68929039D01*
X101638959Y-69317423D01*
X102014866Y-69732389D01*
X102231703Y-69835014D01*
X101827189Y-70105302D01*
X101516120Y-70570849D01*
X101406887Y-71120000D01*
X96713113Y-71120000D01*
X96603880Y-70570849D01*
X96292811Y-70105302D01*
X95910725Y-69850000D01*
X96292811Y-69594698D01*
X96603880Y-69129151D01*
X96713113Y-68580000D01*
X96603880Y-68030849D01*
X96292811Y-67565302D01*
X95910725Y-67310000D01*
X96292811Y-67054698D01*
X96603880Y-66589151D01*
X96713113Y-66040000D01*
X96603880Y-65490849D01*
X96292811Y-65025302D01*
X95910725Y-64770000D01*
X96292811Y-64514698D01*
X96603880Y-64049151D01*
X96713113Y-63500000D01*
X96603880Y-62950849D01*
X96292811Y-62485302D01*
X96148535Y-62388899D01*
X96285317Y-62363162D01*
X96501441Y-62224090D01*
X96646431Y-62011890D01*
X96697440Y-61760000D01*
X96697440Y-60960000D01*
X101406887Y-60960000D01*
X101516120Y-61509151D01*
X101827189Y-61974698D01*
X102209275Y-62230000D01*
X101827189Y-62485302D01*
X101516120Y-62950849D01*
X101406887Y-63500000D01*
X101516120Y-64049151D01*
X101827189Y-64514698D01*
X102209275Y-64770000D01*
X101827189Y-65025302D01*
X101516120Y-65490849D01*
X101406887Y-66040000D01*
X101516120Y-66589151D01*
X101827189Y-67054698D01*
X102231703Y-67324986D01*
X102014866Y-67427611D01*
X101638959Y-67842577D01*
X101478096Y-68230961D01*
X101600085Y-68453000D01*
X102743000Y-68453000D01*
X102743000Y-68433000D01*
X102997000Y-68433000D01*
X102997000Y-68453000D01*
X104139915Y-68453000D01*
X104261904Y-68230961D01*
X104101041Y-67842577D01*
X103725134Y-67427611D01*
X103508297Y-67324986D01*
X103912811Y-67054698D01*
X103965879Y-66975275D01*
X128784331Y-66975275D01*
X128846169Y-67211042D01*
X129347122Y-67387419D01*
X129877440Y-67358664D01*
X130233831Y-67211042D01*
X130295669Y-66975275D01*
X129540000Y-66219605D01*
X128784331Y-66975275D01*
X103965879Y-66975275D01*
X104223880Y-66589151D01*
X104333113Y-66040000D01*
X104294748Y-65847122D01*
X128192581Y-65847122D01*
X128221336Y-66377440D01*
X128368958Y-66733831D01*
X128604725Y-66795669D01*
X129360395Y-66040000D01*
X129719605Y-66040000D01*
X130475275Y-66795669D01*
X130711042Y-66733831D01*
X130862243Y-66304383D01*
X134554769Y-66304383D01*
X134757582Y-66795229D01*
X135132796Y-67171098D01*
X135623287Y-67374768D01*
X136154383Y-67375231D01*
X136645229Y-67172418D01*
X137021098Y-66797204D01*
X137224768Y-66306713D01*
X137225231Y-65775617D01*
X137022418Y-65284771D01*
X136647204Y-64908902D01*
X136156713Y-64705232D01*
X135625617Y-64704769D01*
X135134771Y-64907582D01*
X134758902Y-65282796D01*
X134555232Y-65773287D01*
X134554769Y-66304383D01*
X130862243Y-66304383D01*
X130887419Y-66232878D01*
X130858664Y-65702560D01*
X130711042Y-65346169D01*
X130475275Y-65284331D01*
X129719605Y-66040000D01*
X129360395Y-66040000D01*
X128604725Y-65284331D01*
X128368958Y-65346169D01*
X128192581Y-65847122D01*
X104294748Y-65847122D01*
X104223880Y-65490849D01*
X103965880Y-65104725D01*
X128784331Y-65104725D01*
X129540000Y-65860395D01*
X130295669Y-65104725D01*
X130233831Y-64868958D01*
X129732878Y-64692581D01*
X129202560Y-64721336D01*
X128846169Y-64868958D01*
X128784331Y-65104725D01*
X103965880Y-65104725D01*
X103912811Y-65025302D01*
X103530725Y-64770000D01*
X103912811Y-64514698D01*
X104223880Y-64049151D01*
X104240288Y-63966661D01*
X114172758Y-63966661D01*
X114384990Y-64480303D01*
X114777630Y-64873629D01*
X115290900Y-65086757D01*
X115846661Y-65087242D01*
X116360303Y-64875010D01*
X116575021Y-64660666D01*
X116777630Y-64863629D01*
X117290900Y-65076757D01*
X117846661Y-65077242D01*
X118360303Y-64865010D01*
X118753629Y-64472370D01*
X118966757Y-63959100D01*
X118967157Y-63500000D01*
X164906887Y-63500000D01*
X165016120Y-64049151D01*
X165327189Y-64514698D01*
X165709275Y-64770000D01*
X165327189Y-65025302D01*
X165016120Y-65490849D01*
X164906887Y-66040000D01*
X165016120Y-66589151D01*
X165327189Y-67054698D01*
X165709275Y-67310000D01*
X165327189Y-67565302D01*
X165016120Y-68030849D01*
X164906887Y-68580000D01*
X165016120Y-69129151D01*
X165327189Y-69594698D01*
X165709275Y-69850000D01*
X165327189Y-70105302D01*
X165016120Y-70570849D01*
X164906887Y-71120000D01*
X165016120Y-71669151D01*
X165327189Y-72134698D01*
X165709275Y-72390000D01*
X165327189Y-72645302D01*
X165016120Y-73110849D01*
X164906887Y-73660000D01*
X165016120Y-74209151D01*
X165327189Y-74674698D01*
X165709275Y-74930000D01*
X165327189Y-75185302D01*
X165016120Y-75650849D01*
X164906887Y-76200000D01*
X165016120Y-76749151D01*
X165327189Y-77214698D01*
X165792736Y-77525767D01*
X166341887Y-77635000D01*
X166398113Y-77635000D01*
X166947264Y-77525767D01*
X167412811Y-77214698D01*
X167723880Y-76749151D01*
X167833113Y-76200000D01*
X167723880Y-75650849D01*
X167412811Y-75185302D01*
X167030725Y-74930000D01*
X167412811Y-74674698D01*
X167723880Y-74209151D01*
X167833113Y-73660000D01*
X167723880Y-73110849D01*
X167412811Y-72645302D01*
X167030725Y-72390000D01*
X167412811Y-72134698D01*
X167723880Y-71669151D01*
X167833113Y-71120000D01*
X172526887Y-71120000D01*
X172636120Y-71669151D01*
X172947189Y-72134698D01*
X173329275Y-72390000D01*
X172947189Y-72645302D01*
X172636120Y-73110849D01*
X172526887Y-73660000D01*
X172636120Y-74209151D01*
X172947189Y-74674698D01*
X173329275Y-74930000D01*
X172947189Y-75185302D01*
X172636120Y-75650849D01*
X172526887Y-76200000D01*
X172636120Y-76749151D01*
X172947189Y-77214698D01*
X173412736Y-77525767D01*
X173961887Y-77635000D01*
X174018113Y-77635000D01*
X174567264Y-77525767D01*
X175032811Y-77214698D01*
X175343880Y-76749151D01*
X175453113Y-76200000D01*
X175343880Y-75650849D01*
X175032811Y-75185302D01*
X174650725Y-74930000D01*
X175032811Y-74674698D01*
X175343880Y-74209151D01*
X175453113Y-73660000D01*
X175343880Y-73110849D01*
X175032811Y-72645302D01*
X174650725Y-72390000D01*
X175032811Y-72134698D01*
X175218589Y-71856661D01*
X196452758Y-71856661D01*
X196664990Y-72370303D01*
X196874342Y-72580021D01*
X196666371Y-72787630D01*
X196453243Y-73300900D01*
X196452758Y-73856661D01*
X196664990Y-74370303D01*
X197057630Y-74763629D01*
X197570900Y-74976757D01*
X198126661Y-74977242D01*
X198640303Y-74765010D01*
X199033629Y-74372370D01*
X199246757Y-73859100D01*
X199247242Y-73303339D01*
X199035010Y-72789697D01*
X198825658Y-72579979D01*
X199033629Y-72372370D01*
X199246757Y-71859100D01*
X199247242Y-71303339D01*
X199035010Y-70789697D01*
X198642370Y-70396371D01*
X198129100Y-70183243D01*
X197573339Y-70182758D01*
X197059697Y-70394990D01*
X196666371Y-70787630D01*
X196453243Y-71300900D01*
X196452758Y-71856661D01*
X175218589Y-71856661D01*
X175343880Y-71669151D01*
X175453113Y-71120000D01*
X175343880Y-70570849D01*
X175032811Y-70105302D01*
X174628297Y-69835014D01*
X174845134Y-69732389D01*
X175221041Y-69317423D01*
X175381904Y-68929039D01*
X175259915Y-68707000D01*
X174117000Y-68707000D01*
X174117000Y-68727000D01*
X173863000Y-68727000D01*
X173863000Y-68707000D01*
X172720085Y-68707000D01*
X172598096Y-68929039D01*
X172758959Y-69317423D01*
X173134866Y-69732389D01*
X173351703Y-69835014D01*
X172947189Y-70105302D01*
X172636120Y-70570849D01*
X172526887Y-71120000D01*
X167833113Y-71120000D01*
X167723880Y-70570849D01*
X167412811Y-70105302D01*
X167030725Y-69850000D01*
X167412811Y-69594698D01*
X167723880Y-69129151D01*
X167833113Y-68580000D01*
X167723880Y-68030849D01*
X167412811Y-67565302D01*
X167030725Y-67310000D01*
X167412811Y-67054698D01*
X167723880Y-66589151D01*
X167833113Y-66040000D01*
X167723880Y-65490849D01*
X167412811Y-65025302D01*
X167030725Y-64770000D01*
X167412811Y-64514698D01*
X167723880Y-64049151D01*
X167833113Y-63500000D01*
X167723880Y-62950849D01*
X167412811Y-62485302D01*
X167268535Y-62388899D01*
X167405317Y-62363162D01*
X167621441Y-62224090D01*
X167766431Y-62011890D01*
X167817440Y-61760000D01*
X167817440Y-60960000D01*
X172526887Y-60960000D01*
X172636120Y-61509151D01*
X172947189Y-61974698D01*
X173329275Y-62230000D01*
X172947189Y-62485302D01*
X172636120Y-62950849D01*
X172526887Y-63500000D01*
X172636120Y-64049151D01*
X172947189Y-64514698D01*
X173329275Y-64770000D01*
X172947189Y-65025302D01*
X172636120Y-65490849D01*
X172526887Y-66040000D01*
X172636120Y-66589151D01*
X172947189Y-67054698D01*
X173351703Y-67324986D01*
X173134866Y-67427611D01*
X172758959Y-67842577D01*
X172598096Y-68230961D01*
X172720085Y-68453000D01*
X173863000Y-68453000D01*
X173863000Y-68433000D01*
X174117000Y-68433000D01*
X174117000Y-68453000D01*
X175259915Y-68453000D01*
X175374039Y-68245275D01*
X202444331Y-68245275D01*
X202506169Y-68481042D01*
X203007122Y-68657419D01*
X203537440Y-68628664D01*
X203893831Y-68481042D01*
X203955669Y-68245275D01*
X203200000Y-67489605D01*
X202444331Y-68245275D01*
X175374039Y-68245275D01*
X175381904Y-68230961D01*
X175221041Y-67842577D01*
X174845134Y-67427611D01*
X174628297Y-67324986D01*
X174939387Y-67117122D01*
X201852581Y-67117122D01*
X201881336Y-67647440D01*
X202028958Y-68003831D01*
X202264725Y-68065669D01*
X203020395Y-67310000D01*
X202264725Y-66554331D01*
X202028958Y-66616169D01*
X201852581Y-67117122D01*
X174939387Y-67117122D01*
X175032811Y-67054698D01*
X175343880Y-66589151D01*
X175386532Y-66374725D01*
X202444331Y-66374725D01*
X203200000Y-67130395D01*
X203955669Y-66374725D01*
X203893831Y-66138958D01*
X203392878Y-65962581D01*
X202862560Y-65991336D01*
X202506169Y-66138958D01*
X202444331Y-66374725D01*
X175386532Y-66374725D01*
X175453113Y-66040000D01*
X175343880Y-65490849D01*
X175032811Y-65025302D01*
X174650725Y-64770000D01*
X175032811Y-64514698D01*
X175343880Y-64049151D01*
X175360288Y-63966661D01*
X186562758Y-63966661D01*
X186774990Y-64480303D01*
X187167630Y-64873629D01*
X187680900Y-65086757D01*
X188236661Y-65087242D01*
X188750303Y-64875010D01*
X188965021Y-64660666D01*
X189167630Y-64863629D01*
X189680900Y-65076757D01*
X190236661Y-65077242D01*
X190750303Y-64865010D01*
X191143629Y-64472370D01*
X191356757Y-63959100D01*
X191357242Y-63403339D01*
X191145010Y-62889697D01*
X190752370Y-62496371D01*
X190239100Y-62283243D01*
X189683339Y-62282758D01*
X189169697Y-62494990D01*
X188954979Y-62709334D01*
X188752370Y-62506371D01*
X188239100Y-62293243D01*
X187683339Y-62292758D01*
X187169697Y-62504990D01*
X186776371Y-62897630D01*
X186563243Y-63410900D01*
X186562758Y-63966661D01*
X175360288Y-63966661D01*
X175453113Y-63500000D01*
X175343880Y-62950849D01*
X175032811Y-62485302D01*
X174650725Y-62230000D01*
X175032811Y-61974698D01*
X175343880Y-61509151D01*
X175453113Y-60960000D01*
X175343880Y-60410849D01*
X175038879Y-59954383D01*
X177734769Y-59954383D01*
X177937582Y-60445229D01*
X178312796Y-60821098D01*
X178803287Y-61024768D01*
X179334383Y-61025231D01*
X179825229Y-60822418D01*
X180201098Y-60447204D01*
X180404768Y-59956713D01*
X180405000Y-59690000D01*
X185328846Y-59690000D01*
X185430467Y-60200882D01*
X185719858Y-60633988D01*
X186152964Y-60923379D01*
X186663846Y-61025000D01*
X186716154Y-61025000D01*
X187227036Y-60923379D01*
X187660142Y-60633988D01*
X187949533Y-60200882D01*
X188051154Y-59690000D01*
X187949533Y-59179118D01*
X187660142Y-58746012D01*
X187227036Y-58456621D01*
X186869418Y-58385486D01*
X193254120Y-58385486D01*
X193373586Y-58669984D01*
X194044890Y-58924894D01*
X194762646Y-58903504D01*
X195326414Y-58669984D01*
X195445880Y-58385486D01*
X194350000Y-57289605D01*
X193254120Y-58385486D01*
X186869418Y-58385486D01*
X186716154Y-58355000D01*
X186663846Y-58355000D01*
X186152964Y-58456621D01*
X185719858Y-58746012D01*
X185430467Y-59179118D01*
X185328846Y-59690000D01*
X180405000Y-59690000D01*
X180405231Y-59425617D01*
X180202418Y-58934771D01*
X179827204Y-58558902D01*
X179336713Y-58355232D01*
X178805617Y-58354769D01*
X178314771Y-58557582D01*
X177938902Y-58932796D01*
X177735232Y-59423287D01*
X177734769Y-59954383D01*
X175038879Y-59954383D01*
X175032811Y-59945302D01*
X174567264Y-59634233D01*
X174018113Y-59525000D01*
X173961887Y-59525000D01*
X173412736Y-59634233D01*
X172947189Y-59945302D01*
X172636120Y-60410849D01*
X172526887Y-60960000D01*
X167817440Y-60960000D01*
X167817440Y-60160000D01*
X167773162Y-59924683D01*
X167634090Y-59708559D01*
X167421890Y-59563569D01*
X167170000Y-59512560D01*
X165570000Y-59512560D01*
X165334683Y-59556838D01*
X165118559Y-59695910D01*
X164973569Y-59908110D01*
X164922560Y-60160000D01*
X164922560Y-61760000D01*
X164966838Y-61995317D01*
X165105910Y-62211441D01*
X165318110Y-62356431D01*
X165473089Y-62387815D01*
X165327189Y-62485302D01*
X165016120Y-62950849D01*
X164906887Y-63500000D01*
X118967157Y-63500000D01*
X118967242Y-63403339D01*
X118755010Y-62889697D01*
X118362370Y-62496371D01*
X117849100Y-62283243D01*
X117293339Y-62282758D01*
X116779697Y-62494990D01*
X116564979Y-62709334D01*
X116362370Y-62506371D01*
X115849100Y-62293243D01*
X115293339Y-62292758D01*
X114779697Y-62504990D01*
X114386371Y-62897630D01*
X114173243Y-63410900D01*
X114172758Y-63966661D01*
X104240288Y-63966661D01*
X104333113Y-63500000D01*
X104223880Y-62950849D01*
X103912811Y-62485302D01*
X103530725Y-62230000D01*
X103912811Y-61974698D01*
X104223880Y-61509151D01*
X104333113Y-60960000D01*
X104223880Y-60410849D01*
X103918879Y-59954383D01*
X104074769Y-59954383D01*
X104277582Y-60445229D01*
X104652796Y-60821098D01*
X105143287Y-61024768D01*
X105674383Y-61025231D01*
X106165229Y-60822418D01*
X106541098Y-60447204D01*
X106744768Y-59956713D01*
X106745000Y-59690000D01*
X111668846Y-59690000D01*
X111770467Y-60200882D01*
X112059858Y-60633988D01*
X112492964Y-60923379D01*
X113003846Y-61025000D01*
X113056154Y-61025000D01*
X113514414Y-60933846D01*
X126935000Y-60933846D01*
X126935000Y-60986154D01*
X127036621Y-61497036D01*
X127326012Y-61930142D01*
X127759118Y-62219533D01*
X128270000Y-62321154D01*
X128780882Y-62219533D01*
X129213988Y-61930142D01*
X129503379Y-61497036D01*
X129592964Y-61046661D01*
X149002758Y-61046661D01*
X149214990Y-61560303D01*
X149607630Y-61953629D01*
X150120900Y-62166757D01*
X150676661Y-62167242D01*
X151190303Y-61955010D01*
X151400021Y-61745658D01*
X151607630Y-61953629D01*
X152120900Y-62166757D01*
X152676661Y-62167242D01*
X153190303Y-61955010D01*
X153583629Y-61562370D01*
X153796757Y-61049100D01*
X153797242Y-60493339D01*
X153585010Y-59979697D01*
X153192370Y-59586371D01*
X152679100Y-59373243D01*
X152123339Y-59372758D01*
X151609697Y-59584990D01*
X151399979Y-59794342D01*
X151192370Y-59586371D01*
X150679100Y-59373243D01*
X150123339Y-59372758D01*
X149609697Y-59584990D01*
X149216371Y-59977630D01*
X149003243Y-60490900D01*
X149002758Y-61046661D01*
X129592964Y-61046661D01*
X129605000Y-60986154D01*
X129605000Y-60933846D01*
X129503379Y-60422964D01*
X129213988Y-59989858D01*
X128780882Y-59700467D01*
X128270000Y-59598846D01*
X127759118Y-59700467D01*
X127326012Y-59989858D01*
X127036621Y-60422964D01*
X126935000Y-60933846D01*
X113514414Y-60933846D01*
X113567036Y-60923379D01*
X114000142Y-60633988D01*
X114289533Y-60200882D01*
X114391154Y-59690000D01*
X114289533Y-59179118D01*
X114000142Y-58746012D01*
X113567036Y-58456621D01*
X113209418Y-58385486D01*
X119594120Y-58385486D01*
X119713586Y-58669984D01*
X120384890Y-58924894D01*
X121102646Y-58903504D01*
X121666414Y-58669984D01*
X121782369Y-58393846D01*
X134555000Y-58393846D01*
X134555000Y-58446154D01*
X134656621Y-58957036D01*
X134946012Y-59390142D01*
X135379118Y-59679533D01*
X135890000Y-59781154D01*
X136400882Y-59679533D01*
X136833988Y-59390142D01*
X137123379Y-58957036D01*
X137225000Y-58446154D01*
X137225000Y-58393846D01*
X137123379Y-57882964D01*
X136833988Y-57449858D01*
X136400882Y-57160467D01*
X135890000Y-57058846D01*
X135379118Y-57160467D01*
X134946012Y-57449858D01*
X134656621Y-57882964D01*
X134555000Y-58393846D01*
X121782369Y-58393846D01*
X121785880Y-58385486D01*
X120690000Y-57289605D01*
X119594120Y-58385486D01*
X113209418Y-58385486D01*
X113056154Y-58355000D01*
X113003846Y-58355000D01*
X112492964Y-58456621D01*
X112059858Y-58746012D01*
X111770467Y-59179118D01*
X111668846Y-59690000D01*
X106745000Y-59690000D01*
X106745231Y-59425617D01*
X106542418Y-58934771D01*
X106167204Y-58558902D01*
X105676713Y-58355232D01*
X105145617Y-58354769D01*
X104654771Y-58557582D01*
X104278902Y-58932796D01*
X104075232Y-59423287D01*
X104074769Y-59954383D01*
X103918879Y-59954383D01*
X103912811Y-59945302D01*
X103447264Y-59634233D01*
X102898113Y-59525000D01*
X102841887Y-59525000D01*
X102292736Y-59634233D01*
X101827189Y-59945302D01*
X101516120Y-60410849D01*
X101406887Y-60960000D01*
X96697440Y-60960000D01*
X96697440Y-60160000D01*
X96653162Y-59924683D01*
X96514090Y-59708559D01*
X96301890Y-59563569D01*
X96050000Y-59512560D01*
X94450000Y-59512560D01*
X94214683Y-59556838D01*
X93998559Y-59695910D01*
X93853569Y-59908110D01*
X93802560Y-60160000D01*
X93802560Y-61760000D01*
X93846838Y-61995317D01*
X93985910Y-62211441D01*
X94198110Y-62356431D01*
X94353089Y-62387815D01*
X94207189Y-62485302D01*
X93896120Y-62950849D01*
X93786887Y-63500000D01*
X52446930Y-63500000D01*
X52446930Y-62500510D01*
X52402652Y-62265193D01*
X52263580Y-62049069D01*
X52051380Y-61904079D01*
X51799490Y-61853070D01*
X49800510Y-61853070D01*
X49565193Y-61897348D01*
X49349069Y-62036420D01*
X49204079Y-62248620D01*
X49153070Y-62500510D01*
X48387000Y-62500510D01*
X48387000Y-59663846D01*
X65975000Y-59663846D01*
X65975000Y-59716154D01*
X66076621Y-60227036D01*
X66366012Y-60660142D01*
X66799118Y-60949533D01*
X67310000Y-61051154D01*
X67332587Y-61046661D01*
X77882758Y-61046661D01*
X78094990Y-61560303D01*
X78487630Y-61953629D01*
X79000900Y-62166757D01*
X79556661Y-62167242D01*
X80070303Y-61955010D01*
X80280021Y-61745658D01*
X80487630Y-61953629D01*
X81000900Y-62166757D01*
X81556661Y-62167242D01*
X82070303Y-61955010D01*
X82463629Y-61562370D01*
X82676757Y-61049100D01*
X82677242Y-60493339D01*
X82465010Y-59979697D01*
X82072370Y-59586371D01*
X81559100Y-59373243D01*
X81003339Y-59372758D01*
X80489697Y-59584990D01*
X80279979Y-59794342D01*
X80072370Y-59586371D01*
X79559100Y-59373243D01*
X79003339Y-59372758D01*
X78489697Y-59584990D01*
X78096371Y-59977630D01*
X77883243Y-60490900D01*
X77882758Y-61046661D01*
X67332587Y-61046661D01*
X67820882Y-60949533D01*
X68253988Y-60660142D01*
X68543379Y-60227036D01*
X68645000Y-59716154D01*
X68645000Y-59663846D01*
X68543379Y-59152964D01*
X68253988Y-58719858D01*
X67820882Y-58430467D01*
X67310000Y-58328846D01*
X66799118Y-58430467D01*
X66366012Y-58719858D01*
X66076621Y-59152964D01*
X65975000Y-59663846D01*
X48387000Y-59663846D01*
X48387000Y-58403320D01*
X50916285Y-58403320D01*
X51045533Y-58696123D01*
X51745806Y-58964388D01*
X52495435Y-58944250D01*
X53094467Y-58696123D01*
X53223715Y-58403320D01*
X52070000Y-57249605D01*
X50916285Y-58403320D01*
X48387000Y-58403320D01*
X48387000Y-56745806D01*
X50175612Y-56745806D01*
X50195750Y-57495435D01*
X50443877Y-58094467D01*
X50736680Y-58223715D01*
X51890395Y-57070000D01*
X52249605Y-57070000D01*
X53403320Y-58223715D01*
X53696123Y-58094467D01*
X53964388Y-57394194D01*
X53949709Y-56847745D01*
X63941861Y-56847745D01*
X64015995Y-57093864D01*
X64553223Y-57286965D01*
X65123454Y-57259778D01*
X65524005Y-57093864D01*
X65598139Y-56847745D01*
X64770000Y-56019605D01*
X63941861Y-56847745D01*
X53949709Y-56847745D01*
X53944250Y-56644565D01*
X53696123Y-56045533D01*
X53403320Y-55916285D01*
X52249605Y-57070000D01*
X51890395Y-57070000D01*
X50736680Y-55916285D01*
X50443877Y-56045533D01*
X50175612Y-56745806D01*
X48387000Y-56745806D01*
X48387000Y-55736680D01*
X50916285Y-55736680D01*
X52070000Y-56890395D01*
X53223715Y-55736680D01*
X53173634Y-55623223D01*
X63323035Y-55623223D01*
X63350222Y-56193454D01*
X63516136Y-56594005D01*
X63762255Y-56668139D01*
X64590395Y-55840000D01*
X64949605Y-55840000D01*
X65777745Y-56668139D01*
X66023864Y-56594005D01*
X66178357Y-56164187D01*
X86194752Y-56164187D01*
X86412757Y-56691800D01*
X86816077Y-57095824D01*
X87343309Y-57314750D01*
X87914187Y-57315248D01*
X88441800Y-57097243D01*
X88845824Y-56693923D01*
X89064750Y-56166691D01*
X89064752Y-56164187D01*
X91194752Y-56164187D01*
X91412757Y-56691800D01*
X91816077Y-57095824D01*
X92343309Y-57314750D01*
X92914187Y-57315248D01*
X93441800Y-57097243D01*
X93845824Y-56693923D01*
X94035363Y-56237462D01*
X97254687Y-56237462D01*
X97528903Y-56901115D01*
X98036215Y-57409312D01*
X98699388Y-57684686D01*
X99417462Y-57685313D01*
X100081115Y-57411097D01*
X100589312Y-56903785D01*
X100864686Y-56240612D01*
X100865313Y-55522538D01*
X100627615Y-54947265D01*
X101199388Y-55184686D01*
X101917462Y-55185313D01*
X102492735Y-54947615D01*
X102255314Y-55519388D01*
X102254687Y-56237462D01*
X102528903Y-56901115D01*
X103036215Y-57409312D01*
X103699388Y-57684686D01*
X104417462Y-57685313D01*
X105081115Y-57411097D01*
X105589312Y-56903785D01*
X105864686Y-56240612D01*
X105865313Y-55522538D01*
X105605684Y-54894187D01*
X107784752Y-54894187D01*
X108002757Y-55421800D01*
X108406077Y-55825824D01*
X108933309Y-56044750D01*
X109504187Y-56045248D01*
X110031800Y-55827243D01*
X110435824Y-55423923D01*
X110654750Y-54896691D01*
X110654752Y-54894187D01*
X112784752Y-54894187D01*
X113002757Y-55421800D01*
X113406077Y-55825824D01*
X113933309Y-56044750D01*
X114504187Y-56045248D01*
X115031800Y-55827243D01*
X115435824Y-55423923D01*
X115625363Y-54967462D01*
X116384687Y-54967462D01*
X116658903Y-55631115D01*
X117166215Y-56139312D01*
X117829388Y-56414686D01*
X118547462Y-56415313D01*
X119111541Y-56182240D01*
X118875106Y-56804890D01*
X118896496Y-57522646D01*
X119130016Y-58086414D01*
X119414514Y-58205880D01*
X120510395Y-57110000D01*
X120496252Y-57095858D01*
X120675858Y-56916252D01*
X120690000Y-56930395D01*
X120704142Y-56916252D01*
X120883748Y-57095858D01*
X120869605Y-57110000D01*
X121965486Y-58205880D01*
X122249984Y-58086414D01*
X122504894Y-57415110D01*
X122483504Y-56697354D01*
X122270249Y-56182511D01*
X122829388Y-56414686D01*
X123547462Y-56415313D01*
X124155232Y-56164187D01*
X152314752Y-56164187D01*
X152532757Y-56691800D01*
X152936077Y-57095824D01*
X153463309Y-57314750D01*
X154034187Y-57315248D01*
X154561800Y-57097243D01*
X154965824Y-56693923D01*
X155184750Y-56166691D01*
X155184752Y-56164187D01*
X157314752Y-56164187D01*
X157532757Y-56691800D01*
X157936077Y-57095824D01*
X158463309Y-57314750D01*
X159034187Y-57315248D01*
X159561800Y-57097243D01*
X159965824Y-56693923D01*
X160155363Y-56237462D01*
X167104687Y-56237462D01*
X167378903Y-56901115D01*
X167886215Y-57409312D01*
X168549388Y-57684686D01*
X169267462Y-57685313D01*
X169931115Y-57411097D01*
X170439312Y-56903785D01*
X170714686Y-56240612D01*
X170715313Y-55522538D01*
X170477615Y-54947265D01*
X171049388Y-55184686D01*
X171767462Y-55185313D01*
X172342735Y-54947615D01*
X172105314Y-55519388D01*
X172104687Y-56237462D01*
X172378903Y-56901115D01*
X172886215Y-57409312D01*
X173549388Y-57684686D01*
X174267462Y-57685313D01*
X174931115Y-57411097D01*
X175439312Y-56903785D01*
X175714686Y-56240612D01*
X175714752Y-56164187D01*
X178904752Y-56164187D01*
X179122757Y-56691800D01*
X179526077Y-57095824D01*
X180053309Y-57314750D01*
X180624187Y-57315248D01*
X181151800Y-57097243D01*
X181555824Y-56693923D01*
X181774750Y-56166691D01*
X181774752Y-56164187D01*
X183904752Y-56164187D01*
X184122757Y-56691800D01*
X184526077Y-57095824D01*
X185053309Y-57314750D01*
X185624187Y-57315248D01*
X186151800Y-57097243D01*
X186555824Y-56693923D01*
X186774750Y-56166691D01*
X186775248Y-55595813D01*
X186557243Y-55068200D01*
X186456681Y-54967462D01*
X190044687Y-54967462D01*
X190318903Y-55631115D01*
X190826215Y-56139312D01*
X191489388Y-56414686D01*
X192207462Y-56415313D01*
X192771541Y-56182240D01*
X192535106Y-56804890D01*
X192556496Y-57522646D01*
X192790016Y-58086414D01*
X193074514Y-58205880D01*
X194170395Y-57110000D01*
X194156252Y-57095858D01*
X194335858Y-56916252D01*
X194350000Y-56930395D01*
X194364142Y-56916252D01*
X194543748Y-57095858D01*
X194529605Y-57110000D01*
X195625486Y-58205880D01*
X195909984Y-58086414D01*
X196164894Y-57415110D01*
X196143504Y-56697354D01*
X195930249Y-56182511D01*
X196489388Y-56414686D01*
X197207462Y-56415313D01*
X197871115Y-56141097D01*
X198379312Y-55633785D01*
X198654686Y-54970612D01*
X198655313Y-54252538D01*
X198381097Y-53588885D01*
X197873785Y-53080688D01*
X197210612Y-52805314D01*
X196492538Y-52804687D01*
X195828885Y-53078903D01*
X195320688Y-53586215D01*
X195045314Y-54249388D01*
X195044687Y-54967462D01*
X195277760Y-55531541D01*
X194655110Y-55295106D01*
X193937354Y-55316496D01*
X193422511Y-55529751D01*
X193654686Y-54970612D01*
X193655313Y-54252538D01*
X193381097Y-53588885D01*
X192873785Y-53080688D01*
X192210612Y-52805314D01*
X191492538Y-52804687D01*
X190828885Y-53078903D01*
X190320688Y-53586215D01*
X190045314Y-54249388D01*
X190044687Y-54967462D01*
X186456681Y-54967462D01*
X186153923Y-54664176D01*
X185626691Y-54445250D01*
X185055813Y-54444752D01*
X184528200Y-54662757D01*
X184124176Y-55066077D01*
X183905250Y-55593309D01*
X183904752Y-56164187D01*
X181774752Y-56164187D01*
X181775248Y-55595813D01*
X181557243Y-55068200D01*
X181153923Y-54664176D01*
X180626691Y-54445250D01*
X180055813Y-54444752D01*
X179528200Y-54662757D01*
X179124176Y-55066077D01*
X178905250Y-55593309D01*
X178904752Y-56164187D01*
X175714752Y-56164187D01*
X175715313Y-55522538D01*
X175441097Y-54858885D01*
X174933785Y-54350688D01*
X174270612Y-54075314D01*
X173552538Y-54074687D01*
X172977265Y-54312385D01*
X173214686Y-53740612D01*
X173215313Y-53022538D01*
X172941097Y-52358885D01*
X172433785Y-51850688D01*
X171770612Y-51575314D01*
X171052538Y-51574687D01*
X170388885Y-51848903D01*
X169880688Y-52356215D01*
X169605314Y-53019388D01*
X169604687Y-53737462D01*
X169842385Y-54312735D01*
X169270612Y-54075314D01*
X168552538Y-54074687D01*
X167888885Y-54348903D01*
X167380688Y-54856215D01*
X167105314Y-55519388D01*
X167104687Y-56237462D01*
X160155363Y-56237462D01*
X160184750Y-56166691D01*
X160185248Y-55595813D01*
X159967243Y-55068200D01*
X159563923Y-54664176D01*
X159036691Y-54445250D01*
X158465813Y-54444752D01*
X157938200Y-54662757D01*
X157534176Y-55066077D01*
X157315250Y-55593309D01*
X157314752Y-56164187D01*
X155184752Y-56164187D01*
X155185248Y-55595813D01*
X154967243Y-55068200D01*
X154563923Y-54664176D01*
X154036691Y-54445250D01*
X153465813Y-54444752D01*
X152938200Y-54662757D01*
X152534176Y-55066077D01*
X152315250Y-55593309D01*
X152314752Y-56164187D01*
X124155232Y-56164187D01*
X124211115Y-56141097D01*
X124719312Y-55633785D01*
X124994686Y-54970612D01*
X124995313Y-54252538D01*
X124727501Y-53604383D01*
X126934769Y-53604383D01*
X127137582Y-54095229D01*
X127512796Y-54471098D01*
X128003287Y-54674768D01*
X128534383Y-54675231D01*
X129025229Y-54472418D01*
X129401098Y-54097204D01*
X129604768Y-53606713D01*
X129605231Y-53075617D01*
X129402418Y-52584771D01*
X129027204Y-52208902D01*
X128536713Y-52005232D01*
X128005617Y-52004769D01*
X127514771Y-52207582D01*
X127138902Y-52582796D01*
X126935232Y-53073287D01*
X126934769Y-53604383D01*
X124727501Y-53604383D01*
X124721097Y-53588885D01*
X124213785Y-53080688D01*
X123550612Y-52805314D01*
X122832538Y-52804687D01*
X122168885Y-53078903D01*
X121660688Y-53586215D01*
X121385314Y-54249388D01*
X121384687Y-54967462D01*
X121617760Y-55531541D01*
X120995110Y-55295106D01*
X120277354Y-55316496D01*
X119762511Y-55529751D01*
X119994686Y-54970612D01*
X119995313Y-54252538D01*
X119721097Y-53588885D01*
X119213785Y-53080688D01*
X118550612Y-52805314D01*
X117832538Y-52804687D01*
X117168885Y-53078903D01*
X116660688Y-53586215D01*
X116385314Y-54249388D01*
X116384687Y-54967462D01*
X115625363Y-54967462D01*
X115654750Y-54896691D01*
X115655248Y-54325813D01*
X115437243Y-53798200D01*
X115033923Y-53394176D01*
X114506691Y-53175250D01*
X113935813Y-53174752D01*
X113408200Y-53392757D01*
X113004176Y-53796077D01*
X112785250Y-54323309D01*
X112784752Y-54894187D01*
X110654752Y-54894187D01*
X110655248Y-54325813D01*
X110437243Y-53798200D01*
X110033923Y-53394176D01*
X109506691Y-53175250D01*
X108935813Y-53174752D01*
X108408200Y-53392757D01*
X108004176Y-53796077D01*
X107785250Y-54323309D01*
X107784752Y-54894187D01*
X105605684Y-54894187D01*
X105591097Y-54858885D01*
X105083785Y-54350688D01*
X104420612Y-54075314D01*
X103702538Y-54074687D01*
X103127265Y-54312385D01*
X103364686Y-53740612D01*
X103365313Y-53022538D01*
X103091097Y-52358885D01*
X102583785Y-51850688D01*
X101920612Y-51575314D01*
X101202538Y-51574687D01*
X100538885Y-51848903D01*
X100030688Y-52356215D01*
X99755314Y-53019388D01*
X99754687Y-53737462D01*
X99992385Y-54312735D01*
X99420612Y-54075314D01*
X98702538Y-54074687D01*
X98038885Y-54348903D01*
X97530688Y-54856215D01*
X97255314Y-55519388D01*
X97254687Y-56237462D01*
X94035363Y-56237462D01*
X94064750Y-56166691D01*
X94065248Y-55595813D01*
X93847243Y-55068200D01*
X93443923Y-54664176D01*
X92916691Y-54445250D01*
X92345813Y-54444752D01*
X91818200Y-54662757D01*
X91414176Y-55066077D01*
X91195250Y-55593309D01*
X91194752Y-56164187D01*
X89064752Y-56164187D01*
X89065248Y-55595813D01*
X88847243Y-55068200D01*
X88443923Y-54664176D01*
X87916691Y-54445250D01*
X87345813Y-54444752D01*
X86818200Y-54662757D01*
X86414176Y-55066077D01*
X86195250Y-55593309D01*
X86194752Y-56164187D01*
X66178357Y-56164187D01*
X66216965Y-56056777D01*
X66189778Y-55486546D01*
X66023864Y-55085995D01*
X65777745Y-55011861D01*
X64949605Y-55840000D01*
X64590395Y-55840000D01*
X63762255Y-55011861D01*
X63516136Y-55085995D01*
X63323035Y-55623223D01*
X53173634Y-55623223D01*
X53094467Y-55443877D01*
X52394194Y-55175612D01*
X51644565Y-55195750D01*
X51045533Y-55443877D01*
X50916285Y-55736680D01*
X48387000Y-55736680D01*
X48387000Y-50820000D01*
X50172560Y-50820000D01*
X50172560Y-53320000D01*
X50216838Y-53555317D01*
X50355910Y-53771441D01*
X50568110Y-53916431D01*
X50820000Y-53967440D01*
X53320000Y-53967440D01*
X53555317Y-53923162D01*
X53771441Y-53784090D01*
X53916431Y-53571890D01*
X53967440Y-53320000D01*
X53967440Y-52540000D01*
X63322560Y-52540000D01*
X63322560Y-54140000D01*
X63366838Y-54375317D01*
X63505910Y-54591441D01*
X63718110Y-54736431D01*
X63956201Y-54784646D01*
X63941861Y-54832255D01*
X64770000Y-55660395D01*
X65598139Y-54832255D01*
X65583855Y-54784833D01*
X65805317Y-54743162D01*
X66021441Y-54604090D01*
X66166431Y-54391890D01*
X66217440Y-54140000D01*
X66217440Y-52540000D01*
X66173162Y-52304683D01*
X66034090Y-52088559D01*
X65821890Y-51943569D01*
X65570000Y-51892560D01*
X63970000Y-51892560D01*
X63734683Y-51936838D01*
X63518559Y-52075910D01*
X63373569Y-52288110D01*
X63322560Y-52540000D01*
X53967440Y-52540000D01*
X53967440Y-50820000D01*
X53923162Y-50584683D01*
X53784090Y-50368559D01*
X53571890Y-50223569D01*
X53320000Y-50172560D01*
X50820000Y-50172560D01*
X50584683Y-50216838D01*
X50368559Y-50355910D01*
X50223569Y-50568110D01*
X50172560Y-50820000D01*
X48387000Y-50820000D01*
X48387000Y-49657000D01*
X204343000Y-49657000D01*
X204343000Y-55150381D01*
M02*
