<?xml version="1.0" encoding="utf-8"?>
<!-- Generator: Adobe Illustrator 19.0.0, SVG Export Plug-In . SVG Version: 6.00 Build 0)  -->
<svg version="1.1" id="Layer_1" xmlns="http://www.w3.org/2000/svg" xmlns:xlink="http://www.w3.org/1999/xlink" x="0px" y="0px"
	 viewBox="1978.3 -977.2 864 864" style="enable-background:new 1978.3 -977.2 864 864;" xml:space="preserve">
<style type="text/css">
	.st0{fill:none;stroke:#000000;stroke-width:0.9;}
	.st1{fill:none;stroke:#000000;stroke-width:1.000000e-003;}
	.st2{fill:none;stroke:#000000;stroke-width:0.709;stroke-linecap:round;stroke-linejoin:round;stroke-miterlimit:10;}
</style>
<g transform="translate(22.5000185, 22.5000185) ">
	<polygon class="st0" points="2061.7,-425.8 2090,-425.8 2090,-417.3 2118.4,-417.3 2118.4,-425.8 2135.4,-425.8 2135.4,-417.3 
		2152.4,-417.3 2152.4,-425.8 2169.4,-425.8 2169.4,-417.3 2186.4,-417.3 2186.4,-425.8 2203.4,-425.8 2203.4,-417.3 2220.4,-417.3 
		2220.4,-425.8 2237.4,-425.8 2237.4,-417.3 2254.5,-417.3 2254.5,-425.8 2271.5,-425.8 2271.5,-417.3 2288.5,-417.3 2288.5,-425.8 
		2305.5,-425.8 2305.5,-417.3 2322.5,-417.3 2322.5,-425.8 2339.5,-425.8 2339.5,-417.3 2367.8,-417.3 2367.8,-425.8 2396.2,-425.8 
		2396.2,-400.3 2387.7,-400.3 2387.7,-374.8 2396.2,-374.8 2396.2,-357.8 2387.7,-357.8 2387.7,-340.8 2396.2,-340.8 2396.2,-323.8 
		2387.7,-323.8 2387.7,-306.7 2396.2,-306.7 2396.2,-289.7 2387.7,-289.7 2387.7,-272.7 2396.2,-272.7 2396.2,-255.7 2387.7,-255.7 
		2387.7,-230.2 2396.2,-230.2 2396.2,-204.7 2367.8,-204.7 2367.8,-213.2 2339.5,-213.2 2339.5,-204.7 2322.5,-204.7 2322.5,-213.2 
		2305.5,-213.2 2305.5,-204.7 2288.5,-204.7 2288.5,-213.2 2271.5,-213.2 2271.5,-204.7 2254.5,-204.7 2254.5,-213.2 2237.4,-213.2 
		2237.4,-204.7 2220.4,-204.7 2220.4,-213.2 2203.4,-213.2 2203.4,-204.7 2186.4,-204.7 2186.4,-213.2 2169.4,-213.2 2169.4,-204.7 
		2152.4,-204.7 2152.4,-213.2 2135.4,-213.2 2135.4,-204.7 2118.4,-204.7 2118.4,-213.2 2090,-213.2 2090,-204.7 2061.7,-204.7 
		2061.7,-230.2 2070.2,-230.2 2070.2,-255.7 2061.7,-255.7 2061.7,-272.7 2070.2,-272.7 2070.2,-289.7 2061.7,-289.7 2061.7,-306.7 
		2070.2,-306.7 2070.2,-323.8 2061.7,-323.8 2061.7,-340.8 2070.2,-340.8 2070.2,-357.8 2061.7,-357.8 2061.7,-374.8 2070.2,-374.8 
		2070.2,-400.3 2061.7,-400.3 	"/>
</g>
<g transform="translate(440.6105985, 22.5000185) ">
	<polygon class="st0" points="1978.1,-425.8 2006.4,-425.8 2006.4,-417.3 2034.8,-417.3 2034.8,-425.8 2051.8,-425.8 2051.8,-417.3 
		2068.8,-417.3 2068.8,-425.8 2085.8,-425.8 2085.8,-417.3 2102.8,-417.3 2102.8,-425.8 2119.8,-425.8 2119.8,-417.3 2136.8,-417.3 
		2136.8,-425.8 2153.8,-425.8 2153.8,-417.3 2170.8,-417.3 2170.8,-425.8 2187.8,-425.8 2187.8,-417.3 2204.8,-417.3 2204.8,-425.8 
		2221.9,-425.8 2221.9,-417.3 2238.9,-417.3 2238.9,-425.8 2255.9,-425.8 2255.9,-417.3 2284.2,-417.3 2284.2,-425.8 2312.6,-425.8 
		2312.6,-400.3 2304.1,-400.3 2304.1,-374.8 2312.6,-374.8 2312.6,-357.8 2304.1,-357.8 2304.1,-340.8 2312.6,-340.8 2312.6,-323.8 
		2304.1,-323.8 2304.1,-306.7 2312.6,-306.7 2312.6,-289.7 2304.1,-289.7 2304.1,-272.7 2312.6,-272.7 2312.6,-255.7 2304.1,-255.7 
		2304.1,-230.2 2312.6,-230.2 2312.6,-204.7 2284.2,-204.7 2284.2,-213.2 2255.9,-213.2 2255.9,-204.7 2238.9,-204.7 2238.9,-213.2 
		2221.9,-213.2 2221.9,-204.7 2204.8,-204.7 2204.8,-213.2 2187.8,-213.2 2187.8,-204.7 2170.8,-204.7 2170.8,-213.2 2153.8,-213.2 
		2153.8,-204.7 2136.8,-204.7 2136.8,-213.2 2119.8,-213.2 2119.8,-204.7 2102.8,-204.7 2102.8,-213.2 2085.8,-213.2 2085.8,-204.7 
		2068.8,-204.7 2068.8,-213.2 2051.8,-213.2 2051.8,-204.7 2034.8,-204.7 2034.8,-213.2 2006.4,-213.2 2006.4,-204.7 1978.1,-204.7 
		1978.1,-230.2 1986.6,-230.2 1986.6,-255.7 1978.1,-255.7 1978.1,-272.7 1986.6,-272.7 1986.6,-289.7 1978.1,-289.7 1978.1,-306.7 
		1986.6,-306.7 1986.6,-323.8 1978.1,-323.8 1978.1,-340.8 1986.6,-340.8 1986.6,-357.8 1978.1,-357.8 1978.1,-374.8 1986.6,-374.8 
		1986.6,-400.3 1978.1,-400.3 	"/>
</g>
<g transform="translate(858.7211785, 22.5000185) ">
	<polygon class="st0" points="1242.8,-925.9 1255.5,-925.9 1255.5,-917.4 1276.8,-917.4 1276.8,-925.9 1293.8,-925.9 1293.8,-917.4 
		1310.8,-917.4 1310.8,-925.9 1327.8,-925.9 1327.8,-917.4 1344.8,-917.4 1344.8,-925.9 1361.8,-925.9 1361.8,-917.4 1378.8,-917.4 
		1378.8,-925.9 1395.8,-925.9 1395.8,-917.4 1412.8,-917.4 1412.8,-925.9 1429.8,-925.9 1429.8,-917.4 1446.9,-917.4 1446.9,-925.9 
		1463.9,-925.9 1463.9,-917.4 1480.9,-917.4 1480.9,-925.9 1497.9,-925.9 1497.9,-917.4 1514.9,-917.4 1514.9,-925.9 1531.9,-925.9 
		1531.9,-917.4 1548.9,-917.4 1548.9,-925.9 1565.9,-925.9 1565.9,-917.4 1582.9,-917.4 1582.9,-925.9 1599.9,-925.9 1599.9,-917.4 
		1616.9,-917.4 1616.9,-925.9 1633.9,-925.9 1633.9,-917.4 1650.9,-917.4 1650.9,-925.9 1668,-925.9 1668,-917.4 1685,-917.4 
		1685,-925.9 1702,-925.9 1702,-917.4 1719,-917.4 1719,-925.9 1736,-925.9 1736,-917.4 1753,-917.4 1753,-925.9 1770,-925.9 
		1770,-917.4 1787,-917.4 1787,-925.9 1804,-925.9 1804,-917.4 1821,-917.4 1821,-925.9 1838,-925.9 1838,-917.4 1855,-917.4 
		1855,-925.9 1872.1,-925.9 1872.1,-917.4 1893.3,-917.4 1893.3,-925.9 1906.1,-925.9 1906.1,-900.4 1914.6,-900.4 1914.6,-874.9 
		1906.1,-874.9 1906.1,-857.9 1914.6,-857.9 1914.6,-840.9 1906.1,-840.9 1906.1,-823.9 1914.6,-823.9 1914.6,-806.8 1906.1,-806.8 
		1906.1,-789.8 1914.6,-789.8 1914.6,-772.8 1906.1,-772.8 1906.1,-755.8 1914.6,-755.8 1914.6,-730.3 1906.1,-730.3 1906.1,-704.8 
		1893.3,-704.8 1893.3,-713.3 1872.1,-713.3 1872.1,-704.8 1855,-704.8 1855,-713.3 1838,-713.3 1838,-704.8 1821,-704.8 
		1821,-713.3 1804,-713.3 1804,-704.8 1787,-704.8 1787,-713.3 1770,-713.3 1770,-704.8 1753,-704.8 1753,-713.3 1736,-713.3 
		1736,-704.8 1719,-704.8 1719,-713.3 1702,-713.3 1702,-704.8 1685,-704.8 1685,-713.3 1668,-713.3 1668,-704.8 1650.9,-704.8 
		1650.9,-713.3 1633.9,-713.3 1633.9,-704.8 1616.9,-704.8 1616.9,-713.3 1599.9,-713.3 1599.9,-704.8 1582.9,-704.8 1582.9,-713.3 
		1565.9,-713.3 1565.9,-704.8 1548.9,-704.8 1548.9,-713.3 1531.9,-713.3 1531.9,-704.8 1514.9,-704.8 1514.9,-713.3 1497.9,-713.3 
		1497.9,-704.8 1480.9,-704.8 1480.9,-713.3 1463.9,-713.3 1463.9,-704.8 1446.9,-704.8 1446.9,-713.3 1429.8,-713.3 1429.8,-704.8 
		1412.8,-704.8 1412.8,-713.3 1395.8,-713.3 1395.8,-704.8 1378.8,-704.8 1378.8,-713.3 1361.8,-713.3 1361.8,-704.8 1344.8,-704.8 
		1344.8,-713.3 1327.8,-713.3 1327.8,-704.8 1310.8,-704.8 1310.8,-713.3 1293.8,-713.3 1293.8,-704.8 1276.8,-704.8 1276.8,-713.3 
		1255.5,-713.3 1255.5,-704.8 1242.8,-704.8 1242.8,-730.3 1234.3,-730.3 1234.3,-755.8 1242.8,-755.8 1242.8,-772.8 1234.3,-772.8 
		1234.3,-789.8 1242.8,-789.8 1242.8,-806.8 1234.3,-806.8 1234.3,-823.9 1242.8,-823.9 1242.8,-840.9 1234.3,-840.9 1234.3,-857.9 
		1242.8,-857.9 1242.8,-874.9 1234.3,-874.9 1234.3,-900.4 1242.8,-900.4 	"/>
</g>
<g transform="translate(858.7211785, 298.8781985) ">
	<polygon class="st0" points="1242.8,-981.2 1255.5,-981.2 1255.5,-972.7 1276.8,-972.7 1276.8,-981.2 1293.8,-981.2 1293.8,-972.7 
		1310.8,-972.7 1310.8,-981.2 1327.8,-981.2 1327.8,-972.7 1344.8,-972.7 1344.8,-981.2 1361.8,-981.2 1361.8,-972.7 1378.8,-972.7 
		1378.8,-981.2 1395.8,-981.2 1395.8,-972.7 1412.8,-972.7 1412.8,-981.2 1429.8,-981.2 1429.8,-972.7 1446.9,-972.7 1446.9,-981.2 
		1463.9,-981.2 1463.9,-972.7 1480.9,-972.7 1480.9,-981.2 1497.9,-981.2 1497.9,-972.7 1514.9,-972.7 1514.9,-981.2 1531.9,-981.2 
		1531.9,-972.7 1548.9,-972.7 1548.9,-981.2 1565.9,-981.2 1565.9,-972.7 1582.9,-972.7 1582.9,-981.2 1599.9,-981.2 1599.9,-972.7 
		1616.9,-972.7 1616.9,-981.2 1633.9,-981.2 1633.9,-972.7 1650.9,-972.7 1650.9,-981.2 1668,-981.2 1668,-972.7 1685,-972.7 
		1685,-981.2 1702,-981.2 1702,-972.7 1719,-972.7 1719,-981.2 1736,-981.2 1736,-972.7 1753,-972.7 1753,-981.2 1770,-981.2 
		1770,-972.7 1787,-972.7 1787,-981.2 1804,-981.2 1804,-972.7 1821,-972.7 1821,-981.2 1838,-981.2 1838,-972.7 1855,-972.7 
		1855,-981.2 1872.1,-981.2 1872.1,-972.7 1893.3,-972.7 1893.3,-981.2 1906.1,-981.2 1906.1,-955.7 1914.6,-955.7 1914.6,-930.2 
		1906.1,-930.2 1906.1,-913.1 1914.6,-913.1 1914.6,-896.1 1906.1,-896.1 1906.1,-879.1 1914.6,-879.1 1914.6,-862.1 1906.1,-862.1 
		1906.1,-845.1 1914.6,-845.1 1914.6,-828.1 1906.1,-828.1 1906.1,-811.1 1914.6,-811.1 1914.6,-785.6 1906.1,-785.6 1906.1,-760.1 
		1893.3,-760.1 1893.3,-768.6 1872.1,-768.6 1872.1,-760.1 1855,-760.1 1855,-768.6 1838,-768.6 1838,-760.1 1821,-760.1 
		1821,-768.6 1804,-768.6 1804,-760.1 1787,-760.1 1787,-768.6 1770,-768.6 1770,-760.1 1753,-760.1 1753,-768.6 1736,-768.6 
		1736,-760.1 1719,-760.1 1719,-768.6 1702,-768.6 1702,-760.1 1685,-760.1 1685,-768.6 1668,-768.6 1668,-760.1 1650.9,-760.1 
		1650.9,-768.6 1633.9,-768.6 1633.9,-760.1 1616.9,-760.1 1616.9,-768.6 1599.9,-768.6 1599.9,-760.1 1582.9,-760.1 1582.9,-768.6 
		1565.9,-768.6 1565.9,-760.1 1548.9,-760.1 1548.9,-768.6 1531.9,-768.6 1531.9,-760.1 1514.9,-760.1 1514.9,-768.6 1497.9,-768.6 
		1497.9,-760.1 1480.9,-760.1 1480.9,-768.6 1463.9,-768.6 1463.9,-760.1 1446.9,-760.1 1446.9,-768.6 1429.8,-768.6 1429.8,-760.1 
		1412.8,-760.1 1412.8,-768.6 1395.8,-768.6 1395.8,-760.1 1378.8,-760.1 1378.8,-768.6 1361.8,-768.6 1361.8,-760.1 1344.8,-760.1 
		1344.8,-768.6 1327.8,-768.6 1327.8,-760.1 1310.8,-760.1 1310.8,-768.6 1293.8,-768.6 1293.8,-760.1 1276.8,-760.1 1276.8,-768.6 
		1255.5,-768.6 1255.5,-760.1 1242.8,-760.1 1242.8,-785.6 1234.3,-785.6 1234.3,-811.1 1242.8,-811.1 1242.8,-828.1 1234.3,-828.1 
		1234.3,-845.1 1242.8,-845.1 1242.8,-862.1 1234.3,-862.1 1234.3,-879.1 1242.8,-879.1 1242.8,-896.1 1234.3,-896.1 1234.3,-913.1 
		1242.8,-913.1 1242.8,-930.2 1234.3,-930.2 1234.3,-955.7 1242.8,-955.7 	"/>
</g>
<g transform="translate(22.5000185, 298.8781985) ">
	<polygon class="st0" points="2083,-278.9 2102.8,-278.9 2102.8,-287.4 2131.2,-287.4 2131.2,-278.9 2148.2,-278.9 2148.2,-287.4 
		2165.2,-287.4 2165.2,-278.9 2182.2,-278.9 2182.2,-287.4 2199.2,-287.4 2199.2,-278.9 2216.2,-278.9 2216.2,-287.4 2233.2,-287.4 
		2233.2,-278.9 2250.2,-278.9 2250.2,-287.4 2267.3,-287.4 2267.3,-278.9 2284.3,-278.9 2284.3,-287.4 2301.3,-287.4 2301.3,-278.9 
		2318.3,-278.9 2318.3,-287.4 2335.3,-287.4 2335.3,-278.9 2352.3,-278.9 2352.3,-287.4 2380.6,-287.4 2380.6,-278.9 2400.5,-278.9 
		2400.5,-266.1 2409,-266.1 2409,-244.9 2400.5,-244.9 2400.5,-227.8 2409,-227.8 2409,-210.8 2400.5,-210.8 2400.5,-193.8 
		2409,-193.8 2409,-176.8 2400.5,-176.8 2400.5,-159.8 2409,-159.8 2409,-142.8 2400.5,-142.8 2400.5,-125.8 2409,-125.8 
		2409,-108.8 2400.5,-108.8 2400.5,-91.8 2409,-91.8 2409,-74.8 2400.5,-74.8 2400.5,-57.8 2409,-57.8 2409,-40.8 2400.5,-40.8 
		2400.5,-23.8 2409,-23.8 2409,-6.7 2400.5,-6.7 2400.5,10.3 2409,10.3 2409,27.3 2400.5,27.3 2400.5,44.3 2409,44.3 2409,61.3 
		2400.5,61.3 2400.5,78.3 2409,78.3 2409,95.3 2400.5,95.3 2400.5,112.3 2409,112.3 2409,129.3 2400.5,129.3 2400.5,146.3 
		2409,146.3 2409,163.3 2400.5,163.3 2400.5,180.3 2409,180.3 2409,197.3 2400.5,197.3 2400.5,214.4 2409,214.4 2409,231.4 
		2400.5,231.4 2400.5,248.4 2409,248.4 2409,265.4 2400.5,265.4 2400.5,282.4 2409,282.4 2409,299.4 2400.5,299.4 2400.5,316.4 
		2409,316.4 2409,333.4 2400.5,333.4 2400.5,350.4 2409,350.4 2409,371.7 2400.5,371.7 2400.5,384.4 2380.6,384.4 2380.6,392.9 
		2352.3,392.9 2352.3,384.4 2335.3,384.4 2335.3,392.9 2318.3,392.9 2318.3,384.4 2301.3,384.4 2301.3,392.9 2284.3,392.9 
		2284.3,384.4 2267.3,384.4 2267.3,392.9 2250.2,392.9 2250.2,384.4 2233.2,384.4 2233.2,392.9 2216.2,392.9 2216.2,384.4 
		2199.2,384.4 2199.2,392.9 2182.2,392.9 2182.2,384.4 2165.2,384.4 2165.2,392.9 2148.2,392.9 2148.2,384.4 2131.2,384.4 
		2131.2,392.9 2102.8,392.9 2102.8,384.4 2083,384.4 2083,371.7 2074.5,371.7 2074.5,350.4 2083,350.4 2083,333.4 2074.5,333.4 
		2074.5,316.4 2083,316.4 2083,299.4 2074.5,299.4 2074.5,282.4 2083,282.4 2083,265.4 2074.5,265.4 2074.5,248.4 2083,248.4 
		2083,231.4 2074.5,231.4 2074.5,214.4 2083,214.4 2083,197.3 2074.5,197.3 2074.5,180.3 2083,180.3 2083,163.3 2074.5,163.3 
		2074.5,146.3 2083,146.3 2083,129.3 2074.5,129.3 2074.5,112.3 2083,112.3 2083,95.3 2074.5,95.3 2074.5,78.3 2083,78.3 2083,61.3 
		2074.5,61.3 2074.5,44.3 2083,44.3 2083,27.3 2074.5,27.3 2074.5,10.3 2083,10.3 2083,-6.7 2074.5,-6.7 2074.5,-23.8 2083,-23.8 
		2083,-40.8 2074.5,-40.8 2074.5,-57.8 2083,-57.8 2083,-74.8 2074.5,-74.8 2074.5,-91.8 2083,-91.8 2083,-108.8 2074.5,-108.8 
		2074.5,-125.8 2083,-125.8 2083,-142.8 2074.5,-142.8 2074.5,-159.8 2083,-159.8 2083,-176.8 2074.5,-176.8 2074.5,-193.8 
		2083,-193.8 2083,-210.8 2074.5,-210.8 2074.5,-227.8 2083,-227.8 2083,-244.9 2074.5,-244.9 2074.5,-266.1 2083,-266.1 	"/>
</g>
<g transform="translate(440.6105985, 298.8781985) ">
	<polygon class="st0" points="1999.4,-278.9 2019.2,-278.9 2019.2,-287.4 2047.6,-287.4 2047.6,-278.9 2064.6,-278.9 2064.6,-287.4 
		2081.6,-287.4 2081.6,-278.9 2098.6,-278.9 2098.6,-287.4 2115.6,-287.4 2115.6,-278.9 2132.6,-278.9 2132.6,-287.4 2149.6,-287.4 
		2149.6,-278.9 2166.6,-278.9 2166.6,-287.4 2183.6,-287.4 2183.6,-278.9 2200.6,-278.9 2200.6,-287.4 2217.6,-287.4 2217.6,-278.9 
		2234.7,-278.9 2234.7,-287.4 2251.7,-287.4 2251.7,-278.9 2268.7,-278.9 2268.7,-287.4 2297,-287.4 2297,-278.9 2316.9,-278.9 
		2316.9,-266.1 2325.4,-266.1 2325.4,-244.9 2316.9,-244.9 2316.9,-227.8 2325.4,-227.8 2325.4,-210.8 2316.9,-210.8 2316.9,-193.8 
		2325.4,-193.8 2325.4,-176.8 2316.9,-176.8 2316.9,-159.8 2325.4,-159.8 2325.4,-142.8 2316.9,-142.8 2316.9,-125.8 2325.4,-125.8 
		2325.4,-108.8 2316.9,-108.8 2316.9,-91.8 2325.4,-91.8 2325.4,-74.8 2316.9,-74.8 2316.9,-57.8 2325.4,-57.8 2325.4,-40.8 
		2316.9,-40.8 2316.9,-23.8 2325.4,-23.8 2325.4,-6.7 2316.9,-6.7 2316.9,10.3 2325.4,10.3 2325.4,27.3 2316.9,27.3 2316.9,44.3 
		2325.4,44.3 2325.4,61.3 2316.9,61.3 2316.9,78.3 2325.4,78.3 2325.4,95.3 2316.9,95.3 2316.9,112.3 2325.4,112.3 2325.4,129.3 
		2316.9,129.3 2316.9,146.3 2325.4,146.3 2325.4,163.3 2316.9,163.3 2316.9,180.3 2325.4,180.3 2325.4,197.3 2316.9,197.3 
		2316.9,214.4 2325.4,214.4 2325.4,231.4 2316.9,231.4 2316.9,248.4 2325.4,248.4 2325.4,265.4 2316.9,265.4 2316.9,282.4 
		2325.4,282.4 2325.4,299.4 2316.9,299.4 2316.9,316.4 2325.4,316.4 2325.4,333.4 2316.9,333.4 2316.9,350.4 2325.4,350.4 
		2325.4,371.7 2316.9,371.7 2316.9,384.4 2297,384.4 2297,392.9 2268.7,392.9 2268.7,384.4 2251.7,384.4 2251.7,392.9 2234.7,392.9 
		2234.7,384.4 2217.6,384.4 2217.6,392.9 2200.6,392.9 2200.6,384.4 2183.6,384.4 2183.6,392.9 2166.6,392.9 2166.6,384.4 
		2149.6,384.4 2149.6,392.9 2132.6,392.9 2132.6,384.4 2115.6,384.4 2115.6,392.9 2098.6,392.9 2098.6,384.4 2081.6,384.4 
		2081.6,392.9 2064.6,392.9 2064.6,384.4 2047.6,384.4 2047.6,392.9 2019.2,392.9 2019.2,384.4 1999.4,384.4 1999.4,371.7 
		1990.9,371.7 1990.9,350.4 1999.4,350.4 1999.4,333.4 1990.9,333.4 1990.9,316.4 1999.4,316.4 1999.4,299.4 1990.9,299.4 
		1990.9,282.4 1999.4,282.4 1999.4,265.4 1990.9,265.4 1990.9,248.4 1999.4,248.4 1999.4,231.4 1990.9,231.4 1990.9,214.4 
		1999.4,214.4 1999.4,197.3 1990.9,197.3 1990.9,180.3 1999.4,180.3 1999.4,163.3 1990.9,163.3 1990.9,146.3 1999.4,146.3 
		1999.4,129.3 1990.9,129.3 1990.9,112.3 1999.4,112.3 1999.4,95.3 1990.9,95.3 1990.9,78.3 1999.4,78.3 1999.4,61.3 1990.9,61.3 
		1990.9,44.3 1999.4,44.3 1999.4,27.3 1990.9,27.3 1990.9,10.3 1999.4,10.3 1999.4,-6.7 1990.9,-6.7 1990.9,-23.8 1999.4,-23.8 
		1999.4,-40.8 1990.9,-40.8 1990.9,-57.8 1999.4,-57.8 1999.4,-74.8 1990.9,-74.8 1990.9,-91.8 1999.4,-91.8 1999.4,-108.8 
		1990.9,-108.8 1990.9,-125.8 1999.4,-125.8 1999.4,-142.8 1990.9,-142.8 1990.9,-159.8 1999.4,-159.8 1999.4,-176.8 1990.9,-176.8 
		1990.9,-193.8 1999.4,-193.8 1999.4,-210.8 1990.9,-210.8 1990.9,-227.8 1999.4,-227.8 1999.4,-244.9 1990.9,-244.9 1990.9,-266.1 
		1999.4,-266.1 	"/>
</g>
<g>
	<circle class="st1" cx="2222.5" cy="-636.7" r="5.3"/>
	<path class="st1" d="M2303.6-624.7c-10,0-16.7,2.3-23.3,11.3l-34,0.2c-4.8-7.9-13.9-11.5-23.8-11.5c-15.1,0-27.4,12.3-27.4,27.4
		c0,15.1,12.3,27.4,27.4,27.4c10,0,19.3-5.3,24.6-11.6h33c3.3,6.4,13.6,11.5,23.5,11.5c15.1,0,27.4-12.3,27.4-27.4
		C2331-612.4,2318.8-624.7,2303.6-624.7z"/>
	<circle class="st1" cx="2303.6" cy="-636.7" r="5.3"/>
	<circle class="st1" cx="2222.5" cy="-557.8" r="5.3"/>
	<circle class="st1" cx="2303.6" cy="-557.8" r="5.3"/>
</g>
<g>
	<circle class="st1" cx="2562.6" cy="-857.8" r="5.3"/>
	<path class="st1" d="M2643.8-845.8c-10,0-16.7,2.3-23.3,11.3l-34,0.2c-4.8-7.9-13.9-11.5-23.8-11.5c-15.1,0-27.4,12.3-27.4,27.4
		c0,15.1,12.3,27.4,27.4,27.4c10,0,19.3-5.3,24.6-11.6h33c3.3,6.4,13.6,11.5,23.5,11.5c15.1,0,27.4-12.3,27.4-27.4
		C2671.2-833.5,2658.9-845.8,2643.8-845.8z"/>
	<circle class="st1" cx="2643.8" cy="-857.8" r="5.3"/>
	<circle class="st1" cx="2562.6" cy="-778.9" r="5.3"/>
	<circle class="st1" cx="2643.8" cy="-778.9" r="5.3"/>
</g>
<g>
	<circle class="st1" cx="2645.4" cy="-597.4" r="22.7"/>
	<circle class="st1" cx="2621.4" cy="-617.2" r="4.6"/>
	<circle class="st1" cx="2670.2" cy="-580.8" r="4.6"/>
</g>
<g>
	<circle class="st1" cx="2220.9" cy="-817.5" r="22.7"/>
	<circle class="st1" cx="2244.9" cy="-837.3" r="4.6"/>
	<circle class="st1" cx="2196.2" cy="-800.9" r="4.6"/>
</g>
<g>
	<circle class="st1" cx="2586.3" cy="-317.4" r="22.7"/>
	<circle class="st1" cx="2610.3" cy="-337.2" r="4.6"/>
	<circle class="st1" cx="2561.6" cy="-300.8" r="4.6"/>
</g>
<g>
	<line class="st2" x1="2473.3" y1="-525.4" x2="2459.3" y2="-517"/>
	<line class="st2" x1="2459.3" y1="-517" x2="2459.4" y2="-503.7"/>
	<line class="st2" x1="2487.8" y1="-503.7" x2="2487.5" y2="-517.5"/>
	<line class="st2" x1="2468.4" y1="-551" x2="2454.2" y2="-559"/>
	<line class="st2" x1="2454.2" y1="-559" x2="2439.9" y2="-550.5"/>
	<line class="st2" x1="2439.9" y1="-550.5" x2="2440.3" y2="-534.2"/>
	<line class="st2" x1="2440.3" y1="-534.2" x2="2454.5" y2="-526.2"/>
	<line class="st2" x1="2454.5" y1="-526.2" x2="2468.7" y2="-534.7"/>
	<line class="st2" x1="2468.7" y1="-534.7" x2="2468.4" y2="-551"/>
	<line class="st2" x1="2373.4" y1="-517.5" x2="2359" y2="-525.4"/>
	<line class="st2" x1="2359" y1="-525.4" x2="2346.5" y2="-517.9"/>
	<line class="st2" x1="2346.5" y1="-503.7" x2="2346.5" y2="-517.9"/>
	<line class="st2" x1="2544.8" y1="-534.7" x2="2544.5" y2="-551"/>
	<line class="st2" x1="2544.5" y1="-551" x2="2530.3" y2="-559"/>
	<line class="st2" x1="2530.3" y1="-559" x2="2516.2" y2="-550.5"/>
	<line class="st2" x1="2516.2" y1="-550.5" x2="2516.4" y2="-534.2"/>
	<line class="st2" x1="2516.4" y1="-534.2" x2="2530.8" y2="-526.2"/>
	<line class="st2" x1="2530.8" y1="-526.2" x2="2544.8" y2="-534.7"/>
	<line class="st2" x1="2525.8" y1="-503.7" x2="2525.7" y2="-517.5"/>
	<line class="st2" x1="2525.7" y1="-517.5" x2="2511.3" y2="-525.4"/>
	<line class="st2" x1="2511.3" y1="-525.4" x2="2497.3" y2="-517"/>
	<line class="st2" x1="2497.3" y1="-517" x2="2497.5" y2="-503.7"/>
	<line class="st2" x1="2525.8" y1="-503.7" x2="2497.5" y2="-503.7"/>
	<line class="st2" x1="2582.8" y1="-534.7" x2="2582.7" y2="-551"/>
	<line class="st2" x1="2582.7" y1="-551" x2="2568.3" y2="-559"/>
	<line class="st2" x1="2568.3" y1="-559" x2="2554.3" y2="-550.5"/>
	<line class="st2" x1="2554.3" y1="-550.5" x2="2554.4" y2="-534.2"/>
	<line class="st2" x1="2554.4" y1="-534.2" x2="2568.8" y2="-526.2"/>
	<line class="st2" x1="2568.8" y1="-526.2" x2="2582.8" y2="-534.7"/>
	<line class="st2" x1="2598.4" y1="-519.3" x2="2587.4" y2="-525.4"/>
	<line class="st2" x1="2587.4" y1="-525.4" x2="2573.4" y2="-517"/>
	<line class="st2" x1="2573.4" y1="-517" x2="2573.7" y2="-503.7"/>
	<line class="st2" x1="2598.4" y1="-503.7" x2="2573.7" y2="-503.7"/>
	<line class="st2" x1="2598.4" y1="-503.7" x2="2598.4" y2="-519.3"/>
	<line class="st2" x1="2563.9" y1="-503.7" x2="2563.8" y2="-517.5"/>
	<line class="st2" x1="2563.8" y1="-517.5" x2="2549.4" y2="-525.4"/>
	<line class="st2" x1="2549.4" y1="-525.4" x2="2535.3" y2="-517"/>
	<line class="st2" x1="2535.3" y1="-517" x2="2535.5" y2="-503.7"/>
	<line class="st2" x1="2563.9" y1="-503.7" x2="2535.5" y2="-503.7"/>
	<line class="st2" x1="2487.8" y1="-631.5" x2="2487.5" y2="-647.9"/>
	<line class="st2" x1="2487.5" y1="-647.9" x2="2476.7" y2="-653.9"/>
	<line class="st2" x1="2476.7" y1="-653.9" x2="2470.2" y2="-653.9"/>
	<line class="st2" x1="2470.2" y1="-653.9" x2="2459.3" y2="-647.4"/>
	<line class="st2" x1="2459.3" y1="-647.4" x2="2459.5" y2="-631"/>
	<line class="st2" x1="2459.5" y1="-631" x2="2473.8" y2="-623.1"/>
	<line class="st2" x1="2473.8" y1="-623.1" x2="2487.8" y2="-631.5"/>
	<line class="st2" x1="2525.9" y1="-631.5" x2="2525.7" y2="-647.9"/>
	<line class="st2" x1="2525.7" y1="-647.9" x2="2514.8" y2="-653.9"/>
	<line class="st2" x1="2514.8" y1="-653.9" x2="2508.2" y2="-653.9"/>
	<line class="st2" x1="2508.2" y1="-653.9" x2="2497.3" y2="-647.4"/>
	<line class="st2" x1="2497.3" y1="-647.4" x2="2497.5" y2="-631"/>
	<line class="st2" x1="2497.5" y1="-631" x2="2511.8" y2="-623.1"/>
	<line class="st2" x1="2511.8" y1="-623.1" x2="2525.9" y2="-631.5"/>
	<line class="st2" x1="2544.8" y1="-599.9" x2="2544.5" y2="-616.2"/>
	<line class="st2" x1="2544.5" y1="-616.2" x2="2530.3" y2="-624.2"/>
	<line class="st2" x1="2530.3" y1="-624.2" x2="2516.2" y2="-615.7"/>
	<line class="st2" x1="2516.2" y1="-615.7" x2="2516.4" y2="-599.4"/>
	<line class="st2" x1="2516.4" y1="-599.4" x2="2530.8" y2="-591.4"/>
	<line class="st2" x1="2530.8" y1="-591.4" x2="2544.8" y2="-599.9"/>
	<line class="st2" x1="2563.9" y1="-566.3" x2="2563.8" y2="-582.7"/>
	<line class="st2" x1="2563.8" y1="-582.7" x2="2549.4" y2="-590.6"/>
	<line class="st2" x1="2549.4" y1="-590.6" x2="2535.3" y2="-582.2"/>
	<line class="st2" x1="2535.3" y1="-582.2" x2="2535.7" y2="-565.8"/>
	<line class="st2" x1="2535.7" y1="-565.8" x2="2549.9" y2="-557.9"/>
	<line class="st2" x1="2549.9" y1="-557.9" x2="2563.9" y2="-566.3"/>
	<line class="st2" x1="2402" y1="-615.7" x2="2402.2" y2="-599.4"/>
	<line class="st2" x1="2402.2" y1="-599.4" x2="2416.5" y2="-591.4"/>
	<line class="st2" x1="2416.5" y1="-591.4" x2="2430.7" y2="-599.9"/>
	<line class="st2" x1="2430.7" y1="-599.9" x2="2430.3" y2="-616.2"/>
	<line class="st2" x1="2430.3" y1="-616.2" x2="2416" y2="-624.2"/>
	<line class="st2" x1="2416" y1="-624.2" x2="2402" y2="-615.7"/>
	<line class="st2" x1="2355.9" y1="-599.2" x2="2355.7" y2="-615.5"/>
	<line class="st2" x1="2355.7" y1="-615.5" x2="2346.5" y2="-620.5"/>
	<line class="st2" x1="2346.5" y1="-593.6" x2="2346.5" y2="-620.5"/>
	<line class="st2" x1="2346.5" y1="-593.6" x2="2355.9" y2="-599.2"/>
	<line class="st2" x1="2355.5" y1="-534.5" x2="2355.4" y2="-550.8"/>
	<line class="st2" x1="2355.4" y1="-550.8" x2="2346.5" y2="-555.7"/>
	<line class="st2" x1="2346.5" y1="-529.1" x2="2346.5" y2="-555.7"/>
	<line class="st2" x1="2346.5" y1="-529.1" x2="2355.5" y2="-534.5"/>
	<line class="st2" x1="2598.4" y1="-554.2" x2="2592.3" y2="-550.5"/>
	<line class="st2" x1="2592.3" y1="-550.5" x2="2592.5" y2="-534.2"/>
	<line class="st2" x1="2592.5" y1="-534.2" x2="2598.4" y2="-530.9"/>
	<line class="st2" x1="2598.4" y1="-530.9" x2="2598.4" y2="-554.2"/>
	<line class="st2" x1="2598.4" y1="-619.4" x2="2592.3" y2="-615.7"/>
	<line class="st2" x1="2592.3" y1="-615.7" x2="2592.5" y2="-599.4"/>
	<line class="st2" x1="2592.5" y1="-599.4" x2="2598.4" y2="-596.1"/>
	<line class="st2" x1="2598.4" y1="-596.1" x2="2598.4" y2="-619.4"/>
	<line class="st2" x1="2598.4" y1="-584.5" x2="2587.4" y2="-590.6"/>
	<line class="st2" x1="2587.4" y1="-590.6" x2="2573.4" y2="-582.2"/>
	<line class="st2" x1="2573.4" y1="-582.2" x2="2573.8" y2="-565.8"/>
	<line class="st2" x1="2573.8" y1="-565.8" x2="2588" y2="-557.9"/>
	<line class="st2" x1="2588" y1="-557.9" x2="2598.4" y2="-564.1"/>
	<line class="st2" x1="2598.4" y1="-564.1" x2="2598.4" y2="-584.5"/>
	<line class="st2" x1="2582.8" y1="-599.9" x2="2582.7" y2="-616.2"/>
	<line class="st2" x1="2582.7" y1="-616.2" x2="2568.3" y2="-624.2"/>
	<line class="st2" x1="2568.3" y1="-624.2" x2="2554.3" y2="-615.7"/>
	<line class="st2" x1="2554.3" y1="-615.7" x2="2554.4" y2="-599.4"/>
	<line class="st2" x1="2554.4" y1="-599.4" x2="2568.8" y2="-591.4"/>
	<line class="st2" x1="2568.8" y1="-591.4" x2="2582.8" y2="-599.9"/>
	<line class="st2" x1="2563.9" y1="-631.5" x2="2563.8" y2="-647.9"/>
	<line class="st2" x1="2563.8" y1="-647.9" x2="2552.8" y2="-653.9"/>
	<line class="st2" x1="2552.8" y1="-653.9" x2="2546.3" y2="-653.9"/>
	<line class="st2" x1="2546.3" y1="-653.9" x2="2535.3" y2="-647.4"/>
	<line class="st2" x1="2535.3" y1="-647.4" x2="2535.7" y2="-631"/>
	<line class="st2" x1="2535.7" y1="-631" x2="2549.9" y2="-623.1"/>
	<line class="st2" x1="2549.9" y1="-623.1" x2="2563.9" y2="-631.5"/>
	<line class="st2" x1="2598.4" y1="-649.7" x2="2590.8" y2="-653.9"/>
	<line class="st2" x1="2590.8" y1="-653.9" x2="2584.3" y2="-653.9"/>
	<line class="st2" x1="2584.3" y1="-653.9" x2="2573.4" y2="-647.4"/>
	<line class="st2" x1="2573.4" y1="-647.4" x2="2573.8" y2="-631"/>
	<line class="st2" x1="2573.8" y1="-631" x2="2588" y2="-623.1"/>
	<line class="st2" x1="2588" y1="-623.1" x2="2598.4" y2="-629.3"/>
	<line class="st2" x1="2598.4" y1="-629.3" x2="2598.4" y2="-649.7"/>
	<line class="st2" x1="2430.7" y1="-534.7" x2="2430.3" y2="-551"/>
	<line class="st2" x1="2430.3" y1="-551" x2="2416" y2="-559"/>
	<line class="st2" x1="2416" y1="-559" x2="2402" y2="-550.5"/>
	<line class="st2" x1="2402" y1="-550.5" x2="2402.2" y2="-534.2"/>
	<line class="st2" x1="2402.2" y1="-534.2" x2="2416.5" y2="-526.2"/>
	<line class="st2" x1="2416.5" y1="-526.2" x2="2430.7" y2="-534.7"/>
	<line class="st2" x1="2449.8" y1="-566.3" x2="2449.5" y2="-582.7"/>
	<line class="st2" x1="2449.5" y1="-582.7" x2="2435.3" y2="-590.6"/>
	<line class="st2" x1="2435.3" y1="-590.6" x2="2421.2" y2="-582.2"/>
	<line class="st2" x1="2421.2" y1="-582.2" x2="2421.5" y2="-565.8"/>
	<line class="st2" x1="2421.5" y1="-565.8" x2="2435.8" y2="-557.9"/>
	<line class="st2" x1="2435.8" y1="-557.9" x2="2449.8" y2="-566.3"/>
	<line class="st2" x1="2411.8" y1="-566.3" x2="2411.5" y2="-582.7"/>
	<line class="st2" x1="2411.5" y1="-582.7" x2="2397.2" y2="-590.6"/>
	<line class="st2" x1="2397.2" y1="-590.6" x2="2383" y2="-582.2"/>
	<line class="st2" x1="2383" y1="-582.2" x2="2383.4" y2="-565.8"/>
	<line class="st2" x1="2383.4" y1="-565.8" x2="2397.7" y2="-557.9"/>
	<line class="st2" x1="2397.7" y1="-557.9" x2="2411.8" y2="-566.3"/>
	<line class="st2" x1="2449.8" y1="-503.7" x2="2449.5" y2="-517.5"/>
	<line class="st2" x1="2449.5" y1="-517.5" x2="2435.3" y2="-525.4"/>
	<line class="st2" x1="2435.3" y1="-525.4" x2="2421.2" y2="-517"/>
	<line class="st2" x1="2421.2" y1="-517" x2="2421.4" y2="-503.7"/>
	<line class="st2" x1="2449.8" y1="-503.7" x2="2421.4" y2="-503.7"/>
	<line class="st2" x1="2411.7" y1="-503.7" x2="2411.5" y2="-517.5"/>
	<line class="st2" x1="2411.5" y1="-517.5" x2="2397.2" y2="-525.4"/>
	<line class="st2" x1="2397.2" y1="-525.4" x2="2383" y2="-517"/>
	<line class="st2" x1="2383" y1="-517" x2="2383.4" y2="-503.7"/>
	<line class="st2" x1="2411.7" y1="-503.7" x2="2383.4" y2="-503.7"/>
	<line class="st2" x1="2392.5" y1="-599.9" x2="2392.3" y2="-616.2"/>
	<line class="st2" x1="2392.3" y1="-616.2" x2="2378" y2="-624.2"/>
	<line class="st2" x1="2378" y1="-624.2" x2="2363.9" y2="-615.7"/>
	<line class="st2" x1="2363.9" y1="-615.7" x2="2364.2" y2="-599.4"/>
	<line class="st2" x1="2364.2" y1="-599.4" x2="2378.5" y2="-591.4"/>
	<line class="st2" x1="2378.5" y1="-591.4" x2="2392.5" y2="-599.9"/>
	<line class="st2" x1="2373.7" y1="-566.3" x2="2373.4" y2="-582.7"/>
	<line class="st2" x1="2373.4" y1="-582.7" x2="2359" y2="-590.6"/>
	<line class="st2" x1="2359" y1="-590.6" x2="2346.5" y2="-583.1"/>
	<line class="st2" x1="2346.5" y1="-565.1" x2="2346.5" y2="-583.1"/>
	<line class="st2" x1="2346.5" y1="-565.1" x2="2359.7" y2="-557.9"/>
	<line class="st2" x1="2359.7" y1="-557.9" x2="2373.7" y2="-566.3"/>
	<line class="st2" x1="2392.5" y1="-534.7" x2="2392.3" y2="-551"/>
	<line class="st2" x1="2392.3" y1="-551" x2="2378" y2="-559"/>
	<line class="st2" x1="2378" y1="-559" x2="2363.9" y2="-550.5"/>
	<line class="st2" x1="2363.9" y1="-550.5" x2="2364.2" y2="-534.2"/>
	<line class="st2" x1="2364.2" y1="-534.2" x2="2378.5" y2="-526.2"/>
	<line class="st2" x1="2378.5" y1="-526.2" x2="2392.5" y2="-534.7"/>
	<line class="st2" x1="2373.5" y1="-503.7" x2="2373.4" y2="-517.5"/>
	<line class="st2" x1="2373.5" y1="-503.7" x2="2346.5" y2="-503.7"/>
	<line class="st2" x1="2487.5" y1="-517.5" x2="2473.3" y2="-525.4"/>
	<line class="st2" x1="2487.8" y1="-503.7" x2="2459.4" y2="-503.7"/>
	<line class="st2" x1="2506.8" y1="-599.9" x2="2506.4" y2="-616.2"/>
	<line class="st2" x1="2506.4" y1="-616.2" x2="2492.2" y2="-624.2"/>
	<line class="st2" x1="2492.2" y1="-624.2" x2="2478" y2="-615.7"/>
	<line class="st2" x1="2478" y1="-615.7" x2="2478.3" y2="-599.4"/>
	<line class="st2" x1="2478.3" y1="-599.4" x2="2492.7" y2="-591.4"/>
	<line class="st2" x1="2492.7" y1="-591.4" x2="2506.8" y2="-599.9"/>
	<line class="st2" x1="2525.9" y1="-566.3" x2="2525.7" y2="-582.7"/>
	<line class="st2" x1="2525.7" y1="-582.7" x2="2511.3" y2="-590.6"/>
	<line class="st2" x1="2511.3" y1="-590.6" x2="2497.3" y2="-582.2"/>
	<line class="st2" x1="2497.3" y1="-582.2" x2="2497.5" y2="-565.8"/>
	<line class="st2" x1="2497.5" y1="-565.8" x2="2511.8" y2="-557.9"/>
	<line class="st2" x1="2511.8" y1="-557.9" x2="2525.9" y2="-566.3"/>
	<line class="st2" x1="2506.8" y1="-534.7" x2="2506.4" y2="-551"/>
	<line class="st2" x1="2506.4" y1="-551" x2="2492.2" y2="-559"/>
	<line class="st2" x1="2492.2" y1="-559" x2="2478" y2="-550.5"/>
	<line class="st2" x1="2478" y1="-550.5" x2="2478.3" y2="-534.2"/>
	<line class="st2" x1="2478.3" y1="-534.2" x2="2492.7" y2="-526.2"/>
	<line class="st2" x1="2492.7" y1="-526.2" x2="2506.8" y2="-534.7"/>
	<line class="st2" x1="2411.8" y1="-631.5" x2="2411.5" y2="-647.9"/>
	<line class="st2" x1="2411.5" y1="-647.9" x2="2400.5" y2="-653.9"/>
	<line class="st2" x1="2400.5" y1="-653.9" x2="2394" y2="-653.9"/>
	<line class="st2" x1="2394" y1="-653.9" x2="2383" y2="-647.4"/>
	<line class="st2" x1="2383" y1="-647.4" x2="2383.4" y2="-631"/>
	<line class="st2" x1="2383.4" y1="-631" x2="2397.7" y2="-623.1"/>
	<line class="st2" x1="2397.7" y1="-623.1" x2="2411.8" y2="-631.5"/>
	<line class="st2" x1="2449.8" y1="-631.5" x2="2449.5" y2="-647.9"/>
	<line class="st2" x1="2449.5" y1="-647.9" x2="2438.7" y2="-653.9"/>
	<line class="st2" x1="2438.7" y1="-653.9" x2="2432" y2="-653.9"/>
	<line class="st2" x1="2432" y1="-653.9" x2="2421.2" y2="-647.4"/>
	<line class="st2" x1="2421.2" y1="-647.4" x2="2421.5" y2="-631"/>
	<line class="st2" x1="2421.5" y1="-631" x2="2435.8" y2="-623.1"/>
	<line class="st2" x1="2435.8" y1="-623.1" x2="2449.8" y2="-631.5"/>
	<line class="st2" x1="2468.7" y1="-599.9" x2="2468.4" y2="-616.2"/>
	<line class="st2" x1="2468.4" y1="-616.2" x2="2454.2" y2="-624.2"/>
	<line class="st2" x1="2454.2" y1="-624.2" x2="2439.9" y2="-615.7"/>
	<line class="st2" x1="2439.9" y1="-615.7" x2="2440.3" y2="-599.4"/>
	<line class="st2" x1="2440.3" y1="-599.4" x2="2454.5" y2="-591.4"/>
	<line class="st2" x1="2454.5" y1="-591.4" x2="2468.7" y2="-599.9"/>
	<line class="st2" x1="2487.8" y1="-566.3" x2="2487.5" y2="-582.7"/>
	<line class="st2" x1="2487.5" y1="-582.7" x2="2473.3" y2="-590.6"/>
	<line class="st2" x1="2473.3" y1="-590.6" x2="2459.3" y2="-582.2"/>
	<line class="st2" x1="2459.3" y1="-582.2" x2="2459.5" y2="-565.8"/>
	<line class="st2" x1="2459.5" y1="-565.8" x2="2473.8" y2="-557.9"/>
	<line class="st2" x1="2473.8" y1="-557.9" x2="2487.8" y2="-566.3"/>
	<line class="st2" x1="2373.7" y1="-631.5" x2="2373.4" y2="-647.9"/>
	<line class="st2" x1="2373.4" y1="-647.9" x2="2362.5" y2="-653.9"/>
	<line class="st2" x1="2362.5" y1="-653.9" x2="2356" y2="-653.9"/>
	<line class="st2" x1="2356" y1="-653.9" x2="2346.5" y2="-648.3"/>
	<line class="st2" x1="2346.5" y1="-630.3" x2="2346.5" y2="-648.3"/>
	<line class="st2" x1="2346.5" y1="-630.3" x2="2359.7" y2="-623.1"/>
	<line class="st2" x1="2359.7" y1="-623.1" x2="2373.7" y2="-631.5"/>
</g>
<g>
	<line class="st2" x1="2406.8" y1="-738.4" x2="2392.8" y2="-746.8"/>
	<line class="st2" x1="2406.6" y1="-725.1" x2="2406.8" y2="-738.4"/>
	<line class="st2" x1="2378.5" y1="-738.9" x2="2378.2" y2="-725.1"/>
	<line class="st2" x1="2411.9" y1="-780.4" x2="2397.6" y2="-772.4"/>
	<line class="st2" x1="2426.1" y1="-771.9" x2="2411.9" y2="-780.4"/>
	<line class="st2" x1="2425.8" y1="-755.6" x2="2426.1" y2="-771.9"/>
	<line class="st2" x1="2411.5" y1="-747.6" x2="2425.8" y2="-755.6"/>
	<line class="st2" x1="2397.4" y1="-756.1" x2="2411.5" y2="-747.6"/>
	<line class="st2" x1="2397.6" y1="-772.4" x2="2397.4" y2="-756.1"/>
	<line class="st2" x1="2507" y1="-746.8" x2="2492.7" y2="-738.9"/>
	<line class="st2" x1="2519.5" y1="-739.3" x2="2507" y2="-746.8"/>
	<line class="st2" x1="2519.5" y1="-739.3" x2="2519.5" y2="-725.1"/>
	<line class="st2" x1="2321.5" y1="-772.4" x2="2321.2" y2="-756.1"/>
	<line class="st2" x1="2335.8" y1="-780.4" x2="2321.5" y2="-772.4"/>
	<line class="st2" x1="2349.9" y1="-771.9" x2="2335.8" y2="-780.4"/>
	<line class="st2" x1="2349.6" y1="-755.6" x2="2349.9" y2="-771.9"/>
	<line class="st2" x1="2335.3" y1="-747.6" x2="2349.6" y2="-755.6"/>
	<line class="st2" x1="2321.2" y1="-756.1" x2="2335.3" y2="-747.6"/>
	<line class="st2" x1="2340.4" y1="-738.9" x2="2340.2" y2="-725.1"/>
	<line class="st2" x1="2354.7" y1="-746.8" x2="2340.4" y2="-738.9"/>
	<line class="st2" x1="2368.7" y1="-738.4" x2="2354.7" y2="-746.8"/>
	<line class="st2" x1="2368.5" y1="-725.1" x2="2368.7" y2="-738.4"/>
	<line class="st2" x1="2368.5" y1="-725.1" x2="2340.2" y2="-725.1"/>
	<line class="st2" x1="2283.4" y1="-772.4" x2="2283.2" y2="-756.1"/>
	<line class="st2" x1="2297.7" y1="-780.4" x2="2283.4" y2="-772.4"/>
	<line class="st2" x1="2311.8" y1="-771.9" x2="2297.7" y2="-780.4"/>
	<line class="st2" x1="2311.6" y1="-755.6" x2="2311.8" y2="-771.9"/>
	<line class="st2" x1="2297.3" y1="-747.6" x2="2311.6" y2="-755.6"/>
	<line class="st2" x1="2283.2" y1="-756.1" x2="2297.3" y2="-747.6"/>
	<line class="st2" x1="2278.6" y1="-746.8" x2="2267.6" y2="-740.7"/>
	<line class="st2" x1="2292.6" y1="-738.4" x2="2278.6" y2="-746.8"/>
	<line class="st2" x1="2292.4" y1="-725.1" x2="2292.6" y2="-738.4"/>
	<line class="st2" x1="2292.4" y1="-725.1" x2="2267.6" y2="-725.1"/>
	<line class="st2" x1="2267.6" y1="-740.7" x2="2267.6" y2="-725.1"/>
	<line class="st2" x1="2302.3" y1="-738.9" x2="2302.1" y2="-725.1"/>
	<line class="st2" x1="2316.6" y1="-746.8" x2="2302.3" y2="-738.9"/>
	<line class="st2" x1="2330.7" y1="-738.4" x2="2316.6" y2="-746.8"/>
	<line class="st2" x1="2330.5" y1="-725.1" x2="2330.7" y2="-738.4"/>
	<line class="st2" x1="2330.5" y1="-725.1" x2="2302.1" y2="-725.1"/>
	<line class="st2" x1="2378.5" y1="-869.3" x2="2378.2" y2="-852.9"/>
	<line class="st2" x1="2389.4" y1="-875.3" x2="2378.5" y2="-869.3"/>
	<line class="st2" x1="2395.9" y1="-875.3" x2="2389.4" y2="-875.3"/>
	<line class="st2" x1="2406.8" y1="-868.8" x2="2395.9" y2="-875.3"/>
	<line class="st2" x1="2406.5" y1="-852.4" x2="2406.8" y2="-868.8"/>
	<line class="st2" x1="2392.2" y1="-844.5" x2="2406.5" y2="-852.4"/>
	<line class="st2" x1="2378.2" y1="-852.9" x2="2392.2" y2="-844.5"/>
	<line class="st2" x1="2340.4" y1="-869.3" x2="2340.1" y2="-852.9"/>
	<line class="st2" x1="2351.3" y1="-875.3" x2="2340.4" y2="-869.3"/>
	<line class="st2" x1="2357.9" y1="-875.3" x2="2351.3" y2="-875.3"/>
	<line class="st2" x1="2368.7" y1="-868.8" x2="2357.9" y2="-875.3"/>
	<line class="st2" x1="2368.5" y1="-852.4" x2="2368.7" y2="-868.8"/>
	<line class="st2" x1="2354.2" y1="-844.5" x2="2368.5" y2="-852.4"/>
	<line class="st2" x1="2340.1" y1="-852.9" x2="2354.2" y2="-844.5"/>
	<line class="st2" x1="2321.5" y1="-837.6" x2="2321.2" y2="-821.3"/>
	<line class="st2" x1="2335.8" y1="-845.6" x2="2321.5" y2="-837.6"/>
	<line class="st2" x1="2349.9" y1="-837.1" x2="2335.8" y2="-845.6"/>
	<line class="st2" x1="2349.6" y1="-820.8" x2="2349.9" y2="-837.1"/>
	<line class="st2" x1="2335.3" y1="-812.8" x2="2349.6" y2="-820.8"/>
	<line class="st2" x1="2321.2" y1="-821.3" x2="2335.3" y2="-812.8"/>
	<line class="st2" x1="2302.3" y1="-804.1" x2="2302.1" y2="-787.7"/>
	<line class="st2" x1="2316.6" y1="-812" x2="2302.3" y2="-804.1"/>
	<line class="st2" x1="2330.7" y1="-803.6" x2="2316.6" y2="-812"/>
	<line class="st2" x1="2330.4" y1="-787.2" x2="2330.7" y2="-803.6"/>
	<line class="st2" x1="2316.1" y1="-779.3" x2="2330.4" y2="-787.2"/>
	<line class="st2" x1="2302.1" y1="-787.7" x2="2316.1" y2="-779.3"/>
	<line class="st2" x1="2463.9" y1="-820.8" x2="2464.1" y2="-837.1"/>
	<line class="st2" x1="2449.5" y1="-812.8" x2="2463.9" y2="-820.8"/>
	<line class="st2" x1="2435.4" y1="-821.3" x2="2449.5" y2="-812.8"/>
	<line class="st2" x1="2435.7" y1="-837.6" x2="2435.4" y2="-821.3"/>
	<line class="st2" x1="2450" y1="-845.6" x2="2435.7" y2="-837.6"/>
	<line class="st2" x1="2464.1" y1="-837.1" x2="2450" y2="-845.6"/>
	<line class="st2" x1="2510.4" y1="-836.9" x2="2510.2" y2="-820.6"/>
	<line class="st2" x1="2519.5" y1="-841.9" x2="2510.4" y2="-836.9"/>
	<line class="st2" x1="2519.5" y1="-841.9" x2="2519.5" y2="-815"/>
	<line class="st2" x1="2510.2" y1="-820.6" x2="2519.5" y2="-815"/>
	<line class="st2" x1="2510.7" y1="-772.2" x2="2510.5" y2="-755.9"/>
	<line class="st2" x1="2519.5" y1="-777.1" x2="2510.7" y2="-772.2"/>
	<line class="st2" x1="2519.5" y1="-777.1" x2="2519.5" y2="-750.5"/>
	<line class="st2" x1="2510.5" y1="-755.9" x2="2519.5" y2="-750.5"/>
	<line class="st2" x1="2273.8" y1="-771.9" x2="2267.6" y2="-775.6"/>
	<line class="st2" x1="2273.5" y1="-755.6" x2="2273.8" y2="-771.9"/>
	<line class="st2" x1="2267.6" y1="-752.3" x2="2273.5" y2="-755.6"/>
	<line class="st2" x1="2267.6" y1="-775.6" x2="2267.6" y2="-752.3"/>
	<line class="st2" x1="2273.8" y1="-837.1" x2="2267.6" y2="-840.8"/>
	<line class="st2" x1="2273.5" y1="-820.8" x2="2273.8" y2="-837.1"/>
	<line class="st2" x1="2267.6" y1="-817.5" x2="2273.5" y2="-820.8"/>
	<line class="st2" x1="2267.6" y1="-840.8" x2="2267.6" y2="-817.5"/>
	<line class="st2" x1="2278.6" y1="-812" x2="2267.6" y2="-805.9"/>
	<line class="st2" x1="2292.6" y1="-803.6" x2="2278.6" y2="-812"/>
	<line class="st2" x1="2292.3" y1="-787.2" x2="2292.6" y2="-803.6"/>
	<line class="st2" x1="2278" y1="-779.3" x2="2292.3" y2="-787.2"/>
	<line class="st2" x1="2267.6" y1="-785.5" x2="2278" y2="-779.3"/>
	<line class="st2" x1="2267.6" y1="-805.9" x2="2267.6" y2="-785.5"/>
	<line class="st2" x1="2283.4" y1="-837.6" x2="2283.2" y2="-821.3"/>
	<line class="st2" x1="2297.7" y1="-845.6" x2="2283.4" y2="-837.6"/>
	<line class="st2" x1="2311.8" y1="-837.1" x2="2297.7" y2="-845.6"/>
	<line class="st2" x1="2311.6" y1="-820.8" x2="2311.8" y2="-837.1"/>
	<line class="st2" x1="2297.3" y1="-812.8" x2="2311.6" y2="-820.8"/>
	<line class="st2" x1="2283.2" y1="-821.3" x2="2297.3" y2="-812.8"/>
	<line class="st2" x1="2302.3" y1="-869.3" x2="2302.1" y2="-852.9"/>
	<line class="st2" x1="2313.2" y1="-875.3" x2="2302.3" y2="-869.3"/>
	<line class="st2" x1="2319.8" y1="-875.3" x2="2313.2" y2="-875.3"/>
	<line class="st2" x1="2330.7" y1="-868.8" x2="2319.8" y2="-875.3"/>
	<line class="st2" x1="2330.4" y1="-852.4" x2="2330.7" y2="-868.8"/>
	<line class="st2" x1="2316.1" y1="-844.5" x2="2330.4" y2="-852.4"/>
	<line class="st2" x1="2302.1" y1="-852.9" x2="2316.1" y2="-844.5"/>
	<line class="st2" x1="2275.2" y1="-875.3" x2="2267.6" y2="-871.1"/>
	<line class="st2" x1="2281.7" y1="-875.3" x2="2275.2" y2="-875.3"/>
	<line class="st2" x1="2292.6" y1="-868.8" x2="2281.7" y2="-875.3"/>
	<line class="st2" x1="2292.3" y1="-852.4" x2="2292.6" y2="-868.8"/>
	<line class="st2" x1="2278" y1="-844.5" x2="2292.3" y2="-852.4"/>
	<line class="st2" x1="2267.6" y1="-850.7" x2="2278" y2="-844.5"/>
	<line class="st2" x1="2267.6" y1="-871.1" x2="2267.6" y2="-850.7"/>
	<line class="st2" x1="2435.7" y1="-772.4" x2="2435.4" y2="-756.1"/>
	<line class="st2" x1="2450" y1="-780.4" x2="2435.7" y2="-772.4"/>
	<line class="st2" x1="2464.1" y1="-771.9" x2="2450" y2="-780.4"/>
	<line class="st2" x1="2463.9" y1="-755.6" x2="2464.1" y2="-771.9"/>
	<line class="st2" x1="2449.5" y1="-747.6" x2="2463.9" y2="-755.6"/>
	<line class="st2" x1="2435.4" y1="-756.1" x2="2449.5" y2="-747.6"/>
	<line class="st2" x1="2416.5" y1="-804.1" x2="2416.3" y2="-787.7"/>
	<line class="st2" x1="2430.8" y1="-812" x2="2416.5" y2="-804.1"/>
	<line class="st2" x1="2444.9" y1="-803.6" x2="2430.8" y2="-812"/>
	<line class="st2" x1="2444.6" y1="-787.2" x2="2444.9" y2="-803.6"/>
	<line class="st2" x1="2430.3" y1="-779.3" x2="2444.6" y2="-787.2"/>
	<line class="st2" x1="2416.3" y1="-787.7" x2="2430.3" y2="-779.3"/>
	<line class="st2" x1="2454.6" y1="-804.1" x2="2454.3" y2="-787.7"/>
	<line class="st2" x1="2468.9" y1="-812" x2="2454.6" y2="-804.1"/>
	<line class="st2" x1="2483" y1="-803.6" x2="2468.9" y2="-812"/>
	<line class="st2" x1="2482.7" y1="-787.2" x2="2483" y2="-803.6"/>
	<line class="st2" x1="2468.4" y1="-779.3" x2="2482.7" y2="-787.2"/>
	<line class="st2" x1="2454.3" y1="-787.7" x2="2468.4" y2="-779.3"/>
	<line class="st2" x1="2416.5" y1="-738.9" x2="2416.3" y2="-725.1"/>
	<line class="st2" x1="2430.8" y1="-746.8" x2="2416.5" y2="-738.9"/>
	<line class="st2" x1="2444.9" y1="-738.4" x2="2430.8" y2="-746.8"/>
	<line class="st2" x1="2444.7" y1="-725.1" x2="2444.9" y2="-738.4"/>
	<line class="st2" x1="2444.7" y1="-725.1" x2="2416.3" y2="-725.1"/>
	<line class="st2" x1="2454.6" y1="-738.9" x2="2454.4" y2="-725.1"/>
	<line class="st2" x1="2468.9" y1="-746.8" x2="2454.6" y2="-738.9"/>
	<line class="st2" x1="2483" y1="-738.4" x2="2468.9" y2="-746.8"/>
	<line class="st2" x1="2482.7" y1="-725.1" x2="2483" y2="-738.4"/>
	<line class="st2" x1="2482.7" y1="-725.1" x2="2454.4" y2="-725.1"/>
	<line class="st2" x1="2473.8" y1="-837.6" x2="2473.5" y2="-821.3"/>
	<line class="st2" x1="2488.1" y1="-845.6" x2="2473.8" y2="-837.6"/>
	<line class="st2" x1="2502.2" y1="-837.1" x2="2488.1" y2="-845.6"/>
	<line class="st2" x1="2501.9" y1="-820.8" x2="2502.2" y2="-837.1"/>
	<line class="st2" x1="2487.6" y1="-812.8" x2="2501.9" y2="-820.8"/>
	<line class="st2" x1="2473.5" y1="-821.3" x2="2487.6" y2="-812.8"/>
	<line class="st2" x1="2492.7" y1="-804.1" x2="2492.4" y2="-787.7"/>
	<line class="st2" x1="2507" y1="-812" x2="2492.7" y2="-804.1"/>
	<line class="st2" x1="2519.5" y1="-804.5" x2="2507" y2="-812"/>
	<line class="st2" x1="2519.5" y1="-804.5" x2="2519.5" y2="-786.5"/>
	<line class="st2" x1="2506.4" y1="-779.3" x2="2519.5" y2="-786.5"/>
	<line class="st2" x1="2492.4" y1="-787.7" x2="2506.4" y2="-779.3"/>
	<line class="st2" x1="2473.8" y1="-772.4" x2="2473.5" y2="-756.1"/>
	<line class="st2" x1="2488.1" y1="-780.4" x2="2473.8" y2="-772.4"/>
	<line class="st2" x1="2502.2" y1="-771.9" x2="2488.1" y2="-780.4"/>
	<line class="st2" x1="2501.9" y1="-755.6" x2="2502.2" y2="-771.9"/>
	<line class="st2" x1="2487.6" y1="-747.6" x2="2501.9" y2="-755.6"/>
	<line class="st2" x1="2473.5" y1="-756.1" x2="2487.6" y2="-747.6"/>
	<line class="st2" x1="2492.7" y1="-738.9" x2="2492.5" y2="-725.1"/>
	<line class="st2" x1="2519.5" y1="-725.1" x2="2492.5" y2="-725.1"/>
	<line class="st2" x1="2392.8" y1="-746.8" x2="2378.5" y2="-738.9"/>
	<line class="st2" x1="2406.6" y1="-725.1" x2="2378.2" y2="-725.1"/>
	<line class="st2" x1="2359.6" y1="-837.6" x2="2359.3" y2="-821.3"/>
	<line class="st2" x1="2373.9" y1="-845.6" x2="2359.6" y2="-837.6"/>
	<line class="st2" x1="2388" y1="-837.1" x2="2373.9" y2="-845.6"/>
	<line class="st2" x1="2387.7" y1="-820.8" x2="2388" y2="-837.1"/>
	<line class="st2" x1="2373.4" y1="-812.8" x2="2387.7" y2="-820.8"/>
	<line class="st2" x1="2359.3" y1="-821.3" x2="2373.4" y2="-812.8"/>
	<line class="st2" x1="2340.4" y1="-804.1" x2="2340.1" y2="-787.7"/>
	<line class="st2" x1="2354.7" y1="-812" x2="2340.4" y2="-804.1"/>
	<line class="st2" x1="2368.7" y1="-803.6" x2="2354.7" y2="-812"/>
	<line class="st2" x1="2368.5" y1="-787.2" x2="2368.7" y2="-803.6"/>
	<line class="st2" x1="2354.2" y1="-779.3" x2="2368.5" y2="-787.2"/>
	<line class="st2" x1="2340.1" y1="-787.7" x2="2354.2" y2="-779.3"/>
	<line class="st2" x1="2359.6" y1="-772.4" x2="2359.3" y2="-756.1"/>
	<line class="st2" x1="2373.9" y1="-780.4" x2="2359.6" y2="-772.4"/>
	<line class="st2" x1="2388" y1="-771.9" x2="2373.9" y2="-780.4"/>
	<line class="st2" x1="2387.7" y1="-755.6" x2="2388" y2="-771.9"/>
	<line class="st2" x1="2373.4" y1="-747.6" x2="2387.7" y2="-755.6"/>
	<line class="st2" x1="2359.3" y1="-756.1" x2="2373.4" y2="-747.6"/>
	<line class="st2" x1="2454.6" y1="-869.3" x2="2454.3" y2="-852.9"/>
	<line class="st2" x1="2465.5" y1="-875.3" x2="2454.6" y2="-869.3"/>
	<line class="st2" x1="2472.1" y1="-875.3" x2="2465.5" y2="-875.3"/>
	<line class="st2" x1="2483" y1="-868.8" x2="2472.1" y2="-875.3"/>
	<line class="st2" x1="2482.7" y1="-852.4" x2="2483" y2="-868.8"/>
	<line class="st2" x1="2468.4" y1="-844.5" x2="2482.7" y2="-852.4"/>
	<line class="st2" x1="2454.3" y1="-852.9" x2="2468.4" y2="-844.5"/>
	<line class="st2" x1="2416.5" y1="-869.3" x2="2416.3" y2="-852.9"/>
	<line class="st2" x1="2427.4" y1="-875.3" x2="2416.5" y2="-869.3"/>
	<line class="st2" x1="2434" y1="-875.3" x2="2427.4" y2="-875.3"/>
	<line class="st2" x1="2444.9" y1="-868.8" x2="2434" y2="-875.3"/>
	<line class="st2" x1="2444.6" y1="-852.4" x2="2444.9" y2="-868.8"/>
	<line class="st2" x1="2430.3" y1="-844.5" x2="2444.6" y2="-852.4"/>
	<line class="st2" x1="2416.3" y1="-852.9" x2="2430.3" y2="-844.5"/>
	<line class="st2" x1="2397.6" y1="-837.6" x2="2397.4" y2="-821.3"/>
	<line class="st2" x1="2411.9" y1="-845.6" x2="2397.6" y2="-837.6"/>
	<line class="st2" x1="2426.1" y1="-837.1" x2="2411.9" y2="-845.6"/>
	<line class="st2" x1="2425.8" y1="-820.8" x2="2426.1" y2="-837.1"/>
	<line class="st2" x1="2411.5" y1="-812.8" x2="2425.8" y2="-820.8"/>
	<line class="st2" x1="2397.4" y1="-821.3" x2="2411.5" y2="-812.8"/>
	<line class="st2" x1="2378.5" y1="-804.1" x2="2378.2" y2="-787.7"/>
	<line class="st2" x1="2392.8" y1="-812" x2="2378.5" y2="-804.1"/>
	<line class="st2" x1="2406.8" y1="-803.6" x2="2392.8" y2="-812"/>
	<line class="st2" x1="2406.5" y1="-787.2" x2="2406.8" y2="-803.6"/>
	<line class="st2" x1="2392.2" y1="-779.3" x2="2406.5" y2="-787.2"/>
	<line class="st2" x1="2378.2" y1="-787.7" x2="2392.2" y2="-779.3"/>
	<line class="st2" x1="2492.7" y1="-869.3" x2="2492.4" y2="-852.9"/>
	<line class="st2" x1="2503.6" y1="-875.3" x2="2492.7" y2="-869.3"/>
	<line class="st2" x1="2510.1" y1="-875.3" x2="2503.6" y2="-875.3"/>
	<line class="st2" x1="2519.5" y1="-869.7" x2="2510.1" y2="-875.3"/>
	<line class="st2" x1="2519.5" y1="-869.7" x2="2519.5" y2="-851.7"/>
	<line class="st2" x1="2506.4" y1="-844.5" x2="2519.5" y2="-851.7"/>
	<line class="st2" x1="2492.4" y1="-852.9" x2="2506.4" y2="-844.5"/>
</g>
<g>
	<line class="st2" x1="2266" y1="-233" x2="2252" y2="-241.4"/>
	<line class="st2" x1="2265.8" y1="-219.7" x2="2266" y2="-233"/>
	<line class="st2" x1="2237.7" y1="-233.5" x2="2237.4" y2="-219.7"/>
	<line class="st2" x1="2271.1" y1="-275" x2="2256.8" y2="-267"/>
	<line class="st2" x1="2285.3" y1="-266.5" x2="2271.1" y2="-275"/>
	<line class="st2" x1="2285" y1="-250.2" x2="2285.3" y2="-266.5"/>
	<line class="st2" x1="2270.7" y1="-242.2" x2="2285" y2="-250.2"/>
	<line class="st2" x1="2256.6" y1="-250.7" x2="2270.7" y2="-242.2"/>
	<line class="st2" x1="2256.8" y1="-267" x2="2256.6" y2="-250.7"/>
	<line class="st2" x1="2366.2" y1="-241.4" x2="2351.9" y2="-233.5"/>
	<line class="st2" x1="2378.7" y1="-233.9" x2="2366.2" y2="-241.4"/>
	<line class="st2" x1="2378.7" y1="-233.9" x2="2378.7" y2="-219.7"/>
	<line class="st2" x1="2180.7" y1="-267" x2="2180.4" y2="-250.7"/>
	<line class="st2" x1="2195" y1="-275" x2="2180.7" y2="-267"/>
	<line class="st2" x1="2209.1" y1="-266.5" x2="2195" y2="-275"/>
	<line class="st2" x1="2208.8" y1="-250.2" x2="2209.1" y2="-266.5"/>
	<line class="st2" x1="2194.5" y1="-242.2" x2="2208.8" y2="-250.2"/>
	<line class="st2" x1="2180.4" y1="-250.7" x2="2194.5" y2="-242.2"/>
	<line class="st2" x1="2199.6" y1="-233.5" x2="2199.4" y2="-219.7"/>
	<line class="st2" x1="2213.9" y1="-241.4" x2="2199.6" y2="-233.5"/>
	<line class="st2" x1="2227.9" y1="-233" x2="2213.9" y2="-241.4"/>
	<line class="st2" x1="2227.7" y1="-219.7" x2="2227.9" y2="-233"/>
	<line class="st2" x1="2227.7" y1="-219.7" x2="2199.4" y2="-219.7"/>
	<line class="st2" x1="2142.6" y1="-267" x2="2142.4" y2="-250.7"/>
	<line class="st2" x1="2156.9" y1="-275" x2="2142.6" y2="-267"/>
	<line class="st2" x1="2171" y1="-266.5" x2="2156.9" y2="-275"/>
	<line class="st2" x1="2170.8" y1="-250.2" x2="2171" y2="-266.5"/>
	<line class="st2" x1="2156.5" y1="-242.2" x2="2170.8" y2="-250.2"/>
	<line class="st2" x1="2142.4" y1="-250.7" x2="2156.5" y2="-242.2"/>
	<line class="st2" x1="2137.8" y1="-241.4" x2="2126.8" y2="-235.3"/>
	<line class="st2" x1="2151.8" y1="-233" x2="2137.8" y2="-241.4"/>
	<line class="st2" x1="2151.6" y1="-219.7" x2="2151.8" y2="-233"/>
	<line class="st2" x1="2151.6" y1="-219.7" x2="2126.8" y2="-219.7"/>
	<line class="st2" x1="2126.8" y1="-235.3" x2="2126.8" y2="-219.7"/>
	<line class="st2" x1="2161.5" y1="-233.5" x2="2161.3" y2="-219.7"/>
	<line class="st2" x1="2175.8" y1="-241.4" x2="2161.5" y2="-233.5"/>
	<line class="st2" x1="2189.9" y1="-233" x2="2175.8" y2="-241.4"/>
	<line class="st2" x1="2189.7" y1="-219.7" x2="2189.9" y2="-233"/>
	<line class="st2" x1="2189.7" y1="-219.7" x2="2161.3" y2="-219.7"/>
	<line class="st2" x1="2237.7" y1="-363.9" x2="2237.4" y2="-347.5"/>
	<line class="st2" x1="2248.6" y1="-369.9" x2="2237.7" y2="-363.9"/>
	<line class="st2" x1="2255.1" y1="-369.9" x2="2248.6" y2="-369.9"/>
	<line class="st2" x1="2266" y1="-363.4" x2="2255.1" y2="-369.9"/>
	<line class="st2" x1="2265.7" y1="-347" x2="2266" y2="-363.4"/>
	<line class="st2" x1="2251.4" y1="-339.1" x2="2265.7" y2="-347"/>
	<line class="st2" x1="2237.4" y1="-347.5" x2="2251.4" y2="-339.1"/>
	<line class="st2" x1="2199.6" y1="-363.9" x2="2199.3" y2="-347.5"/>
	<line class="st2" x1="2210.5" y1="-369.9" x2="2199.6" y2="-363.9"/>
	<line class="st2" x1="2217.1" y1="-369.9" x2="2210.5" y2="-369.9"/>
	<line class="st2" x1="2227.9" y1="-363.4" x2="2217.1" y2="-369.9"/>
	<line class="st2" x1="2227.7" y1="-347" x2="2227.9" y2="-363.4"/>
	<line class="st2" x1="2213.4" y1="-339.1" x2="2227.7" y2="-347"/>
	<line class="st2" x1="2199.3" y1="-347.5" x2="2213.4" y2="-339.1"/>
	<line class="st2" x1="2180.7" y1="-332.2" x2="2180.4" y2="-315.9"/>
	<line class="st2" x1="2195" y1="-340.2" x2="2180.7" y2="-332.2"/>
	<line class="st2" x1="2209.1" y1="-331.7" x2="2195" y2="-340.2"/>
	<line class="st2" x1="2208.8" y1="-315.4" x2="2209.1" y2="-331.7"/>
	<line class="st2" x1="2194.5" y1="-307.4" x2="2208.8" y2="-315.4"/>
	<line class="st2" x1="2180.4" y1="-315.9" x2="2194.5" y2="-307.4"/>
	<line class="st2" x1="2161.5" y1="-298.7" x2="2161.3" y2="-282.3"/>
	<line class="st2" x1="2175.8" y1="-306.6" x2="2161.5" y2="-298.7"/>
	<line class="st2" x1="2189.9" y1="-298.2" x2="2175.8" y2="-306.6"/>
	<line class="st2" x1="2189.6" y1="-281.8" x2="2189.9" y2="-298.2"/>
	<line class="st2" x1="2175.3" y1="-273.9" x2="2189.6" y2="-281.8"/>
	<line class="st2" x1="2161.3" y1="-282.3" x2="2175.3" y2="-273.9"/>
	<line class="st2" x1="2323.1" y1="-315.4" x2="2323.3" y2="-331.7"/>
	<line class="st2" x1="2308.7" y1="-307.4" x2="2323.1" y2="-315.4"/>
	<line class="st2" x1="2294.6" y1="-315.9" x2="2308.7" y2="-307.4"/>
	<line class="st2" x1="2294.9" y1="-332.2" x2="2294.6" y2="-315.9"/>
	<line class="st2" x1="2309.2" y1="-340.2" x2="2294.9" y2="-332.2"/>
	<line class="st2" x1="2323.3" y1="-331.7" x2="2309.2" y2="-340.2"/>
	<line class="st2" x1="2369.6" y1="-331.5" x2="2369.4" y2="-315.2"/>
	<line class="st2" x1="2378.7" y1="-336.5" x2="2369.6" y2="-331.5"/>
	<line class="st2" x1="2378.7" y1="-336.5" x2="2378.7" y2="-309.6"/>
	<line class="st2" x1="2369.4" y1="-315.2" x2="2378.7" y2="-309.6"/>
	<line class="st2" x1="2369.9" y1="-266.8" x2="2369.7" y2="-250.5"/>
	<line class="st2" x1="2378.7" y1="-271.7" x2="2369.9" y2="-266.8"/>
	<line class="st2" x1="2378.7" y1="-271.7" x2="2378.7" y2="-245.1"/>
	<line class="st2" x1="2369.7" y1="-250.5" x2="2378.7" y2="-245.1"/>
	<line class="st2" x1="2133" y1="-266.5" x2="2126.8" y2="-270.2"/>
	<line class="st2" x1="2132.7" y1="-250.2" x2="2133" y2="-266.5"/>
	<line class="st2" x1="2126.8" y1="-246.9" x2="2132.7" y2="-250.2"/>
	<line class="st2" x1="2126.8" y1="-270.2" x2="2126.8" y2="-246.9"/>
	<line class="st2" x1="2133" y1="-331.7" x2="2126.8" y2="-335.4"/>
	<line class="st2" x1="2132.7" y1="-315.4" x2="2133" y2="-331.7"/>
	<line class="st2" x1="2126.8" y1="-312.1" x2="2132.7" y2="-315.4"/>
	<line class="st2" x1="2126.8" y1="-335.4" x2="2126.8" y2="-312.1"/>
	<line class="st2" x1="2137.8" y1="-306.6" x2="2126.8" y2="-300.5"/>
	<line class="st2" x1="2151.8" y1="-298.2" x2="2137.8" y2="-306.6"/>
	<line class="st2" x1="2151.5" y1="-281.8" x2="2151.8" y2="-298.2"/>
	<line class="st2" x1="2137.2" y1="-273.9" x2="2151.5" y2="-281.8"/>
	<line class="st2" x1="2126.8" y1="-280.1" x2="2137.2" y2="-273.9"/>
	<line class="st2" x1="2126.8" y1="-300.5" x2="2126.8" y2="-280.1"/>
	<line class="st2" x1="2142.6" y1="-332.2" x2="2142.4" y2="-315.9"/>
	<line class="st2" x1="2156.9" y1="-340.2" x2="2142.6" y2="-332.2"/>
	<line class="st2" x1="2171" y1="-331.7" x2="2156.9" y2="-340.2"/>
	<line class="st2" x1="2170.8" y1="-315.4" x2="2171" y2="-331.7"/>
	<line class="st2" x1="2156.5" y1="-307.4" x2="2170.8" y2="-315.4"/>
	<line class="st2" x1="2142.4" y1="-315.9" x2="2156.5" y2="-307.4"/>
	<line class="st2" x1="2161.5" y1="-363.9" x2="2161.3" y2="-347.5"/>
	<line class="st2" x1="2172.4" y1="-369.9" x2="2161.5" y2="-363.9"/>
	<line class="st2" x1="2179" y1="-369.9" x2="2172.4" y2="-369.9"/>
	<line class="st2" x1="2189.9" y1="-363.4" x2="2179" y2="-369.9"/>
	<line class="st2" x1="2189.6" y1="-347" x2="2189.9" y2="-363.4"/>
	<line class="st2" x1="2175.3" y1="-339.1" x2="2189.6" y2="-347"/>
	<line class="st2" x1="2161.3" y1="-347.5" x2="2175.3" y2="-339.1"/>
	<line class="st2" x1="2134.4" y1="-369.9" x2="2126.8" y2="-365.7"/>
	<line class="st2" x1="2140.9" y1="-369.9" x2="2134.4" y2="-369.9"/>
	<line class="st2" x1="2151.8" y1="-363.4" x2="2140.9" y2="-369.9"/>
	<line class="st2" x1="2151.5" y1="-347" x2="2151.8" y2="-363.4"/>
	<line class="st2" x1="2137.2" y1="-339.1" x2="2151.5" y2="-347"/>
	<line class="st2" x1="2126.8" y1="-345.3" x2="2137.2" y2="-339.1"/>
	<line class="st2" x1="2126.8" y1="-365.7" x2="2126.8" y2="-345.3"/>
	<line class="st2" x1="2294.9" y1="-267" x2="2294.6" y2="-250.7"/>
	<line class="st2" x1="2309.2" y1="-275" x2="2294.9" y2="-267"/>
	<line class="st2" x1="2323.3" y1="-266.5" x2="2309.2" y2="-275"/>
	<line class="st2" x1="2323.1" y1="-250.2" x2="2323.3" y2="-266.5"/>
	<line class="st2" x1="2308.7" y1="-242.2" x2="2323.1" y2="-250.2"/>
	<line class="st2" x1="2294.6" y1="-250.7" x2="2308.7" y2="-242.2"/>
	<line class="st2" x1="2275.7" y1="-298.7" x2="2275.5" y2="-282.3"/>
	<line class="st2" x1="2290" y1="-306.6" x2="2275.7" y2="-298.7"/>
	<line class="st2" x1="2304.1" y1="-298.2" x2="2290" y2="-306.6"/>
	<line class="st2" x1="2303.8" y1="-281.8" x2="2304.1" y2="-298.2"/>
	<line class="st2" x1="2289.5" y1="-273.9" x2="2303.8" y2="-281.8"/>
	<line class="st2" x1="2275.5" y1="-282.3" x2="2289.5" y2="-273.9"/>
	<line class="st2" x1="2313.8" y1="-298.7" x2="2313.5" y2="-282.3"/>
	<line class="st2" x1="2328.1" y1="-306.6" x2="2313.8" y2="-298.7"/>
	<line class="st2" x1="2342.2" y1="-298.2" x2="2328.1" y2="-306.6"/>
	<line class="st2" x1="2341.9" y1="-281.8" x2="2342.2" y2="-298.2"/>
	<line class="st2" x1="2327.6" y1="-273.9" x2="2341.9" y2="-281.8"/>
	<line class="st2" x1="2313.5" y1="-282.3" x2="2327.6" y2="-273.9"/>
	<line class="st2" x1="2275.7" y1="-233.5" x2="2275.5" y2="-219.7"/>
	<line class="st2" x1="2290" y1="-241.4" x2="2275.7" y2="-233.5"/>
	<line class="st2" x1="2304.1" y1="-233" x2="2290" y2="-241.4"/>
	<line class="st2" x1="2303.9" y1="-219.7" x2="2304.1" y2="-233"/>
	<line class="st2" x1="2303.9" y1="-219.7" x2="2275.5" y2="-219.7"/>
	<line class="st2" x1="2313.8" y1="-233.5" x2="2313.6" y2="-219.7"/>
	<line class="st2" x1="2328.1" y1="-241.4" x2="2313.8" y2="-233.5"/>
	<line class="st2" x1="2342.2" y1="-233" x2="2328.1" y2="-241.4"/>
	<line class="st2" x1="2341.9" y1="-219.7" x2="2342.2" y2="-233"/>
	<line class="st2" x1="2341.9" y1="-219.7" x2="2313.6" y2="-219.7"/>
	<line class="st2" x1="2333" y1="-332.2" x2="2332.7" y2="-315.9"/>
	<line class="st2" x1="2347.3" y1="-340.2" x2="2333" y2="-332.2"/>
	<line class="st2" x1="2361.4" y1="-331.7" x2="2347.3" y2="-340.2"/>
	<line class="st2" x1="2361.1" y1="-315.4" x2="2361.4" y2="-331.7"/>
	<line class="st2" x1="2346.8" y1="-307.4" x2="2361.1" y2="-315.4"/>
	<line class="st2" x1="2332.7" y1="-315.9" x2="2346.8" y2="-307.4"/>
	<line class="st2" x1="2351.9" y1="-298.7" x2="2351.6" y2="-282.3"/>
	<line class="st2" x1="2366.2" y1="-306.6" x2="2351.9" y2="-298.7"/>
	<line class="st2" x1="2378.7" y1="-299.1" x2="2366.2" y2="-306.6"/>
	<line class="st2" x1="2378.7" y1="-299.1" x2="2378.7" y2="-281.1"/>
	<line class="st2" x1="2365.6" y1="-273.9" x2="2378.7" y2="-281.1"/>
	<line class="st2" x1="2351.6" y1="-282.3" x2="2365.6" y2="-273.9"/>
	<line class="st2" x1="2333" y1="-267" x2="2332.7" y2="-250.7"/>
	<line class="st2" x1="2347.3" y1="-275" x2="2333" y2="-267"/>
	<line class="st2" x1="2361.4" y1="-266.5" x2="2347.3" y2="-275"/>
	<line class="st2" x1="2361.1" y1="-250.2" x2="2361.4" y2="-266.5"/>
	<line class="st2" x1="2346.8" y1="-242.2" x2="2361.1" y2="-250.2"/>
	<line class="st2" x1="2332.7" y1="-250.7" x2="2346.8" y2="-242.2"/>
	<line class="st2" x1="2351.9" y1="-233.5" x2="2351.7" y2="-219.7"/>
	<line class="st2" x1="2378.7" y1="-219.7" x2="2351.7" y2="-219.7"/>
	<line class="st2" x1="2252" y1="-241.4" x2="2237.7" y2="-233.5"/>
	<line class="st2" x1="2265.8" y1="-219.7" x2="2237.4" y2="-219.7"/>
	<line class="st2" x1="2218.8" y1="-332.2" x2="2218.5" y2="-315.9"/>
	<line class="st2" x1="2233.1" y1="-340.2" x2="2218.8" y2="-332.2"/>
	<line class="st2" x1="2247.2" y1="-331.7" x2="2233.1" y2="-340.2"/>
	<line class="st2" x1="2246.9" y1="-315.4" x2="2247.2" y2="-331.7"/>
	<line class="st2" x1="2232.6" y1="-307.4" x2="2246.9" y2="-315.4"/>
	<line class="st2" x1="2218.5" y1="-315.9" x2="2232.6" y2="-307.4"/>
	<line class="st2" x1="2199.6" y1="-298.7" x2="2199.3" y2="-282.3"/>
	<line class="st2" x1="2213.9" y1="-306.6" x2="2199.6" y2="-298.7"/>
	<line class="st2" x1="2227.9" y1="-298.2" x2="2213.9" y2="-306.6"/>
	<line class="st2" x1="2227.7" y1="-281.8" x2="2227.9" y2="-298.2"/>
	<line class="st2" x1="2213.4" y1="-273.9" x2="2227.7" y2="-281.8"/>
	<line class="st2" x1="2199.3" y1="-282.3" x2="2213.4" y2="-273.9"/>
	<line class="st2" x1="2218.8" y1="-267" x2="2218.5" y2="-250.7"/>
	<line class="st2" x1="2233.1" y1="-275" x2="2218.8" y2="-267"/>
	<line class="st2" x1="2247.2" y1="-266.5" x2="2233.1" y2="-275"/>
	<line class="st2" x1="2246.9" y1="-250.2" x2="2247.2" y2="-266.5"/>
	<line class="st2" x1="2232.6" y1="-242.2" x2="2246.9" y2="-250.2"/>
	<line class="st2" x1="2218.5" y1="-250.7" x2="2232.6" y2="-242.2"/>
	<line class="st2" x1="2313.8" y1="-363.9" x2="2313.5" y2="-347.5"/>
	<line class="st2" x1="2324.7" y1="-369.9" x2="2313.8" y2="-363.9"/>
	<line class="st2" x1="2331.3" y1="-369.9" x2="2324.7" y2="-369.9"/>
	<line class="st2" x1="2342.2" y1="-363.4" x2="2331.3" y2="-369.9"/>
	<line class="st2" x1="2341.9" y1="-347" x2="2342.2" y2="-363.4"/>
	<line class="st2" x1="2327.6" y1="-339.1" x2="2341.9" y2="-347"/>
	<line class="st2" x1="2313.5" y1="-347.5" x2="2327.6" y2="-339.1"/>
	<line class="st2" x1="2275.7" y1="-363.9" x2="2275.5" y2="-347.5"/>
	<line class="st2" x1="2286.6" y1="-369.9" x2="2275.7" y2="-363.9"/>
	<line class="st2" x1="2293.2" y1="-369.9" x2="2286.6" y2="-369.9"/>
	<line class="st2" x1="2304.1" y1="-363.4" x2="2293.2" y2="-369.9"/>
	<line class="st2" x1="2303.8" y1="-347" x2="2304.1" y2="-363.4"/>
	<line class="st2" x1="2289.5" y1="-339.1" x2="2303.8" y2="-347"/>
	<line class="st2" x1="2275.5" y1="-347.5" x2="2289.5" y2="-339.1"/>
	<line class="st2" x1="2256.8" y1="-332.2" x2="2256.6" y2="-315.9"/>
	<line class="st2" x1="2271.1" y1="-340.2" x2="2256.8" y2="-332.2"/>
	<line class="st2" x1="2285.3" y1="-331.7" x2="2271.1" y2="-340.2"/>
	<line class="st2" x1="2285" y1="-315.4" x2="2285.3" y2="-331.7"/>
	<line class="st2" x1="2270.7" y1="-307.4" x2="2285" y2="-315.4"/>
	<line class="st2" x1="2256.6" y1="-315.9" x2="2270.7" y2="-307.4"/>
	<line class="st2" x1="2237.7" y1="-298.7" x2="2237.4" y2="-282.3"/>
	<line class="st2" x1="2252" y1="-306.6" x2="2237.7" y2="-298.7"/>
	<line class="st2" x1="2266" y1="-298.2" x2="2252" y2="-306.6"/>
	<line class="st2" x1="2265.7" y1="-281.8" x2="2266" y2="-298.2"/>
	<line class="st2" x1="2251.4" y1="-273.9" x2="2265.7" y2="-281.8"/>
	<line class="st2" x1="2237.4" y1="-282.3" x2="2251.4" y2="-273.9"/>
	<line class="st2" x1="2351.9" y1="-363.9" x2="2351.6" y2="-347.5"/>
	<line class="st2" x1="2362.8" y1="-369.9" x2="2351.9" y2="-363.9"/>
	<line class="st2" x1="2369.3" y1="-369.9" x2="2362.8" y2="-369.9"/>
	<line class="st2" x1="2378.7" y1="-364.3" x2="2369.3" y2="-369.9"/>
	<line class="st2" x1="2378.7" y1="-364.3" x2="2378.7" y2="-346.3"/>
	<line class="st2" x1="2365.6" y1="-339.1" x2="2378.7" y2="-346.3"/>
	<line class="st2" x1="2351.6" y1="-347.5" x2="2365.6" y2="-339.1"/>
</g>
<g>
	<line class="st2" x1="2489.2" y1="-387" x2="2499.4" y2="-387"/>
	<line class="st2" x1="2510.9" y1="-387" x2="2536.2" y2="-387"/>
	<line class="st2" x1="2547.7" y1="-387" x2="2573.1" y2="-387"/>
	<line class="st2" x1="2584.6" y1="-387" x2="2609.9" y2="-387"/>
	<line class="st2" x1="2621.4" y1="-387" x2="2646.8" y2="-387"/>
	<line class="st2" x1="2658.3" y1="-387" x2="2682" y2="-387"/>
	<path class="st2" d="M2489.2-387"/>
	<path class="st2" d="M2682-387"/>
	<line class="st2" x1="2652.4" y1="-347.9" x2="2666.5" y2="-356.2"/>
	<line class="st2" x1="2666.5" y1="-356.2" x2="2666.4" y2="-372.6"/>
	<line class="st2" x1="2666.4" y1="-372.6" x2="2652.1" y2="-380.7"/>
	<line class="st2" x1="2652.1" y1="-380.7" x2="2638" y2="-372.4"/>
	<line class="st2" x1="2638" y1="-372.4" x2="2638.1" y2="-356"/>
	<line class="st2" x1="2638.1" y1="-356" x2="2652.4" y2="-347.9"/>
	<line class="st2" x1="2682" y1="-352.7" x2="2682" y2="-376.6"/>
	<line class="st2" x1="2682" y1="-376.6" x2="2675.4" y2="-372.7"/>
	<line class="st2" x1="2675.4" y1="-372.7" x2="2675.6" y2="-356.3"/>
	<line class="st2" x1="2675.6" y1="-356.3" x2="2682" y2="-352.7"/>
	<line class="st2" x1="2615.5" y1="-347.9" x2="2629.6" y2="-356.2"/>
	<line class="st2" x1="2629.6" y1="-356.2" x2="2629.5" y2="-372.6"/>
	<line class="st2" x1="2629.5" y1="-372.6" x2="2615.3" y2="-380.7"/>
	<line class="st2" x1="2615.3" y1="-380.7" x2="2601.2" y2="-372.4"/>
	<line class="st2" x1="2601.2" y1="-372.4" x2="2601.3" y2="-356"/>
	<line class="st2" x1="2601.3" y1="-356" x2="2615.5" y2="-347.9"/>
	<line class="st2" x1="2505" y1="-347.9" x2="2519.1" y2="-356.2"/>
	<line class="st2" x1="2519.1" y1="-356.2" x2="2519" y2="-372.6"/>
	<line class="st2" x1="2519" y1="-372.6" x2="2504.7" y2="-380.7"/>
	<line class="st2" x1="2504.7" y1="-380.7" x2="2490.6" y2="-372.4"/>
	<line class="st2" x1="2490.6" y1="-372.4" x2="2490.7" y2="-356"/>
	<line class="st2" x1="2490.7" y1="-356" x2="2505" y2="-347.9"/>
	<line class="st2" x1="2541.8" y1="-347.9" x2="2555.9" y2="-356.2"/>
	<line class="st2" x1="2555.9" y1="-356.2" x2="2555.8" y2="-372.6"/>
	<line class="st2" x1="2555.8" y1="-372.6" x2="2541.6" y2="-380.7"/>
	<line class="st2" x1="2541.6" y1="-380.7" x2="2527.5" y2="-372.4"/>
	<line class="st2" x1="2527.5" y1="-372.4" x2="2527.6" y2="-356"/>
	<line class="st2" x1="2527.6" y1="-356" x2="2541.8" y2="-347.9"/>
	<line class="st2" x1="2578.7" y1="-347.9" x2="2592.8" y2="-356.2"/>
	<line class="st2" x1="2592.8" y1="-356.2" x2="2592.7" y2="-372.6"/>
	<line class="st2" x1="2592.7" y1="-372.6" x2="2578.4" y2="-380.7"/>
	<line class="st2" x1="2578.4" y1="-380.7" x2="2564.3" y2="-372.4"/>
	<line class="st2" x1="2564.3" y1="-372.4" x2="2564.4" y2="-356"/>
	<line class="st2" x1="2564.4" y1="-356" x2="2578.7" y2="-347.9"/>
	<line class="st2" x1="2489.2" y1="-387" x2="2489.2" y2="-381"/>
	<line class="st2" x1="2489.2" y1="-381" x2="2499.4" y2="-387"/>
	<path class="st2" d="M2510.9-387"/>
	<line class="st2" x1="2510.9" y1="-387" x2="2523.8" y2="-379.6"/>
	<line class="st2" x1="2523.8" y1="-379.6" x2="2536.2" y2="-387"/>
	<path class="st2" d="M2536.2-387"/>
	<path class="st2" d="M2547.7-387"/>
	<line class="st2" x1="2547.7" y1="-387" x2="2560.6" y2="-379.6"/>
	<line class="st2" x1="2560.6" y1="-379.6" x2="2573.1" y2="-387"/>
	<path class="st2" d="M2573.1-387"/>
	<path class="st2" d="M2584.6-387"/>
	<line class="st2" x1="2584.6" y1="-387" x2="2597.5" y2="-379.6"/>
	<line class="st2" x1="2597.5" y1="-379.6" x2="2609.9" y2="-387"/>
	<path class="st2" d="M2609.9-387"/>
	<path class="st2" d="M2621.4-387"/>
	<line class="st2" x1="2621.4" y1="-387" x2="2634.3" y2="-379.6"/>
	<line class="st2" x1="2634.3" y1="-379.6" x2="2646.8" y2="-387"/>
	<path class="st2" d="M2646.8-387"/>
	<path class="st2" d="M2658.3-387"/>
	<line class="st2" x1="2658.3" y1="-387" x2="2671.2" y2="-379.6"/>
	<line class="st2" x1="2671.2" y1="-379.6" x2="2682" y2="-386"/>
	<line class="st2" x1="2682" y1="-386" x2="2682" y2="-387"/>
</g>
<g>
	<line class="st2" x1="2539.9" y1="-273.2" x2="2525.7" y2="-264.9"/>
	<line class="st2" x1="2554.1" y1="-265.1" x2="2539.9" y2="-273.2"/>
	<line class="st2" x1="2554.2" y1="-248.7" x2="2554.1" y2="-265.1"/>
	<line class="st2" x1="2540" y1="-240.5" x2="2554.2" y2="-248.7"/>
	<line class="st2" x1="2525.8" y1="-248.6" x2="2540" y2="-240.5"/>
	<line class="st2" x1="2525.7" y1="-264.9" x2="2525.8" y2="-248.6"/>
	<line class="st2" x1="2499.7" y1="-233.7" x2="2489.3" y2="-239.6"/>
	<line class="st2" x1="2499.8" y1="-217.4" x2="2499.7" y2="-233.7"/>
	<line class="st2" x1="2490" y1="-211.6" x2="2499.8" y2="-217.4"/>
	<line class="st2" x1="2489.3" y1="-211.6" x2="2490" y2="-211.6"/>
	<line class="st2" x1="2489.3" y1="-239.6" x2="2489.3" y2="-211.6"/>
	<line class="st2" x1="2517.2" y1="-265.1" x2="2503" y2="-273.2"/>
	<line class="st2" x1="2517.3" y1="-248.7" x2="2517.2" y2="-265.1"/>
	<line class="st2" x1="2503.2" y1="-240.5" x2="2517.3" y2="-248.7"/>
	<line class="st2" x1="2489.3" y1="-248.4" x2="2503.2" y2="-240.5"/>
	<line class="st2" x1="2489.3" y1="-265.2" x2="2489.3" y2="-248.4"/>
	<line class="st2" x1="2503" y1="-273.2" x2="2489.3" y2="-265.2"/>
	<line class="st2" x1="2650.4" y1="-273.2" x2="2636.3" y2="-264.9"/>
	<line class="st2" x1="2664.6" y1="-265.1" x2="2650.4" y2="-273.2"/>
	<line class="st2" x1="2664.7" y1="-248.7" x2="2664.6" y2="-265.1"/>
	<line class="st2" x1="2650.6" y1="-240.5" x2="2664.7" y2="-248.7"/>
	<line class="st2" x1="2636.4" y1="-248.6" x2="2650.6" y2="-240.5"/>
	<line class="st2" x1="2636.3" y1="-264.9" x2="2636.4" y2="-248.6"/>
	<line class="st2" x1="2613.6" y1="-273.2" x2="2599.4" y2="-264.9"/>
	<line class="st2" x1="2627.8" y1="-265.1" x2="2613.6" y2="-273.2"/>
	<line class="st2" x1="2627.9" y1="-248.7" x2="2627.8" y2="-265.1"/>
	<line class="st2" x1="2613.7" y1="-240.5" x2="2627.9" y2="-248.7"/>
	<line class="st2" x1="2599.5" y1="-248.6" x2="2613.7" y2="-240.5"/>
	<line class="st2" x1="2599.4" y1="-264.9" x2="2599.5" y2="-248.6"/>
	<line class="st2" x1="2655.7" y1="-217.2" x2="2665.5" y2="-211.6"/>
	<line class="st2" x1="2655.6" y1="-233.6" x2="2655.7" y2="-217.2"/>
	<line class="st2" x1="2669.7" y1="-241.8" x2="2655.6" y2="-233.6"/>
	<line class="st2" x1="2682.1" y1="-234.8" x2="2669.7" y2="-241.8"/>
	<line class="st2" x1="2682.1" y1="-216.2" x2="2682.1" y2="-234.8"/>
	<line class="st2" x1="2674.3" y1="-211.6" x2="2682.1" y2="-216.2"/>
	<line class="st2" x1="2665.5" y1="-211.6" x2="2674.3" y2="-211.6"/>
	<line class="st2" x1="2618.9" y1="-217.2" x2="2628.6" y2="-211.6"/>
	<line class="st2" x1="2618.8" y1="-233.6" x2="2618.9" y2="-217.2"/>
	<line class="st2" x1="2632.9" y1="-241.8" x2="2618.8" y2="-233.6"/>
	<line class="st2" x1="2647.1" y1="-233.7" x2="2632.9" y2="-241.8"/>
	<line class="st2" x1="2647.2" y1="-217.4" x2="2647.1" y2="-233.7"/>
	<line class="st2" x1="2637.4" y1="-211.6" x2="2647.2" y2="-217.4"/>
	<line class="st2" x1="2628.6" y1="-211.6" x2="2637.4" y2="-211.6"/>
	<line class="st2" x1="2582" y1="-217.2" x2="2591.8" y2="-211.6"/>
	<line class="st2" x1="2581.9" y1="-233.6" x2="2582" y2="-217.2"/>
	<line class="st2" x1="2596" y1="-241.8" x2="2581.9" y2="-233.6"/>
	<line class="st2" x1="2610.3" y1="-233.7" x2="2596" y2="-241.8"/>
	<line class="st2" x1="2610.4" y1="-217.4" x2="2610.3" y2="-233.7"/>
	<line class="st2" x1="2600.6" y1="-211.6" x2="2610.4" y2="-217.4"/>
	<line class="st2" x1="2591.8" y1="-211.6" x2="2600.6" y2="-211.6"/>
	<line class="st2" x1="2674.1" y1="-248.6" x2="2682.1" y2="-244"/>
	<line class="st2" x1="2674" y1="-265" x2="2674.1" y2="-248.6"/>
	<line class="st2" x1="2682.1" y1="-269.7" x2="2674" y2="-265"/>
	<line class="st2" x1="2682.1" y1="-244" x2="2682.1" y2="-269.7"/>
	<line class="st2" x1="2508.3" y1="-217.2" x2="2518.1" y2="-211.6"/>
	<line class="st2" x1="2508.2" y1="-233.6" x2="2508.3" y2="-217.2"/>
	<line class="st2" x1="2522.3" y1="-241.8" x2="2508.2" y2="-233.6"/>
	<line class="st2" x1="2536.6" y1="-233.7" x2="2522.3" y2="-241.8"/>
	<line class="st2" x1="2536.7" y1="-217.4" x2="2536.6" y2="-233.7"/>
	<line class="st2" x1="2526.9" y1="-211.6" x2="2536.7" y2="-217.4"/>
	<line class="st2" x1="2518.1" y1="-211.6" x2="2526.9" y2="-211.6"/>
	<line class="st2" x1="2576.7" y1="-273.2" x2="2562.6" y2="-264.9"/>
	<line class="st2" x1="2590.9" y1="-265.1" x2="2576.7" y2="-273.2"/>
	<line class="st2" x1="2591" y1="-248.7" x2="2590.9" y2="-265.1"/>
	<line class="st2" x1="2576.9" y1="-240.5" x2="2591" y2="-248.7"/>
	<line class="st2" x1="2562.7" y1="-248.6" x2="2576.9" y2="-240.5"/>
	<line class="st2" x1="2562.6" y1="-264.9" x2="2562.7" y2="-248.6"/>
	<line class="st2" x1="2545.2" y1="-217.2" x2="2554.9" y2="-211.6"/>
	<line class="st2" x1="2545.1" y1="-233.6" x2="2545.2" y2="-217.2"/>
	<line class="st2" x1="2559.2" y1="-241.8" x2="2545.1" y2="-233.6"/>
	<line class="st2" x1="2573.4" y1="-233.7" x2="2559.2" y2="-241.8"/>
	<line class="st2" x1="2573.5" y1="-217.4" x2="2573.4" y2="-233.7"/>
	<line class="st2" x1="2563.7" y1="-211.6" x2="2573.5" y2="-217.4"/>
	<line class="st2" x1="2554.9" y1="-211.6" x2="2563.7" y2="-211.6"/>
</g>
</svg>
