<?xml version="1.0" encoding="utf-8"?>
<!-- Generator: Adobe Illustrator 21.0.1, SVG Export Plug-In . SVG Version: 6.00 Build 0)  -->
<svg version="1.1" id="Layer_1" xmlns="http://www.w3.org/2000/svg" xmlns:xlink="http://www.w3.org/1999/xlink" x="0px" y="0px"
	 viewBox="0 0 1385.3 937.4" style="enable-background:new 0 0 1385.3 937.4;" xml:space="preserve">
<style type="text/css">
	.st0{fill:none;stroke:#000000;stroke-width:0.9;}
	.st1{fill:none;stroke:#000000;stroke-width:1.000000e-03;}
	.st2{fill:none;stroke:#000000;stroke-width:0.709;stroke-linecap:round;stroke-linejoin:round;stroke-miterlimit:10;}
</style>
<g transform="translate(22.5000185, 22.5000185) ">
	<polygon class="st0" points="-4.5,-4.5 23.8,-4.5 23.8,4 52.2,4 52.2,-4.5 69.2,-4.5 69.2,4 86.2,4 86.2,-4.5 103.2,-4.5 103.2,4 
		120.2,4 120.2,-4.5 137.2,-4.5 137.2,4 154.2,4 154.2,-4.5 171.2,-4.5 171.2,4 188.3,4 188.3,-4.5 205.3,-4.5 205.3,4 222.3,4 
		222.3,-4.5 239.3,-4.5 239.3,4 256.3,4 256.3,-4.5 273.3,-4.5 273.3,4 301.6,4 301.6,-4.5 330,-4.5 330,21 321.5,21 321.5,46.5 
		330,46.5 330,63.5 321.5,63.5 321.5,80.5 330,80.5 330,97.5 321.5,97.5 321.5,114.6 330,114.6 330,131.6 321.5,131.6 321.5,148.6 
		330,148.6 330,165.6 321.5,165.6 321.5,191.1 330,191.1 330,216.6 301.6,216.6 301.6,208.1 273.3,208.1 273.3,216.6 256.3,216.6 
		256.3,208.1 239.3,208.1 239.3,216.6 222.3,216.6 222.3,208.1 205.3,208.1 205.3,216.6 188.3,216.6 188.3,208.1 171.2,208.1 
		171.2,216.6 154.2,216.6 154.2,208.1 137.2,208.1 137.2,216.6 120.2,216.6 120.2,208.1 103.2,208.1 103.2,216.6 86.2,216.6 
		86.2,208.1 69.2,208.1 69.2,216.6 52.2,216.6 52.2,208.1 23.8,208.1 23.8,216.6 -4.5,216.6 -4.5,191.1 4,191.1 4,165.6 -4.5,165.6 
		-4.5,148.6 4,148.6 4,131.6 -4.5,131.6 -4.5,114.6 4,114.6 4,97.5 -4.5,97.5 -4.5,80.5 4,80.5 4,63.5 -4.5,63.5 -4.5,46.5 4,46.5 
		4,21 -4.5,21 	"/>
</g>
<g transform="translate(440.6105985, 22.5000185) ">
	<polygon class="st0" points="-88.1,-4.5 -59.8,-4.5 -59.8,4 -31.4,4 -31.4,-4.5 -14.4,-4.5 -14.4,4 2.6,4 2.6,-4.5 19.6,-4.5 
		19.6,4 36.6,4 36.6,-4.5 53.6,-4.5 53.6,4 70.6,4 70.6,-4.5 87.6,-4.5 87.6,4 104.6,4 104.6,-4.5 121.6,-4.5 121.6,4 138.6,4 
		138.6,-4.5 155.7,-4.5 155.7,4 172.7,4 172.7,-4.5 189.7,-4.5 189.7,4 218,4 218,-4.5 246.4,-4.5 246.4,21 237.9,21 237.9,46.5 
		246.4,46.5 246.4,63.5 237.9,63.5 237.9,80.5 246.4,80.5 246.4,97.5 237.9,97.5 237.9,114.6 246.4,114.6 246.4,131.6 237.9,131.6 
		237.9,148.6 246.4,148.6 246.4,165.6 237.9,165.6 237.9,191.1 246.4,191.1 246.4,216.6 218,216.6 218,208.1 189.7,208.1 
		189.7,216.6 172.7,216.6 172.7,208.1 155.7,208.1 155.7,216.6 138.6,216.6 138.6,208.1 121.6,208.1 121.6,216.6 104.6,216.6 
		104.6,208.1 87.6,208.1 87.6,216.6 70.6,216.6 70.6,208.1 53.6,208.1 53.6,216.6 36.6,216.6 36.6,208.1 19.6,208.1 19.6,216.6 
		2.6,216.6 2.6,208.1 -14.4,208.1 -14.4,216.6 -31.4,216.6 -31.4,208.1 -59.8,208.1 -59.8,216.6 -88.1,216.6 -88.1,191.1 
		-79.6,191.1 -79.6,165.6 -88.1,165.6 -88.1,148.6 -79.6,148.6 -79.6,131.6 -88.1,131.6 -88.1,114.6 -79.6,114.6 -79.6,97.5 
		-88.1,97.5 -88.1,80.5 -79.6,80.5 -79.6,63.5 -88.1,63.5 -88.1,46.5 -79.6,46.5 -79.6,21 -88.1,21 	"/>
</g>
<g transform="translate(858.7211785, 22.5000185) ">
	<polygon class="st0" points="-163.2,-4.5 -150.5,-4.5 -150.5,4 -129.2,4 -129.2,-4.5 -112.2,-4.5 -112.2,4 -95.2,4 -95.2,-4.5 
		-78.2,-4.5 -78.2,4 -61.2,4 -61.2,-4.5 -44.2,-4.5 -44.2,4 -27.2,4 -27.2,-4.5 -10.2,-4.5 -10.2,4 6.8,4 6.8,-4.5 23.8,-4.5 
		23.8,4 40.9,4 40.9,-4.5 57.9,-4.5 57.9,4 74.9,4 74.9,-4.5 91.9,-4.5 91.9,4 108.9,4 108.9,-4.5 125.9,-4.5 125.9,4 142.9,4 
		142.9,-4.5 159.9,-4.5 159.9,4 176.9,4 176.9,-4.5 193.9,-4.5 193.9,4 210.9,4 210.9,-4.5 227.9,-4.5 227.9,4 244.9,4 244.9,-4.5 
		262,-4.5 262,4 279,4 279,-4.5 296,-4.5 296,4 313,4 313,-4.5 330,-4.5 330,4 347,4 347,-4.5 364,-4.5 364,4 381,4 381,-4.5 
		398,-4.5 398,4 415,4 415,-4.5 432,-4.5 432,4 449,4 449,-4.5 466.1,-4.5 466.1,4 487.3,4 487.3,-4.5 500.1,-4.5 500.1,21 
		508.6,21 508.6,46.5 500.1,46.5 500.1,63.5 508.6,63.5 508.6,80.5 500.1,80.5 500.1,97.5 508.6,97.5 508.6,114.6 500.1,114.6 
		500.1,131.6 508.6,131.6 508.6,148.6 500.1,148.6 500.1,165.6 508.6,165.6 508.6,191.1 500.1,191.1 500.1,216.6 487.3,216.6 
		487.3,208.1 466.1,208.1 466.1,216.6 449,216.6 449,208.1 432,208.1 432,216.6 415,216.6 415,208.1 398,208.1 398,216.6 381,216.6 
		381,208.1 364,208.1 364,216.6 347,216.6 347,208.1 330,208.1 330,216.6 313,216.6 313,208.1 296,208.1 296,216.6 279,216.6 
		279,208.1 262,208.1 262,216.6 244.9,216.6 244.9,208.1 227.9,208.1 227.9,216.6 210.9,216.6 210.9,208.1 193.9,208.1 193.9,216.6 
		176.9,216.6 176.9,208.1 159.9,208.1 159.9,216.6 142.9,216.6 142.9,208.1 125.9,208.1 125.9,216.6 108.9,216.6 108.9,208.1 
		91.9,208.1 91.9,216.6 74.9,216.6 74.9,208.1 57.9,208.1 57.9,216.6 40.9,216.6 40.9,208.1 23.8,208.1 23.8,216.6 6.8,216.6 
		6.8,208.1 -10.2,208.1 -10.2,216.6 -27.2,216.6 -27.2,208.1 -44.2,208.1 -44.2,216.6 -61.2,216.6 -61.2,208.1 -78.2,208.1 
		-78.2,216.6 -95.2,216.6 -95.2,208.1 -112.2,208.1 -112.2,216.6 -129.2,216.6 -129.2,208.1 -150.5,208.1 -150.5,216.6 
		-163.2,216.6 -163.2,191.1 -171.7,191.1 -171.7,165.6 -163.2,165.6 -163.2,148.6 -171.7,148.6 -171.7,131.6 -163.2,131.6 
		-163.2,114.6 -171.7,114.6 -171.7,97.5 -163.2,97.5 -163.2,80.5 -171.7,80.5 -171.7,63.5 -163.2,63.5 -163.2,46.5 -171.7,46.5 
		-171.7,21 -163.2,21 	"/>
</g>
<g transform="translate(858.7211785, 298.8781985) ">
	<polygon class="st0" points="-163.2,-59.8 -150.5,-59.8 -150.5,-51.3 -129.2,-51.3 -129.2,-59.8 -112.2,-59.8 -112.2,-51.3 
		-95.2,-51.3 -95.2,-59.8 -78.2,-59.8 -78.2,-51.3 -61.2,-51.3 -61.2,-59.8 -44.2,-59.8 -44.2,-51.3 -27.2,-51.3 -27.2,-59.8 
		-10.2,-59.8 -10.2,-51.3 6.8,-51.3 6.8,-59.8 23.8,-59.8 23.8,-51.3 40.9,-51.3 40.9,-59.8 57.9,-59.8 57.9,-51.3 74.9,-51.3 
		74.9,-59.8 91.9,-59.8 91.9,-51.3 108.9,-51.3 108.9,-59.8 125.9,-59.8 125.9,-51.3 142.9,-51.3 142.9,-59.8 159.9,-59.8 
		159.9,-51.3 176.9,-51.3 176.9,-59.8 193.9,-59.8 193.9,-51.3 210.9,-51.3 210.9,-59.8 227.9,-59.8 227.9,-51.3 244.9,-51.3 
		244.9,-59.8 262,-59.8 262,-51.3 279,-51.3 279,-59.8 296,-59.8 296,-51.3 313,-51.3 313,-59.8 330,-59.8 330,-51.3 347,-51.3 
		347,-59.8 364,-59.8 364,-51.3 381,-51.3 381,-59.8 398,-59.8 398,-51.3 415,-51.3 415,-59.8 432,-59.8 432,-51.3 449,-51.3 
		449,-59.8 466.1,-59.8 466.1,-51.3 487.3,-51.3 487.3,-59.8 500.1,-59.8 500.1,-34.3 508.6,-34.3 508.6,-8.8 500.1,-8.8 500.1,8.3 
		508.6,8.3 508.6,25.3 500.1,25.3 500.1,42.3 508.6,42.3 508.6,59.3 500.1,59.3 500.1,76.3 508.6,76.3 508.6,93.3 500.1,93.3 
		500.1,110.3 508.6,110.3 508.6,135.8 500.1,135.8 500.1,161.3 487.3,161.3 487.3,152.8 466.1,152.8 466.1,161.3 449,161.3 
		449,152.8 432,152.8 432,161.3 415,161.3 415,152.8 398,152.8 398,161.3 381,161.3 381,152.8 364,152.8 364,161.3 347,161.3 
		347,152.8 330,152.8 330,161.3 313,161.3 313,152.8 296,152.8 296,161.3 279,161.3 279,152.8 262,152.8 262,161.3 244.9,161.3 
		244.9,152.8 227.9,152.8 227.9,161.3 210.9,161.3 210.9,152.8 193.9,152.8 193.9,161.3 176.9,161.3 176.9,152.8 159.9,152.8 
		159.9,161.3 142.9,161.3 142.9,152.8 125.9,152.8 125.9,161.3 108.9,161.3 108.9,152.8 91.9,152.8 91.9,161.3 74.9,161.3 
		74.9,152.8 57.9,152.8 57.9,161.3 40.9,161.3 40.9,152.8 23.8,152.8 23.8,161.3 6.8,161.3 6.8,152.8 -10.2,152.8 -10.2,161.3 
		-27.2,161.3 -27.2,152.8 -44.2,152.8 -44.2,161.3 -61.2,161.3 -61.2,152.8 -78.2,152.8 -78.2,161.3 -95.2,161.3 -95.2,152.8 
		-112.2,152.8 -112.2,161.3 -129.2,161.3 -129.2,152.8 -150.5,152.8 -150.5,161.3 -163.2,161.3 -163.2,135.8 -171.7,135.8 
		-171.7,110.3 -163.2,110.3 -163.2,93.3 -171.7,93.3 -171.7,76.3 -163.2,76.3 -163.2,59.3 -171.7,59.3 -171.7,42.3 -163.2,42.3 
		-163.2,25.3 -171.7,25.3 -171.7,8.3 -163.2,8.3 -163.2,-8.8 -171.7,-8.8 -171.7,-34.3 -163.2,-34.3 	"/>
</g>
<g transform="translate(22.5000185, 298.8781985) ">
	<polygon class="st0" points="4,-51.3 23.8,-51.3 23.8,-59.8 52.2,-59.8 52.2,-51.3 69.2,-51.3 69.2,-59.8 86.2,-59.8 86.2,-51.3 
		103.2,-51.3 103.2,-59.8 120.2,-59.8 120.2,-51.3 137.2,-51.3 137.2,-59.8 154.2,-59.8 154.2,-51.3 171.2,-51.3 171.2,-59.8 
		188.3,-59.8 188.3,-51.3 205.3,-51.3 205.3,-59.8 222.3,-59.8 222.3,-51.3 239.3,-51.3 239.3,-59.8 256.3,-59.8 256.3,-51.3 
		273.3,-51.3 273.3,-59.8 301.6,-59.8 301.6,-51.3 321.5,-51.3 321.5,-38.5 330,-38.5 330,-17.3 321.5,-17.3 321.5,-0.2 330,-0.2 
		330,16.8 321.5,16.8 321.5,33.8 330,33.8 330,50.8 321.5,50.8 321.5,67.8 330,67.8 330,84.8 321.5,84.8 321.5,101.8 330,101.8 
		330,118.8 321.5,118.8 321.5,135.8 330,135.8 330,152.8 321.5,152.8 321.5,169.8 330,169.8 330,186.8 321.5,186.8 321.5,203.8 
		330,203.8 330,220.9 321.5,220.9 321.5,237.9 330,237.9 330,254.9 321.5,254.9 321.5,271.9 330,271.9 330,288.9 321.5,288.9 
		321.5,305.9 330,305.9 330,322.9 321.5,322.9 321.5,339.9 330,339.9 330,356.9 321.5,356.9 321.5,373.9 330,373.9 330,390.9 
		321.5,390.9 321.5,407.9 330,407.9 330,424.9 321.5,424.9 321.5,442 330,442 330,459 321.5,459 321.5,476 330,476 330,493 
		321.5,493 321.5,510 330,510 330,527 321.5,527 321.5,544 330,544 330,561 321.5,561 321.5,578 330,578 330,599.3 321.5,599.3 
		321.5,612 301.6,612 301.6,620.5 273.3,620.5 273.3,612 256.3,612 256.3,620.5 239.3,620.5 239.3,612 222.3,612 222.3,620.5 
		205.3,620.5 205.3,612 188.3,612 188.3,620.5 171.2,620.5 171.2,612 154.2,612 154.2,620.5 137.2,620.5 137.2,612 120.2,612 
		120.2,620.5 103.2,620.5 103.2,612 86.2,612 86.2,620.5 69.2,620.5 69.2,612 52.2,612 52.2,620.5 23.8,620.5 23.8,612 4,612 
		4,599.3 -4.5,599.3 -4.5,578 4,578 4,561 -4.5,561 -4.5,544 4,544 4,527 -4.5,527 -4.5,510 4,510 4,493 -4.5,493 -4.5,476 4,476 
		4,459 -4.5,459 -4.5,442 4,442 4,424.9 -4.5,424.9 -4.5,407.9 4,407.9 4,390.9 -4.5,390.9 -4.5,373.9 4,373.9 4,356.9 -4.5,356.9 
		-4.5,339.9 4,339.9 4,322.9 -4.5,322.9 -4.5,305.9 4,305.9 4,288.9 -4.5,288.9 -4.5,271.9 4,271.9 4,254.9 -4.5,254.9 -4.5,237.9 
		4,237.9 4,220.9 -4.5,220.9 -4.5,203.8 4,203.8 4,186.8 -4.5,186.8 -4.5,169.8 4,169.8 4,152.8 -4.5,152.8 -4.5,135.8 4,135.8 
		4,118.8 -4.5,118.8 -4.5,101.8 4,101.8 4,84.8 -4.5,84.8 -4.5,67.8 4,67.8 4,50.8 -4.5,50.8 -4.5,33.8 4,33.8 4,16.8 -4.5,16.8 
		-4.5,-0.2 4,-0.2 4,-17.3 -4.5,-17.3 -4.5,-38.5 4,-38.5 	"/>
</g>
<g transform="translate(440.6105985, 298.8781985) ">
	<polygon class="st0" points="-79.6,-51.3 -59.8,-51.3 -59.8,-59.8 -31.4,-59.8 -31.4,-51.3 -14.4,-51.3 -14.4,-59.8 2.6,-59.8 
		2.6,-51.3 19.6,-51.3 19.6,-59.8 36.6,-59.8 36.6,-51.3 53.6,-51.3 53.6,-59.8 70.6,-59.8 70.6,-51.3 87.6,-51.3 87.6,-59.8 
		104.6,-59.8 104.6,-51.3 121.6,-51.3 121.6,-59.8 138.6,-59.8 138.6,-51.3 155.7,-51.3 155.7,-59.8 172.7,-59.8 172.7,-51.3 
		189.7,-51.3 189.7,-59.8 218,-59.8 218,-51.3 237.9,-51.3 237.9,-38.5 246.4,-38.5 246.4,-17.3 237.9,-17.3 237.9,-0.2 246.4,-0.2 
		246.4,16.8 237.9,16.8 237.9,33.8 246.4,33.8 246.4,50.8 237.9,50.8 237.9,67.8 246.4,67.8 246.4,84.8 237.9,84.8 237.9,101.8 
		246.4,101.8 246.4,118.8 237.9,118.8 237.9,135.8 246.4,135.8 246.4,152.8 237.9,152.8 237.9,169.8 246.4,169.8 246.4,186.8 
		237.9,186.8 237.9,203.8 246.4,203.8 246.4,220.9 237.9,220.9 237.9,237.9 246.4,237.9 246.4,254.9 237.9,254.9 237.9,271.9 
		246.4,271.9 246.4,288.9 237.9,288.9 237.9,305.9 246.4,305.9 246.4,322.9 237.9,322.9 237.9,339.9 246.4,339.9 246.4,356.9 
		237.9,356.9 237.9,373.9 246.4,373.9 246.4,390.9 237.9,390.9 237.9,407.9 246.4,407.9 246.4,424.9 237.9,424.9 237.9,442 
		246.4,442 246.4,459 237.9,459 237.9,476 246.4,476 246.4,493 237.9,493 237.9,510 246.4,510 246.4,527 237.9,527 237.9,544 
		246.4,544 246.4,561 237.9,561 237.9,578 246.4,578 246.4,599.3 237.9,599.3 237.9,612 218,612 218,620.5 189.7,620.5 189.7,612 
		172.7,612 172.7,620.5 155.7,620.5 155.7,612 138.6,612 138.6,620.5 121.6,620.5 121.6,612 104.6,612 104.6,620.5 87.6,620.5 
		87.6,612 70.6,612 70.6,620.5 53.6,620.5 53.6,612 36.6,612 36.6,620.5 19.6,620.5 19.6,612 2.6,612 2.6,620.5 -14.4,620.5 
		-14.4,612 -31.4,612 -31.4,620.5 -59.8,620.5 -59.8,612 -79.6,612 -79.6,599.3 -88.1,599.3 -88.1,578 -79.6,578 -79.6,561 
		-88.1,561 -88.1,544 -79.6,544 -79.6,527 -88.1,527 -88.1,510 -79.6,510 -79.6,493 -88.1,493 -88.1,476 -79.6,476 -79.6,459 
		-88.1,459 -88.1,442 -79.6,442 -79.6,424.9 -88.1,424.9 -88.1,407.9 -79.6,407.9 -79.6,390.9 -88.1,390.9 -88.1,373.9 -79.6,373.9 
		-79.6,356.9 -88.1,356.9 -88.1,339.9 -79.6,339.9 -79.6,322.9 -88.1,322.9 -88.1,305.9 -79.6,305.9 -79.6,288.9 -88.1,288.9 
		-88.1,271.9 -79.6,271.9 -79.6,254.9 -88.1,254.9 -88.1,237.9 -79.6,237.9 -79.6,220.9 -88.1,220.9 -88.1,203.8 -79.6,203.8 
		-79.6,186.8 -88.1,186.8 -88.1,169.8 -79.6,169.8 -79.6,152.8 -88.1,152.8 -88.1,135.8 -79.6,135.8 -79.6,118.8 -88.1,118.8 
		-88.1,101.8 -79.6,101.8 -79.6,84.8 -88.1,84.8 -88.1,67.8 -79.6,67.8 -79.6,50.8 -88.1,50.8 -88.1,33.8 -79.6,33.8 -79.6,16.8 
		-88.1,16.8 -88.1,-0.2 -79.6,-0.2 -79.6,-17.3 -88.1,-17.3 -88.1,-38.5 -79.6,-38.5 	"/>
</g>
<g>
	<circle class="st1" cx="816.5" cy="284.7" r="5.3"/>
	<path class="st1" d="M897.6,296.7c-10,0-16.7,2.3-23.3,11.3l-34,0.2c-4.8-7.9-13.9-11.5-23.8-11.5c-15.1,0-27.4,12.3-27.4,27.4
		c0,15.1,12.3,27.4,27.4,27.4c10,0,19.3-5.3,24.6-11.6h33c3.3,6.4,13.6,11.5,23.5,11.5c15.1,0,27.4-12.3,27.4-27.4
		C925,309,912.8,296.7,897.6,296.7z"/>
	<circle class="st1" cx="897.6" cy="284.7" r="5.3"/>
	<circle class="st1" cx="816.5" cy="363.6" r="5.3"/>
	<circle class="st1" cx="897.6" cy="363.6" r="5.3"/>
</g>
<g>
	<circle class="st1" cx="1156.6" cy="63.6" r="5.3"/>
	<path class="st1" d="M1237.8,75.6c-10,0-16.7,2.3-23.3,11.3l-34,0.2c-4.8-7.9-13.9-11.5-23.8-11.5c-15.1,0-27.4,12.3-27.4,27.4
		c0,15.1,12.3,27.4,27.4,27.4c10,0,19.3-5.3,24.6-11.6h33c3.3,6.4,13.6,11.5,23.5,11.5c15.1,0,27.4-12.3,27.4-27.4
		C1265.2,87.9,1252.9,75.6,1237.8,75.6z"/>
	<circle class="st1" cx="1237.8" cy="63.6" r="5.3"/>
	<circle class="st1" cx="1156.6" cy="142.5" r="5.3"/>
	<circle class="st1" cx="1237.8" cy="142.5" r="5.3"/>
</g>
<g>
	<circle class="st1" cx="1239.4" cy="324" r="22.7"/>
	<circle class="st1" cx="1215.4" cy="304.2" r="4.6"/>
	<circle class="st1" cx="1264.2" cy="340.6" r="4.6"/>
</g>
<g>
	<circle class="st1" cx="814.9" cy="103.9" r="22.7"/>
	<circle class="st1" cx="838.9" cy="84.1" r="4.6"/>
	<circle class="st1" cx="790.2" cy="120.5" r="4.6"/>
</g>
<g>
	<circle class="st1" cx="520.1" cy="103.9" r="22.7"/>
	<circle class="st1" cx="544.1" cy="84.1" r="4.6"/>
	<circle class="st1" cx="495.4" cy="120.5" r="4.6"/>
</g>
<g>
	<line class="st2" x1="1067.3" y1="396" x2="1053.3" y2="404.4"/>
	<line class="st2" x1="1053.3" y1="404.4" x2="1053.4" y2="417.7"/>
	<line class="st2" x1="1081.8" y1="417.7" x2="1081.5" y2="403.9"/>
	<line class="st2" x1="1062.4" y1="370.4" x2="1048.2" y2="362.4"/>
	<line class="st2" x1="1048.2" y1="362.4" x2="1033.9" y2="370.9"/>
	<line class="st2" x1="1033.9" y1="370.9" x2="1034.3" y2="387.2"/>
	<line class="st2" x1="1034.3" y1="387.2" x2="1048.5" y2="395.2"/>
	<line class="st2" x1="1048.5" y1="395.2" x2="1062.7" y2="386.7"/>
	<line class="st2" x1="1062.7" y1="386.7" x2="1062.4" y2="370.4"/>
	<line class="st2" x1="967.4" y1="403.9" x2="953" y2="396"/>
	<line class="st2" x1="953" y1="396" x2="940.5" y2="403.5"/>
	<line class="st2" x1="940.5" y1="417.7" x2="940.5" y2="403.5"/>
	<line class="st2" x1="1138.8" y1="386.7" x2="1138.5" y2="370.4"/>
	<line class="st2" x1="1138.5" y1="370.4" x2="1124.3" y2="362.4"/>
	<line class="st2" x1="1124.3" y1="362.4" x2="1110.2" y2="370.9"/>
	<line class="st2" x1="1110.2" y1="370.9" x2="1110.4" y2="387.2"/>
	<line class="st2" x1="1110.4" y1="387.2" x2="1124.8" y2="395.2"/>
	<line class="st2" x1="1124.8" y1="395.2" x2="1138.8" y2="386.7"/>
	<line class="st2" x1="1119.8" y1="417.7" x2="1119.7" y2="403.9"/>
	<line class="st2" x1="1119.7" y1="403.9" x2="1105.3" y2="396"/>
	<line class="st2" x1="1105.3" y1="396" x2="1091.3" y2="404.4"/>
	<line class="st2" x1="1091.3" y1="404.4" x2="1091.5" y2="417.7"/>
	<line class="st2" x1="1119.8" y1="417.7" x2="1091.5" y2="417.7"/>
	<line class="st2" x1="1176.8" y1="386.7" x2="1176.7" y2="370.4"/>
	<line class="st2" x1="1176.7" y1="370.4" x2="1162.3" y2="362.4"/>
	<line class="st2" x1="1162.3" y1="362.4" x2="1148.3" y2="370.9"/>
	<line class="st2" x1="1148.3" y1="370.9" x2="1148.4" y2="387.2"/>
	<line class="st2" x1="1148.4" y1="387.2" x2="1162.8" y2="395.2"/>
	<line class="st2" x1="1162.8" y1="395.2" x2="1176.8" y2="386.7"/>
	<line class="st2" x1="1192.4" y1="402.1" x2="1181.4" y2="396"/>
	<line class="st2" x1="1181.4" y1="396" x2="1167.4" y2="404.4"/>
	<line class="st2" x1="1167.4" y1="404.4" x2="1167.7" y2="417.7"/>
	<line class="st2" x1="1192.4" y1="417.7" x2="1167.7" y2="417.7"/>
	<line class="st2" x1="1192.4" y1="417.7" x2="1192.4" y2="402.1"/>
	<line class="st2" x1="1157.9" y1="417.7" x2="1157.8" y2="403.9"/>
	<line class="st2" x1="1157.8" y1="403.9" x2="1143.4" y2="396"/>
	<line class="st2" x1="1143.4" y1="396" x2="1129.3" y2="404.4"/>
	<line class="st2" x1="1129.3" y1="404.4" x2="1129.5" y2="417.7"/>
	<line class="st2" x1="1157.9" y1="417.7" x2="1129.5" y2="417.7"/>
	<line class="st2" x1="1081.8" y1="289.9" x2="1081.5" y2="273.5"/>
	<line class="st2" x1="1081.5" y1="273.5" x2="1070.7" y2="267.5"/>
	<line class="st2" x1="1070.7" y1="267.5" x2="1064.2" y2="267.5"/>
	<line class="st2" x1="1064.2" y1="267.5" x2="1053.3" y2="274"/>
	<line class="st2" x1="1053.3" y1="274" x2="1053.5" y2="290.4"/>
	<line class="st2" x1="1053.5" y1="290.4" x2="1067.8" y2="298.3"/>
	<line class="st2" x1="1067.8" y1="298.3" x2="1081.8" y2="289.9"/>
	<line class="st2" x1="1119.9" y1="289.9" x2="1119.7" y2="273.5"/>
	<line class="st2" x1="1119.7" y1="273.5" x2="1108.8" y2="267.5"/>
	<line class="st2" x1="1108.8" y1="267.5" x2="1102.2" y2="267.5"/>
	<line class="st2" x1="1102.2" y1="267.5" x2="1091.3" y2="274"/>
	<line class="st2" x1="1091.3" y1="274" x2="1091.5" y2="290.4"/>
	<line class="st2" x1="1091.5" y1="290.4" x2="1105.8" y2="298.3"/>
	<line class="st2" x1="1105.8" y1="298.3" x2="1119.9" y2="289.9"/>
	<line class="st2" x1="1138.8" y1="321.5" x2="1138.5" y2="305.2"/>
	<line class="st2" x1="1138.5" y1="305.2" x2="1124.3" y2="297.2"/>
	<line class="st2" x1="1124.3" y1="297.2" x2="1110.2" y2="305.7"/>
	<line class="st2" x1="1110.2" y1="305.7" x2="1110.4" y2="322"/>
	<line class="st2" x1="1110.4" y1="322" x2="1124.8" y2="330"/>
	<line class="st2" x1="1124.8" y1="330" x2="1138.8" y2="321.5"/>
	<line class="st2" x1="1157.9" y1="355.1" x2="1157.8" y2="338.7"/>
	<line class="st2" x1="1157.8" y1="338.7" x2="1143.4" y2="330.8"/>
	<line class="st2" x1="1143.4" y1="330.8" x2="1129.3" y2="339.2"/>
	<line class="st2" x1="1129.3" y1="339.2" x2="1129.7" y2="355.6"/>
	<line class="st2" x1="1129.7" y1="355.6" x2="1143.9" y2="363.5"/>
	<line class="st2" x1="1143.9" y1="363.5" x2="1157.9" y2="355.1"/>
	<line class="st2" x1="996" y1="305.7" x2="996.2" y2="322"/>
	<line class="st2" x1="996.2" y1="322" x2="1010.5" y2="330"/>
	<line class="st2" x1="1010.5" y1="330" x2="1024.7" y2="321.5"/>
	<line class="st2" x1="1024.7" y1="321.5" x2="1024.3" y2="305.2"/>
	<line class="st2" x1="1024.3" y1="305.2" x2="1010" y2="297.2"/>
	<line class="st2" x1="1010" y1="297.2" x2="996" y2="305.7"/>
	<line class="st2" x1="949.9" y1="322.2" x2="949.7" y2="305.9"/>
	<line class="st2" x1="949.7" y1="305.9" x2="940.5" y2="300.9"/>
	<line class="st2" x1="940.5" y1="327.8" x2="940.5" y2="300.9"/>
	<line class="st2" x1="940.5" y1="327.8" x2="949.9" y2="322.2"/>
	<line class="st2" x1="949.5" y1="386.9" x2="949.4" y2="370.6"/>
	<line class="st2" x1="949.4" y1="370.6" x2="940.5" y2="365.7"/>
	<line class="st2" x1="940.5" y1="392.3" x2="940.5" y2="365.7"/>
	<line class="st2" x1="940.5" y1="392.3" x2="949.5" y2="386.9"/>
	<line class="st2" x1="1192.4" y1="367.2" x2="1186.3" y2="370.9"/>
	<line class="st2" x1="1186.3" y1="370.9" x2="1186.5" y2="387.2"/>
	<line class="st2" x1="1186.5" y1="387.2" x2="1192.4" y2="390.5"/>
	<line class="st2" x1="1192.4" y1="390.5" x2="1192.4" y2="367.2"/>
	<line class="st2" x1="1192.4" y1="302" x2="1186.3" y2="305.7"/>
	<line class="st2" x1="1186.3" y1="305.7" x2="1186.5" y2="322"/>
	<line class="st2" x1="1186.5" y1="322" x2="1192.4" y2="325.3"/>
	<line class="st2" x1="1192.4" y1="325.3" x2="1192.4" y2="302"/>
	<line class="st2" x1="1192.4" y1="336.9" x2="1181.4" y2="330.8"/>
	<line class="st2" x1="1181.4" y1="330.8" x2="1167.4" y2="339.2"/>
	<line class="st2" x1="1167.4" y1="339.2" x2="1167.8" y2="355.6"/>
	<line class="st2" x1="1167.8" y1="355.6" x2="1182" y2="363.5"/>
	<line class="st2" x1="1182" y1="363.5" x2="1192.4" y2="357.3"/>
	<line class="st2" x1="1192.4" y1="357.3" x2="1192.4" y2="336.9"/>
	<line class="st2" x1="1176.8" y1="321.5" x2="1176.7" y2="305.2"/>
	<line class="st2" x1="1176.7" y1="305.2" x2="1162.3" y2="297.2"/>
	<line class="st2" x1="1162.3" y1="297.2" x2="1148.3" y2="305.7"/>
	<line class="st2" x1="1148.3" y1="305.7" x2="1148.4" y2="322"/>
	<line class="st2" x1="1148.4" y1="322" x2="1162.8" y2="330"/>
	<line class="st2" x1="1162.8" y1="330" x2="1176.8" y2="321.5"/>
	<line class="st2" x1="1157.9" y1="289.9" x2="1157.8" y2="273.5"/>
	<line class="st2" x1="1157.8" y1="273.5" x2="1146.8" y2="267.5"/>
	<line class="st2" x1="1146.8" y1="267.5" x2="1140.3" y2="267.5"/>
	<line class="st2" x1="1140.3" y1="267.5" x2="1129.3" y2="274"/>
	<line class="st2" x1="1129.3" y1="274" x2="1129.7" y2="290.4"/>
	<line class="st2" x1="1129.7" y1="290.4" x2="1143.9" y2="298.3"/>
	<line class="st2" x1="1143.9" y1="298.3" x2="1157.9" y2="289.9"/>
	<line class="st2" x1="1192.4" y1="271.7" x2="1184.8" y2="267.5"/>
	<line class="st2" x1="1184.8" y1="267.5" x2="1178.3" y2="267.5"/>
	<line class="st2" x1="1178.3" y1="267.5" x2="1167.4" y2="274"/>
	<line class="st2" x1="1167.4" y1="274" x2="1167.8" y2="290.4"/>
	<line class="st2" x1="1167.8" y1="290.4" x2="1182" y2="298.3"/>
	<line class="st2" x1="1182" y1="298.3" x2="1192.4" y2="292.1"/>
	<line class="st2" x1="1192.4" y1="292.1" x2="1192.4" y2="271.7"/>
	<line class="st2" x1="1024.7" y1="386.7" x2="1024.3" y2="370.4"/>
	<line class="st2" x1="1024.3" y1="370.4" x2="1010" y2="362.4"/>
	<line class="st2" x1="1010" y1="362.4" x2="996" y2="370.9"/>
	<line class="st2" x1="996" y1="370.9" x2="996.2" y2="387.2"/>
	<line class="st2" x1="996.2" y1="387.2" x2="1010.5" y2="395.2"/>
	<line class="st2" x1="1010.5" y1="395.2" x2="1024.7" y2="386.7"/>
	<line class="st2" x1="1043.8" y1="355.1" x2="1043.5" y2="338.7"/>
	<line class="st2" x1="1043.5" y1="338.7" x2="1029.3" y2="330.8"/>
	<line class="st2" x1="1029.3" y1="330.8" x2="1015.2" y2="339.2"/>
	<line class="st2" x1="1015.2" y1="339.2" x2="1015.5" y2="355.6"/>
	<line class="st2" x1="1015.5" y1="355.6" x2="1029.8" y2="363.5"/>
	<line class="st2" x1="1029.8" y1="363.5" x2="1043.8" y2="355.1"/>
	<line class="st2" x1="1005.8" y1="355.1" x2="1005.5" y2="338.7"/>
	<line class="st2" x1="1005.5" y1="338.7" x2="991.2" y2="330.8"/>
	<line class="st2" x1="991.2" y1="330.8" x2="977" y2="339.2"/>
	<line class="st2" x1="977" y1="339.2" x2="977.4" y2="355.6"/>
	<line class="st2" x1="977.4" y1="355.6" x2="991.7" y2="363.5"/>
	<line class="st2" x1="991.7" y1="363.5" x2="1005.8" y2="355.1"/>
	<line class="st2" x1="1043.8" y1="417.7" x2="1043.5" y2="403.9"/>
	<line class="st2" x1="1043.5" y1="403.9" x2="1029.3" y2="396"/>
	<line class="st2" x1="1029.3" y1="396" x2="1015.2" y2="404.4"/>
	<line class="st2" x1="1015.2" y1="404.4" x2="1015.4" y2="417.7"/>
	<line class="st2" x1="1043.8" y1="417.7" x2="1015.4" y2="417.7"/>
	<line class="st2" x1="1005.7" y1="417.7" x2="1005.5" y2="403.9"/>
	<line class="st2" x1="1005.5" y1="403.9" x2="991.2" y2="396"/>
	<line class="st2" x1="991.2" y1="396" x2="977" y2="404.4"/>
	<line class="st2" x1="977" y1="404.4" x2="977.4" y2="417.7"/>
	<line class="st2" x1="1005.7" y1="417.7" x2="977.4" y2="417.7"/>
	<line class="st2" x1="986.5" y1="321.5" x2="986.3" y2="305.2"/>
	<line class="st2" x1="986.3" y1="305.2" x2="972" y2="297.2"/>
	<line class="st2" x1="972" y1="297.2" x2="957.9" y2="305.7"/>
	<line class="st2" x1="957.9" y1="305.7" x2="958.2" y2="322"/>
	<line class="st2" x1="958.2" y1="322" x2="972.5" y2="330"/>
	<line class="st2" x1="972.5" y1="330" x2="986.5" y2="321.5"/>
	<line class="st2" x1="967.7" y1="355.1" x2="967.4" y2="338.7"/>
	<line class="st2" x1="967.4" y1="338.7" x2="953" y2="330.8"/>
	<line class="st2" x1="953" y1="330.8" x2="940.5" y2="338.3"/>
	<line class="st2" x1="940.5" y1="356.3" x2="940.5" y2="338.3"/>
	<line class="st2" x1="940.5" y1="356.3" x2="953.7" y2="363.5"/>
	<line class="st2" x1="953.7" y1="363.5" x2="967.7" y2="355.1"/>
	<line class="st2" x1="986.5" y1="386.7" x2="986.3" y2="370.4"/>
	<line class="st2" x1="986.3" y1="370.4" x2="972" y2="362.4"/>
	<line class="st2" x1="972" y1="362.4" x2="957.9" y2="370.9"/>
	<line class="st2" x1="957.9" y1="370.9" x2="958.2" y2="387.2"/>
	<line class="st2" x1="958.2" y1="387.2" x2="972.5" y2="395.2"/>
	<line class="st2" x1="972.5" y1="395.2" x2="986.5" y2="386.7"/>
	<line class="st2" x1="967.5" y1="417.7" x2="967.4" y2="403.9"/>
	<line class="st2" x1="967.5" y1="417.7" x2="940.5" y2="417.7"/>
	<line class="st2" x1="1081.5" y1="403.9" x2="1067.3" y2="396"/>
	<line class="st2" x1="1081.8" y1="417.7" x2="1053.4" y2="417.7"/>
	<line class="st2" x1="1100.8" y1="321.5" x2="1100.4" y2="305.2"/>
	<line class="st2" x1="1100.4" y1="305.2" x2="1086.2" y2="297.2"/>
	<line class="st2" x1="1086.2" y1="297.2" x2="1072" y2="305.7"/>
	<line class="st2" x1="1072" y1="305.7" x2="1072.3" y2="322"/>
	<line class="st2" x1="1072.3" y1="322" x2="1086.7" y2="330"/>
	<line class="st2" x1="1086.7" y1="330" x2="1100.8" y2="321.5"/>
	<line class="st2" x1="1119.9" y1="355.1" x2="1119.7" y2="338.7"/>
	<line class="st2" x1="1119.7" y1="338.7" x2="1105.3" y2="330.8"/>
	<line class="st2" x1="1105.3" y1="330.8" x2="1091.3" y2="339.2"/>
	<line class="st2" x1="1091.3" y1="339.2" x2="1091.5" y2="355.6"/>
	<line class="st2" x1="1091.5" y1="355.6" x2="1105.8" y2="363.5"/>
	<line class="st2" x1="1105.8" y1="363.5" x2="1119.9" y2="355.1"/>
	<line class="st2" x1="1100.8" y1="386.7" x2="1100.4" y2="370.4"/>
	<line class="st2" x1="1100.4" y1="370.4" x2="1086.2" y2="362.4"/>
	<line class="st2" x1="1086.2" y1="362.4" x2="1072" y2="370.9"/>
	<line class="st2" x1="1072" y1="370.9" x2="1072.3" y2="387.2"/>
	<line class="st2" x1="1072.3" y1="387.2" x2="1086.7" y2="395.2"/>
	<line class="st2" x1="1086.7" y1="395.2" x2="1100.8" y2="386.7"/>
	<line class="st2" x1="1005.8" y1="289.9" x2="1005.5" y2="273.5"/>
	<line class="st2" x1="1005.5" y1="273.5" x2="994.5" y2="267.5"/>
	<line class="st2" x1="994.5" y1="267.5" x2="988" y2="267.5"/>
	<line class="st2" x1="988" y1="267.5" x2="977" y2="274"/>
	<line class="st2" x1="977" y1="274" x2="977.4" y2="290.4"/>
	<line class="st2" x1="977.4" y1="290.4" x2="991.7" y2="298.3"/>
	<line class="st2" x1="991.7" y1="298.3" x2="1005.8" y2="289.9"/>
	<line class="st2" x1="1043.8" y1="289.9" x2="1043.5" y2="273.5"/>
	<line class="st2" x1="1043.5" y1="273.5" x2="1032.7" y2="267.5"/>
	<line class="st2" x1="1032.7" y1="267.5" x2="1026" y2="267.5"/>
	<line class="st2" x1="1026" y1="267.5" x2="1015.2" y2="274"/>
	<line class="st2" x1="1015.2" y1="274" x2="1015.5" y2="290.4"/>
	<line class="st2" x1="1015.5" y1="290.4" x2="1029.8" y2="298.3"/>
	<line class="st2" x1="1029.8" y1="298.3" x2="1043.8" y2="289.9"/>
	<line class="st2" x1="1062.7" y1="321.5" x2="1062.4" y2="305.2"/>
	<line class="st2" x1="1062.4" y1="305.2" x2="1048.2" y2="297.2"/>
	<line class="st2" x1="1048.2" y1="297.2" x2="1033.9" y2="305.7"/>
	<line class="st2" x1="1033.9" y1="305.7" x2="1034.3" y2="322"/>
	<line class="st2" x1="1034.3" y1="322" x2="1048.5" y2="330"/>
	<line class="st2" x1="1048.5" y1="330" x2="1062.7" y2="321.5"/>
	<line class="st2" x1="1081.8" y1="355.1" x2="1081.5" y2="338.7"/>
	<line class="st2" x1="1081.5" y1="338.7" x2="1067.3" y2="330.8"/>
	<line class="st2" x1="1067.3" y1="330.8" x2="1053.3" y2="339.2"/>
	<line class="st2" x1="1053.3" y1="339.2" x2="1053.5" y2="355.6"/>
	<line class="st2" x1="1053.5" y1="355.6" x2="1067.8" y2="363.5"/>
	<line class="st2" x1="1067.8" y1="363.5" x2="1081.8" y2="355.1"/>
	<line class="st2" x1="967.7" y1="289.9" x2="967.4" y2="273.5"/>
	<line class="st2" x1="967.4" y1="273.5" x2="956.5" y2="267.5"/>
	<line class="st2" x1="956.5" y1="267.5" x2="950" y2="267.5"/>
	<line class="st2" x1="950" y1="267.5" x2="940.5" y2="273.1"/>
	<line class="st2" x1="940.5" y1="291.1" x2="940.5" y2="273.1"/>
	<line class="st2" x1="940.5" y1="291.1" x2="953.7" y2="298.3"/>
	<line class="st2" x1="953.7" y1="298.3" x2="967.7" y2="289.9"/>
</g>
<g>
	<line class="st2" x1="1000.8" y1="183" x2="986.8" y2="174.6"/>
	<line class="st2" x1="1000.6" y1="196.3" x2="1000.8" y2="183"/>
	<line class="st2" x1="972.5" y1="182.5" x2="972.2" y2="196.3"/>
	<line class="st2" x1="1005.9" y1="141" x2="991.6" y2="149"/>
	<line class="st2" x1="1020.1" y1="149.5" x2="1005.9" y2="141"/>
	<line class="st2" x1="1019.8" y1="165.8" x2="1020.1" y2="149.5"/>
	<line class="st2" x1="1005.5" y1="173.8" x2="1019.8" y2="165.8"/>
	<line class="st2" x1="991.4" y1="165.3" x2="1005.5" y2="173.8"/>
	<line class="st2" x1="991.6" y1="149" x2="991.4" y2="165.3"/>
	<line class="st2" x1="1101" y1="174.6" x2="1086.7" y2="182.5"/>
	<line class="st2" x1="1113.5" y1="182.1" x2="1101" y2="174.6"/>
	<line class="st2" x1="1113.5" y1="182.1" x2="1113.5" y2="196.3"/>
	<line class="st2" x1="915.5" y1="149" x2="915.2" y2="165.3"/>
	<line class="st2" x1="929.8" y1="141" x2="915.5" y2="149"/>
	<line class="st2" x1="943.9" y1="149.5" x2="929.8" y2="141"/>
	<line class="st2" x1="943.6" y1="165.8" x2="943.9" y2="149.5"/>
	<line class="st2" x1="929.3" y1="173.8" x2="943.6" y2="165.8"/>
	<line class="st2" x1="915.2" y1="165.3" x2="929.3" y2="173.8"/>
	<line class="st2" x1="934.4" y1="182.5" x2="934.2" y2="196.3"/>
	<line class="st2" x1="948.7" y1="174.6" x2="934.4" y2="182.5"/>
	<line class="st2" x1="962.7" y1="183" x2="948.7" y2="174.6"/>
	<line class="st2" x1="962.5" y1="196.3" x2="962.7" y2="183"/>
	<line class="st2" x1="962.5" y1="196.3" x2="934.2" y2="196.3"/>
	<line class="st2" x1="877.4" y1="149" x2="877.2" y2="165.3"/>
	<line class="st2" x1="891.7" y1="141" x2="877.4" y2="149"/>
	<line class="st2" x1="905.8" y1="149.5" x2="891.7" y2="141"/>
	<line class="st2" x1="905.6" y1="165.8" x2="905.8" y2="149.5"/>
	<line class="st2" x1="891.3" y1="173.8" x2="905.6" y2="165.8"/>
	<line class="st2" x1="877.2" y1="165.3" x2="891.3" y2="173.8"/>
	<line class="st2" x1="872.6" y1="174.6" x2="861.6" y2="180.7"/>
	<line class="st2" x1="886.6" y1="183" x2="872.6" y2="174.6"/>
	<line class="st2" x1="886.4" y1="196.3" x2="886.6" y2="183"/>
	<line class="st2" x1="886.4" y1="196.3" x2="861.6" y2="196.3"/>
	<line class="st2" x1="861.6" y1="180.7" x2="861.6" y2="196.3"/>
	<line class="st2" x1="896.3" y1="182.5" x2="896.1" y2="196.3"/>
	<line class="st2" x1="910.6" y1="174.6" x2="896.3" y2="182.5"/>
	<line class="st2" x1="924.7" y1="183" x2="910.6" y2="174.6"/>
	<line class="st2" x1="924.5" y1="196.3" x2="924.7" y2="183"/>
	<line class="st2" x1="924.5" y1="196.3" x2="896.1" y2="196.3"/>
	<line class="st2" x1="972.5" y1="52.1" x2="972.2" y2="68.5"/>
	<line class="st2" x1="983.4" y1="46.1" x2="972.5" y2="52.1"/>
	<line class="st2" x1="989.9" y1="46.1" x2="983.4" y2="46.1"/>
	<line class="st2" x1="1000.8" y1="52.6" x2="989.9" y2="46.1"/>
	<line class="st2" x1="1000.5" y1="69" x2="1000.8" y2="52.6"/>
	<line class="st2" x1="986.2" y1="76.9" x2="1000.5" y2="69"/>
	<line class="st2" x1="972.2" y1="68.5" x2="986.2" y2="76.9"/>
	<line class="st2" x1="934.4" y1="52.1" x2="934.1" y2="68.5"/>
	<line class="st2" x1="945.3" y1="46.1" x2="934.4" y2="52.1"/>
	<line class="st2" x1="951.9" y1="46.1" x2="945.3" y2="46.1"/>
	<line class="st2" x1="962.7" y1="52.6" x2="951.9" y2="46.1"/>
	<line class="st2" x1="962.5" y1="69" x2="962.7" y2="52.6"/>
	<line class="st2" x1="948.2" y1="76.9" x2="962.5" y2="69"/>
	<line class="st2" x1="934.1" y1="68.5" x2="948.2" y2="76.9"/>
	<line class="st2" x1="915.5" y1="83.8" x2="915.2" y2="100.1"/>
	<line class="st2" x1="929.8" y1="75.8" x2="915.5" y2="83.8"/>
	<line class="st2" x1="943.9" y1="84.3" x2="929.8" y2="75.8"/>
	<line class="st2" x1="943.6" y1="100.6" x2="943.9" y2="84.3"/>
	<line class="st2" x1="929.3" y1="108.6" x2="943.6" y2="100.6"/>
	<line class="st2" x1="915.2" y1="100.1" x2="929.3" y2="108.6"/>
	<line class="st2" x1="896.3" y1="117.3" x2="896.1" y2="133.7"/>
	<line class="st2" x1="910.6" y1="109.4" x2="896.3" y2="117.3"/>
	<line class="st2" x1="924.7" y1="117.8" x2="910.6" y2="109.4"/>
	<line class="st2" x1="924.4" y1="134.2" x2="924.7" y2="117.8"/>
	<line class="st2" x1="910.1" y1="142.1" x2="924.4" y2="134.2"/>
	<line class="st2" x1="896.1" y1="133.7" x2="910.1" y2="142.1"/>
	<line class="st2" x1="1057.9" y1="100.6" x2="1058.1" y2="84.3"/>
	<line class="st2" x1="1043.5" y1="108.6" x2="1057.9" y2="100.6"/>
	<line class="st2" x1="1029.4" y1="100.1" x2="1043.5" y2="108.6"/>
	<line class="st2" x1="1029.7" y1="83.8" x2="1029.4" y2="100.1"/>
	<line class="st2" x1="1044" y1="75.8" x2="1029.7" y2="83.8"/>
	<line class="st2" x1="1058.1" y1="84.3" x2="1044" y2="75.8"/>
	<line class="st2" x1="1104.4" y1="84.5" x2="1104.2" y2="100.8"/>
	<line class="st2" x1="1113.5" y1="79.5" x2="1104.4" y2="84.5"/>
	<line class="st2" x1="1113.5" y1="79.5" x2="1113.5" y2="106.4"/>
	<line class="st2" x1="1104.2" y1="100.8" x2="1113.5" y2="106.4"/>
	<line class="st2" x1="1104.7" y1="149.2" x2="1104.5" y2="165.5"/>
	<line class="st2" x1="1113.5" y1="144.3" x2="1104.7" y2="149.2"/>
	<line class="st2" x1="1113.5" y1="144.3" x2="1113.5" y2="170.9"/>
	<line class="st2" x1="1104.5" y1="165.5" x2="1113.5" y2="170.9"/>
	<line class="st2" x1="867.8" y1="149.5" x2="861.6" y2="145.8"/>
	<line class="st2" x1="867.5" y1="165.8" x2="867.8" y2="149.5"/>
	<line class="st2" x1="861.6" y1="169.1" x2="867.5" y2="165.8"/>
	<line class="st2" x1="861.6" y1="145.8" x2="861.6" y2="169.1"/>
	<line class="st2" x1="867.8" y1="84.3" x2="861.6" y2="80.6"/>
	<line class="st2" x1="867.5" y1="100.6" x2="867.8" y2="84.3"/>
	<line class="st2" x1="861.6" y1="103.9" x2="867.5" y2="100.6"/>
	<line class="st2" x1="861.6" y1="80.6" x2="861.6" y2="103.9"/>
	<line class="st2" x1="872.6" y1="109.4" x2="861.6" y2="115.5"/>
	<line class="st2" x1="886.6" y1="117.8" x2="872.6" y2="109.4"/>
	<line class="st2" x1="886.3" y1="134.2" x2="886.6" y2="117.8"/>
	<line class="st2" x1="872" y1="142.1" x2="886.3" y2="134.2"/>
	<line class="st2" x1="861.6" y1="135.9" x2="872" y2="142.1"/>
	<line class="st2" x1="861.6" y1="115.5" x2="861.6" y2="135.9"/>
	<line class="st2" x1="877.4" y1="83.8" x2="877.2" y2="100.1"/>
	<line class="st2" x1="891.7" y1="75.8" x2="877.4" y2="83.8"/>
	<line class="st2" x1="905.8" y1="84.3" x2="891.7" y2="75.8"/>
	<line class="st2" x1="905.6" y1="100.6" x2="905.8" y2="84.3"/>
	<line class="st2" x1="891.3" y1="108.6" x2="905.6" y2="100.6"/>
	<line class="st2" x1="877.2" y1="100.1" x2="891.3" y2="108.6"/>
	<line class="st2" x1="896.3" y1="52.1" x2="896.1" y2="68.5"/>
	<line class="st2" x1="907.2" y1="46.1" x2="896.3" y2="52.1"/>
	<line class="st2" x1="913.8" y1="46.1" x2="907.2" y2="46.1"/>
	<line class="st2" x1="924.7" y1="52.6" x2="913.8" y2="46.1"/>
	<line class="st2" x1="924.4" y1="69" x2="924.7" y2="52.6"/>
	<line class="st2" x1="910.1" y1="76.9" x2="924.4" y2="69"/>
	<line class="st2" x1="896.1" y1="68.5" x2="910.1" y2="76.9"/>
	<line class="st2" x1="869.2" y1="46.1" x2="861.6" y2="50.3"/>
	<line class="st2" x1="875.7" y1="46.1" x2="869.2" y2="46.1"/>
	<line class="st2" x1="886.6" y1="52.6" x2="875.7" y2="46.1"/>
	<line class="st2" x1="886.3" y1="69" x2="886.6" y2="52.6"/>
	<line class="st2" x1="872" y1="76.9" x2="886.3" y2="69"/>
	<line class="st2" x1="861.6" y1="70.7" x2="872" y2="76.9"/>
	<line class="st2" x1="861.6" y1="50.3" x2="861.6" y2="70.7"/>
	<line class="st2" x1="1029.7" y1="149" x2="1029.4" y2="165.3"/>
	<line class="st2" x1="1044" y1="141" x2="1029.7" y2="149"/>
	<line class="st2" x1="1058.1" y1="149.5" x2="1044" y2="141"/>
	<line class="st2" x1="1057.9" y1="165.8" x2="1058.1" y2="149.5"/>
	<line class="st2" x1="1043.5" y1="173.8" x2="1057.9" y2="165.8"/>
	<line class="st2" x1="1029.4" y1="165.3" x2="1043.5" y2="173.8"/>
	<line class="st2" x1="1010.5" y1="117.3" x2="1010.3" y2="133.7"/>
	<line class="st2" x1="1024.8" y1="109.4" x2="1010.5" y2="117.3"/>
	<line class="st2" x1="1038.9" y1="117.8" x2="1024.8" y2="109.4"/>
	<line class="st2" x1="1038.6" y1="134.2" x2="1038.9" y2="117.8"/>
	<line class="st2" x1="1024.3" y1="142.1" x2="1038.6" y2="134.2"/>
	<line class="st2" x1="1010.3" y1="133.7" x2="1024.3" y2="142.1"/>
	<line class="st2" x1="1048.6" y1="117.3" x2="1048.3" y2="133.7"/>
	<line class="st2" x1="1062.9" y1="109.4" x2="1048.6" y2="117.3"/>
	<line class="st2" x1="1077" y1="117.8" x2="1062.9" y2="109.4"/>
	<line class="st2" x1="1076.7" y1="134.2" x2="1077" y2="117.8"/>
	<line class="st2" x1="1062.4" y1="142.1" x2="1076.7" y2="134.2"/>
	<line class="st2" x1="1048.3" y1="133.7" x2="1062.4" y2="142.1"/>
	<line class="st2" x1="1010.5" y1="182.5" x2="1010.3" y2="196.3"/>
	<line class="st2" x1="1024.8" y1="174.6" x2="1010.5" y2="182.5"/>
	<line class="st2" x1="1038.9" y1="183" x2="1024.8" y2="174.6"/>
	<line class="st2" x1="1038.7" y1="196.3" x2="1038.9" y2="183"/>
	<line class="st2" x1="1038.7" y1="196.3" x2="1010.3" y2="196.3"/>
	<line class="st2" x1="1048.6" y1="182.5" x2="1048.4" y2="196.3"/>
	<line class="st2" x1="1062.9" y1="174.6" x2="1048.6" y2="182.5"/>
	<line class="st2" x1="1077" y1="183" x2="1062.9" y2="174.6"/>
	<line class="st2" x1="1076.7" y1="196.3" x2="1077" y2="183"/>
	<line class="st2" x1="1076.7" y1="196.3" x2="1048.4" y2="196.3"/>
	<line class="st2" x1="1067.8" y1="83.8" x2="1067.5" y2="100.1"/>
	<line class="st2" x1="1082.1" y1="75.8" x2="1067.8" y2="83.8"/>
	<line class="st2" x1="1096.2" y1="84.3" x2="1082.1" y2="75.8"/>
	<line class="st2" x1="1095.9" y1="100.6" x2="1096.2" y2="84.3"/>
	<line class="st2" x1="1081.6" y1="108.6" x2="1095.9" y2="100.6"/>
	<line class="st2" x1="1067.5" y1="100.1" x2="1081.6" y2="108.6"/>
	<line class="st2" x1="1086.7" y1="117.3" x2="1086.4" y2="133.7"/>
	<line class="st2" x1="1101" y1="109.4" x2="1086.7" y2="117.3"/>
	<line class="st2" x1="1113.5" y1="116.9" x2="1101" y2="109.4"/>
	<line class="st2" x1="1113.5" y1="116.9" x2="1113.5" y2="134.9"/>
	<line class="st2" x1="1100.4" y1="142.1" x2="1113.5" y2="134.9"/>
	<line class="st2" x1="1086.4" y1="133.7" x2="1100.4" y2="142.1"/>
	<line class="st2" x1="1067.8" y1="149" x2="1067.5" y2="165.3"/>
	<line class="st2" x1="1082.1" y1="141" x2="1067.8" y2="149"/>
	<line class="st2" x1="1096.2" y1="149.5" x2="1082.1" y2="141"/>
	<line class="st2" x1="1095.9" y1="165.8" x2="1096.2" y2="149.5"/>
	<line class="st2" x1="1081.6" y1="173.8" x2="1095.9" y2="165.8"/>
	<line class="st2" x1="1067.5" y1="165.3" x2="1081.6" y2="173.8"/>
	<line class="st2" x1="1086.7" y1="182.5" x2="1086.5" y2="196.3"/>
	<line class="st2" x1="1113.5" y1="196.3" x2="1086.5" y2="196.3"/>
	<line class="st2" x1="986.8" y1="174.6" x2="972.5" y2="182.5"/>
	<line class="st2" x1="1000.6" y1="196.3" x2="972.2" y2="196.3"/>
	<line class="st2" x1="953.6" y1="83.8" x2="953.3" y2="100.1"/>
	<line class="st2" x1="967.9" y1="75.8" x2="953.6" y2="83.8"/>
	<line class="st2" x1="982" y1="84.3" x2="967.9" y2="75.8"/>
	<line class="st2" x1="981.7" y1="100.6" x2="982" y2="84.3"/>
	<line class="st2" x1="967.4" y1="108.6" x2="981.7" y2="100.6"/>
	<line class="st2" x1="953.3" y1="100.1" x2="967.4" y2="108.6"/>
	<line class="st2" x1="934.4" y1="117.3" x2="934.1" y2="133.7"/>
	<line class="st2" x1="948.7" y1="109.4" x2="934.4" y2="117.3"/>
	<line class="st2" x1="962.7" y1="117.8" x2="948.7" y2="109.4"/>
	<line class="st2" x1="962.5" y1="134.2" x2="962.7" y2="117.8"/>
	<line class="st2" x1="948.2" y1="142.1" x2="962.5" y2="134.2"/>
	<line class="st2" x1="934.1" y1="133.7" x2="948.2" y2="142.1"/>
	<line class="st2" x1="953.6" y1="149" x2="953.3" y2="165.3"/>
	<line class="st2" x1="967.9" y1="141" x2="953.6" y2="149"/>
	<line class="st2" x1="982" y1="149.5" x2="967.9" y2="141"/>
	<line class="st2" x1="981.7" y1="165.8" x2="982" y2="149.5"/>
	<line class="st2" x1="967.4" y1="173.8" x2="981.7" y2="165.8"/>
	<line class="st2" x1="953.3" y1="165.3" x2="967.4" y2="173.8"/>
	<line class="st2" x1="1048.6" y1="52.1" x2="1048.3" y2="68.5"/>
	<line class="st2" x1="1059.5" y1="46.1" x2="1048.6" y2="52.1"/>
	<line class="st2" x1="1066.1" y1="46.1" x2="1059.5" y2="46.1"/>
	<line class="st2" x1="1077" y1="52.6" x2="1066.1" y2="46.1"/>
	<line class="st2" x1="1076.7" y1="69" x2="1077" y2="52.6"/>
	<line class="st2" x1="1062.4" y1="76.9" x2="1076.7" y2="69"/>
	<line class="st2" x1="1048.3" y1="68.5" x2="1062.4" y2="76.9"/>
	<line class="st2" x1="1010.5" y1="52.1" x2="1010.3" y2="68.5"/>
	<line class="st2" x1="1021.4" y1="46.1" x2="1010.5" y2="52.1"/>
	<line class="st2" x1="1028" y1="46.1" x2="1021.4" y2="46.1"/>
	<line class="st2" x1="1038.9" y1="52.6" x2="1028" y2="46.1"/>
	<line class="st2" x1="1038.6" y1="69" x2="1038.9" y2="52.6"/>
	<line class="st2" x1="1024.3" y1="76.9" x2="1038.6" y2="69"/>
	<line class="st2" x1="1010.3" y1="68.5" x2="1024.3" y2="76.9"/>
	<line class="st2" x1="991.6" y1="83.8" x2="991.4" y2="100.1"/>
	<line class="st2" x1="1005.9" y1="75.8" x2="991.6" y2="83.8"/>
	<line class="st2" x1="1020.1" y1="84.3" x2="1005.9" y2="75.8"/>
	<line class="st2" x1="1019.8" y1="100.6" x2="1020.1" y2="84.3"/>
	<line class="st2" x1="1005.5" y1="108.6" x2="1019.8" y2="100.6"/>
	<line class="st2" x1="991.4" y1="100.1" x2="1005.5" y2="108.6"/>
	<line class="st2" x1="972.5" y1="117.3" x2="972.2" y2="133.7"/>
	<line class="st2" x1="986.8" y1="109.4" x2="972.5" y2="117.3"/>
	<line class="st2" x1="1000.8" y1="117.8" x2="986.8" y2="109.4"/>
	<line class="st2" x1="1000.5" y1="134.2" x2="1000.8" y2="117.8"/>
	<line class="st2" x1="986.2" y1="142.1" x2="1000.5" y2="134.2"/>
	<line class="st2" x1="972.2" y1="133.7" x2="986.2" y2="142.1"/>
	<line class="st2" x1="1086.7" y1="52.1" x2="1086.4" y2="68.5"/>
	<line class="st2" x1="1097.6" y1="46.1" x2="1086.7" y2="52.1"/>
	<line class="st2" x1="1104.1" y1="46.1" x2="1097.6" y2="46.1"/>
	<line class="st2" x1="1113.5" y1="51.7" x2="1104.1" y2="46.1"/>
	<line class="st2" x1="1113.5" y1="51.7" x2="1113.5" y2="69.7"/>
	<line class="st2" x1="1100.4" y1="76.9" x2="1113.5" y2="69.7"/>
	<line class="st2" x1="1086.4" y1="68.5" x2="1100.4" y2="76.9"/>
</g>
<g>
	<line class="st2" x1="199.8" y1="188.3" x2="185.8" y2="179.9"/>
	<line class="st2" x1="199.6" y1="201.6" x2="199.8" y2="188.3"/>
	<line class="st2" x1="171.5" y1="187.8" x2="171.2" y2="201.6"/>
	<line class="st2" x1="204.9" y1="146.3" x2="190.6" y2="154.3"/>
	<line class="st2" x1="219.1" y1="154.8" x2="204.9" y2="146.3"/>
	<line class="st2" x1="218.8" y1="171.1" x2="219.1" y2="154.8"/>
	<line class="st2" x1="204.5" y1="179.1" x2="218.8" y2="171.1"/>
	<line class="st2" x1="190.4" y1="170.6" x2="204.5" y2="179.1"/>
	<line class="st2" x1="190.6" y1="154.3" x2="190.4" y2="170.6"/>
	<line class="st2" x1="300" y1="179.9" x2="285.7" y2="187.8"/>
	<line class="st2" x1="312.5" y1="187.4" x2="300" y2="179.9"/>
	<line class="st2" x1="312.5" y1="187.4" x2="312.5" y2="201.6"/>
	<line class="st2" x1="114.5" y1="154.3" x2="114.2" y2="170.6"/>
	<line class="st2" x1="128.8" y1="146.3" x2="114.5" y2="154.3"/>
	<line class="st2" x1="142.9" y1="154.8" x2="128.8" y2="146.3"/>
	<line class="st2" x1="142.6" y1="171.1" x2="142.9" y2="154.8"/>
	<line class="st2" x1="128.3" y1="179.1" x2="142.6" y2="171.1"/>
	<line class="st2" x1="114.2" y1="170.6" x2="128.3" y2="179.1"/>
	<line class="st2" x1="133.4" y1="187.8" x2="133.2" y2="201.6"/>
	<line class="st2" x1="147.7" y1="179.9" x2="133.4" y2="187.8"/>
	<line class="st2" x1="161.7" y1="188.3" x2="147.7" y2="179.9"/>
	<line class="st2" x1="161.5" y1="201.6" x2="161.7" y2="188.3"/>
	<line class="st2" x1="161.5" y1="201.6" x2="133.2" y2="201.6"/>
	<line class="st2" x1="76.4" y1="154.3" x2="76.2" y2="170.6"/>
	<line class="st2" x1="90.7" y1="146.3" x2="76.4" y2="154.3"/>
	<line class="st2" x1="104.8" y1="154.8" x2="90.7" y2="146.3"/>
	<line class="st2" x1="104.6" y1="171.1" x2="104.8" y2="154.8"/>
	<line class="st2" x1="90.3" y1="179.1" x2="104.6" y2="171.1"/>
	<line class="st2" x1="76.2" y1="170.6" x2="90.3" y2="179.1"/>
	<line class="st2" x1="71.6" y1="179.9" x2="60.6" y2="186"/>
	<line class="st2" x1="85.6" y1="188.3" x2="71.6" y2="179.9"/>
	<line class="st2" x1="85.4" y1="201.6" x2="85.6" y2="188.3"/>
	<line class="st2" x1="85.4" y1="201.6" x2="60.6" y2="201.6"/>
	<line class="st2" x1="60.6" y1="186" x2="60.6" y2="201.6"/>
	<line class="st2" x1="95.3" y1="187.8" x2="95.1" y2="201.6"/>
	<line class="st2" x1="109.6" y1="179.9" x2="95.3" y2="187.8"/>
	<line class="st2" x1="123.7" y1="188.3" x2="109.6" y2="179.9"/>
	<line class="st2" x1="123.5" y1="201.6" x2="123.7" y2="188.3"/>
	<line class="st2" x1="123.5" y1="201.6" x2="95.1" y2="201.6"/>
	<line class="st2" x1="171.5" y1="57.4" x2="171.2" y2="73.8"/>
	<line class="st2" x1="182.4" y1="51.4" x2="171.5" y2="57.4"/>
	<line class="st2" x1="188.9" y1="51.4" x2="182.4" y2="51.4"/>
	<line class="st2" x1="199.8" y1="57.9" x2="188.9" y2="51.4"/>
	<line class="st2" x1="199.5" y1="74.3" x2="199.8" y2="57.9"/>
	<line class="st2" x1="185.2" y1="82.2" x2="199.5" y2="74.3"/>
	<line class="st2" x1="171.2" y1="73.8" x2="185.2" y2="82.2"/>
	<line class="st2" x1="133.4" y1="57.4" x2="133.1" y2="73.8"/>
	<line class="st2" x1="144.3" y1="51.4" x2="133.4" y2="57.4"/>
	<line class="st2" x1="150.9" y1="51.4" x2="144.3" y2="51.4"/>
	<line class="st2" x1="161.7" y1="57.9" x2="150.9" y2="51.4"/>
	<line class="st2" x1="161.5" y1="74.3" x2="161.7" y2="57.9"/>
	<line class="st2" x1="147.2" y1="82.2" x2="161.5" y2="74.3"/>
	<line class="st2" x1="133.1" y1="73.8" x2="147.2" y2="82.2"/>
	<line class="st2" x1="114.5" y1="89.1" x2="114.2" y2="105.4"/>
	<line class="st2" x1="128.8" y1="81.1" x2="114.5" y2="89.1"/>
	<line class="st2" x1="142.9" y1="89.6" x2="128.8" y2="81.1"/>
	<line class="st2" x1="142.6" y1="105.9" x2="142.9" y2="89.6"/>
	<line class="st2" x1="128.3" y1="113.9" x2="142.6" y2="105.9"/>
	<line class="st2" x1="114.2" y1="105.4" x2="128.3" y2="113.9"/>
	<line class="st2" x1="95.3" y1="122.6" x2="95.1" y2="139"/>
	<line class="st2" x1="109.6" y1="114.7" x2="95.3" y2="122.6"/>
	<line class="st2" x1="123.7" y1="123.1" x2="109.6" y2="114.7"/>
	<line class="st2" x1="123.4" y1="139.5" x2="123.7" y2="123.1"/>
	<line class="st2" x1="109.1" y1="147.4" x2="123.4" y2="139.5"/>
	<line class="st2" x1="95.1" y1="139" x2="109.1" y2="147.4"/>
	<line class="st2" x1="256.9" y1="105.9" x2="257.1" y2="89.6"/>
	<line class="st2" x1="242.5" y1="113.9" x2="256.9" y2="105.9"/>
	<line class="st2" x1="228.4" y1="105.4" x2="242.5" y2="113.9"/>
	<line class="st2" x1="228.7" y1="89.1" x2="228.4" y2="105.4"/>
	<line class="st2" x1="243" y1="81.1" x2="228.7" y2="89.1"/>
	<line class="st2" x1="257.1" y1="89.6" x2="243" y2="81.1"/>
	<line class="st2" x1="303.4" y1="89.8" x2="303.2" y2="106.1"/>
	<line class="st2" x1="312.5" y1="84.8" x2="303.4" y2="89.8"/>
	<line class="st2" x1="312.5" y1="84.8" x2="312.5" y2="111.7"/>
	<line class="st2" x1="303.2" y1="106.1" x2="312.5" y2="111.7"/>
	<line class="st2" x1="303.7" y1="154.5" x2="303.5" y2="170.8"/>
	<line class="st2" x1="312.5" y1="149.6" x2="303.7" y2="154.5"/>
	<line class="st2" x1="312.5" y1="149.6" x2="312.5" y2="176.2"/>
	<line class="st2" x1="303.5" y1="170.8" x2="312.5" y2="176.2"/>
	<line class="st2" x1="66.8" y1="154.8" x2="60.6" y2="151.1"/>
	<line class="st2" x1="66.5" y1="171.1" x2="66.8" y2="154.8"/>
	<line class="st2" x1="60.6" y1="174.4" x2="66.5" y2="171.1"/>
	<line class="st2" x1="60.6" y1="151.1" x2="60.6" y2="174.4"/>
	<line class="st2" x1="66.8" y1="89.6" x2="60.6" y2="85.9"/>
	<line class="st2" x1="66.5" y1="105.9" x2="66.8" y2="89.6"/>
	<line class="st2" x1="60.6" y1="109.2" x2="66.5" y2="105.9"/>
	<line class="st2" x1="60.6" y1="85.9" x2="60.6" y2="109.2"/>
	<line class="st2" x1="71.6" y1="114.7" x2="60.6" y2="120.8"/>
	<line class="st2" x1="85.6" y1="123.1" x2="71.6" y2="114.7"/>
	<line class="st2" x1="85.3" y1="139.5" x2="85.6" y2="123.1"/>
	<line class="st2" x1="71" y1="147.4" x2="85.3" y2="139.5"/>
	<line class="st2" x1="60.6" y1="141.2" x2="71" y2="147.4"/>
	<line class="st2" x1="60.6" y1="120.8" x2="60.6" y2="141.2"/>
	<line class="st2" x1="76.4" y1="89.1" x2="76.2" y2="105.4"/>
	<line class="st2" x1="90.7" y1="81.1" x2="76.4" y2="89.1"/>
	<line class="st2" x1="104.8" y1="89.6" x2="90.7" y2="81.1"/>
	<line class="st2" x1="104.6" y1="105.9" x2="104.8" y2="89.6"/>
	<line class="st2" x1="90.3" y1="113.9" x2="104.6" y2="105.9"/>
	<line class="st2" x1="76.2" y1="105.4" x2="90.3" y2="113.9"/>
	<line class="st2" x1="95.3" y1="57.4" x2="95.1" y2="73.8"/>
	<line class="st2" x1="106.2" y1="51.4" x2="95.3" y2="57.4"/>
	<line class="st2" x1="112.8" y1="51.4" x2="106.2" y2="51.4"/>
	<line class="st2" x1="123.7" y1="57.9" x2="112.8" y2="51.4"/>
	<line class="st2" x1="123.4" y1="74.3" x2="123.7" y2="57.9"/>
	<line class="st2" x1="109.1" y1="82.2" x2="123.4" y2="74.3"/>
	<line class="st2" x1="95.1" y1="73.8" x2="109.1" y2="82.2"/>
	<line class="st2" x1="68.2" y1="51.4" x2="60.6" y2="55.6"/>
	<line class="st2" x1="74.7" y1="51.4" x2="68.2" y2="51.4"/>
	<line class="st2" x1="85.6" y1="57.9" x2="74.7" y2="51.4"/>
	<line class="st2" x1="85.3" y1="74.3" x2="85.6" y2="57.9"/>
	<line class="st2" x1="71" y1="82.2" x2="85.3" y2="74.3"/>
	<line class="st2" x1="60.6" y1="76" x2="71" y2="82.2"/>
	<line class="st2" x1="60.6" y1="55.6" x2="60.6" y2="76"/>
	<line class="st2" x1="228.7" y1="154.3" x2="228.4" y2="170.6"/>
	<line class="st2" x1="243" y1="146.3" x2="228.7" y2="154.3"/>
	<line class="st2" x1="257.1" y1="154.8" x2="243" y2="146.3"/>
	<line class="st2" x1="256.9" y1="171.1" x2="257.1" y2="154.8"/>
	<line class="st2" x1="242.5" y1="179.1" x2="256.9" y2="171.1"/>
	<line class="st2" x1="228.4" y1="170.6" x2="242.5" y2="179.1"/>
	<line class="st2" x1="209.5" y1="122.6" x2="209.3" y2="139"/>
	<line class="st2" x1="223.8" y1="114.7" x2="209.5" y2="122.6"/>
	<line class="st2" x1="237.9" y1="123.1" x2="223.8" y2="114.7"/>
	<line class="st2" x1="237.6" y1="139.5" x2="237.9" y2="123.1"/>
	<line class="st2" x1="223.3" y1="147.4" x2="237.6" y2="139.5"/>
	<line class="st2" x1="209.3" y1="139" x2="223.3" y2="147.4"/>
	<line class="st2" x1="247.6" y1="122.6" x2="247.3" y2="139"/>
	<line class="st2" x1="261.9" y1="114.7" x2="247.6" y2="122.6"/>
	<line class="st2" x1="276" y1="123.1" x2="261.9" y2="114.7"/>
	<line class="st2" x1="275.7" y1="139.5" x2="276" y2="123.1"/>
	<line class="st2" x1="261.4" y1="147.4" x2="275.7" y2="139.5"/>
	<line class="st2" x1="247.3" y1="139" x2="261.4" y2="147.4"/>
	<line class="st2" x1="209.5" y1="187.8" x2="209.3" y2="201.6"/>
	<line class="st2" x1="223.8" y1="179.9" x2="209.5" y2="187.8"/>
	<line class="st2" x1="237.9" y1="188.3" x2="223.8" y2="179.9"/>
	<line class="st2" x1="237.7" y1="201.6" x2="237.9" y2="188.3"/>
	<line class="st2" x1="237.7" y1="201.6" x2="209.3" y2="201.6"/>
	<line class="st2" x1="247.6" y1="187.8" x2="247.4" y2="201.6"/>
	<line class="st2" x1="261.9" y1="179.9" x2="247.6" y2="187.8"/>
	<line class="st2" x1="276" y1="188.3" x2="261.9" y2="179.9"/>
	<line class="st2" x1="275.7" y1="201.6" x2="276" y2="188.3"/>
	<line class="st2" x1="275.7" y1="201.6" x2="247.4" y2="201.6"/>
	<line class="st2" x1="266.8" y1="89.1" x2="266.5" y2="105.4"/>
	<line class="st2" x1="281.1" y1="81.1" x2="266.8" y2="89.1"/>
	<line class="st2" x1="295.2" y1="89.6" x2="281.1" y2="81.1"/>
	<line class="st2" x1="294.9" y1="105.9" x2="295.2" y2="89.6"/>
	<line class="st2" x1="280.6" y1="113.9" x2="294.9" y2="105.9"/>
	<line class="st2" x1="266.5" y1="105.4" x2="280.6" y2="113.9"/>
	<line class="st2" x1="285.7" y1="122.6" x2="285.4" y2="139"/>
	<line class="st2" x1="300" y1="114.7" x2="285.7" y2="122.6"/>
	<line class="st2" x1="312.5" y1="122.2" x2="300" y2="114.7"/>
	<line class="st2" x1="312.5" y1="122.2" x2="312.5" y2="140.2"/>
	<line class="st2" x1="299.4" y1="147.4" x2="312.5" y2="140.2"/>
	<line class="st2" x1="285.4" y1="139" x2="299.4" y2="147.4"/>
	<line class="st2" x1="266.8" y1="154.3" x2="266.5" y2="170.6"/>
	<line class="st2" x1="281.1" y1="146.3" x2="266.8" y2="154.3"/>
	<line class="st2" x1="295.2" y1="154.8" x2="281.1" y2="146.3"/>
	<line class="st2" x1="294.9" y1="171.1" x2="295.2" y2="154.8"/>
	<line class="st2" x1="280.6" y1="179.1" x2="294.9" y2="171.1"/>
	<line class="st2" x1="266.5" y1="170.6" x2="280.6" y2="179.1"/>
	<line class="st2" x1="285.7" y1="187.8" x2="285.5" y2="201.6"/>
	<line class="st2" x1="312.5" y1="201.6" x2="285.5" y2="201.6"/>
	<line class="st2" x1="185.8" y1="179.9" x2="171.5" y2="187.8"/>
	<line class="st2" x1="199.6" y1="201.6" x2="171.2" y2="201.6"/>
	<line class="st2" x1="152.6" y1="89.1" x2="152.3" y2="105.4"/>
	<line class="st2" x1="166.9" y1="81.1" x2="152.6" y2="89.1"/>
	<line class="st2" x1="181" y1="89.6" x2="166.9" y2="81.1"/>
	<line class="st2" x1="180.7" y1="105.9" x2="181" y2="89.6"/>
	<line class="st2" x1="166.4" y1="113.9" x2="180.7" y2="105.9"/>
	<line class="st2" x1="152.3" y1="105.4" x2="166.4" y2="113.9"/>
	<line class="st2" x1="133.4" y1="122.6" x2="133.1" y2="139"/>
	<line class="st2" x1="147.7" y1="114.7" x2="133.4" y2="122.6"/>
	<line class="st2" x1="161.7" y1="123.1" x2="147.7" y2="114.7"/>
	<line class="st2" x1="161.5" y1="139.5" x2="161.7" y2="123.1"/>
	<line class="st2" x1="147.2" y1="147.4" x2="161.5" y2="139.5"/>
	<line class="st2" x1="133.1" y1="139" x2="147.2" y2="147.4"/>
	<line class="st2" x1="152.6" y1="154.3" x2="152.3" y2="170.6"/>
	<line class="st2" x1="166.9" y1="146.3" x2="152.6" y2="154.3"/>
	<line class="st2" x1="181" y1="154.8" x2="166.9" y2="146.3"/>
	<line class="st2" x1="180.7" y1="171.1" x2="181" y2="154.8"/>
	<line class="st2" x1="166.4" y1="179.1" x2="180.7" y2="171.1"/>
	<line class="st2" x1="152.3" y1="170.6" x2="166.4" y2="179.1"/>
	<line class="st2" x1="247.6" y1="57.4" x2="247.3" y2="73.8"/>
	<line class="st2" x1="258.5" y1="51.4" x2="247.6" y2="57.4"/>
	<line class="st2" x1="265.1" y1="51.4" x2="258.5" y2="51.4"/>
	<line class="st2" x1="276" y1="57.9" x2="265.1" y2="51.4"/>
	<line class="st2" x1="275.7" y1="74.3" x2="276" y2="57.9"/>
	<line class="st2" x1="261.4" y1="82.2" x2="275.7" y2="74.3"/>
	<line class="st2" x1="247.3" y1="73.8" x2="261.4" y2="82.2"/>
	<line class="st2" x1="209.5" y1="57.4" x2="209.3" y2="73.8"/>
	<line class="st2" x1="220.4" y1="51.4" x2="209.5" y2="57.4"/>
	<line class="st2" x1="227" y1="51.4" x2="220.4" y2="51.4"/>
	<line class="st2" x1="237.9" y1="57.9" x2="227" y2="51.4"/>
	<line class="st2" x1="237.6" y1="74.3" x2="237.9" y2="57.9"/>
	<line class="st2" x1="223.3" y1="82.2" x2="237.6" y2="74.3"/>
	<line class="st2" x1="209.3" y1="73.8" x2="223.3" y2="82.2"/>
	<line class="st2" x1="190.6" y1="89.1" x2="190.4" y2="105.4"/>
	<line class="st2" x1="204.9" y1="81.1" x2="190.6" y2="89.1"/>
	<line class="st2" x1="219.1" y1="89.6" x2="204.9" y2="81.1"/>
	<line class="st2" x1="218.8" y1="105.9" x2="219.1" y2="89.6"/>
	<line class="st2" x1="204.5" y1="113.9" x2="218.8" y2="105.9"/>
	<line class="st2" x1="190.4" y1="105.4" x2="204.5" y2="113.9"/>
	<line class="st2" x1="171.5" y1="122.6" x2="171.2" y2="139"/>
	<line class="st2" x1="185.8" y1="114.7" x2="171.5" y2="122.6"/>
	<line class="st2" x1="199.8" y1="123.1" x2="185.8" y2="114.7"/>
	<line class="st2" x1="199.5" y1="139.5" x2="199.8" y2="123.1"/>
	<line class="st2" x1="185.2" y1="147.4" x2="199.5" y2="139.5"/>
	<line class="st2" x1="171.2" y1="139" x2="185.2" y2="147.4"/>
	<line class="st2" x1="285.7" y1="57.4" x2="285.4" y2="73.8"/>
	<line class="st2" x1="296.6" y1="51.4" x2="285.7" y2="57.4"/>
	<line class="st2" x1="303.1" y1="51.4" x2="296.6" y2="51.4"/>
	<line class="st2" x1="312.5" y1="57" x2="303.1" y2="51.4"/>
	<line class="st2" x1="312.5" y1="57" x2="312.5" y2="75"/>
	<line class="st2" x1="299.4" y1="82.2" x2="312.5" y2="75"/>
	<line class="st2" x1="285.4" y1="73.8" x2="299.4" y2="82.2"/>
</g>
<g>
	<line class="st2" x1="423" y1="34.3" x2="433.2" y2="34.3"/>
	<line class="st2" x1="444.7" y1="34.3" x2="470" y2="34.3"/>
	<line class="st2" x1="481.5" y1="34.3" x2="506.9" y2="34.3"/>
	<line class="st2" x1="518.4" y1="34.3" x2="543.7" y2="34.3"/>
	<line class="st2" x1="555.2" y1="34.3" x2="580.6" y2="34.3"/>
	<line class="st2" x1="592.1" y1="34.3" x2="615.8" y2="34.3"/>
	<path class="st2" d="M423,34.3"/>
	<path class="st2" d="M615.8,34.3"/>
	<line class="st2" x1="586.2" y1="73.4" x2="600.3" y2="65.1"/>
	<line class="st2" x1="600.3" y1="65.1" x2="600.2" y2="48.7"/>
	<line class="st2" x1="600.2" y1="48.7" x2="585.9" y2="40.6"/>
	<line class="st2" x1="585.9" y1="40.6" x2="571.8" y2="48.9"/>
	<line class="st2" x1="571.8" y1="48.9" x2="571.9" y2="65.3"/>
	<line class="st2" x1="571.9" y1="65.3" x2="586.2" y2="73.4"/>
	<line class="st2" x1="615.8" y1="68.6" x2="615.8" y2="44.7"/>
	<line class="st2" x1="615.8" y1="44.7" x2="609.2" y2="48.6"/>
	<line class="st2" x1="609.2" y1="48.6" x2="609.4" y2="65"/>
	<line class="st2" x1="609.4" y1="65" x2="615.8" y2="68.6"/>
	<line class="st2" x1="549.3" y1="73.4" x2="563.4" y2="65.1"/>
	<line class="st2" x1="563.4" y1="65.1" x2="563.3" y2="48.7"/>
	<line class="st2" x1="563.3" y1="48.7" x2="549.1" y2="40.6"/>
	<line class="st2" x1="549.1" y1="40.6" x2="535" y2="48.9"/>
	<line class="st2" x1="535" y1="48.9" x2="535.1" y2="65.3"/>
	<line class="st2" x1="535.1" y1="65.3" x2="549.3" y2="73.4"/>
	<line class="st2" x1="438.8" y1="73.4" x2="452.9" y2="65.1"/>
	<line class="st2" x1="452.9" y1="65.1" x2="452.8" y2="48.7"/>
	<line class="st2" x1="452.8" y1="48.7" x2="438.5" y2="40.6"/>
	<line class="st2" x1="438.5" y1="40.6" x2="424.4" y2="48.9"/>
	<line class="st2" x1="424.4" y1="48.9" x2="424.5" y2="65.3"/>
	<line class="st2" x1="424.5" y1="65.3" x2="438.8" y2="73.4"/>
	<line class="st2" x1="475.6" y1="73.4" x2="489.7" y2="65.1"/>
	<line class="st2" x1="489.7" y1="65.1" x2="489.6" y2="48.7"/>
	<line class="st2" x1="489.6" y1="48.7" x2="475.4" y2="40.6"/>
	<line class="st2" x1="475.4" y1="40.6" x2="461.3" y2="48.9"/>
	<line class="st2" x1="461.3" y1="48.9" x2="461.4" y2="65.3"/>
	<line class="st2" x1="461.4" y1="65.3" x2="475.6" y2="73.4"/>
	<line class="st2" x1="512.5" y1="73.4" x2="526.6" y2="65.1"/>
	<line class="st2" x1="526.6" y1="65.1" x2="526.5" y2="48.7"/>
	<line class="st2" x1="526.5" y1="48.7" x2="512.2" y2="40.6"/>
	<line class="st2" x1="512.2" y1="40.6" x2="498.1" y2="48.9"/>
	<line class="st2" x1="498.1" y1="48.9" x2="498.2" y2="65.3"/>
	<line class="st2" x1="498.2" y1="65.3" x2="512.5" y2="73.4"/>
	<line class="st2" x1="423" y1="34.3" x2="423" y2="40.3"/>
	<line class="st2" x1="423" y1="40.3" x2="433.2" y2="34.3"/>
	<path class="st2" d="M444.7,34.3"/>
	<line class="st2" x1="444.7" y1="34.3" x2="457.6" y2="41.7"/>
	<line class="st2" x1="457.6" y1="41.7" x2="470" y2="34.3"/>
	<path class="st2" d="M470,34.3"/>
	<path class="st2" d="M481.5,34.3"/>
	<line class="st2" x1="481.5" y1="34.3" x2="494.4" y2="41.7"/>
	<line class="st2" x1="494.4" y1="41.7" x2="506.9" y2="34.3"/>
	<path class="st2" d="M506.9,34.3"/>
	<path class="st2" d="M518.4,34.3"/>
	<line class="st2" x1="518.4" y1="34.3" x2="531.3" y2="41.7"/>
	<line class="st2" x1="531.3" y1="41.7" x2="543.7" y2="34.3"/>
	<path class="st2" d="M543.7,34.3"/>
	<path class="st2" d="M555.2,34.3"/>
	<line class="st2" x1="555.2" y1="34.3" x2="568.1" y2="41.7"/>
	<line class="st2" x1="568.1" y1="41.7" x2="580.6" y2="34.3"/>
	<path class="st2" d="M580.6,34.3"/>
	<path class="st2" d="M592.1,34.3"/>
	<line class="st2" x1="592.1" y1="34.3" x2="605" y2="41.7"/>
	<line class="st2" x1="605" y1="41.7" x2="615.8" y2="35.3"/>
	<line class="st2" x1="615.8" y1="35.3" x2="615.8" y2="34.3"/>
</g>
<g>
	<line class="st2" x1="473.7" y1="148.1" x2="459.5" y2="156.4"/>
	<line class="st2" x1="487.9" y1="156.2" x2="473.7" y2="148.1"/>
	<line class="st2" x1="488" y1="172.6" x2="487.9" y2="156.2"/>
	<line class="st2" x1="473.8" y1="180.8" x2="488" y2="172.6"/>
	<line class="st2" x1="459.6" y1="172.7" x2="473.8" y2="180.8"/>
	<line class="st2" x1="459.5" y1="156.4" x2="459.6" y2="172.7"/>
	<line class="st2" x1="433.5" y1="187.6" x2="423.1" y2="181.7"/>
	<line class="st2" x1="433.6" y1="203.9" x2="433.5" y2="187.6"/>
	<line class="st2" x1="423.8" y1="209.7" x2="433.6" y2="203.9"/>
	<line class="st2" x1="423.1" y1="209.7" x2="423.8" y2="209.7"/>
	<line class="st2" x1="423.1" y1="181.7" x2="423.1" y2="209.7"/>
	<line class="st2" x1="451" y1="156.2" x2="436.8" y2="148.1"/>
	<line class="st2" x1="451.1" y1="172.6" x2="451" y2="156.2"/>
	<line class="st2" x1="437" y1="180.8" x2="451.1" y2="172.6"/>
	<line class="st2" x1="423.1" y1="172.9" x2="437" y2="180.8"/>
	<line class="st2" x1="423.1" y1="156.1" x2="423.1" y2="172.9"/>
	<line class="st2" x1="436.8" y1="148.1" x2="423.1" y2="156.1"/>
	<line class="st2" x1="584.2" y1="148.1" x2="570.1" y2="156.4"/>
	<line class="st2" x1="598.4" y1="156.2" x2="584.2" y2="148.1"/>
	<line class="st2" x1="598.5" y1="172.6" x2="598.4" y2="156.2"/>
	<line class="st2" x1="584.4" y1="180.8" x2="598.5" y2="172.6"/>
	<line class="st2" x1="570.2" y1="172.7" x2="584.4" y2="180.8"/>
	<line class="st2" x1="570.1" y1="156.4" x2="570.2" y2="172.7"/>
	<line class="st2" x1="547.4" y1="148.1" x2="533.2" y2="156.4"/>
	<line class="st2" x1="561.6" y1="156.2" x2="547.4" y2="148.1"/>
	<line class="st2" x1="561.7" y1="172.6" x2="561.6" y2="156.2"/>
	<line class="st2" x1="547.5" y1="180.8" x2="561.7" y2="172.6"/>
	<line class="st2" x1="533.3" y1="172.7" x2="547.5" y2="180.8"/>
	<line class="st2" x1="533.2" y1="156.4" x2="533.3" y2="172.7"/>
	<line class="st2" x1="589.5" y1="204.1" x2="599.3" y2="209.7"/>
	<line class="st2" x1="589.4" y1="187.7" x2="589.5" y2="204.1"/>
	<line class="st2" x1="603.5" y1="179.5" x2="589.4" y2="187.7"/>
	<line class="st2" x1="615.9" y1="186.5" x2="603.5" y2="179.5"/>
	<line class="st2" x1="615.9" y1="205.1" x2="615.9" y2="186.5"/>
	<line class="st2" x1="608.1" y1="209.7" x2="615.9" y2="205.1"/>
	<line class="st2" x1="599.3" y1="209.7" x2="608.1" y2="209.7"/>
	<line class="st2" x1="552.7" y1="204.1" x2="562.4" y2="209.7"/>
	<line class="st2" x1="552.6" y1="187.7" x2="552.7" y2="204.1"/>
	<line class="st2" x1="566.7" y1="179.5" x2="552.6" y2="187.7"/>
	<line class="st2" x1="580.9" y1="187.6" x2="566.7" y2="179.5"/>
	<line class="st2" x1="581" y1="203.9" x2="580.9" y2="187.6"/>
	<line class="st2" x1="571.2" y1="209.7" x2="581" y2="203.9"/>
	<line class="st2" x1="562.4" y1="209.7" x2="571.2" y2="209.7"/>
	<line class="st2" x1="515.8" y1="204.1" x2="525.6" y2="209.7"/>
	<line class="st2" x1="515.7" y1="187.7" x2="515.8" y2="204.1"/>
	<line class="st2" x1="529.8" y1="179.5" x2="515.7" y2="187.7"/>
	<line class="st2" x1="544.1" y1="187.6" x2="529.8" y2="179.5"/>
	<line class="st2" x1="544.2" y1="203.9" x2="544.1" y2="187.6"/>
	<line class="st2" x1="534.4" y1="209.7" x2="544.2" y2="203.9"/>
	<line class="st2" x1="525.6" y1="209.7" x2="534.4" y2="209.7"/>
	<line class="st2" x1="607.9" y1="172.7" x2="615.9" y2="177.3"/>
	<line class="st2" x1="607.8" y1="156.3" x2="607.9" y2="172.7"/>
	<line class="st2" x1="615.9" y1="151.6" x2="607.8" y2="156.3"/>
	<line class="st2" x1="615.9" y1="177.3" x2="615.9" y2="151.6"/>
	<line class="st2" x1="442.1" y1="204.1" x2="451.9" y2="209.7"/>
	<line class="st2" x1="442" y1="187.7" x2="442.1" y2="204.1"/>
	<line class="st2" x1="456.1" y1="179.5" x2="442" y2="187.7"/>
	<line class="st2" x1="470.4" y1="187.6" x2="456.1" y2="179.5"/>
	<line class="st2" x1="470.5" y1="203.9" x2="470.4" y2="187.6"/>
	<line class="st2" x1="460.7" y1="209.7" x2="470.5" y2="203.9"/>
	<line class="st2" x1="451.9" y1="209.7" x2="460.7" y2="209.7"/>
	<line class="st2" x1="510.5" y1="148.1" x2="496.4" y2="156.4"/>
	<line class="st2" x1="524.7" y1="156.2" x2="510.5" y2="148.1"/>
	<line class="st2" x1="524.8" y1="172.6" x2="524.7" y2="156.2"/>
	<line class="st2" x1="510.7" y1="180.8" x2="524.8" y2="172.6"/>
	<line class="st2" x1="496.5" y1="172.7" x2="510.7" y2="180.8"/>
	<line class="st2" x1="496.4" y1="156.4" x2="496.5" y2="172.7"/>
	<line class="st2" x1="479" y1="204.1" x2="488.7" y2="209.7"/>
	<line class="st2" x1="478.9" y1="187.7" x2="479" y2="204.1"/>
	<line class="st2" x1="493" y1="179.5" x2="478.9" y2="187.7"/>
	<line class="st2" x1="507.2" y1="187.6" x2="493" y2="179.5"/>
	<line class="st2" x1="507.3" y1="203.9" x2="507.2" y2="187.6"/>
	<line class="st2" x1="497.5" y1="209.7" x2="507.3" y2="203.9"/>
	<line class="st2" x1="488.7" y1="209.7" x2="497.5" y2="209.7"/>
</g>
</svg>
