G04 #@! TF.FileFunction,Legend,Top*
%FSLAX46Y46*%
G04 Gerber Fmt 4.6, Leading zero omitted, Abs format (unit mm)*
G04 Created by KiCad (PCBNEW 4.0.5) date 02/28/17 22:53:05*
%MOMM*%
%LPD*%
G01*
G04 APERTURE LIST*
%ADD10C,0.100000*%
%ADD11C,0.150000*%
%ADD12C,0.300000*%
%ADD13C,0.400000*%
%ADD14C,0.120000*%
G04 APERTURE END LIST*
D10*
D11*
X177002200Y-166007200D02*
X177002200Y-198007200D01*
X285002200Y-198007200D01*
X285002200Y-166007200D01*
X177002200Y-166007200D01*
D10*
D11*
X10000000Y-10000000D02*
X10000000Y-200007200D01*
X287002200Y-200007200D01*
X287002200Y-10000000D01*
X10000000Y-10000000D01*
D10*
D11*
X12000000Y-12000000D02*
X12000000Y-198007200D01*
X285002200Y-198007200D01*
X285002200Y-12000000D01*
X12000000Y-12000000D01*
D10*
D11*
X60000000Y-12000000D02*
X60000000Y-10000000D01*
D10*
D11*
X110000000Y-12000000D02*
X110000000Y-10000000D01*
D10*
D11*
X160000000Y-12000000D02*
X160000000Y-10000000D01*
D10*
D11*
X210000000Y-12000000D02*
X210000000Y-10000000D01*
D10*
D11*
X260000000Y-12000000D02*
X260000000Y-10000000D01*
D10*
D11*
X35990476Y-11588095D02*
X35247619Y-11588095D01*
X35619048Y-11588095D02*
X35619048Y-10288095D01*
X35495238Y-10473810D01*
X35371429Y-10597619D01*
X35247619Y-10659524D01*
D10*
D11*
X85247619Y-10411905D02*
X85309524Y-10350000D01*
X85433333Y-10288095D01*
X85742857Y-10288095D01*
X85866667Y-10350000D01*
X85928571Y-10411905D01*
X85990476Y-10535714D01*
X85990476Y-10659524D01*
X85928571Y-10845238D01*
X85185714Y-11588095D01*
X85990476Y-11588095D01*
D10*
D11*
X135185714Y-10288095D02*
X135990476Y-10288095D01*
X135557143Y-10783333D01*
X135742857Y-10783333D01*
X135866667Y-10845238D01*
X135928571Y-10907143D01*
X135990476Y-11030952D01*
X135990476Y-11340476D01*
X135928571Y-11464286D01*
X135866667Y-11526190D01*
X135742857Y-11588095D01*
X135371429Y-11588095D01*
X135247619Y-11526190D01*
X135185714Y-11464286D01*
D10*
D11*
X185866667Y-10721429D02*
X185866667Y-11588095D01*
X185557143Y-10226190D02*
X185247619Y-11154762D01*
X186052381Y-11154762D01*
D10*
D11*
X235928571Y-10288095D02*
X235309524Y-10288095D01*
X235247619Y-10907143D01*
X235309524Y-10845238D01*
X235433333Y-10783333D01*
X235742857Y-10783333D01*
X235866667Y-10845238D01*
X235928571Y-10907143D01*
X235990476Y-11030952D01*
X235990476Y-11340476D01*
X235928571Y-11464286D01*
X235866667Y-11526190D01*
X235742857Y-11588095D01*
X235433333Y-11588095D01*
X235309524Y-11526190D01*
X235247619Y-11464286D01*
D10*
D11*
X285866667Y-10288095D02*
X285619048Y-10288095D01*
X285495238Y-10350000D01*
X285433333Y-10411905D01*
X285309524Y-10597619D01*
X285247619Y-10845238D01*
X285247619Y-11340476D01*
X285309524Y-11464286D01*
X285371429Y-11526190D01*
X285495238Y-11588095D01*
X285742857Y-11588095D01*
X285866667Y-11526190D01*
X285928571Y-11464286D01*
X285990476Y-11340476D01*
X285990476Y-11030952D01*
X285928571Y-10907143D01*
X285866667Y-10845238D01*
X285742857Y-10783333D01*
X285495238Y-10783333D01*
X285371429Y-10845238D01*
X285309524Y-10907143D01*
X285247619Y-11030952D01*
D10*
D11*
X60000000Y-198007200D02*
X60000000Y-200007200D01*
D10*
D11*
X110000000Y-198007200D02*
X110000000Y-200007200D01*
D10*
D11*
X160000000Y-198007200D02*
X160000000Y-200007200D01*
D10*
D11*
X210000000Y-198007200D02*
X210000000Y-200007200D01*
D10*
D11*
X260000000Y-198007200D02*
X260000000Y-200007200D01*
D10*
D11*
X35990476Y-199595295D02*
X35247619Y-199595295D01*
X35619048Y-199595295D02*
X35619048Y-198295295D01*
X35495238Y-198481010D01*
X35371429Y-198604819D01*
X35247619Y-198666724D01*
D10*
D11*
X85247619Y-198419105D02*
X85309524Y-198357200D01*
X85433333Y-198295295D01*
X85742857Y-198295295D01*
X85866667Y-198357200D01*
X85928571Y-198419105D01*
X85990476Y-198542914D01*
X85990476Y-198666724D01*
X85928571Y-198852438D01*
X85185714Y-199595295D01*
X85990476Y-199595295D01*
D10*
D11*
X135185714Y-198295295D02*
X135990476Y-198295295D01*
X135557143Y-198790533D01*
X135742857Y-198790533D01*
X135866667Y-198852438D01*
X135928571Y-198914343D01*
X135990476Y-199038152D01*
X135990476Y-199347676D01*
X135928571Y-199471486D01*
X135866667Y-199533390D01*
X135742857Y-199595295D01*
X135371429Y-199595295D01*
X135247619Y-199533390D01*
X135185714Y-199471486D01*
D10*
D11*
X185866667Y-198728629D02*
X185866667Y-199595295D01*
X185557143Y-198233390D02*
X185247619Y-199161962D01*
X186052381Y-199161962D01*
D10*
D11*
X235928571Y-198295295D02*
X235309524Y-198295295D01*
X235247619Y-198914343D01*
X235309524Y-198852438D01*
X235433333Y-198790533D01*
X235742857Y-198790533D01*
X235866667Y-198852438D01*
X235928571Y-198914343D01*
X235990476Y-199038152D01*
X235990476Y-199347676D01*
X235928571Y-199471486D01*
X235866667Y-199533390D01*
X235742857Y-199595295D01*
X235433333Y-199595295D01*
X235309524Y-199533390D01*
X235247619Y-199471486D01*
D10*
D11*
X285866667Y-198295295D02*
X285619048Y-198295295D01*
X285495238Y-198357200D01*
X285433333Y-198419105D01*
X285309524Y-198604819D01*
X285247619Y-198852438D01*
X285247619Y-199347676D01*
X285309524Y-199471486D01*
X285371429Y-199533390D01*
X285495238Y-199595295D01*
X285742857Y-199595295D01*
X285866667Y-199533390D01*
X285928571Y-199471486D01*
X285990476Y-199347676D01*
X285990476Y-199038152D01*
X285928571Y-198914343D01*
X285866667Y-198852438D01*
X285742857Y-198790533D01*
X285495238Y-198790533D01*
X285371429Y-198852438D01*
X285309524Y-198914343D01*
X285247619Y-199038152D01*
D10*
D11*
X10000000Y-60000000D02*
X12000000Y-60000000D01*
D10*
D11*
X10000000Y-110000000D02*
X12000000Y-110000000D01*
D10*
D11*
X10000000Y-160000000D02*
X12000000Y-160000000D01*
D10*
D11*
X10690476Y-35216667D02*
X11309524Y-35216667D01*
X10566667Y-35588095D02*
X11000000Y-34288095D01*
X11433333Y-35588095D01*
D10*
D11*
X11092857Y-84907143D02*
X11278571Y-84969048D01*
X11340476Y-85030952D01*
X11402381Y-85154762D01*
X11402381Y-85340476D01*
X11340476Y-85464286D01*
X11278571Y-85526190D01*
X11154762Y-85588095D01*
X10659524Y-85588095D01*
X10659524Y-84288095D01*
X11092857Y-84288095D01*
X11216667Y-84350000D01*
X11278571Y-84411905D01*
X11340476Y-84535714D01*
X11340476Y-84659524D01*
X11278571Y-84783333D01*
X11216667Y-84845238D01*
X11092857Y-84907143D01*
X10659524Y-84907143D01*
D10*
D11*
X11402381Y-135464286D02*
X11340476Y-135526190D01*
X11154762Y-135588095D01*
X11030952Y-135588095D01*
X10845238Y-135526190D01*
X10721429Y-135402381D01*
X10659524Y-135278571D01*
X10597619Y-135030952D01*
X10597619Y-134845238D01*
X10659524Y-134597619D01*
X10721429Y-134473810D01*
X10845238Y-134350000D01*
X11030952Y-134288095D01*
X11154762Y-134288095D01*
X11340476Y-134350000D01*
X11402381Y-134411905D01*
D10*
D11*
X10659524Y-185588095D02*
X10659524Y-184288095D01*
X10969048Y-184288095D01*
X11154762Y-184350000D01*
X11278571Y-184473810D01*
X11340476Y-184597619D01*
X11402381Y-184845238D01*
X11402381Y-185030952D01*
X11340476Y-185278571D01*
X11278571Y-185402381D01*
X11154762Y-185526190D01*
X10969048Y-185588095D01*
X10659524Y-185588095D01*
D10*
D11*
X287002200Y-60000000D02*
X285002200Y-60000000D01*
D10*
D11*
X287002200Y-110000000D02*
X285002200Y-110000000D01*
D10*
D11*
X287002200Y-160000000D02*
X285002200Y-160000000D01*
D10*
D11*
X285692676Y-35216667D02*
X286311724Y-35216667D01*
X285568867Y-35588095D02*
X286002200Y-34288095D01*
X286435533Y-35588095D01*
D10*
D11*
X286095057Y-84907143D02*
X286280771Y-84969048D01*
X286342676Y-85030952D01*
X286404581Y-85154762D01*
X286404581Y-85340476D01*
X286342676Y-85464286D01*
X286280771Y-85526190D01*
X286156962Y-85588095D01*
X285661724Y-85588095D01*
X285661724Y-84288095D01*
X286095057Y-84288095D01*
X286218867Y-84350000D01*
X286280771Y-84411905D01*
X286342676Y-84535714D01*
X286342676Y-84659524D01*
X286280771Y-84783333D01*
X286218867Y-84845238D01*
X286095057Y-84907143D01*
X285661724Y-84907143D01*
D10*
D11*
X286404581Y-135464286D02*
X286342676Y-135526190D01*
X286156962Y-135588095D01*
X286033152Y-135588095D01*
X285847438Y-135526190D01*
X285723629Y-135402381D01*
X285661724Y-135278571D01*
X285599819Y-135030952D01*
X285599819Y-134845238D01*
X285661724Y-134597619D01*
X285723629Y-134473810D01*
X285847438Y-134350000D01*
X286033152Y-134288095D01*
X286156962Y-134288095D01*
X286342676Y-134350000D01*
X286404581Y-134411905D01*
D10*
D11*
X285661724Y-185588095D02*
X285661724Y-184288095D01*
X285971248Y-184288095D01*
X286156962Y-184350000D01*
X286280771Y-184473810D01*
X286342676Y-184597619D01*
X286404581Y-184845238D01*
X286404581Y-185030952D01*
X286342676Y-185278571D01*
X286280771Y-185402381D01*
X286156962Y-185526190D01*
X285971248Y-185588095D01*
X285661724Y-185588095D01*
D10*
D11*
X200359343Y-193785771D02*
X200359343Y-192285771D01*
X200716486Y-192285771D01*
X200930771Y-192357200D01*
X201073629Y-192500057D01*
X201145057Y-192642914D01*
X201216486Y-192928629D01*
X201216486Y-193142914D01*
X201145057Y-193428629D01*
X201073629Y-193571486D01*
X200930771Y-193714343D01*
X200716486Y-193785771D01*
X200359343Y-193785771D01*
X202502200Y-193785771D02*
X202502200Y-193000057D01*
X202430771Y-192857200D01*
X202287914Y-192785771D01*
X202002200Y-192785771D01*
X201859343Y-192857200D01*
X202502200Y-193714343D02*
X202359343Y-193785771D01*
X202002200Y-193785771D01*
X201859343Y-193714343D01*
X201787914Y-193571486D01*
X201787914Y-193428629D01*
X201859343Y-193285771D01*
X202002200Y-193214343D01*
X202359343Y-193214343D01*
X202502200Y-193142914D01*
X203002200Y-192785771D02*
X203573629Y-192785771D01*
X203216486Y-192285771D02*
X203216486Y-193571486D01*
X203287914Y-193714343D01*
X203430772Y-193785771D01*
X203573629Y-193785771D01*
X204645057Y-193714343D02*
X204502200Y-193785771D01*
X204216486Y-193785771D01*
X204073629Y-193714343D01*
X204002200Y-193571486D01*
X204002200Y-193000057D01*
X204073629Y-192857200D01*
X204216486Y-192785771D01*
X204502200Y-192785771D01*
X204645057Y-192857200D01*
X204716486Y-193000057D01*
X204716486Y-193142914D01*
X204002200Y-193285771D01*
X205359343Y-193642914D02*
X205430771Y-193714343D01*
X205359343Y-193785771D01*
X205287914Y-193714343D01*
X205359343Y-193642914D01*
X205359343Y-193785771D01*
X205359343Y-192857200D02*
X205430771Y-192928629D01*
X205359343Y-193000057D01*
X205287914Y-192928629D01*
X205359343Y-192857200D01*
X205359343Y-193000057D01*
D10*
D11*
X177002200Y-194507200D02*
X285002200Y-194507200D01*
D10*
D11*
X178359343Y-196585771D02*
X178359343Y-195085771D01*
X179216486Y-196585771D02*
X178573629Y-195728629D01*
X179216486Y-195085771D02*
X178359343Y-195942914D01*
X179859343Y-196585771D02*
X179859343Y-195585771D01*
X179859343Y-195085771D02*
X179787914Y-195157200D01*
X179859343Y-195228629D01*
X179930771Y-195157200D01*
X179859343Y-195085771D01*
X179859343Y-195228629D01*
X181430772Y-196442914D02*
X181359343Y-196514343D01*
X181145057Y-196585771D01*
X181002200Y-196585771D01*
X180787915Y-196514343D01*
X180645057Y-196371486D01*
X180573629Y-196228629D01*
X180502200Y-195942914D01*
X180502200Y-195728629D01*
X180573629Y-195442914D01*
X180645057Y-195300057D01*
X180787915Y-195157200D01*
X181002200Y-195085771D01*
X181145057Y-195085771D01*
X181359343Y-195157200D01*
X181430772Y-195228629D01*
X182716486Y-196585771D02*
X182716486Y-195800057D01*
X182645057Y-195657200D01*
X182502200Y-195585771D01*
X182216486Y-195585771D01*
X182073629Y-195657200D01*
X182716486Y-196514343D02*
X182573629Y-196585771D01*
X182216486Y-196585771D01*
X182073629Y-196514343D01*
X182002200Y-196371486D01*
X182002200Y-196228629D01*
X182073629Y-196085771D01*
X182216486Y-196014343D01*
X182573629Y-196014343D01*
X182716486Y-195942914D01*
X184073629Y-196585771D02*
X184073629Y-195085771D01*
X184073629Y-196514343D02*
X183930772Y-196585771D01*
X183645058Y-196585771D01*
X183502200Y-196514343D01*
X183430772Y-196442914D01*
X183359343Y-196300057D01*
X183359343Y-195871486D01*
X183430772Y-195728629D01*
X183502200Y-195657200D01*
X183645058Y-195585771D01*
X183930772Y-195585771D01*
X184073629Y-195657200D01*
X185930772Y-195800057D02*
X186430772Y-195800057D01*
X186645058Y-196585771D02*
X185930772Y-196585771D01*
X185930772Y-195085771D01*
X186645058Y-195085771D01*
X187287915Y-196442914D02*
X187359343Y-196514343D01*
X187287915Y-196585771D01*
X187216486Y-196514343D01*
X187287915Y-196442914D01*
X187287915Y-196585771D01*
X188002201Y-196585771D02*
X188002201Y-195085771D01*
X188359344Y-195085771D01*
X188573629Y-195157200D01*
X188716487Y-195300057D01*
X188787915Y-195442914D01*
X188859344Y-195728629D01*
X188859344Y-195942914D01*
X188787915Y-196228629D01*
X188716487Y-196371486D01*
X188573629Y-196514343D01*
X188359344Y-196585771D01*
X188002201Y-196585771D01*
X189502201Y-196442914D02*
X189573629Y-196514343D01*
X189502201Y-196585771D01*
X189430772Y-196514343D01*
X189502201Y-196442914D01*
X189502201Y-196585771D01*
X190145058Y-196157200D02*
X190859344Y-196157200D01*
X190002201Y-196585771D02*
X190502201Y-195085771D01*
X191002201Y-196585771D01*
X191502201Y-196442914D02*
X191573629Y-196514343D01*
X191502201Y-196585771D01*
X191430772Y-196514343D01*
X191502201Y-196442914D01*
X191502201Y-196585771D01*
X194502201Y-196585771D02*
X194502201Y-195085771D01*
X194645058Y-196014343D02*
X195073629Y-196585771D01*
X195073629Y-195585771D02*
X194502201Y-196157200D01*
X195716487Y-196585771D02*
X195716487Y-195585771D01*
X195716487Y-195085771D02*
X195645058Y-195157200D01*
X195716487Y-195228629D01*
X195787915Y-195157200D01*
X195716487Y-195085771D01*
X195716487Y-195228629D01*
X197073630Y-196514343D02*
X196930773Y-196585771D01*
X196645059Y-196585771D01*
X196502201Y-196514343D01*
X196430773Y-196442914D01*
X196359344Y-196300057D01*
X196359344Y-195871486D01*
X196430773Y-195728629D01*
X196502201Y-195657200D01*
X196645059Y-195585771D01*
X196930773Y-195585771D01*
X197073630Y-195657200D01*
X198359344Y-196585771D02*
X198359344Y-195800057D01*
X198287915Y-195657200D01*
X198145058Y-195585771D01*
X197859344Y-195585771D01*
X197716487Y-195657200D01*
X198359344Y-196514343D02*
X198216487Y-196585771D01*
X197859344Y-196585771D01*
X197716487Y-196514343D01*
X197645058Y-196371486D01*
X197645058Y-196228629D01*
X197716487Y-196085771D01*
X197859344Y-196014343D01*
X198216487Y-196014343D01*
X198359344Y-195942914D01*
X199716487Y-196585771D02*
X199716487Y-195085771D01*
X199716487Y-196514343D02*
X199573630Y-196585771D01*
X199287916Y-196585771D01*
X199145058Y-196514343D01*
X199073630Y-196442914D01*
X199002201Y-196300057D01*
X199002201Y-195871486D01*
X199073630Y-195728629D01*
X199145058Y-195657200D01*
X199287916Y-195585771D01*
X199573630Y-195585771D01*
X199716487Y-195657200D01*
X202216487Y-195585771D02*
X202216487Y-196585771D01*
X201859344Y-195014343D02*
X201502201Y-196085771D01*
X202430773Y-196085771D01*
X203002201Y-196442914D02*
X203073629Y-196514343D01*
X203002201Y-196585771D01*
X202930772Y-196514343D01*
X203002201Y-196442914D01*
X203002201Y-196585771D01*
X204002201Y-195085771D02*
X204145058Y-195085771D01*
X204287915Y-195157200D01*
X204359344Y-195228629D01*
X204430773Y-195371486D01*
X204502201Y-195657200D01*
X204502201Y-196014343D01*
X204430773Y-196300057D01*
X204359344Y-196442914D01*
X204287915Y-196514343D01*
X204145058Y-196585771D01*
X204002201Y-196585771D01*
X203859344Y-196514343D01*
X203787915Y-196442914D01*
X203716487Y-196300057D01*
X203645058Y-196014343D01*
X203645058Y-195657200D01*
X203716487Y-195371486D01*
X203787915Y-195228629D01*
X203859344Y-195157200D01*
X204002201Y-195085771D01*
X205145058Y-196442914D02*
X205216486Y-196514343D01*
X205145058Y-196585771D01*
X205073629Y-196514343D01*
X205145058Y-196442914D01*
X205145058Y-196585771D01*
X206573630Y-195085771D02*
X205859344Y-195085771D01*
X205787915Y-195800057D01*
X205859344Y-195728629D01*
X206002201Y-195657200D01*
X206359344Y-195657200D01*
X206502201Y-195728629D01*
X206573630Y-195800057D01*
X206645058Y-195942914D01*
X206645058Y-196300057D01*
X206573630Y-196442914D01*
X206502201Y-196514343D01*
X206359344Y-196585771D01*
X206002201Y-196585771D01*
X205859344Y-196514343D01*
X205787915Y-196442914D01*
D10*
D11*
X177002200Y-191507200D02*
X285002200Y-191507200D01*
D10*
D12*
X264216486Y-193785771D02*
X263716486Y-193071486D01*
X263359343Y-193785771D02*
X263359343Y-192285771D01*
X263930771Y-192285771D01*
X264073629Y-192357200D01*
X264145057Y-192428629D01*
X264216486Y-192571486D01*
X264216486Y-192785771D01*
X264145057Y-192928629D01*
X264073629Y-193000057D01*
X263930771Y-193071486D01*
X263359343Y-193071486D01*
X265430771Y-193714343D02*
X265287914Y-193785771D01*
X265002200Y-193785771D01*
X264859343Y-193714343D01*
X264787914Y-193571486D01*
X264787914Y-193000057D01*
X264859343Y-192857200D01*
X265002200Y-192785771D01*
X265287914Y-192785771D01*
X265430771Y-192857200D01*
X265502200Y-193000057D01*
X265502200Y-193142914D01*
X264787914Y-193285771D01*
X266002200Y-192785771D02*
X266359343Y-193785771D01*
X266716485Y-192785771D01*
X267287914Y-193642914D02*
X267359342Y-193714343D01*
X267287914Y-193785771D01*
X267216485Y-193714343D01*
X267287914Y-193642914D01*
X267287914Y-193785771D01*
X267287914Y-192857200D02*
X267359342Y-192928629D01*
X267287914Y-193000057D01*
X267216485Y-192928629D01*
X267287914Y-192857200D01*
X267287914Y-193000057D01*
D10*
D11*
X178287914Y-193714343D02*
X178502200Y-193785771D01*
X178859343Y-193785771D01*
X179002200Y-193714343D01*
X179073629Y-193642914D01*
X179145057Y-193500057D01*
X179145057Y-193357200D01*
X179073629Y-193214343D01*
X179002200Y-193142914D01*
X178859343Y-193071486D01*
X178573629Y-193000057D01*
X178430771Y-192928629D01*
X178359343Y-192857200D01*
X178287914Y-192714343D01*
X178287914Y-192571486D01*
X178359343Y-192428629D01*
X178430771Y-192357200D01*
X178573629Y-192285771D01*
X178930771Y-192285771D01*
X179145057Y-192357200D01*
X179787914Y-193785771D02*
X179787914Y-192785771D01*
X179787914Y-192285771D02*
X179716485Y-192357200D01*
X179787914Y-192428629D01*
X179859342Y-192357200D01*
X179787914Y-192285771D01*
X179787914Y-192428629D01*
X180359343Y-192785771D02*
X181145057Y-192785771D01*
X180359343Y-193785771D01*
X181145057Y-193785771D01*
X182287914Y-193714343D02*
X182145057Y-193785771D01*
X181859343Y-193785771D01*
X181716486Y-193714343D01*
X181645057Y-193571486D01*
X181645057Y-193000057D01*
X181716486Y-192857200D01*
X181859343Y-192785771D01*
X182145057Y-192785771D01*
X182287914Y-192857200D01*
X182359343Y-193000057D01*
X182359343Y-193142914D01*
X181645057Y-193285771D01*
X183002200Y-193642914D02*
X183073628Y-193714343D01*
X183002200Y-193785771D01*
X182930771Y-193714343D01*
X183002200Y-193642914D01*
X183002200Y-193785771D01*
X183002200Y-192857200D02*
X183073628Y-192928629D01*
X183002200Y-193000057D01*
X182930771Y-192928629D01*
X183002200Y-192857200D01*
X183002200Y-193000057D01*
X184787914Y-193357200D02*
X185502200Y-193357200D01*
X184645057Y-193785771D02*
X185145057Y-192285771D01*
X185645057Y-193785771D01*
X186787914Y-192785771D02*
X186787914Y-193785771D01*
X186430771Y-192214343D02*
X186073628Y-193285771D01*
X187002200Y-193285771D01*
D10*
D11*
X263359343Y-196585771D02*
X263359343Y-195085771D01*
X264716486Y-196585771D02*
X264716486Y-195085771D01*
X264716486Y-196514343D02*
X264573629Y-196585771D01*
X264287915Y-196585771D01*
X264145057Y-196514343D01*
X264073629Y-196442914D01*
X264002200Y-196300057D01*
X264002200Y-195871486D01*
X264073629Y-195728629D01*
X264145057Y-195657200D01*
X264287915Y-195585771D01*
X264573629Y-195585771D01*
X264716486Y-195657200D01*
X265430772Y-196442914D02*
X265502200Y-196514343D01*
X265430772Y-196585771D01*
X265359343Y-196514343D01*
X265430772Y-196442914D01*
X265430772Y-196585771D01*
X265430772Y-195657200D02*
X265502200Y-195728629D01*
X265430772Y-195800057D01*
X265359343Y-195728629D01*
X265430772Y-195657200D01*
X265430772Y-195800057D01*
X268073629Y-196585771D02*
X267216486Y-196585771D01*
X267645058Y-196585771D02*
X267645058Y-195085771D01*
X267502201Y-195300057D01*
X267359343Y-195442914D01*
X267216486Y-195514343D01*
X269787914Y-195014343D02*
X268502200Y-196942914D01*
X271073629Y-196585771D02*
X270216486Y-196585771D01*
X270645058Y-196585771D02*
X270645058Y-195085771D01*
X270502201Y-195300057D01*
X270359343Y-195442914D01*
X270216486Y-195514343D01*
D10*
D11*
X177002200Y-187507200D02*
X285002200Y-187507200D01*
D10*
D13*
X178454581Y-188211962D02*
X179597438Y-188211962D01*
X178776010Y-190211962D02*
X179026010Y-188211962D01*
X180014105Y-190211962D02*
X180180771Y-188878629D01*
X180264105Y-188211962D02*
X180156962Y-188307200D01*
X180240295Y-188402438D01*
X180347439Y-188307200D01*
X180264105Y-188211962D01*
X180240295Y-188402438D01*
X180847438Y-188878629D02*
X181609343Y-188878629D01*
X181216486Y-188211962D02*
X181002200Y-189926248D01*
X181073630Y-190116724D01*
X181252201Y-190211962D01*
X181442677Y-190211962D01*
X182395058Y-190211962D02*
X182216487Y-190116724D01*
X182145057Y-189926248D01*
X182359343Y-188211962D01*
X183930772Y-190116724D02*
X183728391Y-190211962D01*
X183347439Y-190211962D01*
X183168867Y-190116724D01*
X183097438Y-189926248D01*
X183192676Y-189164343D01*
X183311724Y-188973867D01*
X183514105Y-188878629D01*
X183895057Y-188878629D01*
X184073629Y-188973867D01*
X184145057Y-189164343D01*
X184121248Y-189354819D01*
X183145057Y-189545295D01*
X184895057Y-190021486D02*
X184978392Y-190116724D01*
X184871248Y-190211962D01*
X184787915Y-190116724D01*
X184895057Y-190021486D01*
X184871248Y-190211962D01*
X185026010Y-188973867D02*
X185109344Y-189069105D01*
X185002200Y-189164343D01*
X184918867Y-189069105D01*
X185026010Y-188973867D01*
X185002200Y-189164343D01*
D10*
D11*
X178859343Y-185600057D02*
X178359343Y-185600057D01*
X178359343Y-186385771D02*
X178359343Y-184885771D01*
X179073629Y-184885771D01*
X179645057Y-186385771D02*
X179645057Y-185385771D01*
X179645057Y-184885771D02*
X179573628Y-184957200D01*
X179645057Y-185028629D01*
X179716485Y-184957200D01*
X179645057Y-184885771D01*
X179645057Y-185028629D01*
X180573629Y-186385771D02*
X180430771Y-186314343D01*
X180359343Y-186171486D01*
X180359343Y-184885771D01*
X181716485Y-186314343D02*
X181573628Y-186385771D01*
X181287914Y-186385771D01*
X181145057Y-186314343D01*
X181073628Y-186171486D01*
X181073628Y-185600057D01*
X181145057Y-185457200D01*
X181287914Y-185385771D01*
X181573628Y-185385771D01*
X181716485Y-185457200D01*
X181787914Y-185600057D01*
X181787914Y-185742914D01*
X181073628Y-185885771D01*
X182430771Y-186242914D02*
X182502199Y-186314343D01*
X182430771Y-186385771D01*
X182359342Y-186314343D01*
X182430771Y-186242914D01*
X182430771Y-186385771D01*
X182430771Y-185457200D02*
X182502199Y-185528629D01*
X182430771Y-185600057D01*
X182359342Y-185528629D01*
X182430771Y-185457200D01*
X182430771Y-185600057D01*
X185073628Y-184957200D02*
X184930771Y-184885771D01*
X184716485Y-184885771D01*
X184502200Y-184957200D01*
X184359342Y-185100057D01*
X184287914Y-185242914D01*
X184216485Y-185528629D01*
X184216485Y-185742914D01*
X184287914Y-186028629D01*
X184359342Y-186171486D01*
X184502200Y-186314343D01*
X184716485Y-186385771D01*
X184859342Y-186385771D01*
X185073628Y-186314343D01*
X185145057Y-186242914D01*
X185145057Y-185742914D01*
X184859342Y-185742914D01*
X186430771Y-186385771D02*
X186430771Y-185600057D01*
X186359342Y-185457200D01*
X186216485Y-185385771D01*
X185930771Y-185385771D01*
X185787914Y-185457200D01*
X186430771Y-186314343D02*
X186287914Y-186385771D01*
X185930771Y-186385771D01*
X185787914Y-186314343D01*
X185716485Y-186171486D01*
X185716485Y-186028629D01*
X185787914Y-185885771D01*
X185930771Y-185814343D01*
X186287914Y-185814343D01*
X186430771Y-185742914D01*
X187073628Y-186314343D02*
X187216485Y-186385771D01*
X187502200Y-186385771D01*
X187645057Y-186314343D01*
X187716485Y-186171486D01*
X187716485Y-186100057D01*
X187645057Y-185957200D01*
X187502200Y-185885771D01*
X187287914Y-185885771D01*
X187145057Y-185814343D01*
X187073628Y-185671486D01*
X187073628Y-185600057D01*
X187145057Y-185457200D01*
X187287914Y-185385771D01*
X187502200Y-185385771D01*
X187645057Y-185457200D01*
X188359343Y-186385771D02*
X188359343Y-184885771D01*
X188930771Y-184885771D01*
X189073629Y-184957200D01*
X189145057Y-185028629D01*
X189216486Y-185171486D01*
X189216486Y-185385771D01*
X189145057Y-185528629D01*
X189073629Y-185600057D01*
X188930771Y-185671486D01*
X188359343Y-185671486D01*
X190716486Y-186242914D02*
X190645057Y-186314343D01*
X190430771Y-186385771D01*
X190287914Y-186385771D01*
X190073629Y-186314343D01*
X189930771Y-186171486D01*
X189859343Y-186028629D01*
X189787914Y-185742914D01*
X189787914Y-185528629D01*
X189859343Y-185242914D01*
X189930771Y-185100057D01*
X190073629Y-184957200D01*
X190287914Y-184885771D01*
X190430771Y-184885771D01*
X190645057Y-184957200D01*
X190716486Y-185028629D01*
X191859343Y-185600057D02*
X192073629Y-185671486D01*
X192145057Y-185742914D01*
X192216486Y-185885771D01*
X192216486Y-186100057D01*
X192145057Y-186242914D01*
X192073629Y-186314343D01*
X191930771Y-186385771D01*
X191359343Y-186385771D01*
X191359343Y-184885771D01*
X191859343Y-184885771D01*
X192002200Y-184957200D01*
X192073629Y-185028629D01*
X192145057Y-185171486D01*
X192145057Y-185314343D01*
X192073629Y-185457200D01*
X192002200Y-185528629D01*
X191859343Y-185600057D01*
X191359343Y-185600057D01*
X192859343Y-186242914D02*
X192930771Y-186314343D01*
X192859343Y-186385771D01*
X192787914Y-186314343D01*
X192859343Y-186242914D01*
X192859343Y-186385771D01*
X193573629Y-186385771D02*
X193573629Y-184885771D01*
X193716486Y-185814343D02*
X194145057Y-186385771D01*
X194145057Y-185385771D02*
X193573629Y-185957200D01*
X194787915Y-186385771D02*
X194787915Y-185385771D01*
X194787915Y-184885771D02*
X194716486Y-184957200D01*
X194787915Y-185028629D01*
X194859343Y-184957200D01*
X194787915Y-184885771D01*
X194787915Y-185028629D01*
X196145058Y-186314343D02*
X196002201Y-186385771D01*
X195716487Y-186385771D01*
X195573629Y-186314343D01*
X195502201Y-186242914D01*
X195430772Y-186100057D01*
X195430772Y-185671486D01*
X195502201Y-185528629D01*
X195573629Y-185457200D01*
X195716487Y-185385771D01*
X196002201Y-185385771D01*
X196145058Y-185457200D01*
X197430772Y-186385771D02*
X197430772Y-185600057D01*
X197359343Y-185457200D01*
X197216486Y-185385771D01*
X196930772Y-185385771D01*
X196787915Y-185457200D01*
X197430772Y-186314343D02*
X197287915Y-186385771D01*
X196930772Y-186385771D01*
X196787915Y-186314343D01*
X196716486Y-186171486D01*
X196716486Y-186028629D01*
X196787915Y-185885771D01*
X196930772Y-185814343D01*
X197287915Y-185814343D01*
X197430772Y-185742914D01*
X198787915Y-186385771D02*
X198787915Y-184885771D01*
X198787915Y-186314343D02*
X198645058Y-186385771D01*
X198359344Y-186385771D01*
X198216486Y-186314343D01*
X198145058Y-186242914D01*
X198073629Y-186100057D01*
X198073629Y-185671486D01*
X198145058Y-185528629D01*
X198216486Y-185457200D01*
X198359344Y-185385771D01*
X198645058Y-185385771D01*
X198787915Y-185457200D01*
X199145058Y-186528629D02*
X200287915Y-186528629D01*
X200645058Y-185385771D02*
X200645058Y-186885771D01*
X200645058Y-185457200D02*
X200787915Y-185385771D01*
X201073629Y-185385771D01*
X201216486Y-185457200D01*
X201287915Y-185528629D01*
X201359344Y-185671486D01*
X201359344Y-186100057D01*
X201287915Y-186242914D01*
X201216486Y-186314343D01*
X201073629Y-186385771D01*
X200787915Y-186385771D01*
X200645058Y-186314343D01*
X202645058Y-186314343D02*
X202502201Y-186385771D01*
X202216487Y-186385771D01*
X202073629Y-186314343D01*
X202002201Y-186242914D01*
X201930772Y-186100057D01*
X201930772Y-185671486D01*
X202002201Y-185528629D01*
X202073629Y-185457200D01*
X202216487Y-185385771D01*
X202502201Y-185385771D01*
X202645058Y-185457200D01*
X203287915Y-186385771D02*
X203287915Y-184885771D01*
X203287915Y-185457200D02*
X203430772Y-185385771D01*
X203716486Y-185385771D01*
X203859343Y-185457200D01*
X203930772Y-185528629D01*
X204002201Y-185671486D01*
X204002201Y-186100057D01*
X203930772Y-186242914D01*
X203859343Y-186314343D01*
X203716486Y-186385771D01*
X203430772Y-186385771D01*
X203287915Y-186314343D01*
D10*
D11*
X177002200Y-181507200D02*
X285002200Y-181507200D01*
D10*
D11*
X178287914Y-183614343D02*
X178502200Y-183685771D01*
X178859343Y-183685771D01*
X179002200Y-183614343D01*
X179073629Y-183542914D01*
X179145057Y-183400057D01*
X179145057Y-183257200D01*
X179073629Y-183114343D01*
X179002200Y-183042914D01*
X178859343Y-182971486D01*
X178573629Y-182900057D01*
X178430771Y-182828629D01*
X178359343Y-182757200D01*
X178287914Y-182614343D01*
X178287914Y-182471486D01*
X178359343Y-182328629D01*
X178430771Y-182257200D01*
X178573629Y-182185771D01*
X178930771Y-182185771D01*
X179145057Y-182257200D01*
X179787914Y-183685771D02*
X179787914Y-182185771D01*
X180430771Y-183685771D02*
X180430771Y-182900057D01*
X180359342Y-182757200D01*
X180216485Y-182685771D01*
X180002200Y-182685771D01*
X179859342Y-182757200D01*
X179787914Y-182828629D01*
X181716485Y-183614343D02*
X181573628Y-183685771D01*
X181287914Y-183685771D01*
X181145057Y-183614343D01*
X181073628Y-183471486D01*
X181073628Y-182900057D01*
X181145057Y-182757200D01*
X181287914Y-182685771D01*
X181573628Y-182685771D01*
X181716485Y-182757200D01*
X181787914Y-182900057D01*
X181787914Y-183042914D01*
X181073628Y-183185771D01*
X183002199Y-183614343D02*
X182859342Y-183685771D01*
X182573628Y-183685771D01*
X182430771Y-183614343D01*
X182359342Y-183471486D01*
X182359342Y-182900057D01*
X182430771Y-182757200D01*
X182573628Y-182685771D01*
X182859342Y-182685771D01*
X183002199Y-182757200D01*
X183073628Y-182900057D01*
X183073628Y-183042914D01*
X182359342Y-183185771D01*
X183502199Y-182685771D02*
X184073628Y-182685771D01*
X183716485Y-182185771D02*
X183716485Y-183471486D01*
X183787913Y-183614343D01*
X183930771Y-183685771D01*
X184073628Y-183685771D01*
X184573628Y-183542914D02*
X184645056Y-183614343D01*
X184573628Y-183685771D01*
X184502199Y-183614343D01*
X184573628Y-183542914D01*
X184573628Y-183685771D01*
X184573628Y-182757200D02*
X184645056Y-182828629D01*
X184573628Y-182900057D01*
X184502199Y-182828629D01*
X184573628Y-182757200D01*
X184573628Y-182900057D01*
D10*
D11*
X197002200Y-191507200D02*
X197002200Y-194507200D01*
D10*
D11*
X261002200Y-191507200D02*
X261002200Y-198007200D01*
D12*
X169152857Y-93388571D02*
X168652857Y-92674286D01*
X168295714Y-93388571D02*
X168295714Y-91888571D01*
X168867142Y-91888571D01*
X169010000Y-91960000D01*
X169081428Y-92031429D01*
X169152857Y-92174286D01*
X169152857Y-92388571D01*
X169081428Y-92531429D01*
X169010000Y-92602857D01*
X168867142Y-92674286D01*
X168295714Y-92674286D01*
X170367142Y-93317143D02*
X170224285Y-93388571D01*
X169938571Y-93388571D01*
X169795714Y-93317143D01*
X169724285Y-93174286D01*
X169724285Y-92602857D01*
X169795714Y-92460000D01*
X169938571Y-92388571D01*
X170224285Y-92388571D01*
X170367142Y-92460000D01*
X170438571Y-92602857D01*
X170438571Y-92745714D01*
X169724285Y-92888571D01*
X170938571Y-92388571D02*
X171295714Y-93388571D01*
X171652856Y-92388571D01*
X172224285Y-93388571D02*
X172224285Y-92388571D01*
X172224285Y-91888571D02*
X172152856Y-91960000D01*
X172224285Y-92031429D01*
X172295713Y-91960000D01*
X172224285Y-91888571D01*
X172224285Y-92031429D01*
X172867142Y-93317143D02*
X173009999Y-93388571D01*
X173295714Y-93388571D01*
X173438571Y-93317143D01*
X173509999Y-93174286D01*
X173509999Y-93102857D01*
X173438571Y-92960000D01*
X173295714Y-92888571D01*
X173081428Y-92888571D01*
X172938571Y-92817143D01*
X172867142Y-92674286D01*
X172867142Y-92602857D01*
X172938571Y-92460000D01*
X173081428Y-92388571D01*
X173295714Y-92388571D01*
X173438571Y-92460000D01*
X174152857Y-93388571D02*
X174152857Y-92388571D01*
X174152857Y-91888571D02*
X174081428Y-91960000D01*
X174152857Y-92031429D01*
X174224285Y-91960000D01*
X174152857Y-91888571D01*
X174152857Y-92031429D01*
X175081429Y-93388571D02*
X174938571Y-93317143D01*
X174867143Y-93245714D01*
X174795714Y-93102857D01*
X174795714Y-92674286D01*
X174867143Y-92531429D01*
X174938571Y-92460000D01*
X175081429Y-92388571D01*
X175295714Y-92388571D01*
X175438571Y-92460000D01*
X175510000Y-92531429D01*
X175581429Y-92674286D01*
X175581429Y-93102857D01*
X175510000Y-93245714D01*
X175438571Y-93317143D01*
X175295714Y-93388571D01*
X175081429Y-93388571D01*
X176224286Y-92388571D02*
X176224286Y-93388571D01*
X176224286Y-92531429D02*
X176295714Y-92460000D01*
X176438572Y-92388571D01*
X176652857Y-92388571D01*
X176795714Y-92460000D01*
X176867143Y-92602857D01*
X176867143Y-93388571D01*
X179010000Y-91888571D02*
X179295714Y-91888571D01*
X179438572Y-91960000D01*
X179581429Y-92102857D01*
X179652857Y-92388571D01*
X179652857Y-92888571D01*
X179581429Y-93174286D01*
X179438572Y-93317143D01*
X179295714Y-93388571D01*
X179010000Y-93388571D01*
X178867143Y-93317143D01*
X178724286Y-93174286D01*
X178652857Y-92888571D01*
X178652857Y-92388571D01*
X178724286Y-92102857D01*
X178867143Y-91960000D01*
X179010000Y-91888571D01*
X180295715Y-92388571D02*
X180295715Y-93388571D01*
X180295715Y-92531429D02*
X180367143Y-92460000D01*
X180510001Y-92388571D01*
X180724286Y-92388571D01*
X180867143Y-92460000D01*
X180938572Y-92602857D01*
X180938572Y-93388571D01*
X182224286Y-93317143D02*
X182081429Y-93388571D01*
X181795715Y-93388571D01*
X181652858Y-93317143D01*
X181581429Y-93174286D01*
X181581429Y-92602857D01*
X181652858Y-92460000D01*
X181795715Y-92388571D01*
X182081429Y-92388571D01*
X182224286Y-92460000D01*
X182295715Y-92602857D01*
X182295715Y-92745714D01*
X181581429Y-92888571D01*
X105868572Y-93317143D02*
X106082858Y-93388571D01*
X106440001Y-93388571D01*
X106582858Y-93317143D01*
X106654287Y-93245714D01*
X106725715Y-93102857D01*
X106725715Y-92960000D01*
X106654287Y-92817143D01*
X106582858Y-92745714D01*
X106440001Y-92674286D01*
X106154287Y-92602857D01*
X106011429Y-92531429D01*
X105940001Y-92460000D01*
X105868572Y-92317143D01*
X105868572Y-92174286D01*
X105940001Y-92031429D01*
X106011429Y-91960000D01*
X106154287Y-91888571D01*
X106511429Y-91888571D01*
X106725715Y-91960000D01*
X107940000Y-93317143D02*
X107797143Y-93388571D01*
X107511429Y-93388571D01*
X107368572Y-93317143D01*
X107297143Y-93174286D01*
X107297143Y-92602857D01*
X107368572Y-92460000D01*
X107511429Y-92388571D01*
X107797143Y-92388571D01*
X107940000Y-92460000D01*
X108011429Y-92602857D01*
X108011429Y-92745714D01*
X107297143Y-92888571D01*
X109225714Y-93317143D02*
X109082857Y-93388571D01*
X108797143Y-93388571D01*
X108654286Y-93317143D01*
X108582857Y-93174286D01*
X108582857Y-92602857D01*
X108654286Y-92460000D01*
X108797143Y-92388571D01*
X109082857Y-92388571D01*
X109225714Y-92460000D01*
X109297143Y-92602857D01*
X109297143Y-92745714D01*
X108582857Y-92888571D01*
X109940000Y-93388571D02*
X109940000Y-92388571D01*
X109940000Y-91888571D02*
X109868571Y-91960000D01*
X109940000Y-92031429D01*
X110011428Y-91960000D01*
X109940000Y-91888571D01*
X109940000Y-92031429D01*
X110654286Y-92388571D02*
X110654286Y-93388571D01*
X110654286Y-92531429D02*
X110725714Y-92460000D01*
X110868572Y-92388571D01*
X111082857Y-92388571D01*
X111225714Y-92460000D01*
X111297143Y-92602857D01*
X111297143Y-93388571D01*
X112654286Y-92388571D02*
X112654286Y-93602857D01*
X112582857Y-93745714D01*
X112511429Y-93817143D01*
X112368572Y-93888571D01*
X112154286Y-93888571D01*
X112011429Y-93817143D01*
X112654286Y-93317143D02*
X112511429Y-93388571D01*
X112225715Y-93388571D01*
X112082857Y-93317143D01*
X112011429Y-93245714D01*
X111940000Y-93102857D01*
X111940000Y-92674286D01*
X112011429Y-92531429D01*
X112082857Y-92460000D01*
X112225715Y-92388571D01*
X112511429Y-92388571D01*
X112654286Y-92460000D01*
X115225715Y-93388571D02*
X114511429Y-93388571D01*
X114511429Y-91888571D01*
X115725715Y-93388571D02*
X115725715Y-92388571D01*
X115725715Y-91888571D02*
X115654286Y-91960000D01*
X115725715Y-92031429D01*
X115797143Y-91960000D01*
X115725715Y-91888571D01*
X115725715Y-92031429D01*
X116440001Y-93388571D02*
X116440001Y-91888571D01*
X116582858Y-92817143D02*
X117011429Y-93388571D01*
X117011429Y-92388571D02*
X116440001Y-92960000D01*
X118225715Y-93317143D02*
X118082858Y-93388571D01*
X117797144Y-93388571D01*
X117654287Y-93317143D01*
X117582858Y-93174286D01*
X117582858Y-92602857D01*
X117654287Y-92460000D01*
X117797144Y-92388571D01*
X118082858Y-92388571D01*
X118225715Y-92460000D01*
X118297144Y-92602857D01*
X118297144Y-92745714D01*
X117582858Y-92888571D01*
X120011429Y-92960000D02*
X120725715Y-92960000D01*
X119868572Y-93388571D02*
X120368572Y-91888571D01*
X120868572Y-93388571D01*
X123011429Y-92602857D02*
X123225715Y-92674286D01*
X123297143Y-92745714D01*
X123368572Y-92888571D01*
X123368572Y-93102857D01*
X123297143Y-93245714D01*
X123225715Y-93317143D01*
X123082857Y-93388571D01*
X122511429Y-93388571D01*
X122511429Y-91888571D01*
X123011429Y-91888571D01*
X123154286Y-91960000D01*
X123225715Y-92031429D01*
X123297143Y-92174286D01*
X123297143Y-92317143D01*
X123225715Y-92460000D01*
X123154286Y-92531429D01*
X123011429Y-92602857D01*
X122511429Y-92602857D01*
X124011429Y-93388571D02*
X124011429Y-92388571D01*
X124011429Y-91888571D02*
X123940000Y-91960000D01*
X124011429Y-92031429D01*
X124082857Y-91960000D01*
X124011429Y-91888571D01*
X124011429Y-92031429D01*
X124725715Y-93388571D02*
X124725715Y-91888571D01*
X124868572Y-92817143D02*
X125297143Y-93388571D01*
X125297143Y-92388571D02*
X124725715Y-92960000D01*
X126511429Y-93317143D02*
X126368572Y-93388571D01*
X126082858Y-93388571D01*
X125940001Y-93317143D01*
X125868572Y-93174286D01*
X125868572Y-92602857D01*
X125940001Y-92460000D01*
X126082858Y-92388571D01*
X126368572Y-92388571D01*
X126511429Y-92460000D01*
X126582858Y-92602857D01*
X126582858Y-92745714D01*
X125868572Y-92888571D01*
X129154286Y-91960000D02*
X129011429Y-91888571D01*
X128797143Y-91888571D01*
X128582858Y-91960000D01*
X128440000Y-92102857D01*
X128368572Y-92245714D01*
X128297143Y-92531429D01*
X128297143Y-92745714D01*
X128368572Y-93031429D01*
X128440000Y-93174286D01*
X128582858Y-93317143D01*
X128797143Y-93388571D01*
X128940000Y-93388571D01*
X129154286Y-93317143D01*
X129225715Y-93245714D01*
X129225715Y-92745714D01*
X128940000Y-92745714D01*
X130511429Y-93388571D02*
X130511429Y-92602857D01*
X130440000Y-92460000D01*
X130297143Y-92388571D01*
X130011429Y-92388571D01*
X129868572Y-92460000D01*
X130511429Y-93317143D02*
X130368572Y-93388571D01*
X130011429Y-93388571D01*
X129868572Y-93317143D01*
X129797143Y-93174286D01*
X129797143Y-93031429D01*
X129868572Y-92888571D01*
X130011429Y-92817143D01*
X130368572Y-92817143D01*
X130511429Y-92745714D01*
X131154286Y-93317143D02*
X131297143Y-93388571D01*
X131582858Y-93388571D01*
X131725715Y-93317143D01*
X131797143Y-93174286D01*
X131797143Y-93102857D01*
X131725715Y-92960000D01*
X131582858Y-92888571D01*
X131368572Y-92888571D01*
X131225715Y-92817143D01*
X131154286Y-92674286D01*
X131154286Y-92602857D01*
X131225715Y-92460000D01*
X131368572Y-92388571D01*
X131582858Y-92388571D01*
X131725715Y-92460000D01*
X133511429Y-93317143D02*
X133725715Y-93388571D01*
X134082858Y-93388571D01*
X134225715Y-93317143D01*
X134297144Y-93245714D01*
X134368572Y-93102857D01*
X134368572Y-92960000D01*
X134297144Y-92817143D01*
X134225715Y-92745714D01*
X134082858Y-92674286D01*
X133797144Y-92602857D01*
X133654286Y-92531429D01*
X133582858Y-92460000D01*
X133511429Y-92317143D01*
X133511429Y-92174286D01*
X133582858Y-92031429D01*
X133654286Y-91960000D01*
X133797144Y-91888571D01*
X134154286Y-91888571D01*
X134368572Y-91960000D01*
X135582857Y-93317143D02*
X135440000Y-93388571D01*
X135154286Y-93388571D01*
X135011429Y-93317143D01*
X134940000Y-93174286D01*
X134940000Y-92602857D01*
X135011429Y-92460000D01*
X135154286Y-92388571D01*
X135440000Y-92388571D01*
X135582857Y-92460000D01*
X135654286Y-92602857D01*
X135654286Y-92745714D01*
X134940000Y-92888571D01*
X136297143Y-92388571D02*
X136297143Y-93388571D01*
X136297143Y-92531429D02*
X136368571Y-92460000D01*
X136511429Y-92388571D01*
X136725714Y-92388571D01*
X136868571Y-92460000D01*
X136940000Y-92602857D01*
X136940000Y-93388571D01*
X137582857Y-93317143D02*
X137725714Y-93388571D01*
X138011429Y-93388571D01*
X138154286Y-93317143D01*
X138225714Y-93174286D01*
X138225714Y-93102857D01*
X138154286Y-92960000D01*
X138011429Y-92888571D01*
X137797143Y-92888571D01*
X137654286Y-92817143D01*
X137582857Y-92674286D01*
X137582857Y-92602857D01*
X137654286Y-92460000D01*
X137797143Y-92388571D01*
X138011429Y-92388571D01*
X138154286Y-92460000D01*
X139082858Y-93388571D02*
X138940000Y-93317143D01*
X138868572Y-93245714D01*
X138797143Y-93102857D01*
X138797143Y-92674286D01*
X138868572Y-92531429D01*
X138940000Y-92460000D01*
X139082858Y-92388571D01*
X139297143Y-92388571D01*
X139440000Y-92460000D01*
X139511429Y-92531429D01*
X139582858Y-92674286D01*
X139582858Y-93102857D01*
X139511429Y-93245714D01*
X139440000Y-93317143D01*
X139297143Y-93388571D01*
X139082858Y-93388571D01*
X140225715Y-93388571D02*
X140225715Y-92388571D01*
X140225715Y-92674286D02*
X140297143Y-92531429D01*
X140368572Y-92460000D01*
X140511429Y-92388571D01*
X140654286Y-92388571D01*
D11*
X69390000Y-58660000D02*
X69390000Y-79660000D01*
X69390000Y-79660000D02*
X90390000Y-79660000D01*
X90390000Y-79660000D02*
X90390000Y-58660000D01*
X90390000Y-58660000D02*
X69390000Y-58660000D01*
D14*
X68990000Y-86950000D02*
X70710000Y-86950000D01*
X70710000Y-86950000D02*
X70710000Y-83230000D01*
X70710000Y-83230000D02*
X68990000Y-83230000D01*
X68990000Y-83230000D02*
X68990000Y-86950000D01*
X69850000Y-88020000D02*
X69850000Y-86950000D01*
X69850000Y-82160000D02*
X69850000Y-83230000D01*
D11*
X47300000Y-88000000D02*
X65300000Y-88000000D01*
X65300000Y-88000000D02*
X65300000Y-62000000D01*
X65300000Y-62000000D02*
X53300000Y-62000000D01*
X53300000Y-62000000D02*
X53300000Y-88000000D01*
X48199040Y-74930000D02*
X47701200Y-74930000D01*
X53500020Y-87929720D02*
X53500020Y-61930280D01*
X53898800Y-61930280D02*
X53898800Y-87929720D01*
X48199040Y-87929720D02*
X48199040Y-61930280D01*
X47701200Y-61930280D02*
X47701200Y-87929720D01*
X48199040Y-72430640D02*
X47701200Y-72430640D01*
X48199040Y-77429360D02*
X47701200Y-77429360D01*
X48199040Y-85130640D02*
X47701200Y-85130640D01*
X48199040Y-82529680D02*
X47701200Y-82529680D01*
X48199040Y-80032860D02*
X47701200Y-80032860D01*
X48199040Y-69829680D02*
X47701200Y-69829680D01*
X48199040Y-67332860D02*
X47701200Y-67332860D01*
X47701200Y-62130940D02*
X48199040Y-62130940D01*
X48199040Y-87729060D02*
X47701200Y-87729060D01*
X47701200Y-64734440D02*
X48199040Y-64734440D01*
X47701200Y-87927180D02*
X53898800Y-87927180D01*
X53898800Y-61932820D02*
X47701200Y-61932820D01*
X140510000Y-58660000D02*
X140510000Y-79660000D01*
X140510000Y-79660000D02*
X161510000Y-79660000D01*
X161510000Y-79660000D02*
X161510000Y-58660000D01*
X161510000Y-58660000D02*
X140510000Y-58660000D01*
X47970000Y-54570000D02*
X47470000Y-54570000D01*
X53970000Y-57070000D02*
G75*
G03X53970000Y-57070000I-2000000J0D01*
G01*
X53970000Y-52070000D02*
G75*
G03X53970000Y-52070000I-2000000J0D01*
G01*
X49470000Y-49570000D02*
X49470000Y-59570000D01*
X54370000Y-49570000D02*
X54370000Y-59570000D01*
X47970000Y-49570000D02*
X47970000Y-59570000D01*
X47470000Y-49570000D02*
X47470000Y-59570000D01*
X47470000Y-59570000D02*
X57270000Y-59570000D01*
X57270000Y-59570000D02*
X57270000Y-49570000D01*
X57270000Y-49570000D02*
X47470000Y-49570000D01*
D14*
X66450000Y-65360000D02*
X68170000Y-65360000D01*
X68170000Y-65360000D02*
X68170000Y-61640000D01*
X68170000Y-61640000D02*
X66450000Y-61640000D01*
X66450000Y-61640000D02*
X66450000Y-65360000D01*
X67310000Y-66430000D02*
X67310000Y-65360000D01*
X67310000Y-60570000D02*
X67310000Y-61640000D01*
X66450000Y-75520000D02*
X68170000Y-75520000D01*
X68170000Y-75520000D02*
X68170000Y-71800000D01*
X68170000Y-71800000D02*
X66450000Y-71800000D01*
X66450000Y-71800000D02*
X66450000Y-75520000D01*
X67310000Y-76590000D02*
X67310000Y-75520000D01*
X67310000Y-70730000D02*
X67310000Y-71800000D01*
X90760000Y-83410000D02*
X90760000Y-81690000D01*
X90760000Y-81690000D02*
X87040000Y-81690000D01*
X87040000Y-81690000D02*
X87040000Y-83410000D01*
X87040000Y-83410000D02*
X90760000Y-83410000D01*
X91830000Y-82550000D02*
X90760000Y-82550000D01*
X85970000Y-82550000D02*
X87040000Y-82550000D01*
X130400000Y-79420000D02*
X128680000Y-79420000D01*
X128680000Y-79420000D02*
X128680000Y-83140000D01*
X128680000Y-83140000D02*
X130400000Y-83140000D01*
X130400000Y-83140000D02*
X130400000Y-79420000D01*
X129540000Y-78350000D02*
X129540000Y-79420000D01*
X129540000Y-84210000D02*
X129540000Y-83140000D01*
X130400000Y-67990000D02*
X128680000Y-67990000D01*
X128680000Y-67990000D02*
X128680000Y-71710000D01*
X128680000Y-71710000D02*
X130400000Y-71710000D01*
X130400000Y-71710000D02*
X130400000Y-67990000D01*
X129540000Y-66920000D02*
X129540000Y-67990000D01*
X129540000Y-72780000D02*
X129540000Y-71710000D01*
X129130000Y-55290000D02*
X127410000Y-55290000D01*
X127410000Y-55290000D02*
X127410000Y-59010000D01*
X127410000Y-59010000D02*
X129130000Y-59010000D01*
X129130000Y-59010000D02*
X129130000Y-55290000D01*
X128270000Y-54220000D02*
X128270000Y-55290000D01*
X128270000Y-60080000D02*
X128270000Y-59010000D01*
X107360000Y-58830000D02*
X107360000Y-60550000D01*
X107360000Y-60550000D02*
X111080000Y-60550000D01*
X111080000Y-60550000D02*
X111080000Y-58830000D01*
X111080000Y-58830000D02*
X107360000Y-58830000D01*
X106290000Y-59690000D02*
X107360000Y-59690000D01*
X112150000Y-59690000D02*
X111080000Y-59690000D01*
X135030000Y-64090000D02*
X136750000Y-64090000D01*
X136750000Y-64090000D02*
X136750000Y-60370000D01*
X136750000Y-60370000D02*
X135030000Y-60370000D01*
X135030000Y-60370000D02*
X135030000Y-64090000D01*
X135890000Y-65160000D02*
X135890000Y-64090000D01*
X135890000Y-59300000D02*
X135890000Y-60370000D01*
X135030000Y-75520000D02*
X136750000Y-75520000D01*
X136750000Y-75520000D02*
X136750000Y-71800000D01*
X136750000Y-71800000D02*
X135030000Y-71800000D01*
X135030000Y-71800000D02*
X135030000Y-75520000D01*
X135890000Y-76590000D02*
X135890000Y-75520000D01*
X135890000Y-70730000D02*
X135890000Y-71800000D01*
X137570000Y-85680000D02*
X139290000Y-85680000D01*
X139290000Y-85680000D02*
X139290000Y-81960000D01*
X139290000Y-81960000D02*
X137570000Y-81960000D01*
X137570000Y-81960000D02*
X137570000Y-85680000D01*
X138430000Y-86750000D02*
X138430000Y-85680000D01*
X138430000Y-80890000D02*
X138430000Y-81960000D01*
X72469000Y-87691000D02*
X72469000Y-82770000D01*
X82390000Y-87691000D02*
X82390000Y-82770000D01*
X72469000Y-82770000D02*
X82390000Y-82770000D01*
X81295000Y-87691000D02*
X82390000Y-87691000D01*
X72469000Y-87691000D02*
X73565000Y-87691000D01*
X76295000Y-87691000D02*
X78565000Y-87691000D01*
X75870000Y-86445000D02*
X75870000Y-82770000D01*
X78991000Y-86445000D02*
X78991000Y-82770000D01*
X76295000Y-87691000D02*
X78565000Y-87691000D01*
X75870000Y-82770000D02*
X78991000Y-82770000D01*
X104061000Y-83759000D02*
X104061000Y-88680000D01*
X94140000Y-83759000D02*
X94140000Y-88680000D01*
X104061000Y-88680000D02*
X94140000Y-88680000D01*
X95235000Y-83759000D02*
X94140000Y-83759000D01*
X104061000Y-83759000D02*
X102965000Y-83759000D01*
X100235000Y-83759000D02*
X97965000Y-83759000D01*
X100660000Y-85005000D02*
X100660000Y-88680000D01*
X97539000Y-85005000D02*
X97539000Y-88680000D01*
X100235000Y-83759000D02*
X97965000Y-83759000D01*
X100660000Y-88680000D02*
X97539000Y-88680000D01*
D11*
X127460000Y-83580000D02*
X127460000Y-62580000D01*
X127460000Y-62580000D02*
X106460000Y-62580000D01*
X106460000Y-62580000D02*
X106460000Y-83580000D01*
X106460000Y-83580000D02*
X127460000Y-83580000D01*
D14*
X100060000Y-59570000D02*
G75*
G02X98060000Y-59570000I-1000000J0D01*
G01*
X98060000Y-59570000D02*
X96290000Y-59570000D01*
X96290000Y-59570000D02*
X96290000Y-77590000D01*
X96290000Y-77590000D02*
X101830000Y-77590000D01*
X101830000Y-77590000D02*
X101830000Y-59570000D01*
X101830000Y-59570000D02*
X100060000Y-59570000D01*
D11*
X199850000Y-83580000D02*
X199850000Y-62580000D01*
X199850000Y-62580000D02*
X178850000Y-62580000D01*
X178850000Y-62580000D02*
X178850000Y-83580000D01*
X178850000Y-83580000D02*
X199850000Y-83580000D01*
D14*
X171180000Y-59570000D02*
G75*
G02X169180000Y-59570000I-1000000J0D01*
G01*
X169180000Y-59570000D02*
X167410000Y-59570000D01*
X167410000Y-59570000D02*
X167410000Y-77590000D01*
X167410000Y-77590000D02*
X172950000Y-77590000D01*
X172950000Y-77590000D02*
X172950000Y-59570000D01*
X172950000Y-59570000D02*
X171180000Y-59570000D01*
X159340000Y-83410000D02*
X159340000Y-81690000D01*
X159340000Y-81690000D02*
X155620000Y-81690000D01*
X155620000Y-81690000D02*
X155620000Y-83410000D01*
X155620000Y-83410000D02*
X159340000Y-83410000D01*
X160410000Y-82550000D02*
X159340000Y-82550000D01*
X154550000Y-82550000D02*
X155620000Y-82550000D01*
X204060000Y-80690000D02*
X202340000Y-80690000D01*
X202340000Y-80690000D02*
X202340000Y-84410000D01*
X202340000Y-84410000D02*
X204060000Y-84410000D01*
X204060000Y-84410000D02*
X204060000Y-80690000D01*
X203200000Y-79620000D02*
X203200000Y-80690000D01*
X203200000Y-85480000D02*
X203200000Y-84410000D01*
X204060000Y-69260000D02*
X202340000Y-69260000D01*
X202340000Y-69260000D02*
X202340000Y-72980000D01*
X202340000Y-72980000D02*
X204060000Y-72980000D01*
X204060000Y-72980000D02*
X204060000Y-69260000D01*
X203200000Y-68190000D02*
X203200000Y-69260000D01*
X203200000Y-74050000D02*
X203200000Y-72980000D01*
X204060000Y-57830000D02*
X202340000Y-57830000D01*
X202340000Y-57830000D02*
X202340000Y-61550000D01*
X202340000Y-61550000D02*
X204060000Y-61550000D01*
X204060000Y-61550000D02*
X204060000Y-57830000D01*
X203200000Y-56760000D02*
X203200000Y-57830000D01*
X203200000Y-62620000D02*
X203200000Y-61550000D01*
X181020000Y-58830000D02*
X181020000Y-60550000D01*
X181020000Y-60550000D02*
X184740000Y-60550000D01*
X184740000Y-60550000D02*
X184740000Y-58830000D01*
X184740000Y-58830000D02*
X181020000Y-58830000D01*
X179950000Y-59690000D02*
X181020000Y-59690000D01*
X185810000Y-59690000D02*
X184740000Y-59690000D01*
X125651000Y-54549000D02*
X125651000Y-59470000D01*
X115730000Y-54549000D02*
X115730000Y-59470000D01*
X125651000Y-59470000D02*
X115730000Y-59470000D01*
X116825000Y-54549000D02*
X115730000Y-54549000D01*
X125651000Y-54549000D02*
X124555000Y-54549000D01*
X121825000Y-54549000D02*
X119555000Y-54549000D01*
X122250000Y-55795000D02*
X122250000Y-59470000D01*
X119129000Y-55795000D02*
X119129000Y-59470000D01*
X121825000Y-54549000D02*
X119555000Y-54549000D01*
X122250000Y-59470000D02*
X119129000Y-59470000D01*
X96599000Y-55941000D02*
X96599000Y-51020000D01*
X106520000Y-55941000D02*
X106520000Y-51020000D01*
X96599000Y-51020000D02*
X106520000Y-51020000D01*
X105425000Y-55941000D02*
X106520000Y-55941000D01*
X96599000Y-55941000D02*
X97695000Y-55941000D01*
X100425000Y-55941000D02*
X102695000Y-55941000D01*
X100000000Y-54695000D02*
X100000000Y-51020000D01*
X103121000Y-54695000D02*
X103121000Y-51020000D01*
X100425000Y-55941000D02*
X102695000Y-55941000D01*
X100000000Y-51020000D02*
X103121000Y-51020000D01*
X141049000Y-86421000D02*
X141049000Y-81500000D01*
X150970000Y-86421000D02*
X150970000Y-81500000D01*
X141049000Y-81500000D02*
X150970000Y-81500000D01*
X149875000Y-86421000D02*
X150970000Y-86421000D01*
X141049000Y-86421000D02*
X142145000Y-86421000D01*
X144875000Y-86421000D02*
X147145000Y-86421000D01*
X144450000Y-85175000D02*
X144450000Y-81500000D01*
X147571000Y-85175000D02*
X147571000Y-81500000D01*
X144875000Y-86421000D02*
X147145000Y-86421000D01*
X144450000Y-81500000D02*
X147571000Y-81500000D01*
X173911000Y-82489000D02*
X173911000Y-87410000D01*
X163990000Y-82489000D02*
X163990000Y-87410000D01*
X173911000Y-87410000D02*
X163990000Y-87410000D01*
X165085000Y-82489000D02*
X163990000Y-82489000D01*
X173911000Y-82489000D02*
X172815000Y-82489000D01*
X170085000Y-82489000D02*
X167815000Y-82489000D01*
X170510000Y-83735000D02*
X170510000Y-87410000D01*
X167389000Y-83735000D02*
X167389000Y-87410000D01*
X170085000Y-82489000D02*
X167815000Y-82489000D01*
X170510000Y-87410000D02*
X167389000Y-87410000D01*
X199311000Y-54549000D02*
X199311000Y-59470000D01*
X189390000Y-54549000D02*
X189390000Y-59470000D01*
X199311000Y-59470000D02*
X189390000Y-59470000D01*
X190485000Y-54549000D02*
X189390000Y-54549000D01*
X199311000Y-54549000D02*
X198215000Y-54549000D01*
X195485000Y-54549000D02*
X193215000Y-54549000D01*
X195910000Y-55795000D02*
X195910000Y-59470000D01*
X192789000Y-55795000D02*
X192789000Y-59470000D01*
X195485000Y-54549000D02*
X193215000Y-54549000D01*
X195910000Y-59470000D02*
X192789000Y-59470000D01*
X166449000Y-55941000D02*
X166449000Y-51020000D01*
X176370000Y-55941000D02*
X176370000Y-51020000D01*
X166449000Y-51020000D02*
X176370000Y-51020000D01*
X175275000Y-55941000D02*
X176370000Y-55941000D01*
X166449000Y-55941000D02*
X167545000Y-55941000D01*
X170275000Y-55941000D02*
X172545000Y-55941000D01*
X169850000Y-54695000D02*
X169850000Y-51020000D01*
X172971000Y-54695000D02*
X172971000Y-51020000D01*
X170275000Y-55941000D02*
X172545000Y-55941000D01*
X169850000Y-51020000D02*
X172971000Y-51020000D01*
X87720000Y-54570000D02*
X92540000Y-54570000D01*
X87720000Y-57190000D02*
X92540000Y-57190000D01*
X87720000Y-54570000D02*
X87720000Y-54884000D01*
X87720000Y-56876000D02*
X87720000Y-57190000D01*
X92540000Y-54570000D02*
X92540000Y-54884000D01*
X92540000Y-56876000D02*
X92540000Y-57190000D01*
X91350000Y-88940000D02*
X86530000Y-88940000D01*
X91350000Y-86320000D02*
X86530000Y-86320000D01*
X91350000Y-88940000D02*
X91350000Y-88626000D01*
X91350000Y-86634000D02*
X91350000Y-86320000D01*
X86530000Y-88940000D02*
X86530000Y-88626000D01*
X86530000Y-86634000D02*
X86530000Y-86320000D01*
X108040000Y-85050000D02*
X112860000Y-85050000D01*
X108040000Y-87670000D02*
X112860000Y-87670000D01*
X108040000Y-85050000D02*
X108040000Y-85364000D01*
X108040000Y-87356000D02*
X108040000Y-87670000D01*
X112860000Y-85050000D02*
X112860000Y-85364000D01*
X112860000Y-87356000D02*
X112860000Y-87670000D01*
X109310000Y-53300000D02*
X114130000Y-53300000D01*
X109310000Y-55920000D02*
X114130000Y-55920000D01*
X109310000Y-53300000D02*
X109310000Y-53614000D01*
X109310000Y-55606000D02*
X109310000Y-55920000D01*
X114130000Y-53300000D02*
X114130000Y-53614000D01*
X114130000Y-55606000D02*
X114130000Y-55920000D01*
X158660000Y-57190000D02*
X153840000Y-57190000D01*
X158660000Y-54570000D02*
X153840000Y-54570000D01*
X158660000Y-57190000D02*
X158660000Y-56876000D01*
X158660000Y-54884000D02*
X158660000Y-54570000D01*
X153840000Y-57190000D02*
X153840000Y-56876000D01*
X153840000Y-54884000D02*
X153840000Y-54570000D01*
X159930000Y-87670000D02*
X155110000Y-87670000D01*
X159930000Y-85050000D02*
X155110000Y-85050000D01*
X159930000Y-87670000D02*
X159930000Y-87356000D01*
X159930000Y-85364000D02*
X159930000Y-85050000D01*
X155110000Y-87670000D02*
X155110000Y-87356000D01*
X155110000Y-85364000D02*
X155110000Y-85050000D01*
X179160000Y-85050000D02*
X183980000Y-85050000D01*
X179160000Y-87670000D02*
X183980000Y-87670000D01*
X179160000Y-85050000D02*
X179160000Y-85364000D01*
X179160000Y-87356000D02*
X179160000Y-87670000D01*
X183980000Y-85050000D02*
X183980000Y-85364000D01*
X183980000Y-87356000D02*
X183980000Y-87670000D01*
X180430000Y-54570000D02*
X185250000Y-54570000D01*
X180430000Y-57190000D02*
X185250000Y-57190000D01*
X180430000Y-54570000D02*
X180430000Y-54884000D01*
X180430000Y-56876000D02*
X180430000Y-57190000D01*
X185250000Y-54570000D02*
X185250000Y-54884000D01*
X185250000Y-56876000D02*
X185250000Y-57190000D01*
X68860000Y-54590000D02*
G75*
G03X68860000Y-54590000I-4090000J0D01*
G01*
X64770000Y-51140000D02*
X64770000Y-52340000D01*
X65420000Y-51740000D02*
X64120000Y-51740000D01*
D11*
X77628095Y-71112381D02*
X77628095Y-71921905D01*
X77675714Y-72017143D01*
X77723333Y-72064762D01*
X77818571Y-72112381D01*
X78009048Y-72112381D01*
X78104286Y-72064762D01*
X78151905Y-72017143D01*
X78199524Y-71921905D01*
X78199524Y-71112381D01*
X79199524Y-72112381D02*
X78628095Y-72112381D01*
X78913809Y-72112381D02*
X78913809Y-71112381D01*
X78818571Y-71255238D01*
X78723333Y-71350476D01*
X78628095Y-71398095D01*
X68442381Y-85256666D02*
X67966190Y-85590000D01*
X68442381Y-85828095D02*
X67442381Y-85828095D01*
X67442381Y-85447142D01*
X67490000Y-85351904D01*
X67537619Y-85304285D01*
X67632857Y-85256666D01*
X67775714Y-85256666D01*
X67870952Y-85304285D01*
X67918571Y-85351904D01*
X67966190Y-85447142D01*
X67966190Y-85828095D01*
X67442381Y-84923333D02*
X67442381Y-84304285D01*
X67823333Y-84637619D01*
X67823333Y-84494761D01*
X67870952Y-84399523D01*
X67918571Y-84351904D01*
X68013810Y-84304285D01*
X68251905Y-84304285D01*
X68347143Y-84351904D01*
X68394762Y-84399523D01*
X68442381Y-84494761D01*
X68442381Y-84780476D01*
X68394762Y-84875714D01*
X68347143Y-84923333D01*
X54753261Y-75691905D02*
X55562785Y-75691905D01*
X55658023Y-75644286D01*
X55705642Y-75596667D01*
X55753261Y-75501429D01*
X55753261Y-75310952D01*
X55705642Y-75215714D01*
X55658023Y-75168095D01*
X55562785Y-75120476D01*
X54753261Y-75120476D01*
X54753261Y-74739524D02*
X54753261Y-74072857D01*
X55753261Y-74501429D01*
X148748095Y-71112381D02*
X148748095Y-71921905D01*
X148795714Y-72017143D01*
X148843333Y-72064762D01*
X148938571Y-72112381D01*
X149129048Y-72112381D01*
X149224286Y-72064762D01*
X149271905Y-72017143D01*
X149319524Y-71921905D01*
X149319524Y-71112381D01*
X150224286Y-71445714D02*
X150224286Y-72112381D01*
X149986190Y-71064762D02*
X149748095Y-71779048D01*
X150367143Y-71779048D01*
X45622381Y-54903333D02*
X46336667Y-54903333D01*
X46479524Y-54950953D01*
X46574762Y-55046191D01*
X46622381Y-55189048D01*
X46622381Y-55284286D01*
X46622381Y-53903333D02*
X46622381Y-54474762D01*
X46622381Y-54189048D02*
X45622381Y-54189048D01*
X45765238Y-54284286D01*
X45860476Y-54379524D01*
X45908095Y-54474762D01*
X65902381Y-63666666D02*
X65426190Y-64000000D01*
X65902381Y-64238095D02*
X64902381Y-64238095D01*
X64902381Y-63857142D01*
X64950000Y-63761904D01*
X64997619Y-63714285D01*
X65092857Y-63666666D01*
X65235714Y-63666666D01*
X65330952Y-63714285D01*
X65378571Y-63761904D01*
X65426190Y-63857142D01*
X65426190Y-64238095D01*
X65902381Y-62714285D02*
X65902381Y-63285714D01*
X65902381Y-63000000D02*
X64902381Y-63000000D01*
X65045238Y-63095238D01*
X65140476Y-63190476D01*
X65188095Y-63285714D01*
X65902381Y-73826666D02*
X65426190Y-74160000D01*
X65902381Y-74398095D02*
X64902381Y-74398095D01*
X64902381Y-74017142D01*
X64950000Y-73921904D01*
X64997619Y-73874285D01*
X65092857Y-73826666D01*
X65235714Y-73826666D01*
X65330952Y-73874285D01*
X65378571Y-73921904D01*
X65426190Y-74017142D01*
X65426190Y-74398095D01*
X64997619Y-73445714D02*
X64950000Y-73398095D01*
X64902381Y-73302857D01*
X64902381Y-73064761D01*
X64950000Y-72969523D01*
X64997619Y-72921904D01*
X65092857Y-72874285D01*
X65188095Y-72874285D01*
X65330952Y-72921904D01*
X65902381Y-73493333D01*
X65902381Y-72874285D01*
X88733334Y-84862381D02*
X88400000Y-84386190D01*
X88161905Y-84862381D02*
X88161905Y-83862381D01*
X88542858Y-83862381D01*
X88638096Y-83910000D01*
X88685715Y-83957619D01*
X88733334Y-84052857D01*
X88733334Y-84195714D01*
X88685715Y-84290952D01*
X88638096Y-84338571D01*
X88542858Y-84386190D01*
X88161905Y-84386190D01*
X89638096Y-83862381D02*
X89161905Y-83862381D01*
X89114286Y-84338571D01*
X89161905Y-84290952D01*
X89257143Y-84243333D01*
X89495239Y-84243333D01*
X89590477Y-84290952D01*
X89638096Y-84338571D01*
X89685715Y-84433810D01*
X89685715Y-84671905D01*
X89638096Y-84767143D01*
X89590477Y-84814762D01*
X89495239Y-84862381D01*
X89257143Y-84862381D01*
X89161905Y-84814762D01*
X89114286Y-84767143D01*
X131852381Y-81446666D02*
X131376190Y-81780000D01*
X131852381Y-82018095D02*
X130852381Y-82018095D01*
X130852381Y-81637142D01*
X130900000Y-81541904D01*
X130947619Y-81494285D01*
X131042857Y-81446666D01*
X131185714Y-81446666D01*
X131280952Y-81494285D01*
X131328571Y-81541904D01*
X131376190Y-81637142D01*
X131376190Y-82018095D01*
X130852381Y-81113333D02*
X130852381Y-80446666D01*
X131852381Y-80875238D01*
X131852381Y-70016666D02*
X131376190Y-70350000D01*
X131852381Y-70588095D02*
X130852381Y-70588095D01*
X130852381Y-70207142D01*
X130900000Y-70111904D01*
X130947619Y-70064285D01*
X131042857Y-70016666D01*
X131185714Y-70016666D01*
X131280952Y-70064285D01*
X131328571Y-70111904D01*
X131376190Y-70207142D01*
X131376190Y-70588095D01*
X131280952Y-69445238D02*
X131233333Y-69540476D01*
X131185714Y-69588095D01*
X131090476Y-69635714D01*
X131042857Y-69635714D01*
X130947619Y-69588095D01*
X130900000Y-69540476D01*
X130852381Y-69445238D01*
X130852381Y-69254761D01*
X130900000Y-69159523D01*
X130947619Y-69111904D01*
X131042857Y-69064285D01*
X131090476Y-69064285D01*
X131185714Y-69111904D01*
X131233333Y-69159523D01*
X131280952Y-69254761D01*
X131280952Y-69445238D01*
X131328571Y-69540476D01*
X131376190Y-69588095D01*
X131471429Y-69635714D01*
X131661905Y-69635714D01*
X131757143Y-69588095D01*
X131804762Y-69540476D01*
X131852381Y-69445238D01*
X131852381Y-69254761D01*
X131804762Y-69159523D01*
X131757143Y-69111904D01*
X131661905Y-69064285D01*
X131471429Y-69064285D01*
X131376190Y-69111904D01*
X131328571Y-69159523D01*
X131280952Y-69254761D01*
X130582381Y-57316666D02*
X130106190Y-57650000D01*
X130582381Y-57888095D02*
X129582381Y-57888095D01*
X129582381Y-57507142D01*
X129630000Y-57411904D01*
X129677619Y-57364285D01*
X129772857Y-57316666D01*
X129915714Y-57316666D01*
X130010952Y-57364285D01*
X130058571Y-57411904D01*
X130106190Y-57507142D01*
X130106190Y-57888095D01*
X130582381Y-56840476D02*
X130582381Y-56650000D01*
X130534762Y-56554761D01*
X130487143Y-56507142D01*
X130344286Y-56411904D01*
X130153810Y-56364285D01*
X129772857Y-56364285D01*
X129677619Y-56411904D01*
X129630000Y-56459523D01*
X129582381Y-56554761D01*
X129582381Y-56745238D01*
X129630000Y-56840476D01*
X129677619Y-56888095D01*
X129772857Y-56935714D01*
X130010952Y-56935714D01*
X130106190Y-56888095D01*
X130153810Y-56840476D01*
X130201429Y-56745238D01*
X130201429Y-56554761D01*
X130153810Y-56459523D01*
X130106190Y-56411904D01*
X130010952Y-56364285D01*
X108577143Y-58282381D02*
X108243809Y-57806190D01*
X108005714Y-58282381D02*
X108005714Y-57282381D01*
X108386667Y-57282381D01*
X108481905Y-57330000D01*
X108529524Y-57377619D01*
X108577143Y-57472857D01*
X108577143Y-57615714D01*
X108529524Y-57710952D01*
X108481905Y-57758571D01*
X108386667Y-57806190D01*
X108005714Y-57806190D01*
X109529524Y-58282381D02*
X108958095Y-58282381D01*
X109243809Y-58282381D02*
X109243809Y-57282381D01*
X109148571Y-57425238D01*
X109053333Y-57520476D01*
X108958095Y-57568095D01*
X110481905Y-58282381D02*
X109910476Y-58282381D01*
X110196190Y-58282381D02*
X110196190Y-57282381D01*
X110100952Y-57425238D01*
X110005714Y-57520476D01*
X109910476Y-57568095D01*
X134482381Y-62872857D02*
X134006190Y-63206191D01*
X134482381Y-63444286D02*
X133482381Y-63444286D01*
X133482381Y-63063333D01*
X133530000Y-62968095D01*
X133577619Y-62920476D01*
X133672857Y-62872857D01*
X133815714Y-62872857D01*
X133910952Y-62920476D01*
X133958571Y-62968095D01*
X134006190Y-63063333D01*
X134006190Y-63444286D01*
X134482381Y-61920476D02*
X134482381Y-62491905D01*
X134482381Y-62206191D02*
X133482381Y-62206191D01*
X133625238Y-62301429D01*
X133720476Y-62396667D01*
X133768095Y-62491905D01*
X133482381Y-61587143D02*
X133482381Y-60968095D01*
X133863333Y-61301429D01*
X133863333Y-61158571D01*
X133910952Y-61063333D01*
X133958571Y-61015714D01*
X134053810Y-60968095D01*
X134291905Y-60968095D01*
X134387143Y-61015714D01*
X134434762Y-61063333D01*
X134482381Y-61158571D01*
X134482381Y-61444286D01*
X134434762Y-61539524D01*
X134387143Y-61587143D01*
X134482381Y-74302857D02*
X134006190Y-74636191D01*
X134482381Y-74874286D02*
X133482381Y-74874286D01*
X133482381Y-74493333D01*
X133530000Y-74398095D01*
X133577619Y-74350476D01*
X133672857Y-74302857D01*
X133815714Y-74302857D01*
X133910952Y-74350476D01*
X133958571Y-74398095D01*
X134006190Y-74493333D01*
X134006190Y-74874286D01*
X134482381Y-73350476D02*
X134482381Y-73921905D01*
X134482381Y-73636191D02*
X133482381Y-73636191D01*
X133625238Y-73731429D01*
X133720476Y-73826667D01*
X133768095Y-73921905D01*
X133815714Y-72493333D02*
X134482381Y-72493333D01*
X133434762Y-72731429D02*
X134149048Y-72969524D01*
X134149048Y-72350476D01*
X137022381Y-84462857D02*
X136546190Y-84796191D01*
X137022381Y-85034286D02*
X136022381Y-85034286D01*
X136022381Y-84653333D01*
X136070000Y-84558095D01*
X136117619Y-84510476D01*
X136212857Y-84462857D01*
X136355714Y-84462857D01*
X136450952Y-84510476D01*
X136498571Y-84558095D01*
X136546190Y-84653333D01*
X136546190Y-85034286D01*
X137022381Y-83510476D02*
X137022381Y-84081905D01*
X137022381Y-83796191D02*
X136022381Y-83796191D01*
X136165238Y-83891429D01*
X136260476Y-83986667D01*
X136308095Y-84081905D01*
X136022381Y-82605714D02*
X136022381Y-83081905D01*
X136498571Y-83129524D01*
X136450952Y-83081905D01*
X136403333Y-82986667D01*
X136403333Y-82748571D01*
X136450952Y-82653333D01*
X136498571Y-82605714D01*
X136593810Y-82558095D01*
X136831905Y-82558095D01*
X136927143Y-82605714D01*
X136974762Y-82653333D01*
X137022381Y-82748571D01*
X137022381Y-82986667D01*
X136974762Y-83081905D01*
X136927143Y-83129524D01*
X76874762Y-90622381D02*
X76541428Y-90146190D01*
X76303333Y-90622381D02*
X76303333Y-89622381D01*
X76684286Y-89622381D01*
X76779524Y-89670000D01*
X76827143Y-89717619D01*
X76874762Y-89812857D01*
X76874762Y-89955714D01*
X76827143Y-90050952D01*
X76779524Y-90098571D01*
X76684286Y-90146190D01*
X76303333Y-90146190D01*
X77160476Y-89622381D02*
X77493809Y-90622381D01*
X77827143Y-89622381D01*
X78589048Y-89955714D02*
X78589048Y-90622381D01*
X78350952Y-89574762D02*
X78112857Y-90289048D01*
X78731905Y-90289048D01*
X105702381Y-84415238D02*
X105226190Y-84748572D01*
X105702381Y-84986667D02*
X104702381Y-84986667D01*
X104702381Y-84605714D01*
X104750000Y-84510476D01*
X104797619Y-84462857D01*
X104892857Y-84415238D01*
X105035714Y-84415238D01*
X105130952Y-84462857D01*
X105178571Y-84510476D01*
X105226190Y-84605714D01*
X105226190Y-84986667D01*
X104702381Y-84129524D02*
X105702381Y-83796191D01*
X104702381Y-83462857D01*
X104702381Y-82700952D02*
X104702381Y-82891429D01*
X104750000Y-82986667D01*
X104797619Y-83034286D01*
X104940476Y-83129524D01*
X105130952Y-83177143D01*
X105511905Y-83177143D01*
X105607143Y-83129524D01*
X105654762Y-83081905D01*
X105702381Y-82986667D01*
X105702381Y-82796190D01*
X105654762Y-82700952D01*
X105607143Y-82653333D01*
X105511905Y-82605714D01*
X105273810Y-82605714D01*
X105178571Y-82653333D01*
X105130952Y-82700952D01*
X105083333Y-82796190D01*
X105083333Y-82986667D01*
X105130952Y-83081905D01*
X105178571Y-83129524D01*
X105273810Y-83177143D01*
X117698095Y-70032381D02*
X117698095Y-70841905D01*
X117745714Y-70937143D01*
X117793333Y-70984762D01*
X117888571Y-71032381D01*
X118079048Y-71032381D01*
X118174286Y-70984762D01*
X118221905Y-70937143D01*
X118269524Y-70841905D01*
X118269524Y-70032381D01*
X118698095Y-70127619D02*
X118745714Y-70080000D01*
X118840952Y-70032381D01*
X119079048Y-70032381D01*
X119174286Y-70080000D01*
X119221905Y-70127619D01*
X119269524Y-70222857D01*
X119269524Y-70318095D01*
X119221905Y-70460952D01*
X118650476Y-71032381D01*
X119269524Y-71032381D01*
X98298095Y-58022381D02*
X98298095Y-58831905D01*
X98345714Y-58927143D01*
X98393333Y-58974762D01*
X98488571Y-59022381D01*
X98679048Y-59022381D01*
X98774286Y-58974762D01*
X98821905Y-58927143D01*
X98869524Y-58831905D01*
X98869524Y-58022381D01*
X99250476Y-58022381D02*
X99869524Y-58022381D01*
X99536190Y-58403333D01*
X99679048Y-58403333D01*
X99774286Y-58450952D01*
X99821905Y-58498571D01*
X99869524Y-58593810D01*
X99869524Y-58831905D01*
X99821905Y-58927143D01*
X99774286Y-58974762D01*
X99679048Y-59022381D01*
X99393333Y-59022381D01*
X99298095Y-58974762D01*
X99250476Y-58927143D01*
X190088095Y-70032381D02*
X190088095Y-70841905D01*
X190135714Y-70937143D01*
X190183333Y-70984762D01*
X190278571Y-71032381D01*
X190469048Y-71032381D01*
X190564286Y-70984762D01*
X190611905Y-70937143D01*
X190659524Y-70841905D01*
X190659524Y-70032381D01*
X191611905Y-70032381D02*
X191135714Y-70032381D01*
X191088095Y-70508571D01*
X191135714Y-70460952D01*
X191230952Y-70413333D01*
X191469048Y-70413333D01*
X191564286Y-70460952D01*
X191611905Y-70508571D01*
X191659524Y-70603810D01*
X191659524Y-70841905D01*
X191611905Y-70937143D01*
X191564286Y-70984762D01*
X191469048Y-71032381D01*
X191230952Y-71032381D01*
X191135714Y-70984762D01*
X191088095Y-70937143D01*
X169418095Y-58022381D02*
X169418095Y-58831905D01*
X169465714Y-58927143D01*
X169513333Y-58974762D01*
X169608571Y-59022381D01*
X169799048Y-59022381D01*
X169894286Y-58974762D01*
X169941905Y-58927143D01*
X169989524Y-58831905D01*
X169989524Y-58022381D01*
X170894286Y-58022381D02*
X170703809Y-58022381D01*
X170608571Y-58070000D01*
X170560952Y-58117619D01*
X170465714Y-58260476D01*
X170418095Y-58450952D01*
X170418095Y-58831905D01*
X170465714Y-58927143D01*
X170513333Y-58974762D01*
X170608571Y-59022381D01*
X170799048Y-59022381D01*
X170894286Y-58974762D01*
X170941905Y-58927143D01*
X170989524Y-58831905D01*
X170989524Y-58593810D01*
X170941905Y-58498571D01*
X170894286Y-58450952D01*
X170799048Y-58403333D01*
X170608571Y-58403333D01*
X170513333Y-58450952D01*
X170465714Y-58498571D01*
X170418095Y-58593810D01*
X156837143Y-84862381D02*
X156503809Y-84386190D01*
X156265714Y-84862381D02*
X156265714Y-83862381D01*
X156646667Y-83862381D01*
X156741905Y-83910000D01*
X156789524Y-83957619D01*
X156837143Y-84052857D01*
X156837143Y-84195714D01*
X156789524Y-84290952D01*
X156741905Y-84338571D01*
X156646667Y-84386190D01*
X156265714Y-84386190D01*
X157789524Y-84862381D02*
X157218095Y-84862381D01*
X157503809Y-84862381D02*
X157503809Y-83862381D01*
X157408571Y-84005238D01*
X157313333Y-84100476D01*
X157218095Y-84148095D01*
X158122857Y-83862381D02*
X158789524Y-83862381D01*
X158360952Y-84862381D01*
X205512381Y-83192857D02*
X205036190Y-83526191D01*
X205512381Y-83764286D02*
X204512381Y-83764286D01*
X204512381Y-83383333D01*
X204560000Y-83288095D01*
X204607619Y-83240476D01*
X204702857Y-83192857D01*
X204845714Y-83192857D01*
X204940952Y-83240476D01*
X204988571Y-83288095D01*
X205036190Y-83383333D01*
X205036190Y-83764286D01*
X205512381Y-82240476D02*
X205512381Y-82811905D01*
X205512381Y-82526191D02*
X204512381Y-82526191D01*
X204655238Y-82621429D01*
X204750476Y-82716667D01*
X204798095Y-82811905D01*
X205512381Y-81764286D02*
X205512381Y-81573810D01*
X205464762Y-81478571D01*
X205417143Y-81430952D01*
X205274286Y-81335714D01*
X205083810Y-81288095D01*
X204702857Y-81288095D01*
X204607619Y-81335714D01*
X204560000Y-81383333D01*
X204512381Y-81478571D01*
X204512381Y-81669048D01*
X204560000Y-81764286D01*
X204607619Y-81811905D01*
X204702857Y-81859524D01*
X204940952Y-81859524D01*
X205036190Y-81811905D01*
X205083810Y-81764286D01*
X205131429Y-81669048D01*
X205131429Y-81478571D01*
X205083810Y-81383333D01*
X205036190Y-81335714D01*
X204940952Y-81288095D01*
X205512381Y-71762857D02*
X205036190Y-72096191D01*
X205512381Y-72334286D02*
X204512381Y-72334286D01*
X204512381Y-71953333D01*
X204560000Y-71858095D01*
X204607619Y-71810476D01*
X204702857Y-71762857D01*
X204845714Y-71762857D01*
X204940952Y-71810476D01*
X204988571Y-71858095D01*
X205036190Y-71953333D01*
X205036190Y-72334286D01*
X204607619Y-71381905D02*
X204560000Y-71334286D01*
X204512381Y-71239048D01*
X204512381Y-71000952D01*
X204560000Y-70905714D01*
X204607619Y-70858095D01*
X204702857Y-70810476D01*
X204798095Y-70810476D01*
X204940952Y-70858095D01*
X205512381Y-71429524D01*
X205512381Y-70810476D01*
X204512381Y-70191429D02*
X204512381Y-70096190D01*
X204560000Y-70000952D01*
X204607619Y-69953333D01*
X204702857Y-69905714D01*
X204893333Y-69858095D01*
X205131429Y-69858095D01*
X205321905Y-69905714D01*
X205417143Y-69953333D01*
X205464762Y-70000952D01*
X205512381Y-70096190D01*
X205512381Y-70191429D01*
X205464762Y-70286667D01*
X205417143Y-70334286D01*
X205321905Y-70381905D01*
X205131429Y-70429524D01*
X204893333Y-70429524D01*
X204702857Y-70381905D01*
X204607619Y-70334286D01*
X204560000Y-70286667D01*
X204512381Y-70191429D01*
X205512381Y-60332857D02*
X205036190Y-60666191D01*
X205512381Y-60904286D02*
X204512381Y-60904286D01*
X204512381Y-60523333D01*
X204560000Y-60428095D01*
X204607619Y-60380476D01*
X204702857Y-60332857D01*
X204845714Y-60332857D01*
X204940952Y-60380476D01*
X204988571Y-60428095D01*
X205036190Y-60523333D01*
X205036190Y-60904286D01*
X204607619Y-59951905D02*
X204560000Y-59904286D01*
X204512381Y-59809048D01*
X204512381Y-59570952D01*
X204560000Y-59475714D01*
X204607619Y-59428095D01*
X204702857Y-59380476D01*
X204798095Y-59380476D01*
X204940952Y-59428095D01*
X205512381Y-59999524D01*
X205512381Y-59380476D01*
X205512381Y-58428095D02*
X205512381Y-58999524D01*
X205512381Y-58713810D02*
X204512381Y-58713810D01*
X204655238Y-58809048D01*
X204750476Y-58904286D01*
X204798095Y-58999524D01*
X182237143Y-58282381D02*
X181903809Y-57806190D01*
X181665714Y-58282381D02*
X181665714Y-57282381D01*
X182046667Y-57282381D01*
X182141905Y-57330000D01*
X182189524Y-57377619D01*
X182237143Y-57472857D01*
X182237143Y-57615714D01*
X182189524Y-57710952D01*
X182141905Y-57758571D01*
X182046667Y-57806190D01*
X181665714Y-57806190D01*
X182618095Y-57377619D02*
X182665714Y-57330000D01*
X182760952Y-57282381D01*
X182999048Y-57282381D01*
X183094286Y-57330000D01*
X183141905Y-57377619D01*
X183189524Y-57472857D01*
X183189524Y-57568095D01*
X183141905Y-57710952D01*
X182570476Y-58282381D01*
X183189524Y-58282381D01*
X183522857Y-57282381D02*
X184141905Y-57282381D01*
X183808571Y-57663333D01*
X183951429Y-57663333D01*
X184046667Y-57710952D01*
X184094286Y-57758571D01*
X184141905Y-57853810D01*
X184141905Y-58091905D01*
X184094286Y-58187143D01*
X184046667Y-58234762D01*
X183951429Y-58282381D01*
X183665714Y-58282381D01*
X183570476Y-58234762D01*
X183522857Y-58187143D01*
X119578572Y-61412381D02*
X119245238Y-60936190D01*
X119007143Y-61412381D02*
X119007143Y-60412381D01*
X119388096Y-60412381D01*
X119483334Y-60460000D01*
X119530953Y-60507619D01*
X119578572Y-60602857D01*
X119578572Y-60745714D01*
X119530953Y-60840952D01*
X119483334Y-60888571D01*
X119388096Y-60936190D01*
X119007143Y-60936190D01*
X119864286Y-60412381D02*
X120197619Y-61412381D01*
X120530953Y-60412381D01*
X121388096Y-61412381D02*
X120816667Y-61412381D01*
X121102381Y-61412381D02*
X121102381Y-60412381D01*
X121007143Y-60555238D01*
X120911905Y-60650476D01*
X120816667Y-60698095D01*
X122007143Y-60412381D02*
X122102382Y-60412381D01*
X122197620Y-60460000D01*
X122245239Y-60507619D01*
X122292858Y-60602857D01*
X122340477Y-60793333D01*
X122340477Y-61031429D01*
X122292858Y-61221905D01*
X122245239Y-61317143D01*
X122197620Y-61364762D01*
X122102382Y-61412381D01*
X122007143Y-61412381D01*
X121911905Y-61364762D01*
X121864286Y-61317143D01*
X121816667Y-61221905D01*
X121769048Y-61031429D01*
X121769048Y-60793333D01*
X121816667Y-60602857D01*
X121864286Y-60507619D01*
X121911905Y-60460000D01*
X122007143Y-60412381D01*
X95702381Y-54411428D02*
X95226190Y-54744762D01*
X95702381Y-54982857D02*
X94702381Y-54982857D01*
X94702381Y-54601904D01*
X94750000Y-54506666D01*
X94797619Y-54459047D01*
X94892857Y-54411428D01*
X95035714Y-54411428D01*
X95130952Y-54459047D01*
X95178571Y-54506666D01*
X95226190Y-54601904D01*
X95226190Y-54982857D01*
X94702381Y-54125714D02*
X95702381Y-53792381D01*
X94702381Y-53459047D01*
X95702381Y-52601904D02*
X95702381Y-53173333D01*
X95702381Y-52887619D02*
X94702381Y-52887619D01*
X94845238Y-52982857D01*
X94940476Y-53078095D01*
X94988095Y-53173333D01*
X94797619Y-52220952D02*
X94750000Y-52173333D01*
X94702381Y-52078095D01*
X94702381Y-51839999D01*
X94750000Y-51744761D01*
X94797619Y-51697142D01*
X94892857Y-51649523D01*
X94988095Y-51649523D01*
X95130952Y-51697142D01*
X95702381Y-52268571D01*
X95702381Y-51649523D01*
X144978572Y-89352381D02*
X144645238Y-88876190D01*
X144407143Y-89352381D02*
X144407143Y-88352381D01*
X144788096Y-88352381D01*
X144883334Y-88400000D01*
X144930953Y-88447619D01*
X144978572Y-88542857D01*
X144978572Y-88685714D01*
X144930953Y-88780952D01*
X144883334Y-88828571D01*
X144788096Y-88876190D01*
X144407143Y-88876190D01*
X145264286Y-88352381D02*
X145597619Y-89352381D01*
X145930953Y-88352381D01*
X146788096Y-89352381D02*
X146216667Y-89352381D01*
X146502381Y-89352381D02*
X146502381Y-88352381D01*
X146407143Y-88495238D01*
X146311905Y-88590476D01*
X146216667Y-88638095D01*
X147645239Y-88352381D02*
X147454762Y-88352381D01*
X147359524Y-88400000D01*
X147311905Y-88447619D01*
X147216667Y-88590476D01*
X147169048Y-88780952D01*
X147169048Y-89161905D01*
X147216667Y-89257143D01*
X147264286Y-89304762D01*
X147359524Y-89352381D01*
X147550001Y-89352381D01*
X147645239Y-89304762D01*
X147692858Y-89257143D01*
X147740477Y-89161905D01*
X147740477Y-88923810D01*
X147692858Y-88828571D01*
X147645239Y-88780952D01*
X147550001Y-88733333D01*
X147359524Y-88733333D01*
X147264286Y-88780952D01*
X147216667Y-88828571D01*
X147169048Y-88923810D01*
X175552381Y-83621428D02*
X175076190Y-83954762D01*
X175552381Y-84192857D02*
X174552381Y-84192857D01*
X174552381Y-83811904D01*
X174600000Y-83716666D01*
X174647619Y-83669047D01*
X174742857Y-83621428D01*
X174885714Y-83621428D01*
X174980952Y-83669047D01*
X175028571Y-83716666D01*
X175076190Y-83811904D01*
X175076190Y-84192857D01*
X174552381Y-83335714D02*
X175552381Y-83002381D01*
X174552381Y-82669047D01*
X175552381Y-81811904D02*
X175552381Y-82383333D01*
X175552381Y-82097619D02*
X174552381Y-82097619D01*
X174695238Y-82192857D01*
X174790476Y-82288095D01*
X174838095Y-82383333D01*
X174980952Y-81240476D02*
X174933333Y-81335714D01*
X174885714Y-81383333D01*
X174790476Y-81430952D01*
X174742857Y-81430952D01*
X174647619Y-81383333D01*
X174600000Y-81335714D01*
X174552381Y-81240476D01*
X174552381Y-81049999D01*
X174600000Y-80954761D01*
X174647619Y-80907142D01*
X174742857Y-80859523D01*
X174790476Y-80859523D01*
X174885714Y-80907142D01*
X174933333Y-80954761D01*
X174980952Y-81049999D01*
X174980952Y-81240476D01*
X175028571Y-81335714D01*
X175076190Y-81383333D01*
X175171429Y-81430952D01*
X175361905Y-81430952D01*
X175457143Y-81383333D01*
X175504762Y-81335714D01*
X175552381Y-81240476D01*
X175552381Y-81049999D01*
X175504762Y-80954761D01*
X175457143Y-80907142D01*
X175361905Y-80859523D01*
X175171429Y-80859523D01*
X175076190Y-80907142D01*
X175028571Y-80954761D01*
X174980952Y-81049999D01*
X193238572Y-61412381D02*
X192905238Y-60936190D01*
X192667143Y-61412381D02*
X192667143Y-60412381D01*
X193048096Y-60412381D01*
X193143334Y-60460000D01*
X193190953Y-60507619D01*
X193238572Y-60602857D01*
X193238572Y-60745714D01*
X193190953Y-60840952D01*
X193143334Y-60888571D01*
X193048096Y-60936190D01*
X192667143Y-60936190D01*
X193524286Y-60412381D02*
X193857619Y-61412381D01*
X194190953Y-60412381D01*
X194476667Y-60507619D02*
X194524286Y-60460000D01*
X194619524Y-60412381D01*
X194857620Y-60412381D01*
X194952858Y-60460000D01*
X195000477Y-60507619D01*
X195048096Y-60602857D01*
X195048096Y-60698095D01*
X195000477Y-60840952D01*
X194429048Y-61412381D01*
X195048096Y-61412381D01*
X195429048Y-60507619D02*
X195476667Y-60460000D01*
X195571905Y-60412381D01*
X195810001Y-60412381D01*
X195905239Y-60460000D01*
X195952858Y-60507619D01*
X196000477Y-60602857D01*
X196000477Y-60698095D01*
X195952858Y-60840952D01*
X195381429Y-61412381D01*
X196000477Y-61412381D01*
X165552381Y-55681428D02*
X165076190Y-56014762D01*
X165552381Y-56252857D02*
X164552381Y-56252857D01*
X164552381Y-55871904D01*
X164600000Y-55776666D01*
X164647619Y-55729047D01*
X164742857Y-55681428D01*
X164885714Y-55681428D01*
X164980952Y-55729047D01*
X165028571Y-55776666D01*
X165076190Y-55871904D01*
X165076190Y-56252857D01*
X164552381Y-55395714D02*
X165552381Y-55062381D01*
X164552381Y-54729047D01*
X164647619Y-54443333D02*
X164600000Y-54395714D01*
X164552381Y-54300476D01*
X164552381Y-54062380D01*
X164600000Y-53967142D01*
X164647619Y-53919523D01*
X164742857Y-53871904D01*
X164838095Y-53871904D01*
X164980952Y-53919523D01*
X165552381Y-54490952D01*
X165552381Y-53871904D01*
X164885714Y-53014761D02*
X165552381Y-53014761D01*
X164504762Y-53252857D02*
X165219048Y-53490952D01*
X165219048Y-52871904D01*
X89963334Y-53927143D02*
X89915715Y-53974762D01*
X89772858Y-54022381D01*
X89677620Y-54022381D01*
X89534762Y-53974762D01*
X89439524Y-53879524D01*
X89391905Y-53784286D01*
X89344286Y-53593810D01*
X89344286Y-53450952D01*
X89391905Y-53260476D01*
X89439524Y-53165238D01*
X89534762Y-53070000D01*
X89677620Y-53022381D01*
X89772858Y-53022381D01*
X89915715Y-53070000D01*
X89963334Y-53117619D01*
X90915715Y-54022381D02*
X90344286Y-54022381D01*
X90630000Y-54022381D02*
X90630000Y-53022381D01*
X90534762Y-53165238D01*
X90439524Y-53260476D01*
X90344286Y-53308095D01*
X88773334Y-90297143D02*
X88725715Y-90344762D01*
X88582858Y-90392381D01*
X88487620Y-90392381D01*
X88344762Y-90344762D01*
X88249524Y-90249524D01*
X88201905Y-90154286D01*
X88154286Y-89963810D01*
X88154286Y-89820952D01*
X88201905Y-89630476D01*
X88249524Y-89535238D01*
X88344762Y-89440000D01*
X88487620Y-89392381D01*
X88582858Y-89392381D01*
X88725715Y-89440000D01*
X88773334Y-89487619D01*
X89154286Y-89487619D02*
X89201905Y-89440000D01*
X89297143Y-89392381D01*
X89535239Y-89392381D01*
X89630477Y-89440000D01*
X89678096Y-89487619D01*
X89725715Y-89582857D01*
X89725715Y-89678095D01*
X89678096Y-89820952D01*
X89106667Y-90392381D01*
X89725715Y-90392381D01*
X110283334Y-84407143D02*
X110235715Y-84454762D01*
X110092858Y-84502381D01*
X109997620Y-84502381D01*
X109854762Y-84454762D01*
X109759524Y-84359524D01*
X109711905Y-84264286D01*
X109664286Y-84073810D01*
X109664286Y-83930952D01*
X109711905Y-83740476D01*
X109759524Y-83645238D01*
X109854762Y-83550000D01*
X109997620Y-83502381D01*
X110092858Y-83502381D01*
X110235715Y-83550000D01*
X110283334Y-83597619D01*
X110616667Y-83502381D02*
X111235715Y-83502381D01*
X110902381Y-83883333D01*
X111045239Y-83883333D01*
X111140477Y-83930952D01*
X111188096Y-83978571D01*
X111235715Y-84073810D01*
X111235715Y-84311905D01*
X111188096Y-84407143D01*
X111140477Y-84454762D01*
X111045239Y-84502381D01*
X110759524Y-84502381D01*
X110664286Y-84454762D01*
X110616667Y-84407143D01*
X111553334Y-52657143D02*
X111505715Y-52704762D01*
X111362858Y-52752381D01*
X111267620Y-52752381D01*
X111124762Y-52704762D01*
X111029524Y-52609524D01*
X110981905Y-52514286D01*
X110934286Y-52323810D01*
X110934286Y-52180952D01*
X110981905Y-51990476D01*
X111029524Y-51895238D01*
X111124762Y-51800000D01*
X111267620Y-51752381D01*
X111362858Y-51752381D01*
X111505715Y-51800000D01*
X111553334Y-51847619D01*
X112410477Y-52085714D02*
X112410477Y-52752381D01*
X112172381Y-51704762D02*
X111934286Y-52419048D01*
X112553334Y-52419048D01*
X156083334Y-58547143D02*
X156035715Y-58594762D01*
X155892858Y-58642381D01*
X155797620Y-58642381D01*
X155654762Y-58594762D01*
X155559524Y-58499524D01*
X155511905Y-58404286D01*
X155464286Y-58213810D01*
X155464286Y-58070952D01*
X155511905Y-57880476D01*
X155559524Y-57785238D01*
X155654762Y-57690000D01*
X155797620Y-57642381D01*
X155892858Y-57642381D01*
X156035715Y-57690000D01*
X156083334Y-57737619D01*
X156988096Y-57642381D02*
X156511905Y-57642381D01*
X156464286Y-58118571D01*
X156511905Y-58070952D01*
X156607143Y-58023333D01*
X156845239Y-58023333D01*
X156940477Y-58070952D01*
X156988096Y-58118571D01*
X157035715Y-58213810D01*
X157035715Y-58451905D01*
X156988096Y-58547143D01*
X156940477Y-58594762D01*
X156845239Y-58642381D01*
X156607143Y-58642381D01*
X156511905Y-58594762D01*
X156464286Y-58547143D01*
X157353334Y-89027143D02*
X157305715Y-89074762D01*
X157162858Y-89122381D01*
X157067620Y-89122381D01*
X156924762Y-89074762D01*
X156829524Y-88979524D01*
X156781905Y-88884286D01*
X156734286Y-88693810D01*
X156734286Y-88550952D01*
X156781905Y-88360476D01*
X156829524Y-88265238D01*
X156924762Y-88170000D01*
X157067620Y-88122381D01*
X157162858Y-88122381D01*
X157305715Y-88170000D01*
X157353334Y-88217619D01*
X158210477Y-88122381D02*
X158020000Y-88122381D01*
X157924762Y-88170000D01*
X157877143Y-88217619D01*
X157781905Y-88360476D01*
X157734286Y-88550952D01*
X157734286Y-88931905D01*
X157781905Y-89027143D01*
X157829524Y-89074762D01*
X157924762Y-89122381D01*
X158115239Y-89122381D01*
X158210477Y-89074762D01*
X158258096Y-89027143D01*
X158305715Y-88931905D01*
X158305715Y-88693810D01*
X158258096Y-88598571D01*
X158210477Y-88550952D01*
X158115239Y-88503333D01*
X157924762Y-88503333D01*
X157829524Y-88550952D01*
X157781905Y-88598571D01*
X157734286Y-88693810D01*
X181403334Y-84407143D02*
X181355715Y-84454762D01*
X181212858Y-84502381D01*
X181117620Y-84502381D01*
X180974762Y-84454762D01*
X180879524Y-84359524D01*
X180831905Y-84264286D01*
X180784286Y-84073810D01*
X180784286Y-83930952D01*
X180831905Y-83740476D01*
X180879524Y-83645238D01*
X180974762Y-83550000D01*
X181117620Y-83502381D01*
X181212858Y-83502381D01*
X181355715Y-83550000D01*
X181403334Y-83597619D01*
X181736667Y-83502381D02*
X182403334Y-83502381D01*
X181974762Y-84502381D01*
X182673334Y-53927143D02*
X182625715Y-53974762D01*
X182482858Y-54022381D01*
X182387620Y-54022381D01*
X182244762Y-53974762D01*
X182149524Y-53879524D01*
X182101905Y-53784286D01*
X182054286Y-53593810D01*
X182054286Y-53450952D01*
X182101905Y-53260476D01*
X182149524Y-53165238D01*
X182244762Y-53070000D01*
X182387620Y-53022381D01*
X182482858Y-53022381D01*
X182625715Y-53070000D01*
X182673334Y-53117619D01*
X183244762Y-53450952D02*
X183149524Y-53403333D01*
X183101905Y-53355714D01*
X183054286Y-53260476D01*
X183054286Y-53212857D01*
X183101905Y-53117619D01*
X183149524Y-53070000D01*
X183244762Y-53022381D01*
X183435239Y-53022381D01*
X183530477Y-53070000D01*
X183578096Y-53117619D01*
X183625715Y-53212857D01*
X183625715Y-53260476D01*
X183578096Y-53355714D01*
X183530477Y-53403333D01*
X183435239Y-53450952D01*
X183244762Y-53450952D01*
X183149524Y-53498571D01*
X183101905Y-53546190D01*
X183054286Y-53641429D01*
X183054286Y-53831905D01*
X183101905Y-53927143D01*
X183149524Y-53974762D01*
X183244762Y-54022381D01*
X183435239Y-54022381D01*
X183530477Y-53974762D01*
X183578096Y-53927143D01*
X183625715Y-53831905D01*
X183625715Y-53641429D01*
X183578096Y-53546190D01*
X183530477Y-53498571D01*
X183435239Y-53450952D01*
X70187143Y-54756666D02*
X70234762Y-54804285D01*
X70282381Y-54947142D01*
X70282381Y-55042380D01*
X70234762Y-55185238D01*
X70139524Y-55280476D01*
X70044286Y-55328095D01*
X69853810Y-55375714D01*
X69710952Y-55375714D01*
X69520476Y-55328095D01*
X69425238Y-55280476D01*
X69330000Y-55185238D01*
X69282381Y-55042380D01*
X69282381Y-54947142D01*
X69330000Y-54804285D01*
X69377619Y-54756666D01*
X70282381Y-54280476D02*
X70282381Y-54090000D01*
X70234762Y-53994761D01*
X70187143Y-53947142D01*
X70044286Y-53851904D01*
X69853810Y-53804285D01*
X69472857Y-53804285D01*
X69377619Y-53851904D01*
X69330000Y-53899523D01*
X69282381Y-53994761D01*
X69282381Y-54185238D01*
X69330000Y-54280476D01*
X69377619Y-54328095D01*
X69472857Y-54375714D01*
X69710952Y-54375714D01*
X69806190Y-54328095D01*
X69853810Y-54280476D01*
X69901429Y-54185238D01*
X69901429Y-53994761D01*
X69853810Y-53899523D01*
X69806190Y-53851904D01*
X69710952Y-53804285D01*
M02*
