G04 #@! TF.FileFunction,Copper,L1,Top,Signal*
%FSLAX46Y46*%
G04 Gerber Fmt 4.6, Leading zero omitted, Abs format (unit mm)*
G04 Created by KiCad (PCBNEW 4.0.5) date 02/28/17 22:53:05*
%MOMM*%
%LPD*%
G01*
G04 APERTURE LIST*
%ADD10C,0.100000*%
%ADD11C,0.150000*%
%ADD12C,0.300000*%
%ADD13C,0.400000*%
%ADD14C,1.524000*%
%ADD15C,1.400000*%
%ADD16O,1.400000X1.400000*%
%ADD17O,1.998980X1.998980*%
%ADD18R,1.998980X1.998980*%
%ADD19R,2.500000X2.500000*%
%ADD20C,2.500000*%
%ADD21C,2.340000*%
%ADD22R,1.600000X1.600000*%
%ADD23O,1.600000X1.600000*%
%ADD24C,1.600000*%
%ADD25C,0.304800*%
%ADD26C,0.508000*%
G04 APERTURE END LIST*
D10*
D11*
X177002200Y-166007200D02*
X177002200Y-198007200D01*
X285002200Y-198007200D01*
X285002200Y-166007200D01*
X177002200Y-166007200D01*
D10*
D11*
X10000000Y-10000000D02*
X10000000Y-200007200D01*
X287002200Y-200007200D01*
X287002200Y-10000000D01*
X10000000Y-10000000D01*
D10*
D11*
X12000000Y-12000000D02*
X12000000Y-198007200D01*
X285002200Y-198007200D01*
X285002200Y-12000000D01*
X12000000Y-12000000D01*
D10*
D11*
X60000000Y-12000000D02*
X60000000Y-10000000D01*
D10*
D11*
X110000000Y-12000000D02*
X110000000Y-10000000D01*
D10*
D11*
X160000000Y-12000000D02*
X160000000Y-10000000D01*
D10*
D11*
X210000000Y-12000000D02*
X210000000Y-10000000D01*
D10*
D11*
X260000000Y-12000000D02*
X260000000Y-10000000D01*
D10*
D11*
X35990476Y-11588095D02*
X35247619Y-11588095D01*
X35619048Y-11588095D02*
X35619048Y-10288095D01*
X35495238Y-10473810D01*
X35371429Y-10597619D01*
X35247619Y-10659524D01*
D10*
D11*
X85247619Y-10411905D02*
X85309524Y-10350000D01*
X85433333Y-10288095D01*
X85742857Y-10288095D01*
X85866667Y-10350000D01*
X85928571Y-10411905D01*
X85990476Y-10535714D01*
X85990476Y-10659524D01*
X85928571Y-10845238D01*
X85185714Y-11588095D01*
X85990476Y-11588095D01*
D10*
D11*
X135185714Y-10288095D02*
X135990476Y-10288095D01*
X135557143Y-10783333D01*
X135742857Y-10783333D01*
X135866667Y-10845238D01*
X135928571Y-10907143D01*
X135990476Y-11030952D01*
X135990476Y-11340476D01*
X135928571Y-11464286D01*
X135866667Y-11526190D01*
X135742857Y-11588095D01*
X135371429Y-11588095D01*
X135247619Y-11526190D01*
X135185714Y-11464286D01*
D10*
D11*
X185866667Y-10721429D02*
X185866667Y-11588095D01*
X185557143Y-10226190D02*
X185247619Y-11154762D01*
X186052381Y-11154762D01*
D10*
D11*
X235928571Y-10288095D02*
X235309524Y-10288095D01*
X235247619Y-10907143D01*
X235309524Y-10845238D01*
X235433333Y-10783333D01*
X235742857Y-10783333D01*
X235866667Y-10845238D01*
X235928571Y-10907143D01*
X235990476Y-11030952D01*
X235990476Y-11340476D01*
X235928571Y-11464286D01*
X235866667Y-11526190D01*
X235742857Y-11588095D01*
X235433333Y-11588095D01*
X235309524Y-11526190D01*
X235247619Y-11464286D01*
D10*
D11*
X285866667Y-10288095D02*
X285619048Y-10288095D01*
X285495238Y-10350000D01*
X285433333Y-10411905D01*
X285309524Y-10597619D01*
X285247619Y-10845238D01*
X285247619Y-11340476D01*
X285309524Y-11464286D01*
X285371429Y-11526190D01*
X285495238Y-11588095D01*
X285742857Y-11588095D01*
X285866667Y-11526190D01*
X285928571Y-11464286D01*
X285990476Y-11340476D01*
X285990476Y-11030952D01*
X285928571Y-10907143D01*
X285866667Y-10845238D01*
X285742857Y-10783333D01*
X285495238Y-10783333D01*
X285371429Y-10845238D01*
X285309524Y-10907143D01*
X285247619Y-11030952D01*
D10*
D11*
X60000000Y-198007200D02*
X60000000Y-200007200D01*
D10*
D11*
X110000000Y-198007200D02*
X110000000Y-200007200D01*
D10*
D11*
X160000000Y-198007200D02*
X160000000Y-200007200D01*
D10*
D11*
X210000000Y-198007200D02*
X210000000Y-200007200D01*
D10*
D11*
X260000000Y-198007200D02*
X260000000Y-200007200D01*
D10*
D11*
X35990476Y-199595295D02*
X35247619Y-199595295D01*
X35619048Y-199595295D02*
X35619048Y-198295295D01*
X35495238Y-198481010D01*
X35371429Y-198604819D01*
X35247619Y-198666724D01*
D10*
D11*
X85247619Y-198419105D02*
X85309524Y-198357200D01*
X85433333Y-198295295D01*
X85742857Y-198295295D01*
X85866667Y-198357200D01*
X85928571Y-198419105D01*
X85990476Y-198542914D01*
X85990476Y-198666724D01*
X85928571Y-198852438D01*
X85185714Y-199595295D01*
X85990476Y-199595295D01*
D10*
D11*
X135185714Y-198295295D02*
X135990476Y-198295295D01*
X135557143Y-198790533D01*
X135742857Y-198790533D01*
X135866667Y-198852438D01*
X135928571Y-198914343D01*
X135990476Y-199038152D01*
X135990476Y-199347676D01*
X135928571Y-199471486D01*
X135866667Y-199533390D01*
X135742857Y-199595295D01*
X135371429Y-199595295D01*
X135247619Y-199533390D01*
X135185714Y-199471486D01*
D10*
D11*
X185866667Y-198728629D02*
X185866667Y-199595295D01*
X185557143Y-198233390D02*
X185247619Y-199161962D01*
X186052381Y-199161962D01*
D10*
D11*
X235928571Y-198295295D02*
X235309524Y-198295295D01*
X235247619Y-198914343D01*
X235309524Y-198852438D01*
X235433333Y-198790533D01*
X235742857Y-198790533D01*
X235866667Y-198852438D01*
X235928571Y-198914343D01*
X235990476Y-199038152D01*
X235990476Y-199347676D01*
X235928571Y-199471486D01*
X235866667Y-199533390D01*
X235742857Y-199595295D01*
X235433333Y-199595295D01*
X235309524Y-199533390D01*
X235247619Y-199471486D01*
D10*
D11*
X285866667Y-198295295D02*
X285619048Y-198295295D01*
X285495238Y-198357200D01*
X285433333Y-198419105D01*
X285309524Y-198604819D01*
X285247619Y-198852438D01*
X285247619Y-199347676D01*
X285309524Y-199471486D01*
X285371429Y-199533390D01*
X285495238Y-199595295D01*
X285742857Y-199595295D01*
X285866667Y-199533390D01*
X285928571Y-199471486D01*
X285990476Y-199347676D01*
X285990476Y-199038152D01*
X285928571Y-198914343D01*
X285866667Y-198852438D01*
X285742857Y-198790533D01*
X285495238Y-198790533D01*
X285371429Y-198852438D01*
X285309524Y-198914343D01*
X285247619Y-199038152D01*
D10*
D11*
X10000000Y-60000000D02*
X12000000Y-60000000D01*
D10*
D11*
X10000000Y-110000000D02*
X12000000Y-110000000D01*
D10*
D11*
X10000000Y-160000000D02*
X12000000Y-160000000D01*
D10*
D11*
X10690476Y-35216667D02*
X11309524Y-35216667D01*
X10566667Y-35588095D02*
X11000000Y-34288095D01*
X11433333Y-35588095D01*
D10*
D11*
X11092857Y-84907143D02*
X11278571Y-84969048D01*
X11340476Y-85030952D01*
X11402381Y-85154762D01*
X11402381Y-85340476D01*
X11340476Y-85464286D01*
X11278571Y-85526190D01*
X11154762Y-85588095D01*
X10659524Y-85588095D01*
X10659524Y-84288095D01*
X11092857Y-84288095D01*
X11216667Y-84350000D01*
X11278571Y-84411905D01*
X11340476Y-84535714D01*
X11340476Y-84659524D01*
X11278571Y-84783333D01*
X11216667Y-84845238D01*
X11092857Y-84907143D01*
X10659524Y-84907143D01*
D10*
D11*
X11402381Y-135464286D02*
X11340476Y-135526190D01*
X11154762Y-135588095D01*
X11030952Y-135588095D01*
X10845238Y-135526190D01*
X10721429Y-135402381D01*
X10659524Y-135278571D01*
X10597619Y-135030952D01*
X10597619Y-134845238D01*
X10659524Y-134597619D01*
X10721429Y-134473810D01*
X10845238Y-134350000D01*
X11030952Y-134288095D01*
X11154762Y-134288095D01*
X11340476Y-134350000D01*
X11402381Y-134411905D01*
D10*
D11*
X10659524Y-185588095D02*
X10659524Y-184288095D01*
X10969048Y-184288095D01*
X11154762Y-184350000D01*
X11278571Y-184473810D01*
X11340476Y-184597619D01*
X11402381Y-184845238D01*
X11402381Y-185030952D01*
X11340476Y-185278571D01*
X11278571Y-185402381D01*
X11154762Y-185526190D01*
X10969048Y-185588095D01*
X10659524Y-185588095D01*
D10*
D11*
X287002200Y-60000000D02*
X285002200Y-60000000D01*
D10*
D11*
X287002200Y-110000000D02*
X285002200Y-110000000D01*
D10*
D11*
X287002200Y-160000000D02*
X285002200Y-160000000D01*
D10*
D11*
X285692676Y-35216667D02*
X286311724Y-35216667D01*
X285568867Y-35588095D02*
X286002200Y-34288095D01*
X286435533Y-35588095D01*
D10*
D11*
X286095057Y-84907143D02*
X286280771Y-84969048D01*
X286342676Y-85030952D01*
X286404581Y-85154762D01*
X286404581Y-85340476D01*
X286342676Y-85464286D01*
X286280771Y-85526190D01*
X286156962Y-85588095D01*
X285661724Y-85588095D01*
X285661724Y-84288095D01*
X286095057Y-84288095D01*
X286218867Y-84350000D01*
X286280771Y-84411905D01*
X286342676Y-84535714D01*
X286342676Y-84659524D01*
X286280771Y-84783333D01*
X286218867Y-84845238D01*
X286095057Y-84907143D01*
X285661724Y-84907143D01*
D10*
D11*
X286404581Y-135464286D02*
X286342676Y-135526190D01*
X286156962Y-135588095D01*
X286033152Y-135588095D01*
X285847438Y-135526190D01*
X285723629Y-135402381D01*
X285661724Y-135278571D01*
X285599819Y-135030952D01*
X285599819Y-134845238D01*
X285661724Y-134597619D01*
X285723629Y-134473810D01*
X285847438Y-134350000D01*
X286033152Y-134288095D01*
X286156962Y-134288095D01*
X286342676Y-134350000D01*
X286404581Y-134411905D01*
D10*
D11*
X285661724Y-185588095D02*
X285661724Y-184288095D01*
X285971248Y-184288095D01*
X286156962Y-184350000D01*
X286280771Y-184473810D01*
X286342676Y-184597619D01*
X286404581Y-184845238D01*
X286404581Y-185030952D01*
X286342676Y-185278571D01*
X286280771Y-185402381D01*
X286156962Y-185526190D01*
X285971248Y-185588095D01*
X285661724Y-185588095D01*
D10*
D11*
X200359343Y-193785771D02*
X200359343Y-192285771D01*
X200716486Y-192285771D01*
X200930771Y-192357200D01*
X201073629Y-192500057D01*
X201145057Y-192642914D01*
X201216486Y-192928629D01*
X201216486Y-193142914D01*
X201145057Y-193428629D01*
X201073629Y-193571486D01*
X200930771Y-193714343D01*
X200716486Y-193785771D01*
X200359343Y-193785771D01*
X202502200Y-193785771D02*
X202502200Y-193000057D01*
X202430771Y-192857200D01*
X202287914Y-192785771D01*
X202002200Y-192785771D01*
X201859343Y-192857200D01*
X202502200Y-193714343D02*
X202359343Y-193785771D01*
X202002200Y-193785771D01*
X201859343Y-193714343D01*
X201787914Y-193571486D01*
X201787914Y-193428629D01*
X201859343Y-193285771D01*
X202002200Y-193214343D01*
X202359343Y-193214343D01*
X202502200Y-193142914D01*
X203002200Y-192785771D02*
X203573629Y-192785771D01*
X203216486Y-192285771D02*
X203216486Y-193571486D01*
X203287914Y-193714343D01*
X203430772Y-193785771D01*
X203573629Y-193785771D01*
X204645057Y-193714343D02*
X204502200Y-193785771D01*
X204216486Y-193785771D01*
X204073629Y-193714343D01*
X204002200Y-193571486D01*
X204002200Y-193000057D01*
X204073629Y-192857200D01*
X204216486Y-192785771D01*
X204502200Y-192785771D01*
X204645057Y-192857200D01*
X204716486Y-193000057D01*
X204716486Y-193142914D01*
X204002200Y-193285771D01*
X205359343Y-193642914D02*
X205430771Y-193714343D01*
X205359343Y-193785771D01*
X205287914Y-193714343D01*
X205359343Y-193642914D01*
X205359343Y-193785771D01*
X205359343Y-192857200D02*
X205430771Y-192928629D01*
X205359343Y-193000057D01*
X205287914Y-192928629D01*
X205359343Y-192857200D01*
X205359343Y-193000057D01*
D10*
D11*
X177002200Y-194507200D02*
X285002200Y-194507200D01*
D10*
D11*
X178359343Y-196585771D02*
X178359343Y-195085771D01*
X179216486Y-196585771D02*
X178573629Y-195728629D01*
X179216486Y-195085771D02*
X178359343Y-195942914D01*
X179859343Y-196585771D02*
X179859343Y-195585771D01*
X179859343Y-195085771D02*
X179787914Y-195157200D01*
X179859343Y-195228629D01*
X179930771Y-195157200D01*
X179859343Y-195085771D01*
X179859343Y-195228629D01*
X181430772Y-196442914D02*
X181359343Y-196514343D01*
X181145057Y-196585771D01*
X181002200Y-196585771D01*
X180787915Y-196514343D01*
X180645057Y-196371486D01*
X180573629Y-196228629D01*
X180502200Y-195942914D01*
X180502200Y-195728629D01*
X180573629Y-195442914D01*
X180645057Y-195300057D01*
X180787915Y-195157200D01*
X181002200Y-195085771D01*
X181145057Y-195085771D01*
X181359343Y-195157200D01*
X181430772Y-195228629D01*
X182716486Y-196585771D02*
X182716486Y-195800057D01*
X182645057Y-195657200D01*
X182502200Y-195585771D01*
X182216486Y-195585771D01*
X182073629Y-195657200D01*
X182716486Y-196514343D02*
X182573629Y-196585771D01*
X182216486Y-196585771D01*
X182073629Y-196514343D01*
X182002200Y-196371486D01*
X182002200Y-196228629D01*
X182073629Y-196085771D01*
X182216486Y-196014343D01*
X182573629Y-196014343D01*
X182716486Y-195942914D01*
X184073629Y-196585771D02*
X184073629Y-195085771D01*
X184073629Y-196514343D02*
X183930772Y-196585771D01*
X183645058Y-196585771D01*
X183502200Y-196514343D01*
X183430772Y-196442914D01*
X183359343Y-196300057D01*
X183359343Y-195871486D01*
X183430772Y-195728629D01*
X183502200Y-195657200D01*
X183645058Y-195585771D01*
X183930772Y-195585771D01*
X184073629Y-195657200D01*
X185930772Y-195800057D02*
X186430772Y-195800057D01*
X186645058Y-196585771D02*
X185930772Y-196585771D01*
X185930772Y-195085771D01*
X186645058Y-195085771D01*
X187287915Y-196442914D02*
X187359343Y-196514343D01*
X187287915Y-196585771D01*
X187216486Y-196514343D01*
X187287915Y-196442914D01*
X187287915Y-196585771D01*
X188002201Y-196585771D02*
X188002201Y-195085771D01*
X188359344Y-195085771D01*
X188573629Y-195157200D01*
X188716487Y-195300057D01*
X188787915Y-195442914D01*
X188859344Y-195728629D01*
X188859344Y-195942914D01*
X188787915Y-196228629D01*
X188716487Y-196371486D01*
X188573629Y-196514343D01*
X188359344Y-196585771D01*
X188002201Y-196585771D01*
X189502201Y-196442914D02*
X189573629Y-196514343D01*
X189502201Y-196585771D01*
X189430772Y-196514343D01*
X189502201Y-196442914D01*
X189502201Y-196585771D01*
X190145058Y-196157200D02*
X190859344Y-196157200D01*
X190002201Y-196585771D02*
X190502201Y-195085771D01*
X191002201Y-196585771D01*
X191502201Y-196442914D02*
X191573629Y-196514343D01*
X191502201Y-196585771D01*
X191430772Y-196514343D01*
X191502201Y-196442914D01*
X191502201Y-196585771D01*
X194502201Y-196585771D02*
X194502201Y-195085771D01*
X194645058Y-196014343D02*
X195073629Y-196585771D01*
X195073629Y-195585771D02*
X194502201Y-196157200D01*
X195716487Y-196585771D02*
X195716487Y-195585771D01*
X195716487Y-195085771D02*
X195645058Y-195157200D01*
X195716487Y-195228629D01*
X195787915Y-195157200D01*
X195716487Y-195085771D01*
X195716487Y-195228629D01*
X197073630Y-196514343D02*
X196930773Y-196585771D01*
X196645059Y-196585771D01*
X196502201Y-196514343D01*
X196430773Y-196442914D01*
X196359344Y-196300057D01*
X196359344Y-195871486D01*
X196430773Y-195728629D01*
X196502201Y-195657200D01*
X196645059Y-195585771D01*
X196930773Y-195585771D01*
X197073630Y-195657200D01*
X198359344Y-196585771D02*
X198359344Y-195800057D01*
X198287915Y-195657200D01*
X198145058Y-195585771D01*
X197859344Y-195585771D01*
X197716487Y-195657200D01*
X198359344Y-196514343D02*
X198216487Y-196585771D01*
X197859344Y-196585771D01*
X197716487Y-196514343D01*
X197645058Y-196371486D01*
X197645058Y-196228629D01*
X197716487Y-196085771D01*
X197859344Y-196014343D01*
X198216487Y-196014343D01*
X198359344Y-195942914D01*
X199716487Y-196585771D02*
X199716487Y-195085771D01*
X199716487Y-196514343D02*
X199573630Y-196585771D01*
X199287916Y-196585771D01*
X199145058Y-196514343D01*
X199073630Y-196442914D01*
X199002201Y-196300057D01*
X199002201Y-195871486D01*
X199073630Y-195728629D01*
X199145058Y-195657200D01*
X199287916Y-195585771D01*
X199573630Y-195585771D01*
X199716487Y-195657200D01*
X202216487Y-195585771D02*
X202216487Y-196585771D01*
X201859344Y-195014343D02*
X201502201Y-196085771D01*
X202430773Y-196085771D01*
X203002201Y-196442914D02*
X203073629Y-196514343D01*
X203002201Y-196585771D01*
X202930772Y-196514343D01*
X203002201Y-196442914D01*
X203002201Y-196585771D01*
X204002201Y-195085771D02*
X204145058Y-195085771D01*
X204287915Y-195157200D01*
X204359344Y-195228629D01*
X204430773Y-195371486D01*
X204502201Y-195657200D01*
X204502201Y-196014343D01*
X204430773Y-196300057D01*
X204359344Y-196442914D01*
X204287915Y-196514343D01*
X204145058Y-196585771D01*
X204002201Y-196585771D01*
X203859344Y-196514343D01*
X203787915Y-196442914D01*
X203716487Y-196300057D01*
X203645058Y-196014343D01*
X203645058Y-195657200D01*
X203716487Y-195371486D01*
X203787915Y-195228629D01*
X203859344Y-195157200D01*
X204002201Y-195085771D01*
X205145058Y-196442914D02*
X205216486Y-196514343D01*
X205145058Y-196585771D01*
X205073629Y-196514343D01*
X205145058Y-196442914D01*
X205145058Y-196585771D01*
X206573630Y-195085771D02*
X205859344Y-195085771D01*
X205787915Y-195800057D01*
X205859344Y-195728629D01*
X206002201Y-195657200D01*
X206359344Y-195657200D01*
X206502201Y-195728629D01*
X206573630Y-195800057D01*
X206645058Y-195942914D01*
X206645058Y-196300057D01*
X206573630Y-196442914D01*
X206502201Y-196514343D01*
X206359344Y-196585771D01*
X206002201Y-196585771D01*
X205859344Y-196514343D01*
X205787915Y-196442914D01*
D10*
D11*
X177002200Y-191507200D02*
X285002200Y-191507200D01*
D10*
D12*
X264216486Y-193785771D02*
X263716486Y-193071486D01*
X263359343Y-193785771D02*
X263359343Y-192285771D01*
X263930771Y-192285771D01*
X264073629Y-192357200D01*
X264145057Y-192428629D01*
X264216486Y-192571486D01*
X264216486Y-192785771D01*
X264145057Y-192928629D01*
X264073629Y-193000057D01*
X263930771Y-193071486D01*
X263359343Y-193071486D01*
X265430771Y-193714343D02*
X265287914Y-193785771D01*
X265002200Y-193785771D01*
X264859343Y-193714343D01*
X264787914Y-193571486D01*
X264787914Y-193000057D01*
X264859343Y-192857200D01*
X265002200Y-192785771D01*
X265287914Y-192785771D01*
X265430771Y-192857200D01*
X265502200Y-193000057D01*
X265502200Y-193142914D01*
X264787914Y-193285771D01*
X266002200Y-192785771D02*
X266359343Y-193785771D01*
X266716485Y-192785771D01*
X267287914Y-193642914D02*
X267359342Y-193714343D01*
X267287914Y-193785771D01*
X267216485Y-193714343D01*
X267287914Y-193642914D01*
X267287914Y-193785771D01*
X267287914Y-192857200D02*
X267359342Y-192928629D01*
X267287914Y-193000057D01*
X267216485Y-192928629D01*
X267287914Y-192857200D01*
X267287914Y-193000057D01*
D10*
D11*
X178287914Y-193714343D02*
X178502200Y-193785771D01*
X178859343Y-193785771D01*
X179002200Y-193714343D01*
X179073629Y-193642914D01*
X179145057Y-193500057D01*
X179145057Y-193357200D01*
X179073629Y-193214343D01*
X179002200Y-193142914D01*
X178859343Y-193071486D01*
X178573629Y-193000057D01*
X178430771Y-192928629D01*
X178359343Y-192857200D01*
X178287914Y-192714343D01*
X178287914Y-192571486D01*
X178359343Y-192428629D01*
X178430771Y-192357200D01*
X178573629Y-192285771D01*
X178930771Y-192285771D01*
X179145057Y-192357200D01*
X179787914Y-193785771D02*
X179787914Y-192785771D01*
X179787914Y-192285771D02*
X179716485Y-192357200D01*
X179787914Y-192428629D01*
X179859342Y-192357200D01*
X179787914Y-192285771D01*
X179787914Y-192428629D01*
X180359343Y-192785771D02*
X181145057Y-192785771D01*
X180359343Y-193785771D01*
X181145057Y-193785771D01*
X182287914Y-193714343D02*
X182145057Y-193785771D01*
X181859343Y-193785771D01*
X181716486Y-193714343D01*
X181645057Y-193571486D01*
X181645057Y-193000057D01*
X181716486Y-192857200D01*
X181859343Y-192785771D01*
X182145057Y-192785771D01*
X182287914Y-192857200D01*
X182359343Y-193000057D01*
X182359343Y-193142914D01*
X181645057Y-193285771D01*
X183002200Y-193642914D02*
X183073628Y-193714343D01*
X183002200Y-193785771D01*
X182930771Y-193714343D01*
X183002200Y-193642914D01*
X183002200Y-193785771D01*
X183002200Y-192857200D02*
X183073628Y-192928629D01*
X183002200Y-193000057D01*
X182930771Y-192928629D01*
X183002200Y-192857200D01*
X183002200Y-193000057D01*
X184787914Y-193357200D02*
X185502200Y-193357200D01*
X184645057Y-193785771D02*
X185145057Y-192285771D01*
X185645057Y-193785771D01*
X186787914Y-192785771D02*
X186787914Y-193785771D01*
X186430771Y-192214343D02*
X186073628Y-193285771D01*
X187002200Y-193285771D01*
D10*
D11*
X263359343Y-196585771D02*
X263359343Y-195085771D01*
X264716486Y-196585771D02*
X264716486Y-195085771D01*
X264716486Y-196514343D02*
X264573629Y-196585771D01*
X264287915Y-196585771D01*
X264145057Y-196514343D01*
X264073629Y-196442914D01*
X264002200Y-196300057D01*
X264002200Y-195871486D01*
X264073629Y-195728629D01*
X264145057Y-195657200D01*
X264287915Y-195585771D01*
X264573629Y-195585771D01*
X264716486Y-195657200D01*
X265430772Y-196442914D02*
X265502200Y-196514343D01*
X265430772Y-196585771D01*
X265359343Y-196514343D01*
X265430772Y-196442914D01*
X265430772Y-196585771D01*
X265430772Y-195657200D02*
X265502200Y-195728629D01*
X265430772Y-195800057D01*
X265359343Y-195728629D01*
X265430772Y-195657200D01*
X265430772Y-195800057D01*
X268073629Y-196585771D02*
X267216486Y-196585771D01*
X267645058Y-196585771D02*
X267645058Y-195085771D01*
X267502201Y-195300057D01*
X267359343Y-195442914D01*
X267216486Y-195514343D01*
X269787914Y-195014343D02*
X268502200Y-196942914D01*
X271073629Y-196585771D02*
X270216486Y-196585771D01*
X270645058Y-196585771D02*
X270645058Y-195085771D01*
X270502201Y-195300057D01*
X270359343Y-195442914D01*
X270216486Y-195514343D01*
D10*
D11*
X177002200Y-187507200D02*
X285002200Y-187507200D01*
D10*
D13*
X178454581Y-188211962D02*
X179597438Y-188211962D01*
X178776010Y-190211962D02*
X179026010Y-188211962D01*
X180014105Y-190211962D02*
X180180771Y-188878629D01*
X180264105Y-188211962D02*
X180156962Y-188307200D01*
X180240295Y-188402438D01*
X180347439Y-188307200D01*
X180264105Y-188211962D01*
X180240295Y-188402438D01*
X180847438Y-188878629D02*
X181609343Y-188878629D01*
X181216486Y-188211962D02*
X181002200Y-189926248D01*
X181073630Y-190116724D01*
X181252201Y-190211962D01*
X181442677Y-190211962D01*
X182395058Y-190211962D02*
X182216487Y-190116724D01*
X182145057Y-189926248D01*
X182359343Y-188211962D01*
X183930772Y-190116724D02*
X183728391Y-190211962D01*
X183347439Y-190211962D01*
X183168867Y-190116724D01*
X183097438Y-189926248D01*
X183192676Y-189164343D01*
X183311724Y-188973867D01*
X183514105Y-188878629D01*
X183895057Y-188878629D01*
X184073629Y-188973867D01*
X184145057Y-189164343D01*
X184121248Y-189354819D01*
X183145057Y-189545295D01*
X184895057Y-190021486D02*
X184978392Y-190116724D01*
X184871248Y-190211962D01*
X184787915Y-190116724D01*
X184895057Y-190021486D01*
X184871248Y-190211962D01*
X185026010Y-188973867D02*
X185109344Y-189069105D01*
X185002200Y-189164343D01*
X184918867Y-189069105D01*
X185026010Y-188973867D01*
X185002200Y-189164343D01*
D10*
D11*
X178859343Y-185600057D02*
X178359343Y-185600057D01*
X178359343Y-186385771D02*
X178359343Y-184885771D01*
X179073629Y-184885771D01*
X179645057Y-186385771D02*
X179645057Y-185385771D01*
X179645057Y-184885771D02*
X179573628Y-184957200D01*
X179645057Y-185028629D01*
X179716485Y-184957200D01*
X179645057Y-184885771D01*
X179645057Y-185028629D01*
X180573629Y-186385771D02*
X180430771Y-186314343D01*
X180359343Y-186171486D01*
X180359343Y-184885771D01*
X181716485Y-186314343D02*
X181573628Y-186385771D01*
X181287914Y-186385771D01*
X181145057Y-186314343D01*
X181073628Y-186171486D01*
X181073628Y-185600057D01*
X181145057Y-185457200D01*
X181287914Y-185385771D01*
X181573628Y-185385771D01*
X181716485Y-185457200D01*
X181787914Y-185600057D01*
X181787914Y-185742914D01*
X181073628Y-185885771D01*
X182430771Y-186242914D02*
X182502199Y-186314343D01*
X182430771Y-186385771D01*
X182359342Y-186314343D01*
X182430771Y-186242914D01*
X182430771Y-186385771D01*
X182430771Y-185457200D02*
X182502199Y-185528629D01*
X182430771Y-185600057D01*
X182359342Y-185528629D01*
X182430771Y-185457200D01*
X182430771Y-185600057D01*
X185073628Y-184957200D02*
X184930771Y-184885771D01*
X184716485Y-184885771D01*
X184502200Y-184957200D01*
X184359342Y-185100057D01*
X184287914Y-185242914D01*
X184216485Y-185528629D01*
X184216485Y-185742914D01*
X184287914Y-186028629D01*
X184359342Y-186171486D01*
X184502200Y-186314343D01*
X184716485Y-186385771D01*
X184859342Y-186385771D01*
X185073628Y-186314343D01*
X185145057Y-186242914D01*
X185145057Y-185742914D01*
X184859342Y-185742914D01*
X186430771Y-186385771D02*
X186430771Y-185600057D01*
X186359342Y-185457200D01*
X186216485Y-185385771D01*
X185930771Y-185385771D01*
X185787914Y-185457200D01*
X186430771Y-186314343D02*
X186287914Y-186385771D01*
X185930771Y-186385771D01*
X185787914Y-186314343D01*
X185716485Y-186171486D01*
X185716485Y-186028629D01*
X185787914Y-185885771D01*
X185930771Y-185814343D01*
X186287914Y-185814343D01*
X186430771Y-185742914D01*
X187073628Y-186314343D02*
X187216485Y-186385771D01*
X187502200Y-186385771D01*
X187645057Y-186314343D01*
X187716485Y-186171486D01*
X187716485Y-186100057D01*
X187645057Y-185957200D01*
X187502200Y-185885771D01*
X187287914Y-185885771D01*
X187145057Y-185814343D01*
X187073628Y-185671486D01*
X187073628Y-185600057D01*
X187145057Y-185457200D01*
X187287914Y-185385771D01*
X187502200Y-185385771D01*
X187645057Y-185457200D01*
X188359343Y-186385771D02*
X188359343Y-184885771D01*
X188930771Y-184885771D01*
X189073629Y-184957200D01*
X189145057Y-185028629D01*
X189216486Y-185171486D01*
X189216486Y-185385771D01*
X189145057Y-185528629D01*
X189073629Y-185600057D01*
X188930771Y-185671486D01*
X188359343Y-185671486D01*
X190716486Y-186242914D02*
X190645057Y-186314343D01*
X190430771Y-186385771D01*
X190287914Y-186385771D01*
X190073629Y-186314343D01*
X189930771Y-186171486D01*
X189859343Y-186028629D01*
X189787914Y-185742914D01*
X189787914Y-185528629D01*
X189859343Y-185242914D01*
X189930771Y-185100057D01*
X190073629Y-184957200D01*
X190287914Y-184885771D01*
X190430771Y-184885771D01*
X190645057Y-184957200D01*
X190716486Y-185028629D01*
X191859343Y-185600057D02*
X192073629Y-185671486D01*
X192145057Y-185742914D01*
X192216486Y-185885771D01*
X192216486Y-186100057D01*
X192145057Y-186242914D01*
X192073629Y-186314343D01*
X191930771Y-186385771D01*
X191359343Y-186385771D01*
X191359343Y-184885771D01*
X191859343Y-184885771D01*
X192002200Y-184957200D01*
X192073629Y-185028629D01*
X192145057Y-185171486D01*
X192145057Y-185314343D01*
X192073629Y-185457200D01*
X192002200Y-185528629D01*
X191859343Y-185600057D01*
X191359343Y-185600057D01*
X192859343Y-186242914D02*
X192930771Y-186314343D01*
X192859343Y-186385771D01*
X192787914Y-186314343D01*
X192859343Y-186242914D01*
X192859343Y-186385771D01*
X193573629Y-186385771D02*
X193573629Y-184885771D01*
X193716486Y-185814343D02*
X194145057Y-186385771D01*
X194145057Y-185385771D02*
X193573629Y-185957200D01*
X194787915Y-186385771D02*
X194787915Y-185385771D01*
X194787915Y-184885771D02*
X194716486Y-184957200D01*
X194787915Y-185028629D01*
X194859343Y-184957200D01*
X194787915Y-184885771D01*
X194787915Y-185028629D01*
X196145058Y-186314343D02*
X196002201Y-186385771D01*
X195716487Y-186385771D01*
X195573629Y-186314343D01*
X195502201Y-186242914D01*
X195430772Y-186100057D01*
X195430772Y-185671486D01*
X195502201Y-185528629D01*
X195573629Y-185457200D01*
X195716487Y-185385771D01*
X196002201Y-185385771D01*
X196145058Y-185457200D01*
X197430772Y-186385771D02*
X197430772Y-185600057D01*
X197359343Y-185457200D01*
X197216486Y-185385771D01*
X196930772Y-185385771D01*
X196787915Y-185457200D01*
X197430772Y-186314343D02*
X197287915Y-186385771D01*
X196930772Y-186385771D01*
X196787915Y-186314343D01*
X196716486Y-186171486D01*
X196716486Y-186028629D01*
X196787915Y-185885771D01*
X196930772Y-185814343D01*
X197287915Y-185814343D01*
X197430772Y-185742914D01*
X198787915Y-186385771D02*
X198787915Y-184885771D01*
X198787915Y-186314343D02*
X198645058Y-186385771D01*
X198359344Y-186385771D01*
X198216486Y-186314343D01*
X198145058Y-186242914D01*
X198073629Y-186100057D01*
X198073629Y-185671486D01*
X198145058Y-185528629D01*
X198216486Y-185457200D01*
X198359344Y-185385771D01*
X198645058Y-185385771D01*
X198787915Y-185457200D01*
X199145058Y-186528629D02*
X200287915Y-186528629D01*
X200645058Y-185385771D02*
X200645058Y-186885771D01*
X200645058Y-185457200D02*
X200787915Y-185385771D01*
X201073629Y-185385771D01*
X201216486Y-185457200D01*
X201287915Y-185528629D01*
X201359344Y-185671486D01*
X201359344Y-186100057D01*
X201287915Y-186242914D01*
X201216486Y-186314343D01*
X201073629Y-186385771D01*
X200787915Y-186385771D01*
X200645058Y-186314343D01*
X202645058Y-186314343D02*
X202502201Y-186385771D01*
X202216487Y-186385771D01*
X202073629Y-186314343D01*
X202002201Y-186242914D01*
X201930772Y-186100057D01*
X201930772Y-185671486D01*
X202002201Y-185528629D01*
X202073629Y-185457200D01*
X202216487Y-185385771D01*
X202502201Y-185385771D01*
X202645058Y-185457200D01*
X203287915Y-186385771D02*
X203287915Y-184885771D01*
X203287915Y-185457200D02*
X203430772Y-185385771D01*
X203716486Y-185385771D01*
X203859343Y-185457200D01*
X203930772Y-185528629D01*
X204002201Y-185671486D01*
X204002201Y-186100057D01*
X203930772Y-186242914D01*
X203859343Y-186314343D01*
X203716486Y-186385771D01*
X203430772Y-186385771D01*
X203287915Y-186314343D01*
D10*
D11*
X177002200Y-181507200D02*
X285002200Y-181507200D01*
D10*
D11*
X178287914Y-183614343D02*
X178502200Y-183685771D01*
X178859343Y-183685771D01*
X179002200Y-183614343D01*
X179073629Y-183542914D01*
X179145057Y-183400057D01*
X179145057Y-183257200D01*
X179073629Y-183114343D01*
X179002200Y-183042914D01*
X178859343Y-182971486D01*
X178573629Y-182900057D01*
X178430771Y-182828629D01*
X178359343Y-182757200D01*
X178287914Y-182614343D01*
X178287914Y-182471486D01*
X178359343Y-182328629D01*
X178430771Y-182257200D01*
X178573629Y-182185771D01*
X178930771Y-182185771D01*
X179145057Y-182257200D01*
X179787914Y-183685771D02*
X179787914Y-182185771D01*
X180430771Y-183685771D02*
X180430771Y-182900057D01*
X180359342Y-182757200D01*
X180216485Y-182685771D01*
X180002200Y-182685771D01*
X179859342Y-182757200D01*
X179787914Y-182828629D01*
X181716485Y-183614343D02*
X181573628Y-183685771D01*
X181287914Y-183685771D01*
X181145057Y-183614343D01*
X181073628Y-183471486D01*
X181073628Y-182900057D01*
X181145057Y-182757200D01*
X181287914Y-182685771D01*
X181573628Y-182685771D01*
X181716485Y-182757200D01*
X181787914Y-182900057D01*
X181787914Y-183042914D01*
X181073628Y-183185771D01*
X183002199Y-183614343D02*
X182859342Y-183685771D01*
X182573628Y-183685771D01*
X182430771Y-183614343D01*
X182359342Y-183471486D01*
X182359342Y-182900057D01*
X182430771Y-182757200D01*
X182573628Y-182685771D01*
X182859342Y-182685771D01*
X183002199Y-182757200D01*
X183073628Y-182900057D01*
X183073628Y-183042914D01*
X182359342Y-183185771D01*
X183502199Y-182685771D02*
X184073628Y-182685771D01*
X183716485Y-182185771D02*
X183716485Y-183471486D01*
X183787913Y-183614343D01*
X183930771Y-183685771D01*
X184073628Y-183685771D01*
X184573628Y-183542914D02*
X184645056Y-183614343D01*
X184573628Y-183685771D01*
X184502199Y-183614343D01*
X184573628Y-183542914D01*
X184573628Y-183685771D01*
X184573628Y-182757200D02*
X184645056Y-182828629D01*
X184573628Y-182900057D01*
X184502199Y-182828629D01*
X184573628Y-182757200D01*
X184573628Y-182900057D01*
D10*
D11*
X197002200Y-191507200D02*
X197002200Y-194507200D01*
D10*
D11*
X261002200Y-191507200D02*
X261002200Y-198007200D01*
D14*
X71390000Y-68660000D03*
X71390000Y-70660000D03*
X79280000Y-78560000D03*
X81280000Y-78550000D03*
X79280000Y-60770000D03*
X81280000Y-60770000D03*
D15*
X69850000Y-88900000D03*
D16*
X69850000Y-81280000D03*
D17*
X50800000Y-71120000D03*
D18*
X50800000Y-63500000D03*
D17*
X50800000Y-66040000D03*
X50800000Y-68580000D03*
X50800000Y-73660000D03*
X50800000Y-76200000D03*
X50800000Y-78740000D03*
X50800000Y-81280000D03*
X50800000Y-83820000D03*
X50800000Y-86360000D03*
D14*
X142510000Y-68660000D03*
X142510000Y-70660000D03*
X150400000Y-78560000D03*
X152400000Y-78550000D03*
X150400000Y-60770000D03*
X152400000Y-60770000D03*
D19*
X52070000Y-52070000D03*
D20*
X52070000Y-57070000D03*
D15*
X67310000Y-67310000D03*
D16*
X67310000Y-59690000D03*
D15*
X67310000Y-77470000D03*
D16*
X67310000Y-69850000D03*
D15*
X92710000Y-82550000D03*
D16*
X85090000Y-82550000D03*
D15*
X129540000Y-77470000D03*
D16*
X129540000Y-85090000D03*
D15*
X129540000Y-66040000D03*
D16*
X129540000Y-73660000D03*
D15*
X128270000Y-53340000D03*
D16*
X128270000Y-60960000D03*
D15*
X105410000Y-59690000D03*
D16*
X113030000Y-59690000D03*
D15*
X135890000Y-66040000D03*
D16*
X135890000Y-58420000D03*
D15*
X135890000Y-77470000D03*
D16*
X135890000Y-69850000D03*
D15*
X138430000Y-87630000D03*
D16*
X138430000Y-80010000D03*
D21*
X79930000Y-87630000D03*
X77430000Y-85130000D03*
X74930000Y-87630000D03*
X96600000Y-83820000D03*
X99100000Y-86320000D03*
X101600000Y-83820000D03*
D14*
X125460000Y-73580000D03*
X125460000Y-71580000D03*
X117570000Y-63680000D03*
X115570000Y-63690000D03*
X117570000Y-81470000D03*
X115570000Y-81470000D03*
D22*
X95250000Y-60960000D03*
D23*
X102870000Y-76200000D03*
X95250000Y-63500000D03*
X102870000Y-73660000D03*
X95250000Y-66040000D03*
X102870000Y-71120000D03*
X95250000Y-68580000D03*
X102870000Y-68580000D03*
X95250000Y-71120000D03*
X102870000Y-66040000D03*
X95250000Y-73660000D03*
X102870000Y-63500000D03*
X95250000Y-76200000D03*
X102870000Y-60960000D03*
D14*
X197850000Y-73580000D03*
X197850000Y-71580000D03*
X189960000Y-63680000D03*
X187960000Y-63690000D03*
X189960000Y-81470000D03*
X187960000Y-81470000D03*
D22*
X166370000Y-60960000D03*
D23*
X173990000Y-76200000D03*
X166370000Y-63500000D03*
X173990000Y-73660000D03*
X166370000Y-66040000D03*
X173990000Y-71120000D03*
X166370000Y-68580000D03*
X173990000Y-68580000D03*
X166370000Y-71120000D03*
X173990000Y-66040000D03*
X166370000Y-73660000D03*
X173990000Y-63500000D03*
X166370000Y-76200000D03*
X173990000Y-60960000D03*
D15*
X161290000Y-82550000D03*
D16*
X153670000Y-82550000D03*
D15*
X203200000Y-78740000D03*
D16*
X203200000Y-86360000D03*
D15*
X203200000Y-67310000D03*
D16*
X203200000Y-74930000D03*
D15*
X203200000Y-55880000D03*
D16*
X203200000Y-63500000D03*
D15*
X179070000Y-59690000D03*
D16*
X186690000Y-59690000D03*
D21*
X118190000Y-54610000D03*
X120690000Y-57110000D03*
X123190000Y-54610000D03*
X104060000Y-55880000D03*
X101560000Y-53380000D03*
X99060000Y-55880000D03*
X148510000Y-86360000D03*
X146010000Y-83860000D03*
X143510000Y-86360000D03*
X166450000Y-82550000D03*
X168950000Y-85050000D03*
X171450000Y-82550000D03*
X191850000Y-54610000D03*
X194350000Y-57110000D03*
X196850000Y-54610000D03*
X173910000Y-55880000D03*
X171410000Y-53380000D03*
X168910000Y-55880000D03*
D24*
X87630000Y-55880000D03*
X92630000Y-55880000D03*
X91440000Y-87630000D03*
X86440000Y-87630000D03*
X107950000Y-86360000D03*
X112950000Y-86360000D03*
X109220000Y-54610000D03*
X114220000Y-54610000D03*
X158750000Y-55880000D03*
X153750000Y-55880000D03*
X160020000Y-86360000D03*
X155020000Y-86360000D03*
X179070000Y-86360000D03*
X184070000Y-86360000D03*
X180340000Y-55880000D03*
X185340000Y-55880000D03*
D22*
X64770000Y-53340000D03*
D24*
X64770000Y-55840000D03*
D25*
X87630000Y-55880000D02*
X88900000Y-55880000D01*
X95250000Y-54610000D02*
X95250000Y-60960000D01*
X93980000Y-53340000D02*
X95250000Y-54610000D01*
X91440000Y-53340000D02*
X93980000Y-53340000D01*
X88900000Y-55880000D02*
X91440000Y-53340000D01*
X81280000Y-60770000D02*
X82740000Y-60770000D01*
X82740000Y-60770000D02*
X87630000Y-55880000D01*
X81280000Y-60770000D02*
X81470000Y-60770000D01*
X79280000Y-60770000D02*
X79280000Y-61500000D01*
X79280000Y-61500000D02*
X79930000Y-62150000D01*
X79930000Y-62150000D02*
X92630000Y-62150000D01*
X92630000Y-55880000D02*
X92630000Y-62150000D01*
X93980000Y-63500000D02*
X95250000Y-63500000D01*
X92630000Y-62150000D02*
X93980000Y-63500000D01*
X91440000Y-87630000D02*
X90170000Y-87630000D01*
X57150000Y-85090000D02*
X50800000Y-78740000D01*
X62230000Y-85090000D02*
X57150000Y-85090000D01*
X67310000Y-90170000D02*
X62230000Y-85090000D01*
X87630000Y-90170000D02*
X67310000Y-90170000D01*
X90170000Y-87630000D02*
X87630000Y-90170000D01*
X99100000Y-86320000D02*
X99100000Y-81320000D01*
X97790000Y-78740000D02*
X95250000Y-76200000D01*
X97790000Y-80010000D02*
X97790000Y-78740000D01*
X99100000Y-81320000D02*
X97790000Y-80010000D01*
X99100000Y-86320000D02*
X92750000Y-86320000D01*
X92750000Y-86320000D02*
X91440000Y-87630000D01*
X96600000Y-83820000D02*
X93980000Y-83820000D01*
X93980000Y-83820000D02*
X92710000Y-82550000D01*
X86440000Y-87630000D02*
X87630000Y-87630000D01*
X87630000Y-87630000D02*
X92710000Y-82550000D01*
X92710000Y-82550000D02*
X92710000Y-76200000D01*
X92710000Y-76200000D02*
X95250000Y-73660000D01*
X101560000Y-53380000D02*
X107990000Y-53380000D01*
X107990000Y-53380000D02*
X109220000Y-54610000D01*
X102870000Y-60960000D02*
X102870000Y-58420000D01*
X101560000Y-57110000D02*
X101560000Y-53380000D01*
X102870000Y-58420000D02*
X101560000Y-57110000D01*
X102870000Y-60960000D02*
X101600000Y-62230000D01*
X52070000Y-81280000D02*
X50800000Y-81280000D01*
X57150000Y-86360000D02*
X52070000Y-81280000D01*
X62230000Y-86360000D02*
X57150000Y-86360000D01*
X67310000Y-91440000D02*
X62230000Y-86360000D01*
X87630000Y-91440000D02*
X67310000Y-91440000D01*
X88900000Y-90170000D02*
X87630000Y-91440000D01*
X102870000Y-90170000D02*
X88900000Y-90170000D01*
X104140000Y-88900000D02*
X102870000Y-90170000D01*
X104140000Y-83820000D02*
X104140000Y-88900000D01*
X100330000Y-80010000D02*
X104140000Y-83820000D01*
X100330000Y-63500000D02*
X100330000Y-80010000D01*
X101600000Y-62230000D02*
X100330000Y-63500000D01*
X117570000Y-81470000D02*
X117570000Y-81740000D01*
X117570000Y-81740000D02*
X112950000Y-86360000D01*
X117570000Y-81470000D02*
X117570000Y-80740000D01*
X117570000Y-80740000D02*
X116840000Y-80010000D01*
X116840000Y-80010000D02*
X107950000Y-80010000D01*
X107950000Y-80010000D02*
X106680000Y-78740000D01*
X106680000Y-78740000D02*
X106680000Y-77470000D01*
X106680000Y-77470000D02*
X102870000Y-73660000D01*
X104060000Y-55880000D02*
X113030000Y-55880000D01*
X113030000Y-55880000D02*
X114220000Y-54690000D01*
X114220000Y-54690000D02*
X114220000Y-54610000D01*
X105410000Y-59690000D02*
X105410000Y-60960000D01*
X105410000Y-60960000D02*
X102870000Y-63500000D01*
X104060000Y-55880000D02*
X104060000Y-58340000D01*
X104060000Y-58340000D02*
X105410000Y-59690000D01*
X166370000Y-60960000D02*
X163830000Y-60960000D01*
X163830000Y-60960000D02*
X158750000Y-55880000D01*
X152400000Y-60770000D02*
X153860000Y-60770000D01*
X153860000Y-60770000D02*
X158750000Y-55880000D01*
X150400000Y-60770000D02*
X150400000Y-61500000D01*
X150400000Y-61500000D02*
X151130000Y-62230000D01*
X165100000Y-62230000D02*
X166370000Y-63500000D01*
X151130000Y-62230000D02*
X165100000Y-62230000D01*
X153750000Y-55880000D02*
X153750000Y-57420000D01*
X153750000Y-57420000D02*
X150400000Y-60770000D01*
X160020000Y-86360000D02*
X157480000Y-86360000D01*
X52070000Y-83820000D02*
X50800000Y-83820000D01*
X60960000Y-92710000D02*
X52070000Y-83820000D01*
X151130000Y-92710000D02*
X60960000Y-92710000D01*
X157480000Y-86360000D02*
X151130000Y-92710000D01*
X168950000Y-85050000D02*
X168950000Y-78780000D01*
X168950000Y-78780000D02*
X166370000Y-76200000D01*
X160020000Y-86360000D02*
X167640000Y-86360000D01*
X167640000Y-86360000D02*
X168950000Y-85050000D01*
X161290000Y-82550000D02*
X158830000Y-82550000D01*
X158830000Y-82550000D02*
X155020000Y-86360000D01*
X166450000Y-82550000D02*
X166450000Y-80090000D01*
X163830000Y-76200000D02*
X166370000Y-73660000D01*
X163830000Y-77470000D02*
X163830000Y-76200000D01*
X166450000Y-80090000D02*
X163830000Y-77470000D01*
X166450000Y-82550000D02*
X161290000Y-82550000D01*
X173990000Y-60960000D02*
X171450000Y-63500000D01*
X58420000Y-93980000D02*
X50800000Y-86360000D01*
X167640000Y-93980000D02*
X58420000Y-93980000D01*
X173990000Y-87630000D02*
X167640000Y-93980000D01*
X173990000Y-82550000D02*
X173990000Y-87630000D01*
X171450000Y-80010000D02*
X173990000Y-82550000D01*
X171450000Y-63500000D02*
X171450000Y-80010000D01*
X180340000Y-55880000D02*
X177800000Y-55880000D01*
X175300000Y-53380000D02*
X171410000Y-53380000D01*
X177800000Y-55880000D02*
X175300000Y-53380000D01*
X173990000Y-60960000D02*
X173990000Y-59690000D01*
X171410000Y-57110000D02*
X171410000Y-53380000D01*
X173990000Y-59690000D02*
X171410000Y-57110000D01*
X173990000Y-73660000D02*
X181610000Y-81280000D01*
X188500000Y-80010000D02*
X189960000Y-81470000D01*
X184150000Y-80010000D02*
X188500000Y-80010000D01*
X182880000Y-81280000D02*
X184150000Y-80010000D01*
X181610000Y-81280000D02*
X182880000Y-81280000D01*
X184070000Y-86360000D02*
X185070000Y-86360000D01*
X185070000Y-86360000D02*
X189960000Y-81470000D01*
X173990000Y-63500000D02*
X175260000Y-63500000D01*
X175260000Y-63500000D02*
X179070000Y-59690000D01*
X185340000Y-55880000D02*
X184150000Y-55880000D01*
X184150000Y-55880000D02*
X180340000Y-59690000D01*
X180340000Y-59690000D02*
X179070000Y-59690000D01*
X173910000Y-55880000D02*
X173910000Y-58340000D01*
X175260000Y-62230000D02*
X173990000Y-63500000D01*
X175260000Y-59690000D02*
X175260000Y-62230000D01*
X173910000Y-58340000D02*
X175260000Y-59690000D01*
D26*
X166370000Y-68580000D02*
X167640000Y-67310000D01*
X166370000Y-55880000D02*
X161290000Y-50800000D01*
X166370000Y-57150000D02*
X166370000Y-55880000D01*
X168910000Y-59690000D02*
X166370000Y-57150000D01*
X168910000Y-66040000D02*
X168910000Y-59690000D01*
X167640000Y-67310000D02*
X168910000Y-66040000D01*
X203200000Y-63500000D02*
X204470000Y-63500000D01*
X203200000Y-86360000D02*
X203200000Y-85090000D01*
X203200000Y-50800000D02*
X161290000Y-50800000D01*
X161290000Y-50800000D02*
X130810000Y-50800000D01*
X204470000Y-52070000D02*
X203200000Y-50800000D01*
X204470000Y-83820000D02*
X204470000Y-63500000D01*
X204470000Y-63500000D02*
X204470000Y-52070000D01*
X203200000Y-85090000D02*
X204470000Y-83820000D01*
X138430000Y-80010000D02*
X135890000Y-80010000D01*
X133350000Y-77470000D02*
X133350000Y-58420000D01*
X135890000Y-80010000D02*
X133350000Y-77470000D01*
X128270000Y-60960000D02*
X127000000Y-59690000D01*
X93980000Y-50800000D02*
X92710000Y-52070000D01*
X130810000Y-50800000D02*
X93980000Y-50800000D01*
X130810000Y-54610000D02*
X130810000Y-50800000D01*
X127000000Y-58420000D02*
X130810000Y-54610000D01*
X127000000Y-59690000D02*
X127000000Y-58420000D01*
X129540000Y-85090000D02*
X133350000Y-85090000D01*
X133350000Y-85090000D02*
X138430000Y-80010000D01*
X135890000Y-58420000D02*
X133350000Y-58420000D01*
X133350000Y-58420000D02*
X130810000Y-58420000D01*
X130810000Y-58420000D02*
X128270000Y-60960000D01*
X69850000Y-81280000D02*
X68580000Y-81280000D01*
X66040000Y-60960000D02*
X67310000Y-59690000D01*
X66040000Y-78740000D02*
X66040000Y-60960000D01*
X68580000Y-81280000D02*
X66040000Y-78740000D01*
X67310000Y-59690000D02*
X67310000Y-54610000D01*
X66040000Y-53340000D02*
X64770000Y-53340000D01*
X67310000Y-54610000D02*
X66040000Y-53340000D01*
X64770000Y-53340000D02*
X53340000Y-53340000D01*
X53340000Y-53340000D02*
X52070000Y-52070000D01*
X95250000Y-68580000D02*
X96520000Y-67310000D01*
X93980000Y-52070000D02*
X92710000Y-52070000D01*
X96520000Y-54610000D02*
X93980000Y-52070000D01*
X96520000Y-67310000D02*
X96520000Y-54610000D01*
X66040000Y-52070000D02*
X64770000Y-53340000D01*
X92710000Y-52070000D02*
X66040000Y-52070000D01*
D25*
X67310000Y-67310000D02*
X68580000Y-66040000D01*
X92710000Y-63500000D02*
X95250000Y-66040000D01*
X80010000Y-63500000D02*
X92710000Y-63500000D01*
X78740000Y-62230000D02*
X80010000Y-63500000D01*
X72390000Y-62230000D02*
X78740000Y-62230000D01*
X68580000Y-66040000D02*
X72390000Y-62230000D01*
X67310000Y-67310000D02*
X67310000Y-69850000D01*
X102870000Y-66040000D02*
X104140000Y-66040000D01*
X120650000Y-52070000D02*
X123190000Y-54610000D01*
X118110000Y-52070000D02*
X120650000Y-52070000D01*
X115570000Y-54610000D02*
X118110000Y-52070000D01*
X115570000Y-55880000D02*
X115570000Y-54610000D01*
X114300000Y-57150000D02*
X115570000Y-55880000D01*
X113030000Y-57150000D02*
X114300000Y-57150000D01*
X109220000Y-60960000D02*
X113030000Y-57150000D01*
X104140000Y-66040000D02*
X109220000Y-60960000D01*
X123190000Y-54610000D02*
X127000000Y-54610000D01*
X127000000Y-54610000D02*
X128270000Y-53340000D01*
X115570000Y-63690000D02*
X115570000Y-62230000D01*
X115570000Y-62230000D02*
X113030000Y-59690000D01*
X117570000Y-63680000D02*
X115580000Y-63680000D01*
X115580000Y-63680000D02*
X115570000Y-63690000D01*
X166370000Y-66040000D02*
X163830000Y-63500000D01*
X138430000Y-66040000D02*
X135890000Y-66040000D01*
X140970000Y-63500000D02*
X138430000Y-66040000D01*
X163830000Y-63500000D02*
X140970000Y-63500000D01*
X135890000Y-66040000D02*
X135890000Y-69850000D01*
X107950000Y-86360000D02*
X107950000Y-81280000D01*
X107950000Y-81280000D02*
X102870000Y-76200000D01*
X115570000Y-81470000D02*
X112840000Y-81470000D01*
X112840000Y-81470000D02*
X107950000Y-86360000D01*
X187960000Y-81470000D02*
X183960000Y-81470000D01*
X183960000Y-81470000D02*
X179070000Y-86360000D01*
X173990000Y-76200000D02*
X173990000Y-81280000D01*
X173990000Y-81280000D02*
X179070000Y-86360000D01*
X69850000Y-88900000D02*
X73660000Y-88900000D01*
X73660000Y-88900000D02*
X74930000Y-87630000D01*
X74930000Y-87630000D02*
X74930000Y-83820000D01*
X90170000Y-76200000D02*
X95250000Y-71120000D01*
X78740000Y-76200000D02*
X90170000Y-76200000D01*
X77470000Y-77470000D02*
X78740000Y-76200000D01*
X77470000Y-81280000D02*
X77470000Y-77470000D01*
X74930000Y-83820000D02*
X77470000Y-81280000D01*
X81280000Y-78550000D02*
X81280000Y-78740000D01*
X81280000Y-78740000D02*
X85090000Y-82550000D01*
X79280000Y-78560000D02*
X81270000Y-78560000D01*
X81270000Y-78560000D02*
X81280000Y-78550000D01*
X102870000Y-71120000D02*
X110490000Y-78740000D01*
X128270000Y-78740000D02*
X129540000Y-77470000D01*
X110490000Y-78740000D02*
X128270000Y-78740000D01*
X129540000Y-77470000D02*
X129540000Y-73660000D01*
X166370000Y-71120000D02*
X163830000Y-71120000D01*
X143510000Y-82550000D02*
X143510000Y-86360000D01*
X149860000Y-76200000D02*
X143510000Y-82550000D01*
X158750000Y-76200000D02*
X149860000Y-76200000D01*
X163830000Y-71120000D02*
X158750000Y-76200000D01*
X138430000Y-87630000D02*
X142240000Y-87630000D01*
X142240000Y-87630000D02*
X143510000Y-86360000D01*
X152400000Y-78550000D02*
X152400000Y-81280000D01*
X152400000Y-81280000D02*
X153670000Y-82550000D01*
X150400000Y-78560000D02*
X152390000Y-78560000D01*
X152390000Y-78560000D02*
X152400000Y-78550000D01*
X203200000Y-78740000D02*
X180340000Y-78740000D01*
X176530000Y-73660000D02*
X173990000Y-71120000D01*
X176530000Y-74930000D02*
X176530000Y-73660000D01*
X180340000Y-78740000D02*
X176530000Y-74930000D01*
X203200000Y-78740000D02*
X203200000Y-74930000D01*
X196850000Y-54610000D02*
X196850000Y-58420000D01*
X190500000Y-66040000D02*
X173990000Y-66040000D01*
X191770000Y-64770000D02*
X190500000Y-66040000D01*
X191770000Y-63500000D02*
X191770000Y-64770000D01*
X196850000Y-58420000D02*
X191770000Y-63500000D01*
X203200000Y-55880000D02*
X198120000Y-55880000D01*
X198120000Y-55880000D02*
X196850000Y-54610000D01*
X186690000Y-59690000D02*
X186690000Y-62420000D01*
X186690000Y-62420000D02*
X187960000Y-63690000D01*
X187960000Y-63690000D02*
X189950000Y-63690000D01*
X189950000Y-63690000D02*
X189960000Y-63680000D01*
M02*
