M48
;DRILL file {KiCad 4.0.5} date 02/28/17 22:55:17
;FORMAT={-:-/ absolute / inch / decimal}
FMAT,2
INCH,TZ
T1C0.028
T2C0.031
T3C0.043
T4C0.051
%
G90
G05
M72
T1
X2.65Y-2.35
X2.65Y-2.65
X2.65Y-2.75
X2.65Y-3.05
X2.75Y-3.2
X2.75Y-3.5
X3.35Y-3.25
X3.65Y-3.25
X4.15Y-2.35
X4.45Y-2.35
X5.05Y-2.1
X5.05Y-2.4
X5.1Y-2.6
X5.1Y-2.9
X5.1Y-3.05
X5.1Y-3.35
X5.35Y-2.3
X5.35Y-2.6
X5.35Y-2.75
X5.35Y-3.05
X5.45Y-3.15
X5.45Y-3.45
X6.05Y-3.25
X6.35Y-3.25
X7.05Y-2.35
X7.35Y-2.35
X8.Y-2.2
X8.Y-2.5
X8.Y-2.65
X8.Y-2.95
X8.Y-3.1
X8.Y-3.4
T2
X2.55Y-2.1
X2.55Y-2.1984
X2.8106Y-2.7031
X2.8106Y-2.7819
X3.1213Y-2.3925
X3.1213Y-3.0929
X3.2Y-2.3925
X3.2Y-3.0925
X3.4031Y-3.45
X3.45Y-2.2
X3.6Y-3.45
X3.6469Y-2.2
X3.75Y-2.4
X3.75Y-2.5
X3.75Y-2.6
X3.75Y-2.7
X3.75Y-2.8
X3.75Y-2.9
X3.75Y-3.
X4.05Y-2.4
X4.05Y-2.5
X4.05Y-2.6
X4.05Y-2.7
X4.05Y-2.8
X4.05Y-2.9
X4.05Y-3.
X4.25Y-3.4
X4.3Y-2.15
X4.4469Y-3.4
X4.4969Y-2.15
X4.55Y-2.5075
X4.55Y-3.2075
X4.6287Y-2.5071
X4.6287Y-3.2075
X4.9394Y-2.8181
X4.9394Y-2.8969
X5.6106Y-2.7031
X5.6106Y-2.7819
X5.9213Y-2.3925
X5.9213Y-3.0929
X6.Y-2.3925
X6.Y-3.0925
X6.0531Y-2.2
X6.1031Y-3.4
X6.25Y-2.2
X6.3Y-3.4
X6.55Y-2.4
X6.55Y-2.5
X6.55Y-2.6
X6.55Y-2.7
X6.55Y-2.8
X6.55Y-2.9
X6.55Y-3.
X6.85Y-2.4
X6.85Y-2.5
X6.85Y-2.6
X6.85Y-2.7
X6.85Y-2.8
X6.85Y-2.9
X6.85Y-3.
X7.05Y-3.4
X7.1Y-2.2
X7.2469Y-3.4
X7.2969Y-2.2
X7.4Y-2.5075
X7.4Y-3.2075
X7.4787Y-2.5071
X7.4787Y-3.2075
X7.7894Y-2.8181
X7.7894Y-2.8969
T3
X2.Y-2.5
X2.Y-2.6
X2.Y-2.7
X2.Y-2.8
X2.Y-2.9
X2.Y-3.
X2.Y-3.1
X2.Y-3.2
X2.Y-3.3
X2.Y-3.4
T4
X2.05Y-2.05
X2.05Y-2.2469
X2.95Y-3.45
X3.0484Y-3.3516
X3.1469Y-3.45
X3.8031Y-3.3
X3.9Y-2.2
X3.9016Y-3.3984
X3.9984Y-2.1016
X4.Y-3.3
X4.0969Y-2.2
X4.6531Y-2.15
X4.7516Y-2.2484
X4.85Y-2.15
X5.65Y-3.4
X5.7484Y-3.3016
X5.8469Y-3.4
X6.5531Y-3.25
X6.65Y-2.2
X6.6516Y-3.3484
X6.7484Y-2.1016
X6.75Y-3.25
X6.8469Y-2.2
X7.5531Y-2.15
X7.6516Y-2.2484
X7.75Y-2.15
T0
M30
